<?xml version="1.0" encoding="UTF-8"?>
<svg viewBox="0 0 462 370" version="1.1" xmlns="http://www.w3.org/2000/svg" xmlns:xlink="http://www.w3.org/1999/xlink">
    <title>scarlet_white</title>
    <g id="scarlet_white" stroke="none" stroke-width="1" fill="currentColor" fill-rule="evenodd">
        <path d="M74.0487191,21.5154597 C71.6252605,34.4595887 70.4135313,49.4550813 70.4135313,66.5019375 C70.4135313,102.502646 77.4843333,131.250333 91.6259375,152.745 C105.626126,174.02472 129.694034,189.428393 163.829662,198.95602 L164.867156,199.242937 L262.579281,225.482437 C275.827656,228.683771 286.707188,232.796198 295.217875,237.819719 C303.728563,242.84324 309.934719,250.053385 313.836344,259.450156 C316.623219,266.162135 318.414781,274.815521 319.211031,285.410312 L319.323004,287.014092 C319.35784,287.553538 319.390188,288.097839 319.420047,288.646992 L319.50216,290.309014 C319.626574,293.103317 319.688781,296.018958 319.688781,299.055937 C319.688781,318.921354 316.98051,333.945469 311.563969,344.128281 C306.147427,354.311094 296.807823,361.103208 283.545156,364.504625 C280.597897,365.260495 277.406091,365.93238 273.96974,366.520279 L272.482045,366.767094 C271.730712,366.887931 270.968149,367.00491 270.194358,367.118034 L268.631802,367.339139 C267.317196,367.519108 265.971397,367.688365 264.594406,367.846909 L262.927045,368.03202 L261.22974,368.206847 C260.65898,368.263409 260.08323,368.318257 259.50249,368.37139 L257.745295,368.52565 L255.958156,368.669625 L254.141073,368.803316 C253.83573,368.824741 253.52914,368.845738 253.221302,368.866306 L251.359302,368.984571 L249.467358,369.092552 L247.545469,369.19025 C247.222659,369.205676 246.898601,369.220673 246.573295,369.235242 L244.60649,369.317514 L242.60974,369.389502 L240.583045,369.451205 C240.242767,369.460632 239.901242,369.469631 239.558469,369.478201 L237.486858,369.524478 L235.385302,369.560472 L233.253802,369.586182 C232.896057,369.58961 232.537064,369.59261 232.176823,369.595181 L230.000406,369.60675 L228.900969,369.60675 C220.649913,369.60675 212.406797,369.601986 204.171622,369.592458 L190.845628,369.572211 L188.857819,369.563303 L185.802508,369.539587 L182.658878,369.503445 L180.514059,369.472446 L177.223232,369.415594 L173.844087,369.346316 L171.542258,369.293227 L168.015915,369.203238 L164.401254,369.100824 L160.698275,368.985983 L156.906978,368.858716 L153.027362,368.719024 L129.613021,367.808758 L112.864836,367.194636 L101.389425,366.792906 L81.4375439,366.128558 L80.7961529,366.128558 C31.0144626,323.757651 0,261.494719 0,191 C0,124.659556 27.965369,64.8507736 72.7505794,22.719181 L74.0487191,21.5154597 Z" id="Path"></path>
        <path fill="currentColor" d="M271.210466,0.811280863 L277.695044,0.922897598 C279.863686,0.962760718 282.039445,1.00528138 284.22232,1.05045958 L290.792294,1.19396681 C292.989401,1.2444601 295.193625,1.29761092 297.404965,1.35341929 L304.561092,1.54162119 L310.239275,1.6989285 L319.509621,1.97060873 L326.751933,2.19650416 L332.082187,2.37091395 L337.32546,2.54959938 L345.870954,2.8569098 L350.882274,3.04699688 L359.04118,3.37331008 L365.39434,3.64291188 C365.917327,3.66569541 366.438703,3.68855811 366.958469,3.7115 L366.192763,3.67212719 C424.233781,45.6330319 462,113.906129 462,191 C462,262.261503 429.731873,325.986381 379.009968,368.360284 C379.23664,367.761177 379.461284,367.159052 379.681625,366.551906 C385.877063,349.48051 388.974781,327.267687 388.974781,299.913437 C388.974781,263.498271 382.121927,234.407583 368.416219,212.641375 C354.847568,191.092829 329.940037,175.574409 293.693628,166.086116 L292.591781,165.800437 L197.516469,140.697125 C176.95076,135.537833 162.15174,128.091875 153.119406,118.35925 C144.789588,109.383607 140.300741,94.2453919 139.652866,72.944605 L139.612723,71.3940544 C139.584845,70.0929834 139.570906,68.7695486 139.570906,67.42375 C139.570906,62.0596111 139.750743,57.0825382 140.110417,52.4925312 L140.236968,50.9768647 L140.376842,49.4898697 C141.158355,41.6356873 142.508241,35.0048245 144.4265,29.5972812 C147.663563,20.4720521 152.955052,13.8764479 160.300969,9.81046875 C167.646885,5.74448958 177.079385,3.17198958 188.598469,2.09296875 L189.51268,2.00890376 L191.369963,1.84749898 L193.265727,1.69506114 L195.199972,1.55159022 L197.172697,1.41708624 L199.183902,1.29154919 L201.233589,1.17497907 L203.321756,1.06737589 C203.67299,1.05018927 204.025828,1.03337627 204.380269,1.01693689 L206.526157,0.922784107 L208.710526,0.837598251 L210.933375,0.761379328 C211.307056,0.749423419 211.682341,0.737841131 212.059229,0.726632466 L214.339799,0.663863941 C214.723101,0.654149765 215.108006,0.644809211 215.494514,0.635842278 L217.832805,0.586524152 L220.209577,0.546172957 L222.624829,0.514788695 L225.078562,0.492371364 L227.570775,0.478920966 L230.101469,0.4744375 C243.503804,0.4744375 257.206803,0.586718621 271.210466,0.811280863 Z" id="Path"></path>
    </g>
</svg>
