<?xml version="1.0" standalone="no"?>
<!DOCTYPE svg PUBLIC "-//W3C//DTD SVG 1.1//EN" "http://www.w3.org/Graphics/SVG/1.1/DTD/svg11.dtd" >
<svg xmlns="http://www.w3.org/2000/svg">
<metadata>
Created by FontPrep 20130207 at Sun Jan 24 18:29:05 2016
 By Alex
Copyright (c) 2013, Natanael Gama (www.ndiscovered.com . info(at)ndiscovered.com), with Reserved Font Name Exo. This Font Software is licensed under the SIL Open Font License, Version 1.1.
</metadata>
<defs>
<font id="de1d09bf165e7107e3d0f120dc6d00b9" horiz-adv-x='1024' >
  <font-face 
    font-family="Exo2-Medium"
    font-weight="500"
    font-stretch="normal"
    units-per-em="2048"
    panose-1="0 0 6 0 0 0 0 0 0 0"
    ascent="1638"
    descent="-410"
    x-height="999"
    cap-height="1413"
    bbox="-358 -569 2509 1923"
    underline-thickness="102"
    underline-position="-102"
    unicode-range="U+0020-FB02"
  />
<missing-glyph horiz-adv-x="1228" 
 />
    <glyph glyph-name=".notdef" horiz-adv-x="1228" 
 />
    <glyph glyph-name=".null" horiz-adv-x="0" 
 />
    <glyph glyph-name="nonmarkingreturn" horiz-adv-x="681" 
 />
    <glyph glyph-name="space" unicode=" " horiz-adv-x="454" 
 />
    <glyph glyph-name="exclam" unicode="!" horiz-adv-x="567" 
d="M260 254h49q41 0 57.5 -16.5t16.5 -55.5v-108q0 -41 -16.5 -57.5t-57.5 -16.5h-49q-41 0 -56.5 16.5t-15.5 57.5v108q0 39 16.5 55.5t55.5 16.5zM184 1423h199v-612l-21 -375h-157l-21 375v612z" />
    <glyph glyph-name="quotedbl" unicode="&#x22;" horiz-adv-x="733" 
d="M586 971h-135l-13 442h160zM285 971h-135l-13 442h160z" />
    <glyph glyph-name="numbersign" unicode="#" horiz-adv-x="1409" 
d="M920 909h-359l-61 -354h356zM1075 909l-61 -354h223l-25 -125h-221l-73 -430h-158l76 430h-359l-74 -430h-157l76 430h-238l25 125h233l64 354h-236l25 125h231l66 379h157l-65 -379h356l66 379h157l-65 -379h225l-25 -125h-223z" />
    <glyph glyph-name="dollar" unicode="$" horiz-adv-x="1157" 
d="M848 360q0 116 -37 157.5t-131 66.5l-57 16l-35 -434q154 0 207 39t53 155zM319 1074q0 -118 38 -162t135 -68l59 -17l35 428q-160 0 -213.5 -31.5t-53.5 -149.5zM1057 365q0 -236 -106.5 -313t-377.5 -77l-18 -231h-104l18 233q-170 8 -338 39l14 158q262 -6 340 -8
l37 463l-129 35q-152 41 -216 137.5t-64 240.5t25.5 218.5t89 113.5t141 51.5t209.5 12.5h22l14 196h103l-15 -200q172 -6 302 -39l-13 -150q-180 8 -303 8l-35 -454l117 -33q158 -43 222.5 -139.5t64.5 -261.5z" />
    <glyph glyph-name="percent" unicode="%" horiz-adv-x="1835" 
d="M1409 694q-104 0 -143 -63.5t-39 -231.5t39 -232.5t143 -64.5t143 64.5t39 233.5t-39 231.5t-143 62.5zM1410 819q183 0 258 -96.5t75 -324.5t-75 -323t-258 -95t-258 95t-75 323t75 324.5t258 96.5zM423 1317q-103 0 -142 -65.5t-39 -232.5t38 -231.5t142 -64.5
t143 64.5t39 232.5t-39 232.5t-142 64.5zM532 0h-139l903 1413h140zM424 1440q184 0 259 -95.5t75 -323.5t-75 -324.5t-259 -96.5t-259 96.5t-75 324.5t75 323.5t259 95.5z" />
    <glyph glyph-name="ampersand" unicode="&#x26;" horiz-adv-x="1576" 
d="M1004 653h-377q-158 0 -218.5 -54.5t-60.5 -198.5t53.5 -194t196.5 -50q256 2 406 147v350zM410 737q-238 22 -238 300q0 128 21.5 194.5t58.5 106.5t130.5 69t305.5 29q211 0 348 -23l-24 -153q-86 6 -293 6t-272.5 -42t-65.5 -182t55.5 -186.5t202.5 -46.5h369l16 252
h166v-252h250v-156h-250v-370q0 -72 27.5 -100.5t97.5 -28.5h145l23 -146q-92 -27 -223 -26q-209 0 -248 168q-90 -94 -197.5 -133.5t-267.5 -39.5q-225 0 -320.5 85.5t-95.5 275.5t64.5 284.5t214.5 106.5v8z" />
    <glyph glyph-name="quotesingle" unicode="'" horiz-adv-x="432" 
d="M285 971h-135l-13 442h160z" />
    <glyph glyph-name="parenleft" unicode="(" horiz-adv-x="737" 
d="M297 641q0 -692 381 -887l-25 -92q-283 106 -416 343t-133 635t133 636t416 342l25 -92q-199 -94 -290 -313.5t-91 -571.5z" />
    <glyph glyph-name="parenright" unicode=")" horiz-adv-x="737" 
d="M635 640q0 -398 -133 -634.5t-418 -343.5l-25 92q381 195 381 887q0 352 -91 571.5t-290 313.5l25 92q285 -104 418 -342t133 -636z" />
    <glyph glyph-name="asterisk" unicode="*" horiz-adv-x="921" 
d="M817 1122l-254 -65l-26 33v51l243 94zM381 1141v-51l-25 -33l-254 67l39 111zM500 1083l209 -264l-95 -69l-155 254l-154 -252l-96 69l209 262l-17 332h119z" />
    <glyph glyph-name="plus" unicode="+" horiz-adv-x="1126" 
d="M1014 539h-377v-357h-150v357h-376v147h374v358h152v-358h377v-147z" />
    <glyph glyph-name="comma" unicode="," horiz-adv-x="475" 
d="M211 254h57q39 0 54.5 -15.5t15.5 -56.5v-131q-2 -182 -78 -325l-94 24q23 115 22 250q-55 0 -55 63v119q2 39 19.5 55.5t58.5 16.5z" />
    <glyph glyph-name="hyphen" unicode="-" horiz-adv-x="905" 
d="M764 442h-623v152h623v-152z" />
    <glyph glyph-name="period" unicode="." horiz-adv-x="477" 
d="M207 254h63q41 0 57.5 -15.5t16.5 -56.5v-108q0 -41 -16.5 -57.5t-57.5 -16.5h-63q-41 0 -57.5 16.5t-16.5 57.5v108q0 41 16.5 56.5t57.5 15.5z" />
    <glyph glyph-name="slash" unicode="/" horiz-adv-x="1069" 
d="M213 -137h-162l805 1550h162z" />
    <glyph glyph-name="zero" unicode="0" horiz-adv-x="1243" 
d="M621 1262q-167 0 -231 -124t-64 -431.5t65 -431t231 -123.5t231 122.5t65 432t-65 432.5t-232 123zM620.5 1440q272.5 0 384 -169t111.5 -564.5t-111.5 -564.5t-384 -169t-384 169t-111.5 564.5t111.5 564.5t384 169z" />
    <glyph glyph-name="one" unicode="1" horiz-adv-x="823" 
d="M600 0h-205v1094q0 74 11 127l-340 -105l-25 154l354 143h205v-1413z" />
    <glyph glyph-name="two" unicode="2" horiz-adv-x="1153" 
d="M997 1128q0 -131 -53 -241.5t-192 -263.5l-394 -433q96 8 226 9h463v-199h-936v129q0 55 30 86l394 444q262 283 256 457q-2 88 -60.5 115t-216.5 27t-381 -31l-12 159q229 52 445 52t323.5 -63.5t107.5 -246.5z" />
    <glyph glyph-name="three" unicode="3" horiz-adv-x="1140" 
d="M553 1440q215 0 317.5 -72t102.5 -256q0 -317 -207 -356v-8q131 -23 185.5 -110t58.5 -245q4 -219 -100.5 -319.5t-352.5 -100.5q-195 0 -453 37l13 166q239 -20 397 -20t225.5 57t67.5 193t-55.5 196t-210.5 60h-260v159h260q145 2 190 63.5t44 182.5t-74 168.5
t-560 7.5l-14 160q211 37 426 37z" />
    <glyph glyph-name="four" unicode="4" horiz-adv-x="1267" 
d="M997 0h-194v336h-567q-92 0 -136.5 72.5t-7.5 158.5l391 846h201l-381 -831q-31 -80 49 -80h451v409l37 230h157v-639h185v-146l-185 -20v-336z" />
    <glyph glyph-name="five" unicode="5" horiz-adv-x="1101" 
d="M500 -25q-170 0 -400 52l25 166q193 -35 365 -35t234 61.5t67 204.5q3 55 -9 106.5t-31.5 72t-34 33.5t-49 24.5t-58 17.5t-77 12t-87 9t-105.5 10l-107 10q-35 2 -56 26.5t-19 61.5l32 606h760l-8 -176h-586l-20 -352l160 -15q272 -23 384.5 -124t110.5 -322
q0 -324 -160.5 -386.5t-330.5 -62.5z" />
    <glyph glyph-name="six" unicode="6" horiz-adv-x="1175" 
d="M616 152q160 0 208 71.5t48 238.5t-52 232.5t-195 65.5q-84 0 -148.5 -25.5t-144.5 -91.5q0 -160 7 -242t38 -145t86 -83.5t153 -20.5zM678 926q221 0 305 -102.5t84 -360.5q0 -121 -17.5 -202t-88 -183.5t-347.5 -102.5q-154 0 -246 32t-146 118t-72.5 212.5
t-18.5 356.5t32 381.5t106.5 230t168.5 105.5t258 27t281 -31l-16 -150q-91 7 -233 7t-200.5 -16.5t-103.5 -68t-65.5 -144.5t-24.5 -247q70 76 148.5 107t195.5 31z" />
    <glyph glyph-name="seven" unicode="7" horiz-adv-x="1052" 
d="M881 1413q66 0 92 -36t8 -97l-436 -1280h-205l387 1130q23 66 47 109h-690l-8 174h805z" />
    <glyph glyph-name="eight" unicode="8" horiz-adv-x="1243" 
d="M328 402q0 -146 59 -197t235 -51t232.5 51t56.5 199t-56 197.5t-232 48.5t-235.5 -51.5t-59.5 -196.5zM622.5 1270q-161.5 0 -215 -48t-53.5 -182t53.5 -179.5t217 -45.5t214 44t50.5 179t-52.5 183.5t-214 48.5zM168 1061q0 203 95 289t359 85t358.5 -86t94.5 -288
q0 -301 -201 -324v-8q127 -12 180.5 -107.5t53.5 -283.5t-101 -273t-383 -87t-385.5 86t-103.5 275t52.5 282.5t181.5 107.5v8q-201 23 -201 324z" />
    <glyph glyph-name="nine" unicode="9" horiz-adv-x="1175" 
d="M547 651q84 0 148.5 27t146.5 96q0 315 -43.5 391t-105.5 87.5t-128 11.5q-158 0 -211 -75t-53 -234t53.5 -231.5t192.5 -72.5zM485 152q197 0 273 97t84 382q-74 -80 -154 -112t-196 -32q-383 0 -383 461q-2 254 103 372t365 118t342 -100.5t101.5 -245t19.5 -351.5
q0 -208 -20.5 -337.5t-59 -214.5t-108.5 -132t-154 -64.5t-240 -17.5t-284 31l16 152q98 -6 295 -6z" />
    <glyph glyph-name="colon" unicode=":" horiz-adv-x="495" 
d="M207 254h65q41 0 57.5 -15.5t16.5 -56.5v-108q0 -41 -16.5 -57.5t-57.5 -16.5h-65q-41 0 -56.5 16.5t-15.5 57.5v108q0 39 16.5 55.5t55.5 16.5zM207 905h65q41 0 57.5 -15.5t16.5 -55.5v-111q0 -41 -16.5 -56.5t-57.5 -15.5h-65q-39 0 -55.5 16.5t-16.5 55.5v111
q0 39 16.5 55t55.5 16z" />
    <glyph glyph-name="semicolon" unicode=";" horiz-adv-x="497" 
d="M223 254h58q39 0 54 -15.5t15 -56.5v-131q-2 -182 -78 -325l-92 24q20 121 21 250q-57 0 -54 63v119q2 39 18.5 55.5t57.5 16.5zM219 905h64q41 0 57 -15.5t16 -55.5v-111q0 -41 -16 -56.5t-57 -15.5h-64q-41 0 -57.5 15.5t-16.5 56.5v111q0 41 16.5 56t57.5 15z" />
    <glyph glyph-name="less" unicode="&#x3c;" horiz-adv-x="1081" 
d="M942 885l-668 -275l668 -268v-158l-838 348v156l838 354v-157z" />
    <glyph glyph-name="equal" unicode="=" horiz-adv-x="1198" 
d="M1051 311h-906v148h906v-148zM1051 743h-906v148h906v-148z" />
    <glyph glyph-name="greater" unicode="&#x3e;" horiz-adv-x="1081" 
d="M977 688v-156l-838 -348v158l668 268l-668 275v157z" />
    <glyph glyph-name="question" unicode="?" horiz-adv-x="1032" 
d="M473 254h49q41 0 57.5 -15.5t16.5 -56.5v-108q0 -41 -16.5 -57.5t-57.5 -16.5h-49q-41 0 -57.5 16.5t-16.5 57.5v108q0 41 16.5 56.5t57.5 15.5zM535 1458q418 0 417 -317q0 -154 -90 -245t-181.5 -188.5t-98.5 -271.5h-168q-2 104 29.5 191.5t79.5 145.5t131 144.5
t87 184.5t-56 143t-225 45t-372 -18l-10 143q25 4 129.5 23.5t327.5 19.5z" />
    <glyph glyph-name="at" unicode="@" horiz-adv-x="1480" 
d="M690 582v-43q0 -127 125 -127q86 0 179 33.5t157 93.5v159l-340 -8q-70 -2 -95.5 -25.5t-25.5 -82.5zM725 1204h297q156 0 235.5 -70.5t79.5 -230.5v-633h-147l-21 154q-63 -66 -170.5 -118t-226.5 -52t-192.5 64.5t-73.5 185.5v102q0 102 59.5 157.5t175.5 55.5h410v78
q0 82 -36 112.5t-132 30.5h-256q-100 0 -151.5 -3t-103.5 -20.5t-72.5 -45t-39 -88t-22.5 -136t-4 -187.5t2 -176.5t13 -122.5t21.5 -90t41 -59.5t77 -48t310.5 -20.5h534v-147q-550 -31 -716 -19t-246 41t-119 69t-65.5 123t-34 180t-7.5 255t6.5 252t30 175t58 121
t105.5 67.5t156 35.5t224 8z" />
    <glyph glyph-name="A" unicode="A" horiz-adv-x="1282" 
d="M868 604l-166 537q-6 18 -17 57t-17 57h-56l-32 -114l-166 -537h454zM537 1413h208q61 0 74 -55l445 -1358h-211l-131 426h-564l-131 -426h-209l443 1358q16 55 76 55z" />
    <glyph glyph-name="B" unicode="B" horiz-adv-x="1273" 
d="M952 396q0 146 -62.5 200.5t-227.5 56.5h-289v-493l301 -2q162 0 220 46t58 192zM373 811h286q147 0 204 46t57 178t-61.5 176t-225.5 44h-260v-444zM1159 334q0 -194 -101.5 -272t-352.5 -78q-346 0 -533 16v1413q166 17 452 17t389 -77t103 -292q0 -154 -57 -233
t-182 -91v-8q154 -14 218 -107.5t64 -287.5z" />
    <glyph glyph-name="C" unicode="C" 
d="M121 706.5q0 403.5 125 567.5t434 164q221 0 391 -41l-20 -158q-164 16 -365 16t-275.5 -118.5t-74.5 -430t74.5 -430t269.5 -118.5q260 -1 399 22l21 -155q-170 -49 -420 -50q-309 0 -434 164t-125 567.5z" />
    <glyph glyph-name="D" unicode="D" horiz-adv-x="1361" 
d="M691.5 160q183.5 0 258 118.5t74.5 428t-75 428t-267 118.5l-305 -2v-1085q131 -6 314.5 -6zM1241 706.5q0 -409.5 -124 -567t-435 -157.5q-242 0 -510 18v1413q268 18 510 19q311 0 435 -158t124 -567.5z" />
    <glyph glyph-name="E" unicode="E" horiz-adv-x="1150" 
d="M444 -4q-131 0 -206.5 68.5t-77.5 185.5v913q2 117 77.5 185.5t206.5 68.5q420 0 607 -16l-11 -160h-561q-61 0 -86.5 -29.5t-25.5 -101.5v-283h596v-165h-596v-361q0 -72 25.5 -101.5t86.5 -29.5h561l11 -158q-186 -16 -607 -16z" />
    <glyph glyph-name="F" unicode="F" horiz-adv-x="1105" 
d="M504 1241q-72 0 -101.5 -29.5t-29.5 -101.5v-305h577v-166h-577v-639h-205v1153q0 125 77 194.5t208 69.5q406 0 585 -18l-10 -158h-524z" />
    <glyph glyph-name="G" unicode="G" horiz-adv-x="1288" 
d="M1155 815v-815h-151l-21 143q-178 -170 -415.5 -170t-342 178.5t-104.5 561.5q0 285 59.5 441.5t186.5 221t352 64.5t397 -43l-20 -156q-172 16 -314 16t-202 -11q-142 -26 -188 -140q-54 -136 -54 -424.5t62.5 -409t216.5 -120.5t337 124v539h201z" />
    <glyph glyph-name="H" unicode="H" horiz-adv-x="1372" 
d="M1200 1413v-1413h-205v666h-618v-666h-205v1413h205v-571h618v571h205z" />
    <glyph glyph-name="I" unicode="I" horiz-adv-x="548" 
d="M377 0h-205v1413h205v-1413z" />
    <glyph glyph-name="J" unicode="J" horiz-adv-x="702" 
d="M537 1413v-1104q0 -162 -72 -245.5t-200 -82.5t-208 27l23 148h100q152 0 152 143v1114h205z" />
    <glyph glyph-name="K" unicode="K" horiz-adv-x="1222" 
d="M377 0h-205v1413h205v-434q0 -88 -15 -160h160l416 594h223l-399 -577q-33 -47 -86 -99v-6q57 -49 98 -106l414 -625h-227l-439 653h-160q14 -86 15 -145v-508z" />
    <glyph glyph-name="L" unicode="L" horiz-adv-x="1054" 
d="M373 1413v-1110q0 -72 28.5 -101.5t100.5 -29.5h502l10 -158q-199 -18 -545 -18q-301 0 -301 278v1139h205z" />
    <glyph glyph-name="M" unicode="M" horiz-adv-x="1804" 
d="M1296 1413h224q80 0 84 -84l57 -1329h-205l-49 1243h-41l-287 -1005q-18 -70 -88 -70h-178q-72 0 -90 70l-289 1005h-39l-47 -1243h-203l54 1329q4 84 84 84h227q63 0 86 -70l240 -827q20 -74 47 -190h37q25 109 49 192l237 825q22 70 90 70z" />
    <glyph glyph-name="N" unicode="N" horiz-adv-x="1449" 
d="M1278 1413v-1333q0 -80 -76 -80h-194q-61 0 -88 63l-441 963q-74 160 -84 197h-28q10 -82 10 -197v-1026h-205v1333q0 80 78 80h188q59 0 90 -63l428 -938q8 -18 29 -60.5t38 -80.5t32 -70h30q-10 123 -10 219v993h203z" />
    <glyph glyph-name="O" unicode="O" horiz-adv-x="1370" 
d="M684 1257q-199 0 -273.5 -118.5t-74.5 -432t74.5 -432t273.5 -118.5t274.5 118.5t75.5 432t-75.5 432t-274.5 118.5zM685 1440q314 0 439 -160t125 -573.5t-125 -573.5t-439 -160t-439 160t-125 573.5t125 573.5t439 160z" />
    <glyph glyph-name="P" unicode="P" horiz-adv-x="1212" 
d="M377 713h282q150 2 205.5 57t55.5 215t-55 215t-233 55t-255 -2v-540zM172 0v1413q174 19 465 19t390 -94.5t99 -353.5t-95 -353t-343 -94q-154 0 -311 18v-555h-205z" />
    <glyph glyph-name="Q" unicode="Q" horiz-adv-x="1374" 
d="M545 -209l55 125q244 -94 559 -139l-65 -205q-262 55 -549 219zM686 1257q-199 0 -273.5 -118.5t-74.5 -432t74.5 -432t273.5 -118.5t274.5 118.5t75.5 432t-75.5 432t-274.5 118.5zM687 1440q314 0 439 -160t125 -573.5t-125 -573.5t-439 -160t-440 160t-126 573.5
t126 573.5t440 160z" />
    <glyph glyph-name="R" unicode="R" horiz-adv-x="1269" 
d="M375 758h287q152 2 208 54t56 196.5t-56.5 195.5t-236.5 51t-258 -2v-495zM375 0h-203v1413q174 18 494 19q256 0 361.5 -88.5t105.5 -321.5q0 -170 -60.5 -256t-200.5 -104v-11q137 -41 179 -205l133 -446h-219l-121 440q-45 141 -178 142l-291 2v-584z" />
    <glyph glyph-name="S" unicode="S" horiz-adv-x="1153" 
d="M109 1042.5q0 143.5 25.5 218t89 113.5t141 51.5t268 12.5t366.5 -43l-12 -150q-297 10 -431 10t-187.5 -31.5t-53.5 -150t38 -162t132 -67.5l281 -78q158 -43 222.5 -139.5t64.5 -261.5q0 -233 -106.5 -311.5t-353.5 -78.5t-466 41l14 152q319 -10 456.5 -9t192 40
t54.5 158t-37 160.5t-131 66.5l-287 80q-152 41 -216 138t-64 240.5z" />
    <glyph glyph-name="T" unicode="T" horiz-adv-x="1196" 
d="M1149 1231h-449v-1231h-206v1231h-445v182h1100v-182z" />
    <glyph glyph-name="U" unicode="U" horiz-adv-x="1363" 
d="M1202 1413v-868q0 -311 -115.5 -441.5t-400.5 -130.5t-404.5 130t-119.5 442v868h205v-868q0 -217 69.5 -303t244.5 -86t245.5 86t70.5 303v868h205z" />
    <glyph glyph-name="V" unicode="V" horiz-adv-x="1253" 
d="M727 0h-201q-59 0 -77 57l-418 1356h211l319 -1100q10 -39 39 -155h55q12 59 39 155l318 1100h211l-418 -1356q-18 -57 -78 -57z" />
    <glyph glyph-name="W" unicode="W" horiz-adv-x="1947" 
d="M1536 0h-227q-66 0 -80 61l-205 1039q-20 106 -29 160h-43l-233 -1199q-4 -27 -27.5 -44t-52.5 -17h-229q-63 0 -78 59l-271 1354h218l202 -1077q6 -35 25 -180h47q10 88 31 180l202 1010q14 68 78 67h219q29 0 50.5 -19.5t27.5 -47.5l201 -1012q16 -82 31 -178h47
q4 29 12 88t14 88l203 1081h217l-270 -1354q-18 -59 -80 -59z" />
    <glyph glyph-name="X" unicode="X" horiz-adv-x="1259" 
d="M653 655h-49l-336 -655h-223l389 731l-362 682h221l309 -602h53l310 602h221l-363 -682l389 -731h-223z" />
    <glyph glyph-name="Y" unicode="Y" horiz-adv-x="1175" 
d="M690 0h-205v492l-467 921h218l284 -579q16 -35 62 -164h14q43 127 61 161l285 582h213l-465 -924v-489z" />
    <glyph glyph-name="Z" unicode="Z" horiz-adv-x="1163" 
d="M1067 174v-174h-969v174l731 1065h-720v174h944v-174l-729 -1065h743z" />
    <glyph glyph-name="bracketleft" unicode="[" horiz-adv-x="679" 
d="M598 1444h-199q-31 0 -30 -33v-1587q0 -33 30 -33h199v-129h-297q-119 0 -119 119v1673q0 53 34 86t85 33h297v-129z" />
    <glyph glyph-name="backslash" unicode="\" horiz-adv-x="1071" 
d="M1020 -137h-164l-805 1550h164z" />
    <glyph glyph-name="bracketright" unicode="]" horiz-adv-x="679" 
d="M82 1573h297q51 0 85 -33t34 -86v-1673q0 -51 -34 -85t-85 -34h-297v129h197q33 0 32 33v1587q0 33 -32 33h-197v129z" />
    <glyph glyph-name="asciicircum" unicode="^" horiz-adv-x="886" 
d="M825 803l-80 -49l-292 354h-17l-295 -354l-80 49l312 436h143z" />
    <glyph glyph-name="underscore" unicode="_" horiz-adv-x="1179" 
d="M1038 -150h-897v150h897v-150z" />
    <glyph glyph-name="grave" unicode="`" horiz-adv-x="659" 
d="M524 1188l-65 -92l-408 239l111 152z" />
    <glyph glyph-name="a" unicode="a" horiz-adv-x="1128" 
d="M301 342v-53q0 -74 35 -106.5t110 -32.5q178 0 338 139v180h-364q-66 -2 -92.5 -34t-26.5 -93zM612 1026q199 0 285 -73.5t86 -256.5v-696h-156l-22 158q-172 -176 -399 -176q-139 0 -222.5 73.5t-83.5 208.5v105q0 119 74 184t209 65h401v78q-2 92 -43 127t-154.5 35.5
t-424.5 -24.5l-19 145q270 47 469 47z" />
    <glyph glyph-name="b" unicode="b" horiz-adv-x="1173" 
d="M635 854q-70 0 -132.5 -32.5t-154.5 -106.5v-543q123 -31 262 -30t194.5 81t57.5 281q-2 201 -47 275.5t-180 74.5zM348 1434v-359q0 -137 -20 -227q168 178 366 178t285.5 -123t87.5 -395t-99.5 -402.5t-359.5 -130.5t-458 72v1387h198z" />
    <glyph glyph-name="c" unicode="c" horiz-adv-x="1005" 
d="M106 499.5q0 288.5 108 407.5t370 119q201 0 331 -51l-26 -127q-154 10 -271 10q-172 0 -238.5 -75.5t-66.5 -282.5t66.5 -283t236.5 -76t297 23l19 -133q-152 -55 -348 -56q-262 0 -370 118t-108 406.5z" />
    <glyph glyph-name="d" unicode="d" horiz-adv-x="1177" 
d="M526 854q-114 0 -163.5 -70.5t-49.5 -277.5t48.5 -283t164.5 -76q76 0 134.5 26.5t164.5 98.5v533q-185 49 -299 49zM467 -25q-192 0 -275 132.5t-83 408.5t92 393t284 117t349 -90q-8 88 -9 197v301h199v-1434h-156l-16 137q-193 -162 -385 -162z" />
    <glyph glyph-name="e" unicode="e" horiz-adv-x="1103" 
d="M711 557q98 0 98 133q-2 92 -52 130t-187 38t-195 -62.5t-62 -238.5h398zM764 403h-449q14 -156 81 -209t209 -53t360 25l18 -131q-135 -59 -396 -59.5t-371 118.5t-110 409t108 406.5t346 116.5t343 -84t105 -252q0 -287 -244 -287z" />
    <glyph glyph-name="f" unicode="f" horiz-adv-x="788" 
d="M602 1307q-92 0 -130 -35t-38 -121v-152h309v-153h-309v-846h-198v846h-181v143l181 10v175q0 145 69.5 219.5t244.5 74.5t271 -14l-16 -147h-203z" />
    <glyph glyph-name="g" unicode="g" horiz-adv-x="1148" 
d="M562 -242q179 0 236.5 30t57.5 113t-30.5 104.5t-139.5 37.5l-321 43q-94 -78 -94.5 -174t56 -125t235.5 -29zM554 535q140 0 195.5 37.5t55.5 133t-54.5 132t-196.5 36.5t-197.5 -36.5t-55.5 -130.5t56.5 -133t196.5 -39zM989 705q0 -170 -97 -245t-337 -75
q-111 0 -199 16q-33 -43 -17.5 -94t81.5 -61l368 -58q141 -20 202 -87.5t61 -196.5q0 -178 -104.5 -246t-380 -68t-382 67t-106.5 241q0 84 37 133t123 98q-72 59 -65 158.5t79 150.5q-131 68 -131 254t96 260t340 74q150 0 238 -27h311l-10 -106l-142 -14q35 -70 35 -174z
" />
    <glyph glyph-name="h" unicode="h" horiz-adv-x="1193" 
d="M354 1434v-387q0 -102 -14 -195q238 174 436 174q131 0 201 -70.5t70 -205.5v-750h-199v692q0 94 -27.5 130t-102.5 36t-156 -35t-210 -112v-711h-198v1434h200z" />
    <glyph glyph-name="i" unicode="i" horiz-adv-x="520" 
d="M358 0h-196v999h196v-999zM213 1425h94q57 0 58 -57v-115q0 -59 -58 -59h-94q-57 0 -57 59v115q0 57 57 57z" />
    <glyph glyph-name="j" unicode="j" horiz-adv-x="524" 
d="M362 999v-1009q0 -123 -54 -229.5t-148 -174.5l-111 86q115 145 115 318v1009h198zM217 1425h94q57 0 58 -57v-115q0 -59 -58 -59h-94q-59 0 -59 59v115q0 57 59 57z" />
    <glyph glyph-name="k" unicode="k" horiz-adv-x="1058" 
d="M352 336v-336h-198v1434h200v-629q0 -88 -12 -170h123l301 364h229l-301 -362q-27 -37 -73 -74v-4q39 -31 73 -86l334 -473h-229l-332 492h-125q10 -88 10 -156z" />
    <glyph glyph-name="l" unicode="l" horiz-adv-x="618" 
d="M156 244v1190h198v-1145q-4 -127 129 -127h92l23 -154q-59 -27 -183 -26.5t-191.5 69t-67.5 193.5z" />
    <glyph glyph-name="m" unicode="m" horiz-adv-x="1792" 
d="M736 1026q200 0 247 -174q199 174 393 174q131 0 200 -70.5t69 -205.5v-750h-195v692q-2 88 -35 127t-105 39t-134 -30.5t-181 -116.5v-711h-190v692q0 90 -35 128t-106 38t-133 -30.5t-181 -114.5v-713h-196v999h163l11 -153q208 180 408 180z" />
    <glyph glyph-name="n" unicode="n" horiz-adv-x="1193" 
d="M776 1026q133 0 202 -70.5t69 -205.5v-750h-199v692q0 94 -27.5 130t-102.5 36t-153 -35t-213 -114v-709h-198v999h168l12 -153q236 180 442 180z" />
    <glyph glyph-name="o" unicode="o" horiz-adv-x="1167" 
d="M583.5 858q-155.5 0 -213 -75.5t-57.5 -283.5t57.5 -284t213 -76t213 76t57.5 284t-57.5 283.5t-213 75.5zM584 1026q260 0 368.5 -121t108.5 -407.5t-108.5 -405.5t-368.5 -119t-369 119t-109 405.5t109 407.5t369 121z" />
    <glyph glyph-name="p" unicode="p" horiz-adv-x="1196" 
d="M883 492q0 203 -46 282.5t-166 79.5t-321 -145v-508q208 -53 320 -53t162.5 70.5t50.5 273.5zM748 1026q340 0 339 -532q0 -283 -92.5 -401t-290.5 -118t-358 101q8 -86 4 -203v-281h-196v1407h163l15 -153q78 82 192.5 131t223.5 49z" />
    <glyph glyph-name="q" unicode="q" 
d="M311 502q0 -198 43 -276.5t164 -78.5q78 0 143.5 29.5t163.5 95.5v555q-127 35 -266 31t-193.5 -81t-54.5 -275zM1022 -408h-199v328q0 131 17 207q-186 -154 -374 -154t-274 126.5t-86 396.5t100.5 400t359.5 130t456 -74v-1360z" />
    <glyph glyph-name="r" unicode="r" horiz-adv-x="827" 
d="M711 840q-117 0 -359 -115v-725h-198v999h153l21 -151q223 178 420 178h47l-23 -186h-61z" />
    <glyph glyph-name="s" unicode="s" horiz-adv-x="1042" 
d="M98 748q0 166 89 223t318 54t415 -34l-17 -143q-313 10 -418.5 10t-149.5 -17.5t-44 -92.5q0 -35 6 -56.5t34 -37.5t101 -38l283 -69q127 -33 180 -93.5t53 -187.5q0 -176 -97 -232.5t-321.5 -56.5t-412.5 29l14 148q115 -10 312.5 -10.5t255 23t57.5 94.5t-39 93
t-113 39l-278 70q-125 33 -176.5 97.5t-51.5 187.5z" />
    <glyph glyph-name="t" unicode="t" horiz-adv-x="794" 
d="M233 262v584h-182v143l182 8v295h197v-293h309v-153h-309v-557q0 -70 29.5 -98.5t101.5 -28.5h146l22 -154q-94 -27 -228 -26.5t-201 73t-67 207.5z" />
    <glyph glyph-name="u" unicode="u" 
d="M1018 999v-999h-158l-14 137q-219 -164 -426 -164q-272 0 -273 277v749h199v-692q-2 -92 31 -128t112 -36q117 0 332 133v723h197z" />
    <glyph glyph-name="v" unicode="v" horiz-adv-x="1093" 
d="M635 0h-178q-51 0 -68 49l-356 950h211l233 -688l55 -172h27l291 860h211l-356 -950q-20 -49 -70 -49z" />
    <glyph glyph-name="w" unicode="w" horiz-adv-x="1691" 
d="M1288 0h-178q-61 0 -76 63l-145 658q-4 18 -13 70t-18 90h-24l-177 -818q-14 -63 -77 -63h-177q-61 0 -73 55l-283 944h205l192 -720q25 -102 31 -154h27l182 813q14 61 74 61h178q59 0 74 -63l145 -657q4 -20 35 -154h27q14 92 30 154l193 720h205l-281 -944
q-16 -55 -76 -55z" />
    <glyph glyph-name="x" unicode="x" horiz-adv-x="1091" 
d="M565 442h-39l-270 -442h-215l328 516l-303 483h213l245 -403h43l244 403h213l-301 -483l328 -516h-215z" />
    <glyph glyph-name="y" unicode="y" horiz-adv-x="1091" 
d="M457 0q-57 0 -70 51l-354 948h213l248 -727q25 -63 34 -122h29q20 55 41 122l246 727h213l-387 -1046q-139 -369 -459 -373l-21 131q117 35 184.5 96.5t108.5 155.5l15 37h-41z" />
    <glyph glyph-name="z" unicode="z" horiz-adv-x="1048" 
d="M950 162v-162h-852v162l625 676h-617v161h836v-161l-623 -676h631z" />
    <glyph glyph-name="braceleft" unicode="{" horiz-adv-x="661" 
d="M575 1448q-102 0 -140 -37t-38 -129v-354q2 -127 -36.5 -181.5t-151.5 -74.5q115 -35 154.5 -87.5t42.5 -160.5v-473q0 -92 37.5 -128t140.5 -36v-125q-369 -31 -369 275v518q0 39 -5 61.5t-29 41t-91 44.5v139q80 25 98.5 46.5t18.5 109.5v401q-1 306 368 275v-125z" />
    <glyph glyph-name="bar" unicode="|" horiz-adv-x="509" 
d="M326 -346h-144v1945h144v-1945z" />
    <glyph glyph-name="braceright" unicode="}" horiz-adv-x="663" 
d="M88 1448v125q369 31 369 -275v-401q0 -88 18.5 -109.5t97.5 -46.5v-139q-85 -34 -105 -58t-19 -89v-518q0 -305 -369 -275v125q102 0 140 36t38 128v473q2 109 42 161t155 87q-113 20 -152 74.5t-37 181.5v354q0 92 -38 129t-140 37z" />
    <glyph glyph-name="asciitilde" unicode="~" horiz-adv-x="1071" 
d="M254 461h-100q-16 129 29.5 195.5t123.5 62.5t225.5 -57.5t198.5 -59.5t69.5 18.5t18.5 88.5h103q14 -125 -31 -191.5t-129 -61.5t-229.5 58t-194.5 58t-66.5 -20t-17.5 -91z" />
    <glyph glyph-name="uni00A0" unicode="&#xa0;" horiz-adv-x="454" 
 />
    <glyph glyph-name="exclamdown" unicode="&#xa1;" horiz-adv-x="534" 
d="M367 -397h-199v602l20 375h158l21 -375v-602zM244 1016h49q39 0 55.5 -16.5t16.5 -57.5v-111q0 -41 -16.5 -56t-55.5 -15h-49q-41 0 -57.5 16.5t-16.5 54.5v111q0 41 17.5 57.5t56.5 16.5z" />
    <glyph glyph-name="cent" unicode="&#xa2;" horiz-adv-x="1040" 
d="M301 724q0 -187 50 -266.5t171 -95.5l60 709q-158 -6 -219.5 -83t-61.5 -264zM104 725q0 279 109 396.5t371 117.5h16l16 174h103l-17 -178q123 -14 211 -45l-24 -133q-86 10 -203 14l-61 -715q143 1 286 21l19 -133q-143 -49 -324 -54l-18 -190h-101l19 193
q-219 14 -310.5 133.5t-91.5 398.5z" />
    <glyph glyph-name="sterling" unicode="&#xa3;" horiz-adv-x="1169" 
d="M1067 176v-176h-944v176q176 82 158 371l-9 139h-159v115h153l-14 264q-12 232 68.5 289t149.5 70.5t204 13.5t348 -21l-12 -164q-158 6 -361 7q-119 0 -162 -41t-34 -158l14 -260h420l-6 -115h-406l8 -139q8 -141 -25.5 -226t-119.5 -155q47 10 139 10h590z" />
    <glyph glyph-name="currency" unicode="&#xa4;" horiz-adv-x="1212" 
d="M887 721q0 119 -83 203t-200 84t-201 -84t-84 -203t84 -204t201 -85t200 85t83 204zM606.5 315q-135.5 0 -239.5 78l-146 -145l-92 92l145 145q-74 103 -74 237t81 239l-146 145l86 86l144 -145q106 77 242 77t241 -80l147 148l84 -86l-147 -148q78 -106 78 -238
t-80 -239l151 -149l-88 -86l-149 149q-102 -80 -237.5 -80z" />
    <glyph glyph-name="yen" unicode="&#xa5;" horiz-adv-x="1271" 
d="M1096 668v-117h-346l-11 -23v-92h357v-117h-357v-319h-204v319h-349v117h349v92l-13 23h-334l-4 117h277l-393 745h213l282 -553q30 -62 68 -162h14q6 12 28.5 71.5t35.5 90.5l282 553h213l-391 -745h283z" />
    <glyph glyph-name="brokenbar" unicode="&#xa6;" horiz-adv-x="514" 
d="M328 -346h-144v819h144v-819zM328 780h-144v819h144v-819z" />
    <glyph glyph-name="section" unicode="&#xa7;" horiz-adv-x="1116" 
d="M995 -48q0 -106 -27.5 -162t-108.5 -92t-275 -36q-262 4 -449 25l17 155q326 -21 424 -15.5t152 22t54 92.5q4 63 -28.5 103t-96.5 77l-321 178q-145 76 -184 196.5t4 288.5h143q-10 -135 19.5 -206.5t125.5 -124.5l344 -197q104 -59 155.5 -128.5t51.5 -175.5zM123 1169
q0 160 98 215.5t335 53.5t425 -23l-12 -155q-177 12 -313 12t-174 -2t-91 -15.5t-56 -84.5t29.5 -109.5t100.5 -73.5l319 -180q145 -78 183.5 -200t-6.5 -288h-144q10 133 -19.5 207t-123.5 127l-344 199q-106 61 -156.5 129t-50.5 188z" />
    <glyph glyph-name="dieresis" unicode="&#xa8;" horiz-adv-x="845" 
d="M573 1427h66q55 0 55 -55v-110q0 -55 -55 -56h-66q-53 0 -53 56v110q0 55 53 55zM211 1427h65q53 0 54 -55v-110q0 -55 -54 -56h-65q-53 0 -53 56v110q0 55 53 55z" />
    <glyph glyph-name="copyright" unicode="&#xa9;" horiz-adv-x="1703" 
d="M840 264q-196 0 -286.5 100.5t-90.5 346t90 346t309 100.5q162 0 277 -29l-17 -112q-117 8 -259 8t-194.5 -67.5t-52.5 -246t52.5 -246t191.5 -67.5q185 1 285 13l14 -113q-123 -33 -319 -33zM852 1335q-262 0 -445.5 -180t-183.5 -448.5t183.5 -448.5t445.5 -180
t445.5 180t183.5 448.5t-183.5 448.5t-445.5 180zM852 1440q311 0 524 -208t213 -525.5t-213 -525.5t-524 -208t-524 209t-213 524.5t213 524.5t524 209z" />
    <glyph glyph-name="ordfeminine" unicode="&#xaa;" horiz-adv-x="903" 
d="M270 788v-30q0 -47 26 -66.5t81 -19.5q113 0 233 94v119l-243 -19q-97 -4 -97 -78zM760 1020v-461h-119l-18 123q-129 -137 -293 -137q-92 0 -148.5 47t-56.5 133v78q0 78 51 122t143 44h291v51q0 102 -123 102q-102 0 -315 -16l-16 111q211 31 347 31t196.5 -52.5
t60.5 -175.5z" />
    <glyph glyph-name="guillemotleft" unicode="&#xab;" horiz-adv-x="1005" 
d="M901 874l-250 -360l252 -367l-104 -69l-330 414v45l328 405zM520 874l-250 -360l252 -367l-104 -69l-330 414v45l328 405z" />
    <glyph glyph-name="logicalnot" unicode="&#xac;" horiz-adv-x="1208" 
d="M1051 684v-414h-150v265h-756v149h906z" />
    <glyph glyph-name="softhyphen" unicode="&#xad;" horiz-adv-x="903" 
d="M764 442h-623v152h623v-152z" />
    <glyph glyph-name="registered" unicode="&#xae;" horiz-adv-x="1122" 
d="M446 1004h132q70 2 96 20t26 70t-26.5 69t-95.5 17h-132v-176zM580 938h-134v-213h-90v520q72 6 206 6t181.5 -32.5t47.5 -116.5q0 -117 -119 -131v-4q59 -8 80 -78l59 -164h-96l-53 160q-23 53 -82 53zM561 592q160 0 273.5 114.5t113.5 276.5t-113.5 275.5
t-273.5 113.5t-273.5 -113.5t-113.5 -275.5t113.5 -276.5t273.5 -114.5zM560 1438q189 0 322.5 -133.5t133.5 -322.5t-133 -322.5t-323 -133.5t-323 133.5t-133 322.5t133.5 322.5t322.5 133.5z" />
    <glyph glyph-name="macron" unicode="&#xaf;" horiz-adv-x="819" 
d="M698 1241h-577v145h577v-145z" />
    <glyph glyph-name="degree" unicode="&#xb0;" horiz-adv-x="735" 
d="M368.5 1321q-61.5 0 -102.5 -40t-41 -102t41.5 -103.5t101.5 -41.5t102 41t42 103t-41 102.5t-102.5 40.5zM368 1440q110 0 189.5 -77t79.5 -185t-79.5 -186.5t-189.5 -78.5t-189 78.5t-79 186.5t79 185t189 77z" />
    <glyph glyph-name="plusminus" unicode="&#xb1;" horiz-adv-x="1200" 
d="M147 281h906v-148h-906v148zM1053 813v-147h-379v-269h-150v269h-377v147h377v268h152v-268h377z" />
    <glyph glyph-name="twosuperior" unicode="&#xb2;" horiz-adv-x="888" 
d="M733 1396q0 -124 -164 -282l-250 -244q57 8 138 4h309v-137h-645v86q0 41 24 66l252 244q162 156 168 251q2 51 -35.5 67.5t-145.5 16.5t-247 -14l-8 117q155 29 307 29t224.5 -40t72.5 -164z" />
    <glyph glyph-name="threesuperior" unicode="&#xb3;" horiz-adv-x="849" 
d="M434 1602q148 0 214.5 -43t66.5 -154q0 -193 -156 -215v-4q96 -12 136 -64.5t42 -148.5q4 -133 -67.5 -192.5t-221.5 -59.5t-331 22l8 115q133 -8 252 -8t161 31t42 101t-36 104t-134 34h-174v117h174q103 0 128 37.5t25 95.5q0 59 -48 87.5t-374 8.5l-8 113
q153 23 301 23z" />
    <glyph glyph-name="acute" unicode="&#xb4;" horiz-adv-x="657" 
d="M584 1335l-408 -239l-65 92l362 299z" />
    <glyph glyph-name="paragraph" unicode="&#xb6;" horiz-adv-x="1214" 
d="M545 -430v842q-250 23 -359.5 141.5t-109.5 384.5t144.5 383t484.5 117q190 0 315 -35v-1403h-148v1303q-41 2 -180 8v-1741h-147z" />
    <glyph glyph-name="periodcentered" unicode="&#xb7;" horiz-adv-x="495" 
d="M215 655h66q39 0 55 -16t16 -55v-111q0 -39 -16.5 -55.5t-54.5 -16.5h-66q-41 0 -57.5 16.5t-16.5 55.5v111q0 39 16.5 55t57.5 16z" />
    <glyph glyph-name="cedilla" unicode="&#xb8;" horiz-adv-x="483" 
d="M158 -178l20 92q135 12 189.5 -14.5t52.5 -118.5q-2 -133 -102.5 -204t-251.5 -50l32 104q78 -2 128 35t53 98q2 33 -22.5 44.5t-98.5 13.5z" />
    <glyph glyph-name="onesuperior" unicode="&#xb9;" horiz-adv-x="606" 
d="M455 737h-154v627q0 55 6 84l-223 -57l-21 108l238 86h154v-848z" />
    <glyph glyph-name="ordmasculine" unicode="&#xba;" horiz-adv-x="907" 
d="M452.5 1124q-104.5 0 -143.5 -49t-39 -182t39 -180t145 -47t144.5 47t38.5 180t-40 182t-144.5 49zM454 1247q187 0 263 -80t76 -274.5t-76 -272t-263 -77.5t-263 77.5t-76 272t76 274.5t263 80z" />
    <glyph glyph-name="guillemotright" unicode="&#xbb;" horiz-adv-x="1005" 
d="M918 537v-45l-330 -414l-105 69l252 367l-250 360l105 68zM537 537v-45l-328 -414l-107 69l252 367l-250 360l107 68z" />
    <glyph glyph-name="onequarter" unicode="&#xbc;" horiz-adv-x="1775" 
d="M1595 0h-145v193h-387q-57 0 -84 36.5t2 102.5l250 516h149l-239 -492q-8 -16 2 -29.5t33 -13.5h274v236l27 135h118v-371h99v-106l-99 -12v-195zM1327 1413l-903 -1413h-139l903 1413h139zM307 565v627q0 45 8 84l-225 -57l-18 108l235 86h154v-848h-154z" />
    <glyph glyph-name="onehalf" unicode="&#xbd;" horiz-adv-x="1822" 
d="M1692 660q0 -122 -164 -283l-252 -244q61 8 137 4h311v-137h-645v86q0 41 25 66l252 243q162 156 168 252q2 51 -36 67.5t-146 16.5t-246 -14l-9 117q153 28 305 28t226 -40t74 -162zM410 0h-142l903 1413h140zM461 565h-154v627q0 45 8 84l-225 -57l-18 108l235 86h154
v-848z" />
    <glyph glyph-name="threequarters" unicode="&#xbe;" horiz-adv-x="1964" 
d="M1780 0h-146v193h-383q-57 0 -83.5 36.5t-0.5 102.5l252 516h150l-240 -492q-8 -16 1 -29.5t32 -13.5h272v236l27 135h119v-371h102v-106l-102 -12v-195zM1534 1413l-903 -1413h-139l901 1413h141zM440 545q-150 0 -329 22l8 115q133 -8 252 -8t160.5 31t41.5 101
t-35.5 104t-134.5 34l-174 4v107l174 6q66 0 102 21.5t44 45t8 73.5t-37.5 72.5t-161.5 22.5t-223 -6l-8 113q137 20 293 20t221.5 -42t65.5 -144t-34 -156.5t-120 -66.5v-4q96 -12 136 -65t42 -167t-69.5 -173.5t-221.5 -59.5z" />
    <glyph glyph-name="questiondown" unicode="&#xbf;" horiz-adv-x="1024" 
d="M549 -264q146 0 393 18l10 -141q-14 -2 -56 -10.5t-56.5 -10.5t-50 -8t-58 -7t-74.5 -5t-161 -4q-418 0 -418 317q0 151 89 243.5t182 188.5t100 275h165q2 -104 -29.5 -192.5t-79.5 -146.5t-131.5 -146.5t-86.5 -184.5q-4 -96 56 -141t206 -45zM510 1026h49
q39 0 55.5 -15.5t16.5 -56.5v-110q0 -41 -15.5 -57.5t-56.5 -16.5h-49q-41 0 -57.5 16.5t-16.5 57.5v110q0 41 16.5 56.5t57.5 15.5z" />
    <glyph glyph-name="Agrave" unicode="&#xc0;" horiz-adv-x="1282" 
d="M868 604l-166 537q-6 18 -17 57t-17 57h-56l-32 -114l-166 -537h454zM537 1413h208q61 0 74 -55l445 -1358h-211l-131 426h-564l-131 -426h-209l443 1358q16 55 76 55zM682 1487l-408 239l111 152l363 -299z" />
    <glyph glyph-name="Aacute" unicode="&#xc1;" horiz-adv-x="1282" 
d="M868 604l-166 537q-6 18 -17 57t-17 57h-56l-32 -114l-166 -537h454zM537 1413h208q61 0 74 -55l445 -1358h-211l-131 426h-564l-131 -426h-209l443 1358q16 55 76 55zM567 1487l-67 92l362 299l113 -152z" />
    <glyph glyph-name="Acircumflex" unicode="&#xc2;" horiz-adv-x="1282" 
d="M868 604l-166 537q-6 18 -17 57t-17 57h-56l-32 -114l-166 -537h454zM537 1413h208q61 0 74 -55l445 -1358h-211l-131 426h-564l-131 -426h-209l443 1358q16 55 76 55zM367 1493l-66 84l268 264h144l270 -264l-70 -84l-264 197h-16z" />
    <glyph glyph-name="Atilde" unicode="&#xc3;" horiz-adv-x="1282" 
d="M868 604l-166 537q-6 18 -17 57t-17 57h-56l-32 -114l-166 -537h454zM537 1413h208q61 0 74 -55l445 -1358h-211l-131 426h-564l-131 -426h-209l443 1358q16 55 76 55zM403 1563h-90q-14 123 33 187t121 58t168 -55t148 -55t75 17.5t21 82.5h90q14 -119 -31 -183.5
t-125 -58.5t-177 56.5t-145 56.5t-68 -18.5t-20 -87.5z" />
    <glyph glyph-name="Adieresis" unicode="&#xc4;" horiz-adv-x="1282" 
d="M868 604l-166 537q-6 18 -17 57t-17 57h-56l-32 -114l-166 -537h454zM537 1413h208q61 0 74 -55l445 -1358h-211l-131 426h-564l-131 -426h-209l443 1358q16 55 76 55zM856 1567h-65q-55 0 -56 55v111q0 53 56 53h65q53 0 53 -53v-111q0 -55 -53 -55zM494 1567h-68
q-53 0 -53 55v111q0 53 53 53h68q51 0 51 -53v-111q0 -55 -51 -55z" />
    <glyph glyph-name="Aring" unicode="&#xc5;" horiz-adv-x="1282" 
d="M868 604l-166 537q-6 18 -17 57t-17 57h-56l-32 -114l-166 -537h454zM537 1413h208q61 0 74 -55l445 -1358h-211l-131 426h-564l-131 -426h-209l443 1358q16 55 76 55zM642 1800q-50 0 -83 -33t-33 -87t33 -86.5t83 -32.5t83 32.5t33 86t-33 87t-83 33.5zM642 1462
q-93 0 -158.5 62.5t-65.5 155t65.5 155.5t157.5 63t158.5 -63t66.5 -155.5t-65.5 -155t-158.5 -62.5z" />
    <glyph glyph-name="AE" unicode="&#xc6;" horiz-adv-x="1873" 
d="M922 612v518q0 41 18 83t43 63h-18q-57 -33 -111 -125l-303 -539h371zM1163 -4q-109 0 -175 71.5t-66 182.5v192h-465l-250 -442h-215l682 1182q74 135 176 184t307 49q397 0 615 -14l-9 -162h-518q-59 0 -95 -37t-36 -100v-275h569v-168h-569v-356q0 -70 31 -100.5
t100 -30.5h518l9 -160q-195 -16 -609 -16z" />
    <glyph glyph-name="Ccedilla" unicode="&#xc7;" 
d="M549 -203l20 92q133 12 188.5 -14.5t53.5 -118.5q-4 -133 -104.5 -203.5t-249.5 -50.5l30 105q78 -2 128.5 34.5t54.5 98.5q2 33 -22.5 44t-98.5 13zM121 706.5q0 403.5 125 567.5t434 164q221 0 391 -41l-20 -158q-164 16 -365 16t-275.5 -118.5t-74.5 -430t74.5 -430
t269.5 -118.5q260 -1 399 22l21 -155q-170 -49 -420 -50q-309 0 -434 164t-125 567.5z" />
    <glyph glyph-name="Egrave" unicode="&#xc8;" horiz-adv-x="1150" 
d="M444 -4q-131 0 -206.5 68.5t-77.5 185.5v913q2 117 77.5 185.5t206.5 68.5q420 0 607 -16l-11 -160h-561q-61 0 -86.5 -29.5t-25.5 -101.5v-283h596v-165h-596v-361q0 -72 25.5 -101.5t86.5 -29.5h561l11 -158q-186 -16 -607 -16zM674 1528l-408 239l113 152l362 -301z
" />
    <glyph glyph-name="Eacute" unicode="&#xc9;" horiz-adv-x="1150" 
d="M444 -4q-131 0 -206.5 68.5t-77.5 185.5v913q2 117 77.5 185.5t206.5 68.5q420 0 607 -16l-11 -160h-561q-61 0 -86.5 -29.5t-25.5 -101.5v-283h596v-165h-596v-361q0 -72 25.5 -101.5t86.5 -29.5h561l11 -158q-186 -16 -607 -16zM559 1528l-65 90l362 301l113 -152z" />
    <glyph glyph-name="Ecircumflex" unicode="&#xca;" horiz-adv-x="1150" 
d="M444 -4q-131 0 -206.5 68.5t-77.5 185.5v913q2 117 77.5 185.5t206.5 68.5q420 0 607 -16l-11 -160h-561q-61 0 -86.5 -29.5t-25.5 -101.5v-283h596v-165h-596v-361q0 -72 25.5 -101.5t86.5 -29.5h561l11 -158q-186 -16 -607 -16zM360 1532l-65 86l268 264h144l268 -264
l-68 -86l-264 199h-16z" />
    <glyph glyph-name="Edieresis" unicode="&#xcb;" horiz-adv-x="1150" 
d="M444 -4q-131 0 -206.5 68.5t-77.5 185.5v913q2 117 77.5 185.5t206.5 68.5q420 0 607 -16l-11 -160h-561q-61 0 -86.5 -29.5t-25.5 -101.5v-283h596v-165h-596v-361q0 -72 25.5 -101.5t86.5 -29.5h561l11 -158q-186 -16 -607 -16zM848 1608h-64q-55 0 -55 53v113
q0 53 55 53h64q55 0 55 -53v-113q0 -53 -55 -53zM485 1608h-65q-53 0 -53 53v113q0 53 53 53h65q53 0 54 -53v-113q-1 -53 -54 -53z" />
    <glyph glyph-name="Igrave" unicode="&#xcc;" horiz-adv-x="548" 
d="M377 0h-205v1413h205v-1413zM381 1579l-66 -92l-409 239l112 152z" />
    <glyph glyph-name="Iacute" unicode="&#xcd;" horiz-adv-x="548" 
d="M377 0h-205v1413h205v-1413zM608 1726l-407 -239l-68 92l363 299z" />
    <glyph glyph-name="Icircumflex" unicode="&#xce;" horiz-adv-x="548" 
d="M377 0h-205v1413h205v-1413zM616 1577l-69 -84l-264 197h-17l-266 -197l-66 84l269 264h143z" />
    <glyph glyph-name="Idieresis" unicode="&#xcf;" horiz-adv-x="548" 
d="M377 0h-205v1413h205v-1413zM424 1786h65q53 0 54 -53v-111q0 -55 -54 -55h-65q-55 0 -55 55v111q0 53 55 53zM59 1786h68q51 0 51 -53v-111q0 -55 -51 -55h-68q-53 0 -53 55v111q0 53 53 53z" />
    <glyph glyph-name="Eth" unicode="&#xd0;" horiz-adv-x="1372" 
d="M385 805h299v-113h-299v-526q135 -6 317 -6t257 118.5t75 428t-74.5 428t-267.5 118.5l-307 -2v-446zM182 805v608q268 18 510 19q309 0 433 -159t124 -566.5t-124 -566t-433 -158.5q-242 0 -510 18v692h-137v113h137z" />
    <glyph glyph-name="Ntilde" unicode="&#xd1;" horiz-adv-x="1449" 
d="M1278 1413v-1333q0 -80 -76 -80h-194q-61 0 -88 63l-441 963q-74 160 -84 197h-28q10 -82 10 -197v-1026h-205v1333q0 80 78 80h188q59 0 90 -63l428 -938q8 -18 29 -60.5t38 -80.5t32 -70h30q-10 123 -10 219v993h203zM502 1563h-90q-14 123 33 187t121 58t168 -55
t148 -55t74.5 17.5t20.5 82.5h90q14 -119 -31 -183.5t-125 -58.5t-177 56.5t-145 56.5t-67.5 -18.5t-19.5 -87.5z" />
    <glyph glyph-name="Ograve" unicode="&#xd2;" horiz-adv-x="1370" 
d="M684 1257q-199 0 -273.5 -118.5t-74.5 -432t74.5 -432t273.5 -118.5t274.5 118.5t75.5 432t-75.5 432t-274.5 118.5zM685 1440q314 0 439 -160t125 -573.5t-125 -573.5t-439 -160t-439 160t-125 573.5t125 573.5t439 160zM788 1579l-65 -92l-408 239l113 152z" />
    <glyph glyph-name="Oacute" unicode="&#xd3;" horiz-adv-x="1370" 
d="M684 1257q-199 0 -273.5 -118.5t-74.5 -432t74.5 -432t273.5 -118.5t274.5 118.5t75.5 432t-75.5 432t-274.5 118.5zM685 1440q314 0 439 -160t125 -573.5t-125 -573.5t-439 -160t-439 160t-125 573.5t125 573.5t439 160zM1016 1726l-408 -239l-65 92l362 299z" />
    <glyph glyph-name="Ocircumflex" unicode="&#xd4;" horiz-adv-x="1370" 
d="M684 1257q-199 0 -273.5 -118.5t-74.5 -432t74.5 -432t273.5 -118.5t274.5 118.5t75.5 432t-75.5 432t-274.5 118.5zM685 1440q314 0 439 -160t125 -573.5t-125 -573.5t-439 -160t-439 160t-125 573.5t125 573.5t439 160zM1024 1577l-68 -84l-266 197h-16l-264 -197
l-66 84l266 264h146z" />
    <glyph glyph-name="Otilde" unicode="&#xd5;" horiz-adv-x="1370" 
d="M684 1257q-199 0 -273.5 -118.5t-74.5 -432t74.5 -432t273.5 -118.5t274.5 118.5t75.5 432t-75.5 432t-274.5 118.5zM685 1440q314 0 439 -160t125 -573.5t-125 -573.5t-439 -160t-439 160t-125 573.5t125 573.5t439 160zM444 1563h-90q-14 123 33 187t121 58t168 -55
t149.5 -55t76 17.5t20.5 82.5h90q14 -119 -32 -183.5t-126 -58.5t-177 56.5t-145 56.5t-68 -18.5t-20 -87.5z" />
    <glyph glyph-name="Odieresis" unicode="&#xd6;" horiz-adv-x="1370" 
d="M684 1257q-199 0 -273.5 -118.5t-74.5 -432t74.5 -432t273.5 -118.5t274.5 118.5t75.5 432t-75.5 432t-274.5 118.5zM685 1440q314 0 439 -160t125 -573.5t-125 -573.5t-439 -160t-439 160t-125 573.5t125 573.5t439 160zM831 1786h66q55 0 55 -53v-111q0 -55 -55 -55
h-66q-53 0 -53 55v111q0 53 53 53zM467 1786h68q53 0 53 -53v-111q0 -55 -53 -55h-68q-51 0 -51 55v111q0 53 51 53z" />
    <glyph glyph-name="multiply" unicode="&#xd7;" horiz-adv-x="991" 
d="M86 864l98 117l729 -657l-96 -117z" />
    <glyph glyph-name="Oslash" unicode="&#xd8;" horiz-adv-x="1370" 
d="M684 156q199 0 274.5 118t75.5 440t-84 437l-448 -958q72 -37 182 -37zM336 706q0 -314 78 -436l448 955q-68 33 -178 32q-199 0 -273.5 -118.5t-74.5 -432.5zM1249 707q0 -414 -125 -574t-440 -160q-162 0 -266 39l-64 -133l-102 43l65 141q-104 76 -150 229.5
t-46 414.5q0 414 125 573.5t438 159.5q160 0 262 -35l62 133l104 -41l-65 -141q109 -76 155.5 -230.5t46.5 -418.5z" />
    <glyph glyph-name="Ugrave" unicode="&#xd9;" horiz-adv-x="1363" 
d="M1202 1413v-868q0 -311 -115.5 -441.5t-400.5 -130.5t-404.5 130t-119.5 442v868h205v-868q0 -217 69.5 -303t244.5 -86t245.5 86t70.5 303v868h205zM791 1579l-66 -92l-410 239l113 152z" />
    <glyph glyph-name="Uacute" unicode="&#xda;" horiz-adv-x="1363" 
d="M1202 1413v-868q0 -311 -115.5 -441.5t-400.5 -130.5t-404.5 130t-119.5 442v868h205v-868q0 -217 69.5 -303t244.5 -86t245.5 86t70.5 303v868h205zM1018 1726l-408 -239l-67 92l362 299z" />
    <glyph glyph-name="Ucircumflex" unicode="&#xdb;" horiz-adv-x="1363" 
d="M1202 1413v-868q0 -311 -115.5 -441.5t-400.5 -130.5t-404.5 130t-119.5 442v868h205v-868q0 -217 69.5 -303t244.5 -86t245.5 86t70.5 303v868h205zM1026 1577l-70 -84l-264 197h-16l-266 -197l-66 84l268 264h144z" />
    <glyph glyph-name="Udieresis" unicode="&#xdc;" horiz-adv-x="1363" 
d="M1202 1413v-868q0 -311 -115.5 -441.5t-400.5 -130.5t-404.5 130t-119.5 442v868h205v-868q0 -217 69.5 -303t244.5 -86t245.5 86t70.5 303v868h205zM834 1786h63q55 0 55 -53v-111q0 -55 -55 -55h-63q-55 0 -56 55v111q1 53 56 53zM469 1786h66q53 0 53 -53v-111
q0 -55 -53 -55h-66q-53 0 -53 55v111q0 53 53 53z" />
    <glyph glyph-name="Yacute" unicode="&#xdd;" horiz-adv-x="1175" 
d="M690 0h-205v492l-467 921h218l284 -579q16 -35 62 -164h14q43 127 61 161l285 582h213l-465 -924v-489zM512 1487l-66 92l363 299l111 -152z" />
    <glyph glyph-name="Thorn" unicode="&#xde;" horiz-adv-x="1216" 
d="M377 438h282q152 2 206.5 57.5t54.5 219.5t-55 220t-233 56t-255 -2v-551zM377 1413v-250q79 4 315 4t335 -95t99 -358t-95 -357.5t-343 -94.5q-135 0 -311 17v-279h-205v1413h205z" />
    <glyph glyph-name="germandbls" unicode="&#xdf;" horiz-adv-x="1392" 
d="M1321 260q0 -166 -86 -224.5t-258 -58.5t-350 23l12 150q125 -10 262 -10t182 23t45 107q0 31 -6 50.5t-29 38t-98 57.5l-207 98q-166 80 -165 234q0 68 21.5 99.5t32.5 46.5t39.5 36.5t42 30t52.5 31t81 50.5t68.5 62.5t26.5 94.5t-56.5 90t-220.5 30t-221 -45t-57 -180
v-1094h-199v844h-180v155h180v117q0 221 112 293t365 72t358.5 -60.5t105.5 -220.5q0 -82 -38.5 -148t-150 -131t-143 -89.5t-31.5 -73.5t28.5 -72.5t104.5 -60.5l203 -97q96 -47 135 -104t39 -164z" />
    <glyph glyph-name="agrave" unicode="&#xe0;" horiz-adv-x="1128" 
d="M301 342v-53q0 -74 35 -106.5t110 -32.5q178 0 338 139v180h-364q-66 -2 -92.5 -34t-26.5 -93zM612 1026q199 0 285 -73.5t86 -256.5v-696h-156l-22 158q-172 -176 -399 -176q-139 0 -222.5 73.5t-83.5 208.5v105q0 119 74 184t209 65h401v78q-2 92 -43 127t-155 35
t-424 -24l-19 145q270 47 469 47zM592 1120l-408 240l111 151l362 -301z" />
    <glyph glyph-name="aacute" unicode="&#xe1;" horiz-adv-x="1128" 
d="M301 342v-53q0 -74 35 -106.5t110 -32.5q178 0 338 139v180h-364q-66 -2 -92.5 -34t-26.5 -93zM612 1026q199 0 285 -73.5t86 -256.5v-696h-156l-22 158q-172 -176 -399 -176q-139 0 -222.5 73.5t-83.5 208.5v105q0 119 74 184t209 65h401v78q-2 92 -43 127t-155 35
t-424 -24l-19 145q270 47 469 47zM477 1120l-65 90l362 301l111 -151z" />
    <glyph glyph-name="acircumflex" unicode="&#xe2;" horiz-adv-x="1128" 
d="M301 342v-53q0 -74 35 -106.5t110 -32.5q178 0 338 139v180h-364q-66 -2 -92.5 -34t-26.5 -93zM612 1026q199 0 285 -73.5t86 -256.5v-696h-156l-22 158q-172 -176 -399 -176q-139 0 -222.5 73.5t-83.5 208.5v105q0 119 74 184t209 65h401v78q-2 92 -43 127t-155 35
t-424 -24l-19 145q270 47 469 47zM276 1124l-65 86l268 265h144l270 -265l-70 -86l-264 199h-16z" />
    <glyph glyph-name="atilde" unicode="&#xe3;" horiz-adv-x="1128" 
d="M301 342v-53q0 -74 35 -106.5t110 -32.5q178 0 338 139v180h-364q-66 -2 -92.5 -34t-26.5 -93zM612 1026q199 0 285 -73.5t86 -256.5v-696h-156l-22 158q-172 -176 -399 -176q-139 0 -222.5 73.5t-83.5 208.5v105q0 119 74 184t209 65h401v78q-2 92 -43 127t-155 35
t-424 -24l-19 145q270 47 469 47zM313 1196h-90q-14 121 33 185.5t121 58.5t168 -54.5t148 -55.5t74.5 17.5t20.5 82.5h91q14 -119 -31 -182.5t-125 -57.5t-177 56t-145 56t-68 -19.5t-20 -86.5z" />
    <glyph glyph-name="adieresis" unicode="&#xe4;" horiz-adv-x="1128" 
d="M301 342v-53q0 -74 35 -106.5t110 -32.5q178 0 338 139v180h-364q-66 -2 -92.5 -34t-26.5 -93zM612 1026q199 0 285 -73.5t86 -256.5v-696h-156l-22 158q-172 -176 -399 -176q-139 0 -222.5 73.5t-83.5 208.5v105q0 119 74 184t209 65h401v78q-2 92 -43 127t-155 35
t-424 -24l-19 145q270 47 469 47zM766 1198h-66q-53 0 -53 55v111q0 55 53 55h66q55 0 55 -55v-111q0 -55 -55 -55zM403 1198h-67q-51 0 -51 55v111q0 55 51 55h67q53 0 54 -55v-111q-1 -55 -54 -55z" />
    <glyph glyph-name="aring" unicode="&#xe5;" horiz-adv-x="1128" 
d="M301 342v-53q0 -74 35 -106.5t110 -32.5q178 0 338 139v180h-364q-66 -2 -92.5 -34t-26.5 -93zM612 1026q199 0 285 -73.5t86 -256.5v-696h-156l-22 158q-172 -176 -399 -176q-139 0 -222.5 73.5t-83.5 208.5v105q0 119 74 184t209 65h401v78q-2 92 -43 127t-155 35
t-424 -24l-19 145q270 47 469 47zM552 1432q-50 0 -83 -32t-33 -86t33 -87t83 -33t83 33t33 86t-33 86t-83 33zM552 1094q-93 0 -157.5 62.5t-64.5 155.5t65.5 156.5t157.5 63.5t157.5 -63.5t65.5 -155.5t-65.5 -155.5t-158.5 -63.5z" />
    <glyph glyph-name="ae" unicode="&#xe6;" horiz-adv-x="1781" 
d="M301 342v-53q0 -74 35.5 -106.5t111.5 -32.5t172.5 37.5t178.5 113.5q-14 82 -17 168h-362q-66 -2 -92.5 -34t-26.5 -93zM1376 557q109 0 109 133q0 90 -51.5 129t-188.5 39t-194.5 -62.5t-61.5 -238.5h387zM1432 403h-439q12 -156 79 -209t211 -53t357 25l19 -131
q-133 -59 -393 -60q-174 0 -277.5 50.5t-154.5 160.5q-66 -78 -178.5 -141t-250.5 -63t-221.5 73.5t-83.5 208.5v105q0 119 74 184t209 65h401v78q0 92 -42 127t-156 35t-424 -24l-19 145q271 47 481 47t291 -92q107 92 333 92t330.5 -84t104.5 -252q5 -287 -251 -287z" />
    <glyph glyph-name="ccedilla" unicode="&#xe7;" horiz-adv-x="1005" 
d="M453 -203l20 92q133 12 188.5 -14.5t53.5 -118.5q-4 -133 -104.5 -203.5t-250.5 -50.5l31 105q78 -2 128 34.5t54 98.5q2 33 -22 44t-98 13zM106 499.5q0 288.5 108 407.5t370 119q201 0 331 -51l-26 -127q-154 10 -271 10q-172 0 -238.5 -75.5t-66.5 -282.5t66.5 -283
t236.5 -76t297 23l19 -133q-152 -55 -348 -56q-262 0 -370 118t-108 406.5z" />
    <glyph glyph-name="egrave" unicode="&#xe8;" horiz-adv-x="1103" 
d="M711 557q98 0 98 133q-2 92 -52 130t-187 38t-195 -62.5t-62 -238.5h398zM764 403h-449q14 -156 81 -209t209 -53t360 25l18 -131q-135 -59 -396 -59t-371 118.5t-110 408.5t108 406.5t346 116.5t343 -84t105 -252q0 -287 -244 -287zM614 1120l-407 240l110 151l363 -301
z" />
    <glyph glyph-name="eacute" unicode="&#xe9;" horiz-adv-x="1103" 
d="M711 557q98 0 98 133q-2 92 -52 130t-187 38t-195 -62.5t-62 -238.5h398zM764 403h-449q14 -156 81 -209t209 -53t360 25l18 -131q-135 -59 -396 -59t-371 118.5t-110 408.5t108 406.5t346 116.5t343 -84t105 -252q0 -287 -244 -287zM500 1120l-66 90l361 301l112 -151z
" />
    <glyph glyph-name="ecircumflex" unicode="&#xea;" horiz-adv-x="1103" 
d="M711 557q98 0 98 133q-2 92 -52 130t-187 38t-195 -62.5t-62 -238.5h398zM764 403h-449q14 -156 81 -209t209 -53t360 25l18 -131q-135 -59 -396 -59t-371 118.5t-110 408.5t108 406.5t346 116.5t343 -84t105 -252q0 -287 -244 -287zM299 1124l-66 86l269 265h143
l270 -265l-69 -86l-264 199h-17z" />
    <glyph glyph-name="edieresis" unicode="&#xeb;" horiz-adv-x="1103" 
d="M711 557q98 0 98 133q-2 92 -52 130t-187 38t-195 -62.5t-62 -238.5h398zM764 403h-449q14 -156 81 -209t209 -53t360 25l18 -131q-135 -59 -396 -59t-371 118.5t-110 408.5t108 406.5t346 116.5t343 -84t105 -252q0 -287 -244 -287zM788 1198h-65q-53 0 -53 55v111
q0 55 53 55h65q53 0 54 -55v-111q-1 -55 -54 -55zM426 1198h-68q-51 0 -51 55v111q0 55 51 55h68q53 0 53 -55v-111q0 -55 -53 -55z" />
    <glyph glyph-name="igrave" unicode="&#xec;" horiz-adv-x="522" 
d="M360 0h-198v999h198v-999zM369 1210l-66 -90l-409 240l112 151z" />
    <glyph glyph-name="iacute" unicode="&#xed;" horiz-adv-x="522" 
d="M360 0h-198v999h198v-999zM596 1360l-408 -240l-67 90l362 301z" />
    <glyph glyph-name="icircumflex" unicode="&#xee;" horiz-adv-x="522" 
d="M360 0h-198v999h198v-999zM604 1210l-69 -86l-265 199h-16l-266 -199l-66 86l268 265h144z" />
    <glyph glyph-name="idieresis" unicode="&#xef;" horiz-adv-x="522" 
d="M360 0h-198v999h198v-999zM412 1419h65q53 0 53 -55v-111q0 -55 -53 -55h-65q-55 0 -56 55v111q1 55 56 55zM47 1419h68q51 0 51 -55v-111q0 -55 -51 -55h-68q-53 0 -53 55v111q0 55 53 55z" />
    <glyph glyph-name="eth" unicode="&#xf0;" horiz-adv-x="1148" 
d="M578 139q146 0 193.5 103.5t47.5 347.5q0 84 -4 123q-111 39 -250 39t-194.5 -75t-55.5 -237t58.5 -231.5t204.5 -69.5zM1026 580q0 -301 -99.5 -454t-348.5 -153t-359 113.5t-110 355.5t97 360t322 118q154 0 269 -68q-37 203 -152 313l-153 -121l-70 86l129 103
q-123 59 -307 53l22 144q242 12 422 -91l156 125l71 -90l-133 -102q244 -217 244 -692z" />
    <glyph glyph-name="ntilde" unicode="&#xf1;" horiz-adv-x="1193" 
d="M776 1026q133 0 202 -70.5t69 -205.5v-750h-199v692q0 94 -27.5 130t-102.5 36t-153 -35t-213 -114v-709h-198v999h168l12 -153q236 180 442 180zM373 1196h-90q-14 123 31.5 186.5t120.5 57.5t169 -54.5t148 -55.5t75 17.5t21 82.5h90q14 -119 -31 -182.5t-125 -57.5
t-177 56t-145 56t-67.5 -19.5t-19.5 -86.5z" />
    <glyph glyph-name="ograve" unicode="&#xf2;" horiz-adv-x="1167" 
d="M583.5 858q-155.5 0 -213 -75.5t-57.5 -283.5t57.5 -284t213 -76t213 76t57.5 284t-57.5 283.5t-213 75.5zM584 1026q260 0 368.5 -121t108.5 -407.5t-108.5 -405.5t-368.5 -119t-369 119t-109 405.5t109 407.5t369 121zM688 1210l-65 -90l-410 240l113 151z" />
    <glyph glyph-name="oacute" unicode="&#xf3;" horiz-adv-x="1167" 
d="M583.5 858q-155.5 0 -213 -75.5t-57.5 -283.5t57.5 -284t213 -76t213 76t57.5 284t-57.5 283.5t-213 75.5zM584 1026q260 0 368.5 -121t108.5 -407.5t-108.5 -405.5t-368.5 -119t-369 119t-109 405.5t109 407.5t369 121zM915 1360l-407 -240l-68 90l363 301z" />
    <glyph glyph-name="ocircumflex" unicode="&#xf4;" horiz-adv-x="1167" 
d="M583.5 858q-155.5 0 -213 -75.5t-57.5 -283.5t57.5 -284t213 -76t213 76t57.5 284t-57.5 283.5t-213 75.5zM584 1026q260 0 368.5 -121t108.5 -407.5t-108.5 -405.5t-368.5 -119t-369 119t-109 405.5t109 407.5t369 121zM924 1210l-70 -86l-264 199h-17l-266 -199l-65 86
l268 265h143z" />
    <glyph glyph-name="otilde" unicode="&#xf5;" horiz-adv-x="1167" 
d="M583.5 858q-155.5 0 -213 -75.5t-57.5 -283.5t57.5 -284t213 -76t213 76t57.5 284t-57.5 283.5t-213 75.5zM584 1026q260 0 368.5 -121t108.5 -407.5t-108.5 -405.5t-368.5 -119t-369 119t-109 405.5t109 407.5t369 121zM344 1196h-90q-14 123 32 186.5t121 57.5
t169 -54.5t148 -55.5t74.5 17.5t20.5 82.5h90q14 -119 -30.5 -182.5t-124.5 -57.5t-177.5 56t-145.5 56t-67.5 -19.5t-19.5 -86.5z" />
    <glyph glyph-name="odieresis" unicode="&#xf6;" horiz-adv-x="1167" 
d="M583.5 858q-155.5 0 -213 -75.5t-57.5 -283.5t57.5 -284t213 -76t213 76t57.5 284t-57.5 283.5t-213 75.5zM584 1026q260 0 368.5 -121t108.5 -407.5t-108.5 -405.5t-368.5 -119t-369 119t-109 405.5t109 407.5t369 121zM731 1419h66q53 0 53 -55v-111q0 -55 -53 -55h-66
q-55 0 -55 55v111q0 55 55 55zM367 1419h67q51 0 51 -55v-111q0 -55 -51 -55h-67q-53 0 -54 55v111q1 55 54 55z" />
    <glyph glyph-name="divide" unicode="&#xf7;" horiz-adv-x="1161" 
d="M553 360h51q41 0 56.5 -16t15.5 -57v-92q0 -41 -15.5 -56.5t-56.5 -15.5h-51q-41 0 -56.5 15.5t-15.5 56.5v92q0 41 15.5 57t56.5 16zM1034 530h-907v148h907v-148zM553 1083h51q41 0 56.5 -16t15.5 -57v-95q0 -39 -15.5 -54t-56.5 -15h-51q-41 0 -56.5 14t-15.5 55v95
q0 41 15.5 57t56.5 16z" />
    <glyph glyph-name="oslash" unicode="&#xf8;" horiz-adv-x="1167" 
d="M854 513q0 222 -78 294l-305 -655q47 -12 113 -13q156 0 213 76t57 298zM584 858q-156 0 -213.5 -75.5t-57.5 -292.5t72 -289l301 649q-39 8 -102 8zM1061 498q0 -287 -108.5 -406t-368.5 -119q-106 0 -187 19l-71 -152l-88 43l65 144q-102 51 -149.5 165.5t-47.5 305.5
q0 287 109 407.5t369 120.5q96 0 178 -16l67 145l89 -43l-62 -135q109 -51 157 -167t48 -312z" />
    <glyph glyph-name="ugrave" unicode="&#xf9;" 
d="M1018 999v-999h-158l-14 137q-219 -164 -426 -164q-272 0 -273 277v749h199v-692q-2 -92 31 -128t112 -36q117 0 332 133v723h197zM631 1128l-408 240l113 152l360 -299z" />
    <glyph glyph-name="uacute" unicode="&#xfa;" 
d="M1018 999v-999h-158l-14 137q-219 -164 -426 -164q-272 0 -273 277v749h199v-692q-2 -92 31 -128t112 -36q117 0 332 133v723h197zM516 1128l-65 93l362 299l111 -152z" />
    <glyph glyph-name="ucircumflex" unicode="&#xfb;" 
d="M1018 999v-999h-158l-14 137q-219 -164 -426 -164q-272 0 -273 277v749h199v-692q-2 -92 31 -128t112 -36q117 0 332 133v723h197zM317 1135l-67 84l268 264h144l270 -264l-68 -84l-266 196h-16z" />
    <glyph glyph-name="udieresis" unicode="&#xfc;" 
d="M1018 999v-999h-158l-14 137q-219 -164 -426 -164q-272 0 -273 277v749h199v-692q-2 -92 31 -128t112 -36q117 0 332 133v723h197zM805 1208h-66q-53 0 -53 56v110q0 53 53 53h66q55 0 55 -53v-110q0 -56 -55 -56zM442 1208h-67q-51 0 -51 56v110q0 53 51 53h67
q53 0 54 -53v-110q-1 -56 -54 -56z" />
    <glyph glyph-name="yacute" unicode="&#xfd;" horiz-adv-x="1091" 
d="M457 0q-57 0 -70 51l-354 948h213l248 -727q25 -63 34 -122h29q20 55 41 122l246 727h213l-387 -1046q-139 -369 -459 -373l-21 131q117 35 184.5 96.5t108.5 155.5l15 37h-41zM475 1120l-65 90l362 301l113 -151z" />
    <glyph glyph-name="thorn" unicode="&#xfe;" horiz-adv-x="1179" 
d="M646 137q118 0 168 77t50 282t-50 282.5t-168 77.5t-294 -129v-520q176 -70 294 -70zM352 1434v-334q0 -139 -8 -209q170 133 364.5 133t277.5 -126t83 -410t-86.5 -399.5t-278.5 -115.5t-358 86q6 -61 6 -186v-281h-198v1842h198z" />
    <glyph glyph-name="ydieresis" unicode="&#xff;" horiz-adv-x="1091" 
d="M457 0q-57 0 -70 51l-354 948h213l248 -727q25 -63 34 -122h29q20 55 41 122l246 727h213l-387 -1046q-139 -369 -459 -373l-21 131q117 35 184.5 96.5t108.5 155.5l15 37h-41zM764 1198h-64q-55 0 -55 55v111q0 55 55 55h64q55 0 55 -55v-111q0 -55 -55 -55zM401 1198
h-65q-53 0 -53 55v111q0 55 53 55h65q53 0 54 -55v-111q-1 -55 -54 -55z" />
    <glyph glyph-name="Amacron" unicode="&#x100;" horiz-adv-x="1282" 
d="M868 604l-166 537q-6 18 -17 57t-17 57h-56l-32 -114l-166 -537h454zM537 1413h208q61 0 74 -55l445 -1358h-211l-131 426h-564l-131 -426h-209l443 1358q16 55 76 55zM932 1602h-580v145h580v-145z" />
    <glyph glyph-name="amacron" unicode="&#x101;" horiz-adv-x="1128" 
d="M301 342v-53q0 -74 35 -106.5t110 -32.5q178 0 338 139v180h-364q-66 -2 -92.5 -34t-26.5 -93zM612 1026q199 0 285 -73.5t86 -256.5v-696h-156l-22 158q-172 -176 -399 -176q-139 0 -222.5 73.5t-83.5 208.5v105q0 119 74 184t209 65h401v78q-2 92 -43 127t-155 35
t-424 -24l-19 145q270 47 469 47zM842 1235h-580v145h580v-145z" />
    <glyph glyph-name="Abreve" unicode="&#x102;" horiz-adv-x="1282" 
d="M868 604l-166 537q-6 18 -17 57t-17 57h-56l-32 -114l-166 -537h454zM537 1413h208q61 0 74 -55l445 -1358h-211l-131 426h-564l-131 -426h-209l443 1358q16 55 76 55zM640 1524q-151 0 -237 76.5t-75 197.5l100 17q0 -145 215 -146q100 0 155.5 38t53.5 108l100 -17
q10 -121 -75.5 -197.5t-236.5 -76.5z" />
    <glyph glyph-name="abreve" unicode="&#x103;" horiz-adv-x="1128" 
d="M301 342v-53q0 -74 35 -106.5t110 -32.5q178 0 338 139v180h-364q-66 -2 -92.5 -34t-26.5 -93zM612 1026q199 0 285 -73.5t86 -256.5v-696h-156l-22 158q-172 -176 -399 -176q-139 0 -222.5 73.5t-83.5 208.5v105q0 119 74 184t209 65h401v78q-2 92 -43 127t-155 35
t-424 -24l-19 145q270 47 469 47zM552 1155q-150 0 -237.5 77t-76.5 200l100 14q0 -145 215 -146q100 0 155.5 38t55.5 108l98 -14q10 -123 -75 -200t-235 -77z" />
    <glyph glyph-name="Aogonek" unicode="&#x104;" horiz-adv-x="1282" 
d="M868 604l-166 537q-6 18 -17 57t-17 57h-56l-32 -114l-166 -537h454zM537 1413h208q61 0 74 -55l445 -1358q-106 -125 -142 -212t10 -109.5t140 8.5l24 -82q-133 -53 -211.5 -39t-105.5 68.5t0 127.5q45 121 192 238h-118l-131 426h-564l-131 -426h-209l443 1358
q16 55 76 55z" />
    <glyph glyph-name="aogonek" unicode="&#x105;" horiz-adv-x="1128" 
d="M301 342v-53q0 -74 35 -106.5t110 -32.5q178 0 338 139v180h-364q-66 -2 -92.5 -34t-26.5 -93zM406 -18q-139 0 -222.5 73.5t-83.5 208.5v105q0 119 74 184t209 65h401v78q-2 92 -43 127t-155 35t-424 -24l-19 145q270 47 469 47t285 -73.5t86 -256.5v-696
q-106 -125 -145 -227q-31 -72 14 -94.5t139 8.5l25 -82q-133 -53 -212 -39t-105.5 68.5t-0.5 127.5q45 121 193 238h-64l-22 158q-172 -176 -399 -176z" />
    <glyph glyph-name="Cacute" unicode="&#x106;" 
d="M121 706.5q0 403.5 125 567.5t434 164q221 0 391 -41l-20 -158q-164 16 -365 16t-275.5 -118.5t-74.5 -430t74.5 -430t269.5 -118.5q260 -1 399 22l21 -155q-170 -49 -420 -50q-309 0 -434 164t-125 567.5zM989 1726l-407 -239l-68 92l363 299z" />
    <glyph glyph-name="cacute" unicode="&#x107;" horiz-adv-x="1005" 
d="M106 499.5q0 288.5 108 407.5t370 119q201 0 331 -51l-26 -127q-154 10 -271 10q-172 0 -238.5 -75.5t-66.5 -282.5t66.5 -283t236.5 -76t297 23l19 -133q-152 -55 -348 -56q-262 0 -370 118t-108 406.5zM879 1360l-408 -240l-65 90l362 301z" />
    <glyph glyph-name="Cdotaccent" unicode="&#x10a;" 
d="M121 706.5q0 403.5 125 567.5t434 164q221 0 391 -41l-20 -158q-164 16 -365 16t-275.5 -118.5t-74.5 -430t74.5 -430t269.5 -118.5q260 -1 399 22l21 -155q-170 -49 -420 -50q-309 0 -434 164t-125 567.5zM625 1780h63q57 0 57 -60v-114q0 -57 -57 -58h-63q-59 0 -60 58
v114q1 60 60 60z" />
    <glyph glyph-name="cdotaccent" unicode="&#x10b;" horiz-adv-x="1005" 
d="M106 499.5q0 288.5 108 407.5t370 119q201 0 331 -51l-26 -127q-154 10 -271 10q-172 0 -238.5 -75.5t-66.5 -282.5t66.5 -283t236.5 -76t297 23l19 -133q-152 -55 -348 -56q-262 0 -370 118t-108 406.5zM514 1411h64q59 0 59 -57v-115q0 -59 -59 -59h-64q-57 0 -57 59
v115q0 57 57 57z" />
    <glyph glyph-name="Ccaron" unicode="&#x10c;" 
d="M121 706.5q0 403.5 125 567.5t434 164q221 0 391 -41l-20 -158q-164 16 -365 16t-275.5 -118.5t-74.5 -430t74.5 -430t269.5 -118.5q260 -1 399 22l21 -155q-170 -49 -420 -50q-309 0 -434 164t-125 567.5zM999 1786l-297 -264h-90l-295 264l66 84l266 -172h17l264 172z
" />
    <glyph glyph-name="ccaron" unicode="&#x10d;" horiz-adv-x="1005" 
d="M106 499.5q0 288.5 108 407.5t370 119q201 0 331 -51l-26 -127q-154 10 -271 10q-172 0 -238.5 -75.5t-66.5 -282.5t66.5 -283t236.5 -76t297 23l19 -133q-152 -55 -348 -56q-262 0 -370 118t-108 406.5zM891 1417l-297 -264h-90l-295 264l65 86l267 -174h16l264 174z
" />
    <glyph glyph-name="Dcaron" unicode="&#x10e;" horiz-adv-x="1361" 
d="M692 160q184 0 258 118.5t74 428t-75 428t-267 118.5l-305 -2v-1085q131 -6 315 -6zM1241 706.5q0 -409.5 -124 -567t-435 -157.5q-242 0 -510 18v1413q268 18 510 19q311 0 435 -158t124 -567.5zM606 1522l-295 264l66 84l266 -172h16l265 172l69 -84l-297 -264h-90z
" />
    <glyph glyph-name="dcaron" unicode="&#x10f;" horiz-adv-x="1177" 
d="M526 854q-114 0 -163.5 -70.5t-49.5 -277.5t48.5 -283t164.5 -76q76 0 134.5 26.5t164.5 98.5v533q-185 49 -299 49zM1024 1434v-1434h-156l-16 137q-193 -162 -385 -162t-275 132.5t-83 408.5t92 393t284 117t349 -90q-8 88 -9 197v301h199zM1315 1382v-100
q-2 -139 -70 -254l-86 21q20 94 21 192q-23 0 -37.5 14.5t-12.5 34.5v92q2 57 68 58h53q37 0 50.5 -12.5t13.5 -45.5z" />
    <glyph glyph-name="Dcroat" unicode="&#x110;" horiz-adv-x="1372" 
d="M385 805h299v-113h-299v-526q135 -6 317 -6t257 118.5t75 428t-74.5 428t-267.5 118.5l-307 -2v-446zM182 805v608q268 18 510 19q309 0 433 -159t124 -566.5t-124 -566t-433 -158.5q-242 0 -510 18v692h-137v113h137z" />
    <glyph glyph-name="dcroat" unicode="&#x111;" horiz-adv-x="1167" 
d="M526 854q-114 0 -163.5 -70.5t-49.5 -277.5t48.5 -283t164.5 -76q76 0 134.5 26.5t164.5 98.5v533q-185 49 -299 49zM1159 1167h-135v-1167h-156l-16 137q-193 -162 -385 -162t-275 132.5t-83 408.5t92 393t284 117t349 -90q-8 88 -9 197v34h-305v113h305v154h199v-154
h135v-113z" />
    <glyph glyph-name="Emacron" unicode="&#x112;" horiz-adv-x="1150" 
d="M444 -4q-131 0 -206.5 68.5t-77.5 185.5v913q2 117 77.5 185.5t206.5 68.5q420 0 607 -16l-11 -160h-561q-61 0 -86.5 -29.5t-25.5 -101.5v-283h596v-165h-596v-361q0 -72 25.5 -101.5t86.5 -29.5h561l11 -158q-186 -16 -607 -16zM924 1642h-578v146h578v-146z" />
    <glyph glyph-name="emacron" unicode="&#x113;" horiz-adv-x="1103" 
d="M711 557q98 0 98 133q-2 92 -52 130t-187 38t-195 -62.5t-62 -238.5h398zM764 403h-449q14 -156 81 -209t209 -53t360 25l18 -131q-135 -59 -396 -59t-371 118.5t-110 408.5t108 406.5t346 116.5t343 -84t105 -252q0 -287 -244 -287zM864 1235h-579v145h579v-145z" />
    <glyph glyph-name="Edotaccent" unicode="&#x116;" horiz-adv-x="1150" 
d="M444 -4q-131 0 -206.5 68.5t-77.5 185.5v913q2 117 77.5 185.5t206.5 68.5q420 0 607 -16l-11 -160h-561q-61 0 -86.5 -29.5t-25.5 -101.5v-283h596v-165h-596v-361q0 -72 25.5 -101.5t86.5 -29.5h561l11 -158q-186 -16 -607 -16zM666 1587h-62q-59 0 -59 60v114
q0 57 59 58h62q59 0 59 -58v-114q0 -60 -59 -60z" />
    <glyph glyph-name="edotaccent" unicode="&#x117;" horiz-adv-x="1103" 
d="M711 557q98 0 98 133q-2 92 -52 130t-187 38t-195 -62.5t-62 -238.5h398zM764 403h-449q14 -156 81 -209t209 -53t360 25l18 -131q-135 -59 -396 -59t-371 118.5t-110 408.5t108 406.5t346 116.5t343 -84t105 -252q0 -287 -244 -287zM606 1180h-63q-59 0 -60 59v115
q0 57 60 57h63q57 0 58 -57v-115q-1 -59 -58 -59z" />
    <glyph glyph-name="Eogonek" unicode="&#x118;" horiz-adv-x="1150" 
d="M444 -4q-131 0 -206.5 68.5t-77.5 185.5v913q2 117 77.5 185.5t206.5 68.5q420 0 607 -16l-11 -160h-561q-61 0 -86.5 -29.5t-25.5 -101.5v-283h596v-165h-596v-361q0 -72 25.5 -101.5t86.5 -29.5h561l11 -158q-105 -129 -141 -214t9.5 -108.5t139.5 7.5l22 -80
q-197 -72 -277.5 -16.5t-38.5 173.5t185 230q-162 -8 -506 -8z" />
    <glyph glyph-name="eogonek" unicode="&#x119;" horiz-adv-x="1103" 
d="M711 557q98 0 98 133q-2 92 -52 130t-187 38t-195 -62.5t-62 -238.5h398zM588 -25q-262 0 -372 119t-110 409t108 406.5t346 116.5t343 -84t105 -252q0 -287 -244 -287h-449q14 -156 81 -209t209 -53t360 25l18 -131q-106 -125 -145 -228q-31 -72 14 -94.5t139 8.5
l23 -81q-195 -70 -277 -14.5t-42 165.5t151 207q-121 -23 -258 -23z" />
    <glyph glyph-name="Ecaron" unicode="&#x11a;" horiz-adv-x="1150" 
d="M444 -4q-131 0 -206.5 68.5t-77.5 185.5v913q2 117 77.5 185.5t206.5 68.5q420 0 607 -16l-11 -160h-561q-61 0 -86.5 -29.5t-25.5 -101.5v-283h596v-165h-596v-361q0 -72 25.5 -101.5t86.5 -29.5h561l11 -158q-186 -16 -607 -16zM592 1561l-295 266l65 84l267 -172h16
l264 172l70 -84l-297 -266h-90z" />
    <glyph glyph-name="ecaron" unicode="&#x11b;" horiz-adv-x="1103" 
d="M711 557q98 0 98 133q-2 92 -52 130t-187 38t-195 -62.5t-62 -238.5h398zM764 403h-449q14 -156 81 -209t209 -53t360 25l18 -131q-135 -59 -396 -59t-371 118.5t-110 408.5t108 406.5t346 116.5t343 -84t105 -252q0 -287 -244 -287zM530 1153l-294 264l65 86l266 -174
h17l264 174l70 -86l-297 -264h-91z" />
    <glyph glyph-name="Gbreve" unicode="&#x11e;" horiz-adv-x="1288" 
d="M1155 815v-815h-151l-21 143q-177 -170 -415 -170t-342.5 178.5t-104.5 561.5q0 285 59.5 441.5t186.5 221t352 64.5t397 -43l-20 -156q-172 16 -314 16t-243 -18.5t-151 -143.5t-50 -414q0 -288 62.5 -408.5t216.5 -120.5t337 124v539h201zM670 1524q-150 0 -236 76.5
t-76 197.5l101 17q0 -145 215 -146q100 0 155.5 38t53.5 108l100 -17q10 -121 -76.5 -197.5t-236.5 -76.5z" />
    <glyph glyph-name="gbreve" unicode="&#x11f;" horiz-adv-x="1148" 
d="M562 -242q179 0 236.5 30t57.5 113t-30.5 104.5t-139.5 37.5l-321 43q-95 -78 -95 -174t56.5 -125t235.5 -29zM554 535q140 0 195.5 37.5t55.5 133.5t-54.5 132t-196.5 36t-197.5 -36.5t-55.5 -130.5t56.5 -133t196.5 -39zM989 705q0 -170 -97 -245t-337 -75
q-111 0 -199 16q-33 -43 -17.5 -94t81.5 -61l368 -58q141 -20 202 -87.5t61 -196.5q0 -178 -104.5 -246t-380.5 -68t-382 67t-106 241q0 84 37 133t123 98q-72 59 -65 158.5t79 150.5q-131 68 -131 254t96 260t340 74q150 0 238 -27h311l-10 -106l-142 -14q35 -70 35 -174z
M558 1155q-151 0 -238 77t-76 200l100 14q0 -145 215 -146q100 0 155.5 38t55.5 108l98 -14q10 -123 -74.5 -200t-235.5 -77z" />
    <glyph glyph-name="Gdotaccent" unicode="&#x120;" horiz-adv-x="1288" 
d="M1155 815v-815h-151l-21 143q-177 -170 -415 -170t-342.5 178.5t-104.5 561.5q0 285 59.5 441.5t186.5 221t352 64.5t397 -43l-20 -156q-172 16 -314 16t-243 -18.5t-151 -143.5t-50 -414q0 -288 62.5 -408.5t216.5 -120.5t337 124v539h201zM705 1548h-64q-59 0 -59 58
v114q0 59 59 60h64q57 0 57 -60v-114q0 -58 -57 -58z" />
    <glyph glyph-name="gdotaccent" unicode="&#x121;" horiz-adv-x="1148" 
d="M562 -242q179 0 236.5 30t57.5 113t-30.5 104.5t-139.5 37.5l-321 43q-95 -78 -95 -174t56.5 -125t235.5 -29zM554 535q140 0 195.5 37.5t55.5 133.5t-54.5 132t-196.5 36t-197.5 -36.5t-55.5 -130.5t56.5 -133t196.5 -39zM989 705q0 -170 -97 -245t-337 -75
q-111 0 -199 16q-33 -43 -17.5 -94t81.5 -61l368 -58q141 -20 202 -87.5t61 -196.5q0 -178 -104.5 -246t-380.5 -68t-382 67t-106 241q0 84 37 133t123 98q-72 59 -65 158.5t79 150.5q-131 68 -131 254t96 260t340 74q150 0 238 -27h311l-10 -106l-142 -14q35 -70 35 -174z
M590 1180h-64q-57 0 -57 59v115q0 57 57 57h64q59 0 59 -57v-115q0 -59 -59 -59z" />
    <glyph glyph-name="Gcommaaccent" unicode="&#x122;" horiz-adv-x="1288" 
d="M641 -119h53q37 0 50.5 -13t13.5 -48v-111q-2 -154 -70 -276l-86 22q20 102 21 211q-23 0 -37.5 14.5t-12.5 38.5v101q2 35 16.5 48t51.5 13zM1155 815v-815h-151l-21 143q-177 -170 -415 -170t-342.5 178.5t-104.5 561.5q0 285 59.5 441.5t186.5 221t352 64.5t397 -43
l-20 -156q-172 16 -314 16t-243 -18.5t-151 -143.5t-50 -414q0 -288 62.5 -408.5t216.5 -120.5t337 124v539h201z" />
    <glyph glyph-name="gcommaaccent" unicode="&#x123;" horiz-adv-x="1148" 
d="M562 -242q179 0 236.5 30t57.5 113t-30.5 104.5t-139.5 37.5l-321 43q-95 -78 -95 -174t56.5 -125t235.5 -29zM554 535q140 0 195.5 37.5t55.5 133.5t-54.5 132t-196.5 36t-197.5 -36.5t-55.5 -130.5t56.5 -133t196.5 -39zM989 705q0 -170 -97 -245t-337 -75
q-111 0 -199 16q-33 -43 -17.5 -94t81.5 -61l368 -58q141 -20 202 -87.5t61 -196.5q0 -178 -104.5 -246t-380.5 -68t-382 67t-106 241q0 84 37 133t123 98q-72 59 -65 158.5t79 150.5q-131 68 -131 254t96 260t340 74q150 0 238 -27h311l-10 -106l-142 -14q35 -70 35 -174z
M610 1139h-51q-37 0 -51 13t-14 48v111q2 150 71 276l86 -22q-20 -100 -20 -211q49 0 49 -54v-100q-2 -61 -70 -61z" />
    <glyph glyph-name="Hbar" unicode="&#x126;" horiz-adv-x="1388" 
d="M1004 1061h-619v-219h619v219zM1348 1061h-140v-1061h-204v666h-619v-666h-205v1061h-141v106h141v246h205v-246h619v246h204v-246h140v-106z" />
    <glyph glyph-name="hbar" unicode="&#x127;" horiz-adv-x="1202" 
d="M362 1167v-120q0 -102 -14 -195q238 174 436 174q131 0 201 -70.5t70 -205.5v-750h-199v692q0 94 -27.5 130t-102.5 36t-156 -35t-210 -112v-711h-198v1167h-152v113h152v154h198v-154h291v-113h-289z" />
    <glyph glyph-name="Imacron" unicode="&#x12a;" horiz-adv-x="548" 
d="M377 0h-205v1413h205v-1413zM563 1602h-577v145h577v-145z" />
    <glyph glyph-name="imacron" unicode="&#x12b;" horiz-adv-x="522" 
d="M360 0h-198v999h198v-999zM551 1235h-578v145h578v-145z" />
    <glyph glyph-name="Iogonek" unicode="&#x12e;" horiz-adv-x="548" 
d="M172 0v1413h205v-1413h-25q-106 -125 -145 -227q-31 -70 15 -93.5t138 7.5l25 -82q-218 -86 -282 -15.5t-33 172.5q41 121 192 238h-90z" />
    <glyph glyph-name="iogonek" unicode="&#x12f;" horiz-adv-x="522" 
d="M162 0v999h198v-999h-16q-106 -125 -145 -227q-31 -70 15 -93.5t138 7.5l25 -82q-218 -86 -281.5 -16.5t-34.5 173.5q41 121 191 238h-90zM295 1180h-64q-59 0 -59 59v115q0 57 59 57h64q57 0 57 -57v-115q0 -59 -57 -59z" />
    <glyph glyph-name="Idotaccent" unicode="&#x130;" horiz-adv-x="548" 
d="M377 0h-205v1413h205v-1413zM244 1780h63q57 0 58 -60v-114q0 -57 -58 -58h-63q-59 0 -60 58v114q1 60 60 60z" />
    <glyph glyph-name="dotlessi" unicode="&#x131;" horiz-adv-x="522" 
d="M360 0h-198v999h198v-999z" />
    <glyph glyph-name="IJ" unicode="&#x132;" horiz-adv-x="1251" 
d="M1085 1413v-1104q0 -160 -71.5 -244.5t-201.5 -83.5t-206 27l23 148h98q154 0 154 143v1114h204zM377 0h-205v1413h205v-1413z" />
    <glyph glyph-name="ij" unicode="&#x133;" horiz-adv-x="1044" 
d="M883 999v-1009q0 -123 -54.5 -229.5t-148.5 -174.5l-111 86q115 145 115 318v1009h199zM358 0h-196v999h196v-999zM737 1425h94q57 0 58 -57v-115q0 -59 -58 -59h-94q-59 0 -59 59v115q0 57 59 57zM213 1425h94q57 0 58 -57v-115q0 -59 -58 -59h-94q-57 0 -57 59v115
q0 57 57 57z" />
    <glyph glyph-name="Kcommaaccent" unicode="&#x136;" horiz-adv-x="1222" 
d="M623 -119h53q37 0 50 -13t13 -48v-111q-2 -154 -69 -276l-86 22q20 102 20 211q-51 0 -51 53v101q2 35 18.5 48t51.5 13zM377 0h-205v1413h205v-434q0 -88 -15 -160h160l416 594h223l-399 -577q-33 -47 -86 -99v-6q57 -49 98 -106l414 -625h-227l-439 653h-160
q14 -86 15 -145v-508z" />
    <glyph glyph-name="kcommaaccent" unicode="&#x137;" horiz-adv-x="1058" 
d="M547 -119h53q35 0 49.5 -13t14.5 -48v-111q-2 -154 -70 -276l-86 22q20 119 20 211q-51 0 -51 53v101q2 35 18.5 48t51.5 13zM352 336v-336h-198v1434h200v-629q0 -88 -12 -170h123l301 364h229l-301 -362q-27 -37 -73 -74v-4q39 -31 73 -86l334 -473h-229l-332 492h-125
q10 -88 10 -156z" />
    <glyph glyph-name="Lacute" unicode="&#x139;" horiz-adv-x="1054" 
d="M373 1413v-1110q0 -72 28.5 -101.5t100.5 -29.5h502l10 -158q-199 -18 -545 -18q-301 0 -301 278v1139h205zM606 1726l-407 -239l-66 92l363 299z" />
    <glyph glyph-name="lacute" unicode="&#x13a;" horiz-adv-x="618" 
d="M156 244v1190h198v-1145q-4 -127 129 -127h92l23 -154q-59 -26 -183 -26t-191.5 68.5t-67.5 193.5zM594 1769l-408 -237l-67 90l362 301z" />
    <glyph glyph-name="Lcommaaccent" unicode="&#x13b;" horiz-adv-x="1054" 
d="M580 -121h51q37 0 51 -13t14 -48v-111q-2 -150 -71 -276l-86 22q20 100 20 211q-49 0 -49 53v101q2 61 70 61zM373 1413v-1110q0 -72 28.5 -101.5t100.5 -29.5h502l10 -158q-199 -18 -545 -18q-301 0 -301 278v1139h205z" />
    <glyph glyph-name="lcommaaccent" unicode="&#x13c;" horiz-adv-x="618" 
d="M332 -121h51q37 0 51.5 -13t14.5 -48v-111q-2 -150 -72 -276l-86 22q20 100 20 211q-49 0 -49 53v101q2 61 70 61zM156 244v1190h198v-1145q-4 -127 129 -127h92l23 -154q-59 -26 -183 -26t-191.5 68.5t-67.5 193.5z" />
    <glyph glyph-name="Lcaron" unicode="&#x13d;" horiz-adv-x="1054" 
d="M373 1413v-1110q0 -72 28.5 -101.5t100.5 -29.5h502l10 -158q-199 -18 -545 -18q-301 0 -301 278v1139h205zM668 1415h53q37 0 51 -13t14 -48v-111q-2 -150 -71 -276l-86 22q20 100 20 211q-23 0 -37 14.5t-12 38.5v101q2 61 68 61z" />
    <glyph glyph-name="lcaron" unicode="&#x13e;" horiz-adv-x="618" 
d="M156 244v1190h198v-1145q-4 -127 129 -127h92l23 -154q-59 -26 -183 -26t-191.5 68.5t-67.5 193.5zM530 1440h52q37 0 51 -12.5t14 -45.5v-100q-2 -135 -72 -254l-86 21q20 94 21 192q-49 0 -49 49v92q1 58 69 58z" />
    <glyph glyph-name="Ldot" unicode="&#x13f;" horiz-adv-x="1054" 
d="M838 696h-64q-59 0 -59 58v114q0 59 59 60h64q57 0 57 -60v-114q0 -58 -57 -58zM373 1413v-1110q0 -72 28.5 -101.5t100.5 -29.5h502l10 -158q-199 -18 -545 -18q-301 0 -301 278v1139h205z" />
    <glyph glyph-name="ldot" unicode="&#x140;" horiz-adv-x="669" 
d="M616 682h-63q-59 0 -59 59v115q0 57 59 57h63q57 0 58 -57v-115q-1 -59 -58 -59zM156 244v1190h198v-1145q-4 -127 129 -127h92l23 -154q-59 -26 -183 -26t-191.5 68.5t-67.5 193.5z" />
    <glyph glyph-name="Lslash" unicode="&#x141;" horiz-adv-x="1067" 
d="M483 -4q-303 0 -303 278v404l-141 -60v125l141 60v610h205v-526l233 96v-125l-233 -96v-459q0 -72 29.5 -101.5t101.5 -29.5h502l8 -158q-199 -18 -543 -18z" />
    <glyph glyph-name="lslash" unicode="&#x142;" horiz-adv-x="679" 
d="M199 244v430l-160 -68v127l160 68v633h198v-551l217 90v-127l-219 -90v-467q0 -127 131 -127h92l25 -154q-59 -26 -184 -26t-192.5 68.5t-67.5 193.5z" />
    <glyph glyph-name="Nacute" unicode="&#x143;" horiz-adv-x="1449" 
d="M1278 1413v-1333q0 -80 -76 -80h-194q-61 0 -88 63l-441 963q-74 160 -84 197h-28q10 -82 10 -197v-1026h-205v1333q0 80 78 80h188q59 0 90 -63l428 -938q8 -18 29 -60.5t38 -80.5t32 -70h30q-10 123 -10 219v993h203zM1073 1726l-407 -239l-66 92l361 299z" />
    <glyph glyph-name="nacute" unicode="&#x144;" horiz-adv-x="1193" 
d="M776 1026q133 0 202 -70.5t69 -205.5v-750h-199v692q0 94 -27.5 130t-102.5 36t-153 -35t-213 -114v-709h-198v999h168l12 -153q236 180 442 180zM537 1120l-68 90l362 301l113 -151z" />
    <glyph glyph-name="Ncommaaccent" unicode="&#x145;" horiz-adv-x="1449" 
d="M674 -119h53q37 0 50.5 -13t13.5 -48v-111q-2 -154 -70 -276l-86 22q20 102 20 211q-51 0 -51 53v101q2 35 18.5 48t51.5 13zM1278 1413v-1333q0 -80 -76 -80h-194q-61 0 -88 63l-441 963q-74 160 -84 197h-28q10 -82 10 -197v-1026h-205v1333q0 80 78 80h188
q59 0 90 -63l428 -938q8 -18 29 -60.5t38 -80.5t32 -70h30q-10 123 -10 219v993h203z" />
    <glyph glyph-name="ncommaaccent" unicode="&#x146;" horiz-adv-x="1193" 
d="M571 -119h52q37 0 51 -13t14 -48v-111q-2 -150 -72 -276l-86 22q20 102 21 211q-49 0 -49 53v101q1 61 69 61zM776 1026q133 0 202 -70.5t69 -205.5v-750h-199v692q0 94 -27.5 130t-102.5 36t-153 -35t-213 -114v-709h-198v999h168l12 -153q236 180 442 180z" />
    <glyph glyph-name="Ncaron" unicode="&#x147;" horiz-adv-x="1449" 
d="M1278 1413v-1333q0 -80 -76 -80h-194q-61 0 -88 63l-441 963q-74 160 -84 197h-28q10 -82 10 -197v-1026h-205v1333q0 80 78 80h188q59 0 90 -63l428 -938q8 -18 29 -60.5t38 -80.5t32 -70h30q-10 123 -10 219v993h203zM1083 1786l-297 -264h-90l-295 264l66 84l266 -172
h17l264 172z" />
    <glyph glyph-name="ncaron" unicode="&#x148;" horiz-adv-x="1193" 
d="M776 1026q133 0 202 -70.5t69 -205.5v-750h-199v692q0 94 -27.5 130t-102.5 36t-153 -35t-213 -114v-709h-198v999h168l12 -153q236 180 442 180zM567 1153l-295 264l66 86l266 -174h17l264 174l69 -86l-297 -264h-90z" />
    <glyph glyph-name="Eng" unicode="&#x14a;" horiz-adv-x="1449" 
d="M1278 1413v-1567q0 -137 -76 -212.5t-195 -74.5t-200 29l22 129h97q160 0 159 146v137h-71q-29 0 -60 57l-477 932q-39 74 -86 197h-24q10 -66 10 -199v-987h-205v1333q0 80 78 80h149q57 0 90 -63l465 -901q41 -78 99 -213h30q-10 119 -10 215v962h205z" />
    <glyph glyph-name="eng" unicode="&#x14b;" horiz-adv-x="1193" 
d="M774 1026q272 0 273 -276v-881q0 -139 -66.5 -214t-180.5 -74t-200 30l23 127h86q139 0 139 147v807q0 84 -28.5 118t-104.5 34q-127 0 -363 -135v-709h-198v999h153l19 -161q236 188 448 188z" />
    <glyph glyph-name="Omacron" unicode="&#x14c;" horiz-adv-x="1370" 
d="M684 1257q-199 0 -273.5 -118.5t-74.5 -432t74.5 -432t273.5 -118.5t274.5 118.5t75.5 432t-75.5 432t-274.5 118.5zM685 1440q314 0 439 -160t125 -573.5t-125 -573.5t-439 -160t-439 160t-125 573.5t125 573.5t439 160zM973 1602h-580v145h580v-145z" />
    <glyph glyph-name="omacron" unicode="&#x14d;" horiz-adv-x="1167" 
d="M583.5 858q-155.5 0 -213 -75.5t-57.5 -283.5t57.5 -284t213 -76t213 76t57.5 284t-57.5 283.5t-213 75.5zM584 1026q260 0 368.5 -121t108.5 -407.5t-108.5 -405.5t-368.5 -119t-369 119t-109 405.5t109 407.5t369 121zM872 1235h-579v145h579v-145z" />
    <glyph glyph-name="Ohungarumlaut" unicode="&#x150;" horiz-adv-x="1370" 
d="M684 1257q-199 0 -273.5 -118.5t-74.5 -432t74.5 -432t273.5 -118.5t274.5 118.5t75.5 432t-75.5 432t-274.5 118.5zM685 1440q314 0 439 -160t125 -573.5t-125 -573.5t-439 -160t-439 160t-125 573.5t125 573.5t439 160zM1114 1804l-283 -329l-83 65l223 363zM768 1804
l-283 -329l-86 65l226 363z" />
    <glyph glyph-name="ohungarumlaut" unicode="&#x151;" horiz-adv-x="1167" 
d="M583.5 858q-155.5 0 -213 -75.5t-57.5 -283.5t57.5 -284t213 -76t213 76t57.5 284t-57.5 283.5t-213 75.5zM584 1026q260 0 368.5 -121t108.5 -407.5t-108.5 -405.5t-368.5 -119t-369 119t-109 405.5t109 407.5t369 121zM1012 1436l-281 -328l-86 63l225 363zM668 1436
l-283 -328l-86 63l225 363z" />
    <glyph glyph-name="OE" unicode="&#x152;" horiz-adv-x="1880" 
d="M911 274v865q0 41 15 90q-121 29 -242 28q-199 0 -273.5 -117.5t-74.5 -431.5t74.5 -433t273.5 -119q135 0 240 28q-13 43 -13 90zM1161 -4q-80 0 -141 45q-147 -68 -336 -68q-313 0 -438 160t-125 573.5t125 573.5t438 160q186 0 348 -64q63 41 148 41q414 0 598 -16
l-9 -160h-520q-72 0 -101.5 -29.5t-29.5 -101.5v-283h572v-168h-572v-358q0 -72 30 -101.5t101 -29.5h520l9 -158q-188 -16 -617 -16z" />
    <glyph glyph-name="oe" unicode="&#x153;" horiz-adv-x="1853" 
d="M1430 559q74 0 103 35t23 115t-64 114.5t-187 34.5t-184.5 -64.5t-61.5 -234.5h371zM578 139q150 0 210 66.5t66 245.5l-2 57q0 33 2 49q-8 172 -67 236.5t-209 64.5t-207.5 -75.5t-57.5 -283.5t57.5 -284t207.5 -76zM1442 414h-379q12 -164 77.5 -218.5t211.5 -54.5
t358 25l21 -131q-135 -59 -399 -59t-374 122q-106 -125 -370 -125t-373 119t-109 405.5t109 407.5t370 121t369 -121q102 121 351 121q451 0 450 -313q2 -170 -69.5 -234.5t-243.5 -64.5z" />
    <glyph glyph-name="Racute" unicode="&#x154;" horiz-adv-x="1269" 
d="M375 758h287q152 2 208 54t56 196t-56.5 195.5t-236.5 51.5t-258 -2v-495zM375 0h-203v1413q174 18 494 19q256 0 361.5 -88.5t105.5 -321.5q0 -170 -60.5 -256t-200.5 -104v-11q137 -41 179 -205l133 -446h-219l-121 440q-45 141 -178 142l-291 2v-584zM545 1487l-66 92
l363 299l112 -152z" />
    <glyph glyph-name="racute" unicode="&#x155;" horiz-adv-x="827" 
d="M748 1026h47l-23 -186h-61q-117 0 -359 -115v-725h-198v999h153l21 -151q223 178 420 178zM393 1120l-65 90l362 301l111 -151z" />
    <glyph glyph-name="Rcommaaccent" unicode="&#x156;" horiz-adv-x="1269" 
d="M647 -119h51q37 0 51.5 -13t14.5 -48v-111q-2 -150 -72 -276l-84 22q20 119 21 211q-51 0 -51 53v101q2 35 18 48t51 13zM375 758h287q152 2 208 54t56 196t-56.5 195.5t-236.5 51.5t-258 -2v-495zM375 0h-203v1413q174 18 494 19q256 0 361.5 -88.5t105.5 -321.5
q0 -170 -60.5 -256t-200.5 -104v-11q137 -41 179 -205l133 -446h-219l-121 440q-45 141 -178 142l-291 2v-584z" />
    <glyph glyph-name="rcommaaccent" unicode="&#x157;" horiz-adv-x="827" 
d="M211 -119h51q37 0 51.5 -13t14.5 -48v-111q-2 -150 -72 -276l-84 22q18 106 18 211q-49 0 -49 53v101q2 61 70 61zM711 840q-117 0 -359 -115v-725h-198v999h153l21 -151q223 178 420 178h47l-23 -186h-61z" />
    <glyph glyph-name="Rcaron" unicode="&#x158;" horiz-adv-x="1269" 
d="M375 758h287q152 2 208 54t56 196t-56.5 195.5t-236.5 51.5t-258 -2v-495zM375 0h-203v1413q174 18 494 19q256 0 361.5 -88.5t105.5 -321.5q0 -170 -60.5 -256t-200.5 -104v-11q137 -41 179 -205l133 -446h-219l-121 440q-45 141 -178 142l-291 2v-584zM578 1522
l-295 264l65 84l266 -172h17l264 172l70 -84l-297 -264h-90z" />
    <glyph glyph-name="rcaron" unicode="&#x159;" horiz-adv-x="827" 
d="M748 1026h47l-23 -186h-61q-117 0 -359 -115v-725h-198v999h153l21 -151q223 178 420 178zM426 1153l-295 264l66 86l266 -174h16l264 174l70 -86l-297 -264h-90z" />
    <glyph glyph-name="Sacute" unicode="&#x15a;" horiz-adv-x="1153" 
d="M109 1042q0 144 25.5 218.5t89 113.5t141 51.5t267.5 12.5t367 -43l-12 -150q-297 10 -431 10t-187.5 -31.5t-53.5 -149.5t38 -162t132 -68l281 -78q158 -43 222.5 -139.5t64.5 -261.5q0 -233 -106.5 -311.5t-353.5 -78.5t-466 41l14 152q319 -10 457 -9t192 40t54 158
t-37 160.5t-131 66.5l-287 80q-152 41 -216 137.5t-64 240.5zM903 1726l-407 -239l-68 92l363 299z" />
    <glyph glyph-name="sacute" unicode="&#x15b;" horiz-adv-x="1042" 
d="M98 748q0 166 89 223t318 54t415 -34l-17 -143q-313 10 -419 10t-149.5 -17.5t-43.5 -92.5q0 -35 6 -56.5t33.5 -37t101.5 -38.5l283 -69q127 -33 180 -93.5t53 -187.5q0 -176 -97 -232.5t-321 -56.5t-413 29l14 148q115 -10 313 -10t255 23t57 94t-39.5 93t-112.5 39
l-278 70q-125 33 -176.5 97.5t-51.5 187.5zM864 1360l-409 -240l-66 90l363 301z" />
    <glyph glyph-name="Scedilla" unicode="&#x15e;" horiz-adv-x="1153" 
d="M467 -203l20 92q135 12 189.5 -14.5t52.5 -118.5q-2 -133 -102.5 -203.5t-251.5 -50.5l33 105q78 -2 127 34.5t52 84.5t-21.5 59.5t-98.5 11.5zM109 1042q0 144 25.5 218.5t89 113.5t141 51.5t267.5 12.5t367 -43l-12 -150q-297 10 -431 10t-187.5 -31.5t-53.5 -149.5
t38 -162t132 -68l281 -78q158 -43 222.5 -139.5t64.5 -261.5q0 -233 -106.5 -311.5t-353.5 -78.5t-466 41l14 152q319 -10 457 -9t192 40t54 158t-37 160.5t-131 66.5l-287 80q-152 41 -216 137.5t-64 240.5z" />
    <glyph glyph-name="scedilla" unicode="&#x15f;" horiz-adv-x="1042" 
d="M395 -201l21 92q135 12 189 -14.5t52 -118.5q-2 -133 -102 -203.5t-252 -50.5l33 105q78 -2 128 35t52 98q2 33 -22.5 44t-98.5 13zM98 748q0 166 89 223t318 54t415 -34l-17 -143q-313 10 -419 10t-149.5 -17.5t-43.5 -92.5q0 -35 6 -56.5t33.5 -37t101.5 -38.5l283 -69
q127 -33 180 -93.5t53 -187.5q0 -176 -97 -232.5t-321 -56.5t-413 29l14 148q115 -10 313 -10t255 23t57 94t-39.5 93t-112.5 39l-278 70q-125 33 -176.5 97.5t-51.5 187.5z" />
    <glyph glyph-name="Scaron" unicode="&#x160;" horiz-adv-x="1153" 
d="M109 1042q0 144 25.5 218.5t89 113.5t141 51.5t267.5 12.5t367 -43l-12 -150q-297 10 -431 10t-187.5 -31.5t-53.5 -149.5t38 -162t132 -68l281 -78q158 -43 222.5 -139.5t64.5 -261.5q0 -233 -106.5 -311.5t-353.5 -78.5t-466 41l14 152q319 -10 457 -9t192 40t54 158
t-37 160.5t-131 66.5l-287 80q-152 41 -216 137.5t-64 240.5zM913 1786l-297 -264h-90l-295 264l66 84l266 -172h17l264 172z" />
    <glyph glyph-name="scaron" unicode="&#x161;" horiz-adv-x="1042" 
d="M98 748q0 166 89 223t318 54t415 -34l-17 -143q-313 10 -419 10t-149.5 -17.5t-43.5 -92.5q0 -35 6 -56.5t33.5 -37t101.5 -38.5l283 -69q127 -33 180 -93.5t53 -187.5q0 -176 -97 -232.5t-321 -56.5t-413 29l14 148q115 -10 313 -10t255 23t57 94t-39.5 93t-112.5 39
l-278 70q-125 33 -176.5 97.5t-51.5 187.5zM874 1417l-296 -264h-91l-294 264l65 86l266 -174h17l264 174z" />
    <glyph glyph-name="Tcedilla" unicode="&#x162;" horiz-adv-x="1196" 
d="M477 -178l21 92q133 12 188 -14.5t53 -118.5q-4 -133 -104 -204t-250 -50l31 104q78 -2 128 35t54 98q0 33 -23.5 44.5t-97.5 13.5zM1149 1413v-182h-449v-1231h-206v1231h-445v182h1100z" />
    <glyph glyph-name="tcedilla" unicode="&#x163;" horiz-adv-x="794" 
d="M332 -199l20 93q133 14 188.5 -13.5t53.5 -120.5q-4 -133 -104.5 -202.5t-249.5 -51.5l30 105q78 -2 128.5 36t53.5 85t-21.5 58t-98.5 11zM233 262v584h-182v143l182 8v295h197v-293h309v-153h-309v-557q0 -70 29.5 -98.5t101.5 -28.5h146l22 -154q-94 -26 -228 -26
t-201 72.5t-67 207.5z" />
    <glyph glyph-name="Tcaron" unicode="&#x164;" horiz-adv-x="1196" 
d="M1149 1231h-449v-1231h-206v1231h-445v182h1100v-182zM555 1522l-295 264l66 84l266 -172h16l264 172l68 -84l-295 -264h-90z" />
    <glyph glyph-name="tcaron" unicode="&#x165;" horiz-adv-x="794" 
d="M430 846v-557q0 -70 29.5 -98.5t101.5 -28.5h146l22 -154q-94 -26 -228 -26t-201 72.5t-67 207.5v584h-182v143l182 8v295h197v-293h309v-153h-309zM604 1372q-49 0 -49 53v101q2 61 70 61h51q37 0 51 -13t14 -48v-111q-1 -149 -71 -276l-86 22q20 100 20 211z" />
    <glyph glyph-name="Tbar" unicode="&#x166;" horiz-adv-x="1196" 
d="M700 1231v-371h283v-112h-283v-748h-206v748h-283v112h283v371h-445v182h1100v-182h-449z" />
    <glyph glyph-name="tbar" unicode="&#x167;" horiz-adv-x="794" 
d="M233 262v289h-131v108h131v187h-182v143l182 8v295h197v-293h309v-153h-309v-187h258v-108h-258v-262q0 -70 29.5 -98.5t101.5 -28.5h146l22 -154q-94 -26 -228 -26t-201 72.5t-67 207.5z" />
    <glyph glyph-name="Umacron" unicode="&#x16a;" horiz-adv-x="1363" 
d="M1202 1413v-868q0 -311 -115.5 -441.5t-400.5 -130.5t-404.5 130t-119.5 442v868h205v-868q0 -217 69.5 -303t244.5 -86t245.5 86t70.5 303v868h205zM973 1602h-578v145h578v-145z" />
    <glyph glyph-name="umacron" unicode="&#x16b;" 
d="M1018 999v-999h-158l-14 137q-219 -164 -426 -164q-272 0 -273 277v749h199v-692q-2 -92 31 -128t112 -36q117 0 332 133v723h197zM881 1243h-580v146h580v-146z" />
    <glyph glyph-name="Uring" unicode="&#x16e;" horiz-adv-x="1363" 
d="M1202 1413v-868q0 -311 -115.5 -441.5t-400.5 -130.5t-404.5 130t-119.5 442v868h205v-868q0 -217 69.5 -303t244.5 -86t245.5 86t70.5 303v868h205zM684 1800q-49 0 -82 -33t-33 -87t33 -86.5t83 -32.5t83 32.5t33 86t-34 87t-83 33.5zM684 1898q92 0 157.5 -63
t65.5 -155.5t-65.5 -155t-158.5 -62.5t-157.5 62.5t-64.5 155t65.5 155.5t157.5 63z" />
    <glyph glyph-name="uring" unicode="&#x16f;" 
d="M1018 999v-999h-158l-14 137q-219 -164 -426 -164q-272 0 -273 277v749h199v-692q-2 -92 31 -128t112 -36q117 0 332 133v723h197zM591 1442q-50 0 -83 -33t-33 -87t33 -87t83 -33t84 33t34 86t-34 87t-84 34zM591 1104q-93 0 -157.5 62.5t-64.5 154.5t65.5 155.5
t157.5 63.5t157.5 -63.5t65.5 -155.5t-65.5 -154.5t-158.5 -62.5z" />
    <glyph glyph-name="Uhungarumlaut" unicode="&#x170;" horiz-adv-x="1363" 
d="M1202 1413v-868q0 -311 -115.5 -441.5t-400.5 -130.5t-404.5 130t-119.5 442v868h205v-868q0 -217 69.5 -303t244.5 -86t245.5 86t70.5 303v868h205zM1114 1804l-283 -329l-83 65l223 363zM770 1804l-283 -329l-86 65l226 363z" />
    <glyph glyph-name="uhungarumlaut" unicode="&#x171;" 
d="M821 999h197v-999h-158l-14 137q-219 -164 -426 -164q-272 0 -273 277v749h199v-692q-2 -92 31 -128t112 -36q117 0 332 133v723zM655 1182l224 362l143 -98l-283 -330zM393 1116l-86 66l225 362l144 -98z" />
    <glyph glyph-name="Uogonek" unicode="&#x172;" horiz-adv-x="1363" 
d="M1202 1413v-868q0 -291 -100.5 -423t-339.5 -147q-100 -115 -141 -221q-31 -72 14 -94t139 8l23 -82q-96 -39 -169 -41t-108 26t-49 73t10 100q41 119 185 229q-274 6 -389 137.5t-115 434.5v868h205v-868q0 -217 69.5 -303t244.5 -86t245.5 86t70.5 303v868h205z" />
    <glyph glyph-name="uogonek" unicode="&#x173;" 
d="M420 -27q-272 0 -273 277v749h199v-692q-2 -92 31 -128t112 -36q117 0 332 133v723h197v-999h6q-104 -125 -147 -227q-29 -72 16 -94.5t139 8.5l23 -82q-96 -39 -169 -41t-108 25.5t-49 72.5t10 100q39 117 193 238h-72l-14 137q-219 -164 -426 -164z" />
    <glyph glyph-name="Wcircumflex" unicode="&#x174;" horiz-adv-x="1947" 
d="M1536 0h-227q-66 0 -80 61l-205 1039q-20 106 -29 160h-43l-233 -1199q-4 -27 -27.5 -44t-52.5 -17h-229q-63 0 -78 59l-271 1354h218l202 -1077q6 -35 25 -180h47q10 88 31 180l202 1010q14 68 78 67h219q29 0 50.5 -19.5t27.5 -47.5l201 -1012q16 -82 31 -178h47
q4 29 12 88t14 88l203 1081h217l-270 -1354q-18 -59 -80 -59zM1317 1575l-70 -84l-264 199h-16l-267 -199l-65 84l268 266h144z" />
    <glyph glyph-name="wcircumflex" unicode="&#x175;" horiz-adv-x="1691" 
d="M1288 0h-178q-61 0 -76 63l-145 658q-4 18 -13 70t-18 90h-24l-177 -818q-14 -63 -77 -63h-177q-61 0 -73 55l-283 944h205l192 -720q25 -102 31 -154h27l182 813q14 61 74 61h178q59 0 74 -63l145 -657q4 -20 35 -154h27q14 92 30 154l193 720h205l-281 -944
q-16 -55 -76 -55zM1188 1210l-68 -86l-264 199h-16l-267 -199l-65 86l266 265h146z" />
    <glyph glyph-name="Ycircumflex" unicode="&#x176;" horiz-adv-x="1175" 
d="M690 0h-205v492l-467 921h218l284 -579q16 -35 62 -164h14q43 127 61 161l285 582h213l-465 -924v-489zM311 1493l-65 84l268 264h143l271 -264l-70 -84l-264 197h-16z" />
    <glyph glyph-name="ycircumflex" unicode="&#x177;" horiz-adv-x="1091" 
d="M457 0q-57 0 -70 51l-354 948h213l248 -727q25 -63 34 -122h29q20 55 41 122l246 727h213l-387 -1046q-139 -369 -459 -373l-21 131q117 35 184.5 96.5t108.5 155.5l15 37h-41zM276 1124l-65 86l268 265h144l268 -265l-68 -86l-264 199h-16z" />
    <glyph glyph-name="Ydieresis" unicode="&#x178;" horiz-adv-x="1175" 
d="M690 0h-205v492l-467 921h218l284 -579q16 -35 62 -164h14q43 127 61 161l285 582h213l-465 -924v-489zM801 1567h-66q-53 0 -53 55v111q0 53 53 53h66q55 0 55 -53v-111q0 -55 -55 -55zM438 1567h-67q-51 0 -52 55v111q0 53 52 53h67q53 0 54 -53v-111q-1 -55 -54 -55z
" />
    <glyph glyph-name="Zacute" unicode="&#x179;" horiz-adv-x="1163" 
d="M1067 174v-174h-969v174l731 1065h-720v174h944v-174l-729 -1065h743zM512 1487l-66 92l363 299l111 -152z" />
    <glyph glyph-name="zacute" unicode="&#x17a;" horiz-adv-x="1048" 
d="M950 162v-162h-852v162l625 676h-617v161h836v-161l-623 -676h631zM451 1120l-66 90l363 301l110 -151z" />
    <glyph glyph-name="Zdotaccent" unicode="&#x17b;" horiz-adv-x="1163" 
d="M1067 174v-174h-969v174l731 1065h-720v174h944v-174l-729 -1065h743zM618 1548h-63q-57 0 -57 58v114q0 59 57 60h63q59 0 60 -60v-114q-1 -58 -60 -58z" />
    <glyph glyph-name="zdotaccent" unicode="&#x17c;" horiz-adv-x="1048" 
d="M950 162v-162h-852v162l625 676h-617v161h836v-161l-623 -676h631zM557 1180h-63q-57 0 -58 59v115q0 57 58 57h63q59 0 59 -57v-115q0 -59 -59 -59z" />
    <glyph glyph-name="Zcaron" unicode="&#x17d;" horiz-adv-x="1163" 
d="M1067 174v-174h-969v174l731 1065h-720v174h944v-174l-729 -1065h743zM545 1522l-295 264l65 84l267 -172h16l264 172l70 -84l-297 -264h-90z" />
    <glyph glyph-name="zcaron" unicode="&#x17e;" horiz-adv-x="1048" 
d="M950 162v-162h-852v162l625 676h-617v161h836v-161l-623 -676h631zM481 1153l-295 264l68 86l264 -174h17l266 174l67 -86l-295 -264h-92z" />
    <glyph glyph-name="florin" unicode="&#x192;" horiz-adv-x="919" 
d="M721 1270q-90 0 -128 -31t-46 -123l-27 -295h283l-15 -155h-282l-64 -676q-24 -295 -302 -295q-144 0 -228 14l25 150h137q86 0 124 34.5t48 118.5l61 654h-203l11 147l207 6l28 320q27 297 324 297q143 0 219 -17l-27 -149h-145z" />
    <glyph glyph-name="Scommaaccent" unicode="&#x218;" horiz-adv-x="1153" 
d="M557 -119h53q35 0 49.5 -13t14.5 -48v-111q-2 -154 -70 -276l-86 22q20 119 21 211q-51 0 -52 53v101q2 35 18.5 48t51.5 13zM109 1042q0 144 25.5 218.5t89 113.5t141 51.5t267.5 12.5t367 -43l-12 -150q-297 10 -431 10t-187.5 -31.5t-53.5 -149.5t38 -162t132 -68
l281 -78q158 -43 222.5 -139.5t64.5 -261.5q0 -233 -106.5 -311.5t-353.5 -78.5t-466 41l14 152q319 -10 457 -9t192 40t54 158t-37 160.5t-131 66.5l-287 80q-152 41 -216 137.5t-64 240.5z" />
    <glyph glyph-name="scommaaccent" unicode="&#x219;" horiz-adv-x="1042" 
d="M508 -119h53q35 0 49.5 -13t14.5 -48v-111q-2 -156 -72 -276l-84 22q20 119 20 211q-51 0 -51 53v101q2 35 18.5 48t51.5 13zM98 748q0 166 89 223t318 54t415 -34l-17 -143q-313 10 -419 10t-149.5 -17.5t-43.5 -92.5q0 -35 6 -56.5t33.5 -37t101.5 -38.5l283 -69
q127 -33 180 -93.5t53 -187.5q0 -176 -97 -232.5t-321 -56.5t-413 29l14 148q115 -10 313 -10t255 23t57 94t-39.5 93t-112.5 39l-278 70q-125 33 -176.5 97.5t-51.5 187.5z" />
    <glyph glyph-name="uni021A" unicode="&#x21a;" horiz-adv-x="1196" 
d="M549 -119h51q37 0 51.5 -13t14.5 -48v-111q-2 -150 -72 -276l-84 22q20 119 20 211q-51 0 -51 53v101q2 35 18.5 48t51.5 13zM1149 1231h-449v-1231h-206v1231h-445v182h1100v-182z" />
    <glyph glyph-name="uni021B" unicode="&#x21b;" horiz-adv-x="794" 
d="M444 -119h54q35 0 49 -13t14 -48v-111q-2 -156 -72 -276l-83 22q20 119 20 211q-51 0 -51 53v101q2 35 18 48t51 13zM233 262v584h-182v143l182 8v295h197v-293h309v-153h-309v-557q0 -70 29.5 -98.5t101.5 -28.5h146l22 -154q-94 -26 -228 -26t-201 72.5t-67 207.5z" />
    <glyph glyph-name="circumflex" unicode="&#x2c6;" horiz-adv-x="870" 
d="M778 1198l-67 -84l-267 197h-16l-264 -197l-66 84l267 264h145z" />
    <glyph glyph-name="caron" unicode="&#x2c7;" horiz-adv-x="870" 
d="M778 1407l-297 -264h-90l-295 264l68 84l264 -172h16l267 172z" />
    <glyph glyph-name="breve" unicode="&#x2d8;" horiz-adv-x="774" 
d="M389.5 1139q-151.5 0 -237.5 76.5t-76 199.5l100 15q-2 -70 53.5 -108t158.5 -38t158.5 38t53.5 108l100 -15q10 -123 -74.5 -199.5t-236 -76.5z" />
    <glyph glyph-name="dotaccent" unicode="&#x2d9;" horiz-adv-x="458" 
d="M197 1407h63q59 0 59 -57v-115q0 -59 -59 -59h-63q-57 0 -58 59v115q1 57 58 57z" />
    <glyph glyph-name="ring" unicode="&#x2da;" horiz-adv-x="618" 
d="M310 1423q-50 0 -82.5 -32.5t-32.5 -86.5t32.5 -86t82.5 -32t83 31.5t33 85t-33 87t-83 33.5zM309 1522q92 0 157.5 -63.5t65.5 -156t-65.5 -155t-158.5 -62.5t-157.5 62.5t-64.5 155t65.5 156t157.5 63.5z" />
    <glyph glyph-name="ogonek" unicode="&#x2db;" horiz-adv-x="516" 
d="M293 4l86 -4q-106 -125 -146 -227q-31 -70 15.5 -93.5t138.5 7.5l25 -82q-218 -86 -304 9q-40 44 -12 148q41 121 197 242z" />
    <glyph glyph-name="tilde" unicode="&#x2dc;" horiz-adv-x="868" 
d="M197 1192h-91q-14 123 32 187.5t120 58.5t168 -54.5t149 -55.5t76 16.5t21 82.5h90q14 -119 -31 -182t-125 -57t-177 56t-145 56t-67.5 -19.5t-19.5 -88.5z" />
    <glyph glyph-name="hungarumlaut" unicode="&#x2dd;" horiz-adv-x="948" 
d="M825 1413l-282 -330l-84 66l223 362zM479 1413l-280 -330l-88 66l227 362z" />
    <glyph glyph-name="Delta" unicode="&#x394;" horiz-adv-x="1288" 
d="M999 166l-309 885q-4 8 -45 163q-8 -27 -23.5 -82t-23.5 -83l-313 -883h714zM1241 0h-1194v82l494 1331h207l493 -1331v-82z" />
    <glyph glyph-name="Omega" unicode="&#x3a9;" horiz-adv-x="1472" 
d="M106 180h201q72 0 135 -16q-158 117 -224 254t-64 350q0 342 137 507t445 165t445.5 -166t137.5 -508q0 -217 -66.5 -351t-224.5 -251q66 16 135 16h203v-180h-524v172q147 104 204.5 232t59.5 337q-2 279 -87 399t-286 120t-283.5 -120t-82.5 -369t58 -368.5t204 -230.5
v-172h-523v180z" />
    <glyph glyph-name="mu" unicode="&#x3bc;" horiz-adv-x="1224" 
d="M344 -125v-283h-174v1407h199v-692q0 -145 161 -145q127 0 318 110v727h199v-999h-154l-19 150q-207 -176 -389 -177q-84 0 -153 33q12 -66 12 -131z" />
    <glyph glyph-name="pi" unicode="&#x3c0;" horiz-adv-x="1316" 
d="M1264 840h-187v-840h-198v840h-441v-840h-196v840h-187v159h1209v-159z" />
    <glyph glyph-name="uni0401" unicode="&#x401;" horiz-adv-x="1148" 
d="M442 -4q-131 0 -206.5 68.5t-75.5 185.5v913q0 117 75.5 185.5t206.5 68.5q420 0 607 -16l-9 -160h-563q-61 0 -86.5 -29.5t-25.5 -101.5v-283h596v-165h-596v-361q0 -72 25.5 -101.5t86.5 -29.5h563l9 -158q-186 -16 -607 -16zM846 1608h-64q-55 0 -55 53v113
q0 53 55 53h64q55 0 55 -53v-113q0 -53 -55 -53zM483 1608h-65q-53 0 -53 53v113q0 53 53 53h65q53 0 54 -53v-113q-1 -53 -54 -53z" />
    <glyph glyph-name="uni0402" unicode="&#x402;" horiz-adv-x="1542" 
d="M700 1231v-432q186 111 404 110q166 0 260 -91t94 -350t-136 -373.5t-390 -104.5l-19 149q182 12 261 79t79 240t-48.5 224t-186.5 51t-318 -96v-637h-206v1231h-445v182h1100v-182h-449z" />
    <glyph glyph-name="uni0403" unicode="&#x403;" horiz-adv-x="1060" 
d="M168 0v1139q0 123 74.5 200.5t191.5 77.5q406 0 588 -18l-8 -158h-510q-72 0 -101.5 -30.5t-29.5 -110.5v-1100h-205zM936 1726l-408 -239l-67 92l362 299z" />
    <glyph glyph-name="uni0404" unicode="&#x404;" horiz-adv-x="1183" 
d="M121 706.5q0 403.5 128 567.5t443 164q227 0 398 -41l-23 -160q-163 16 -361 16t-279 -94t-93 -332h596v-159h-598q2 -287 82 -397.5t278 -110.5q246 0 389 20l21 -155q-164 -49 -410 -50q-315 0 -443 164t-128 567.5z" />
    <glyph glyph-name="uni0405" unicode="&#x405;" horiz-adv-x="1153" 
d="M109 1042q0 144 25.5 218.5t89 113.5t141 51.5t267.5 12.5t367 -43l-12 -150q-297 10 -431 10t-187.5 -31.5t-53.5 -149.5t38 -162t132 -68l281 -78q158 -43 222.5 -139.5t64.5 -261.5q0 -233 -106.5 -311.5t-353.5 -78.5t-466 41l14 152q319 -10 457 -9t192 40t54 158
t-37 160.5t-131 66.5l-287 80q-152 41 -216 137.5t-64 240.5z" />
    <glyph glyph-name="uni0406" unicode="&#x406;" horiz-adv-x="548" 
d="M377 0h-205v1413h205v-1413z" />
    <glyph glyph-name="uni0407" unicode="&#x407;" horiz-adv-x="548" 
d="M377 0h-205v1413h205v-1413zM424 1786h63q55 0 56 -55v-111q0 -55 -56 -55h-63q-55 0 -55 55v111q0 55 55 55zM59 1786h66q53 0 53 -55v-111q0 -55 -53 -55h-66q-53 0 -53 55v111q0 55 53 55z" />
    <glyph glyph-name="uni0408" unicode="&#x408;" horiz-adv-x="702" 
d="M537 1413v-1104q0 -162 -72 -245.5t-200 -82.5t-208 27l23 148h100q152 0 152 143v1114h205z" />
    <glyph glyph-name="uni0409" unicode="&#x409;" horiz-adv-x="1988" 
d="M1692 418q0 154 -52.5 210t-212.5 56h-276v-520l276 -2q160 0 212.5 51t52.5 205zM1151 854h276q264 0 367.5 -96t103.5 -343t-98 -339t-342 -92q-328 0 -510 16l2 10v1237h-252q-115 0 -127 -139q-37 -399 -60.5 -552t-81.5 -289t-143 -199.5t-227 -71.5l-16 141
q119 43 197 193q43 90 58 157.5t20.5 92t11.5 76t9 78t9 91t8 92t8.5 107.5t8.5 115q18 274 307 274h471v-559z" />
    <glyph glyph-name="uni040A" unicode="&#x40a;" horiz-adv-x="2002" 
d="M1706 417q0 153 -52 210t-214 57h-275v-520l275 -2q162 0 214 51t52 204zM1165 852h275q266 0 369.5 -95t103.5 -343t-98.5 -339t-341.5 -91q-330 0 -510 16v684h-586v-684h-205v1413h205v-561h586v561h202v-561z" />
    <glyph glyph-name="uni040B" unicode="&#x40b;" horiz-adv-x="1583" 
d="M700 1231v-434q225 113 445 112q170 0 250 -78.5t80 -244.5v-586h-205v545q0 102 -43 143t-152 41q-180 0 -375 -96v-633h-206v1231h-445v182h1100v-182h-449z" />
    <glyph glyph-name="uni040C" unicode="&#x40c;" horiz-adv-x="1239" 
d="M504 653h-142q14 -86 15 -145v-508h-205v1413h205v-434q0 -70 -15 -160h142q131 0 208.5 94.5t132.5 243t91 256.5h207q-117 -342 -164 -434q-112 -225 -293 -238v-8q129 -13 176 -64t65.5 -71t44 -69.5t40 -77t40 -96t38 -103.5t43 -121t47.5 -131h-215
q-125 354 -162 432q-84 170 -199 207q-45 14 -100 14zM553 1487l-68 92l363 299l113 -152z" />
    <glyph glyph-name="uni040D" unicode="&#x40d;" horiz-adv-x="1421" 
d="M1249 0h-198v997q0 102 12 168h-12q-29 -76 -74 -159l-594 -1006h-211v1413h197v-987q0 -86 -13 -174h11q35 84 79 160l590 1001h213v-1413zM821 1579l-65 -92l-408 239l113 152z" />
    <glyph glyph-name="uni040E" unicode="&#x40e;" horiz-adv-x="1161" 
d="M353 160q57 0 77.5 10t49 25t79.5 155l25 60h-76q-61 0 -95 23.5t-55 78.5l-319 901h209l274 -801q14 -31 43 -30h78l291 831h209l-375 -1063q-63 -172 -135 -263t-196 -101t-263 30l23 150q99 -6 156 -6zM580 1524q-150 0 -236 76.5t-76 197.5l99 17q0 -70 55.5 -108
t157.5 -38t157.5 38t55.5 108l100 -17q10 -121 -76.5 -197.5t-236.5 -76.5z" />
    <glyph glyph-name="uni040F" unicode="&#x40f;" horiz-adv-x="1384" 
d="M1212 1413v-1413h-434l-10 -309h-139l-13 309h-444v1413h205v-1247h629v1247h206z" />
    <glyph glyph-name="uni0410" unicode="&#x410;" horiz-adv-x="1282" 
d="M868 604l-166 537q-6 18 -17 57t-17 57h-56l-32 -114l-166 -537h454zM537 1413h208q61 0 74 -55l445 -1358h-211l-131 426h-564l-131 -426h-209l443 1358q16 55 76 55z" />
    <glyph glyph-name="uni0411" unicode="&#x411;" horiz-adv-x="1228" 
d="M924 401q0 147 -52.5 199.5t-214.5 52.5h-280v-493l280 -2q164 0 215.5 48t51.5 195zM377 813h280q266 0 369.5 -92t103.5 -314t-73 -313t-197.5 -101.5t-301.5 -10.5t-382 18h-4v1413q262 14 444.5 14t434.5 -14l-17 -172h-657v-428z" />
    <glyph glyph-name="uni0412" unicode="&#x412;" horiz-adv-x="1273" 
d="M952 396q0 146 -62.5 200.5t-227.5 56.5h-289v-493l301 -2q162 0 220 46t58 192zM373 811h286q147 0 204 46t57 178t-61.5 176t-225.5 44h-260v-444zM1159 334q0 -194 -101.5 -272t-352.5 -78q-346 0 -533 16v1413q166 17 452 17t389 -77t103 -292q0 -154 -57 -233
t-182 -91v-8q154 -14 218 -107.5t64 -287.5z" />
    <glyph glyph-name="uni0413" unicode="&#x413;" horiz-adv-x="1060" 
d="M168 0v1139q0 123 74.5 200.5t191.5 77.5q406 0 588 -18l-8 -158h-510q-72 0 -101.5 -30.5t-29.5 -110.5v-1100h-205z" />
    <glyph glyph-name="uni0414" unicode="&#x414;" horiz-adv-x="1433" 
d="M991 166v1081h-266q-74 0 -105.5 -30.5t-37.5 -108.5q-23 -317 -66 -535.5t-135 -406.5h610zM1370 166v-475h-139l-19 309h-1007l-19 -309h-141v475h139q164 358 201 973q4 127 85 200.5t218 73.5h508v-1247h174z" />
    <glyph glyph-name="uni0415" unicode="&#x415;" horiz-adv-x="1148" 
d="M442 -4q-131 0 -206.5 68.5t-75.5 185.5v913q0 117 75.5 185.5t206.5 68.5q420 0 607 -16l-9 -160h-563q-61 0 -86.5 -29.5t-25.5 -101.5v-283h596v-165h-596v-361q0 -72 25.5 -101.5t86.5 -29.5h563l9 -158q-186 -16 -607 -16z" />
    <glyph glyph-name="uni0416" unicode="&#x416;" horiz-adv-x="1871" 
d="M1151 653h-127q12 -74 12 -145v-508h-194v508q0 59 14 145h-137q-100 0 -174 -73.5t-111.5 -156.5t-91.5 -235t-68 -188h-215q10 27 38 110t46.5 135t51 136t82.5 169t117 129t157 54v8q-138 16 -217 118.5t-138.5 268.5t-99.5 285h209q117 -326 168 -418
q98 -176 242 -176h139q-12 78 -12 160v434h194v-434q0 -96 -10 -160h127q94 0 169 80t111.5 165t81.5 208t52 141h209q-117 -342 -166 -438q-113 -219 -291 -234v-8q131 -13 189.5 -77t86 -102t67 -133.5t91.5 -244.5q51 -149 59 -176h-217q-131 362 -168 440
q-84 168 -194 203q-37 10 -82 10z" />
    <glyph glyph-name="uni0417" unicode="&#x417;" horiz-adv-x="1128" 
d="M528 1430q240 0 341.5 -77t101.5 -292q0 -154 -56.5 -232.5t-181.5 -91.5v-8q152 -14 215.5 -107.5t63.5 -287.5t-101 -272t-369 -78t-470 49l18 147q545 -69 629 -1.5t84 215.5t-62.5 202.5t-224.5 54.5h-242v162h242q141 0 195.5 46t54.5 179t-58 179.5t-206 46.5
t-379 -25l-17 158q182 33 422 33z" />
    <glyph glyph-name="uni0418" unicode="&#x418;" horiz-adv-x="1421" 
d="M1249 0h-198v997q0 102 12 168h-12q-29 -76 -74 -159l-594 -1006h-211v1413h197v-987q0 -86 -13 -174h11q35 84 79 160l590 1001h213v-1413z" />
    <glyph glyph-name="uni0419" unicode="&#x419;" horiz-adv-x="1421" 
d="M1249 0h-198v997q0 102 12 168h-12q-29 -76 -74 -159l-594 -1006h-211v1413h197v-987q0 -86 -13 -174h11q35 84 79 160l590 1001h213v-1413zM879 1810h147q10 -123 -75 -204.5t-235 -81.5t-237.5 82t-77.5 204h150q0 -88 43 -134t123 -46q162 0 162 180z" />
    <glyph glyph-name="uni041A" unicode="&#x41a;" horiz-adv-x="1239" 
d="M504 653h-142q14 -86 15 -145v-508h-205v1413h205v-434q0 -70 -15 -160h142q131 0 208 94q78 94 133 243q55 148 91 257h207q-117 -342 -164 -434q-112 -225 -293 -238v-8q128 -13 194 -84q28 -31 47 -51t44.5 -69.5t40 -77t40 -96t38 -103.5t43 -121t47.5 -131h-215
q-125 354 -162 432q-84 170 -199 207q-45 14 -100 14z" />
    <glyph glyph-name="uni041B" unicode="&#x41b;" horiz-adv-x="1341" 
d="M1169 1413v-1413h-206v1247h-261q-133 0 -145 -139q-35 -395 -59.5 -552t-81.5 -284q-123 -283 -379 -276l-17 160q143 39 203 172q53 127 78 284.5t55 532.5q25 268 293 268h520z" />
    <glyph glyph-name="uni041C" unicode="&#x41c;" horiz-adv-x="1804" 
d="M1296 1413h224q80 0 84 -84l57 -1329h-205l-49 1243h-41l-287 -1005q-18 -70 -88 -70h-178q-72 0 -90 70l-289 1005h-39l-47 -1243h-203l54 1329q4 84 84 84h227q63 0 86 -70l240 -827q20 -74 47 -190h37q25 109 49 192l237 825q22 70 90 70z" />
    <glyph glyph-name="uni041D" unicode="&#x41d;" horiz-adv-x="1372" 
d="M1200 1413v-1413h-207v666h-616v-666h-205v1413h205v-571h616v571h207z" />
    <glyph glyph-name="uni041E" unicode="&#x41e;" horiz-adv-x="1370" 
d="M684 1257q-199 0 -273.5 -118.5t-74.5 -432t74.5 -432t273.5 -118.5t274.5 118.5t75.5 432t-75.5 432t-274.5 118.5zM685 1440q314 0 439 -160t125 -573.5t-125 -573.5t-439 -160t-439 160t-125 573.5t125 573.5t439 160z" />
    <glyph glyph-name="uni041F" unicode="&#x41f;" horiz-adv-x="1374" 
d="M1202 1413v-1413h-205v1247h-620v-1247h-205v1413h1030z" />
    <glyph glyph-name="uni0420" unicode="&#x420;" horiz-adv-x="1212" 
d="M379 713h280q150 2 205.5 57t55.5 215t-55 215t-233 55t-253 -2v-540zM172 0v1413q174 18 494 19q262 0 361 -94.5t99 -353.5t-95 -353t-343 -94q-154 0 -309 18v-555h-207z" />
    <glyph glyph-name="uni0421" unicode="&#x421;" 
d="M121 706.5q0 403.5 125 567.5t434 164q221 0 391 -41l-20 -158q-164 16 -365 16t-275.5 -118.5t-74.5 -430t74.5 -430t269.5 -118.5q260 -1 399 22l21 -155q-170 -49 -420 -50q-309 0 -434 164t-125 567.5z" />
    <glyph glyph-name="uni0422" unicode="&#x422;" horiz-adv-x="1196" 
d="M1149 1231h-449v-1231h-206v1231h-445v182h1100v-182z" />
    <glyph glyph-name="uni0423" unicode="&#x423;" horiz-adv-x="1161" 
d="M353 160q57 0 77.5 10t38.5 20q39 20 90 160l25 60h-76q-61 0 -95 23.5t-55 78.5l-319 901h209l274 -801q14 -31 43 -30h78l291 831h209l-375 -1063q-63 -172 -135 -263t-196 -101t-263 30l23 150q99 -6 156 -6z" />
    <glyph glyph-name="uni0424" unicode="&#x424;" horiz-adv-x="1683" 
d="M1376 725q0 236 -94 329t-346 103v-862q252 12 346 103t94 327zM305 724q0 -236 94.5 -327.5t348.5 -101.5v862q-254 -10 -348.5 -103.5t-94.5 -329.5zM944 1524v-197q356 -14 499.5 -148.5t143.5 -454.5t-143.5 -452.5t-499.5 -146.5v-197h-205v197q-356 12 -500.5 145
t-144.5 454t144.5 456t500.5 147v197h205z" />
    <glyph glyph-name="uni0425" unicode="&#x425;" horiz-adv-x="1261" 
d="M653 655h-49l-336 -655h-221l387 731l-360 682h219l309 -602h55l308 602h223l-363 -682l389 -731h-223z" />
    <glyph glyph-name="uni0426" unicode="&#x426;" horiz-adv-x="1423" 
d="M1358 166v-475h-139l-19 309h-1028v1413h205v-1247h602v1247h207v-1247h172z" />
    <glyph glyph-name="uni0427" unicode="&#x427;" horiz-adv-x="1288" 
d="M1118 1413v-1413h-205v631q-231 -123 -473 -123q-164 0 -242.5 80t-78.5 243v582h205v-541q-2 -96 42 -139t148 -43q186 0 399 98v625h205z" />
    <glyph glyph-name="uni0428" unicode="&#x428;" horiz-adv-x="1914" 
d="M1743 1413v-1413h-1571v1413h201v-1247h485v1247h199v-1247h485v1247h201z" />
    <glyph glyph-name="uni0429" unicode="&#x429;" horiz-adv-x="1966" 
d="M1903 -309h-140l-18 309h-1573v1413h201v-1247h479v1247h199v-1247h479v1247h201v-1247h172v-475z" />
    <glyph glyph-name="uni042A" unicode="&#x42a;" horiz-adv-x="1531" 
d="M1235 417q0 153 -52.5 210t-211.5 57h-275v-520l275 -2q160 0 212 51t52 204zM696 854h275q266 0 368.5 -96t102.5 -344t-98.5 -339t-342.5 -91q-330 0 -512 16v1231h-442v182h649v-559z" />
    <glyph glyph-name="uni042B" unicode="&#x42b;" horiz-adv-x="1746" 
d="M922 417q0 153 -52.5 210t-214.5 57h-278v-520l278 -2q162 0 214.5 51t52.5 204zM1577 1413v-1413h-205v1413h205zM377 854h278q266 0 369.5 -96t103.5 -344t-98 -339t-342 -91q-330 0 -512 16h-4v1413h205v-559z" />
    <glyph glyph-name="uni042C" unicode="&#x42c;" horiz-adv-x="1218" 
d="M922 417q0 153 -52.5 210t-214.5 57h-278v-520l278 -2q162 0 214.5 51t52.5 204zM377 854h278q266 0 369.5 -96t103.5 -344t-98 -339t-342 -91q-330 0 -512 16h-4v1413h205v-559z" />
    <glyph glyph-name="uni042D" unicode="&#x42d;" horiz-adv-x="1183" 
d="M489 1438q317 0 445.5 -164t128.5 -567.5t-128 -567.5t-446 -164q-244 0 -407 50l20 155q143 -20 390 -20q199 0 278.5 110.5t81.5 397.5h-598v159h594q-12 238 -92 332t-278 94t-363 -16l-21 160q170 41 395 41z" />
    <glyph glyph-name="uni042E" unicode="&#x42e;" horiz-adv-x="1910" 
d="M1228 156q194 0 268.5 118t74.5 432t-75 432.5t-269 118.5t-266 -118.5t-72 -432t72.5 -432t266.5 -118.5zM379 817h309q14 348 134 485.5t418 137.5t424 -160t126 -573.5t-126 -573.5t-428 -160t-422 148.5t-126 529.5h-309v-651h-205v1413h205v-596z" />
    <glyph glyph-name="uni042F" unicode="&#x42f;" horiz-adv-x="1259" 
d="M883 741v512q-76 2 -251 2t-229.5 -52t-55.5 -194t55.5 -205t193.5 -63h287zM596 1432q319 0 491 -19v-1413h-204v567l-285 -2q-139 0 -178 -141l-119 -424h-217l125 432q47 164 199 201l-2 10q-141 20 -204 111.5t-61 263.5q0 223 105.5 318.5t349.5 95.5z" />
    <glyph glyph-name="uni0430" unicode="&#x430;" horiz-adv-x="1136" 
d="M303 342v-53q0 -74 35 -106.5t113 -32.5q178 0 337 139v180h-364q-66 -2 -93.5 -35t-27.5 -92zM614 1026q201 0 287 -73.5t86 -256.5v-696h-158l-20 158q-172 -176 -399 -176q-139 0 -223.5 74.5t-84.5 207.5v105q0 119 75 184t210 65h401v78q-2 92 -42.5 127t-156.5 35
t-423 -24l-19 145q266 47 467 47z" />
    <glyph glyph-name="uni0431" unicode="&#x431;" horiz-adv-x="1181" 
d="M606 801q-152 0 -207 -73.5t-55 -255.5t57.5 -256.5t203 -74.5t201.5 75t56 264t-52 255t-204 66zM670 969q219 0 309 -110.5t90 -369t-100.5 -386.5t-351.5 -128t-332.5 83t-107 172t-32 168.5t-6.5 229.5t13.5 264t51.5 217t113.5 166t164.5 91t232.5 51t260.5 94
l47 -155q-76 -47 -145.5 -68.5t-157.5 -35t-141 -27.5q-229 -66 -271 -312q-14 -78 -20 -147h4q29 59 63.5 98t115.5 72t200 33z" />
    <glyph glyph-name="uni0432" unicode="&#x432;" horiz-adv-x="1136" 
d="M831 289q0 88 -54 121.5t-189 33.5h-246v-301l256 -2q133 0 183 30t50 118zM342 586h246q123 0 171 28.5t48 108.5t-53.5 106.5t-190.5 26.5h-221v-270zM1030 234q0 -138 -90 -193t-350 -55t-434 12v999q156 13 406 13t341.5 -55.5t91.5 -211.5q0 -106 -51 -162.5
t-164 -64.5v-6q135 -10 192.5 -74t57.5 -202z" />
    <glyph glyph-name="uni0433" unicode="&#x433;" horiz-adv-x="956" 
d="M152 0v784q0 221 227 222q371 0 534 -19l-6 -139h-444q-59 0 -87 -27.5t-28 -89.5v-731h-196z" />
    <glyph glyph-name="uni0434" unicode="&#x434;" horiz-adv-x="1216" 
d="M815 846h-197q-111 0 -120 -117q-25 -350 -144 -569h461v686zM1147 160v-455h-131l-17 295h-794l-17 -295h-131v455h121q117 250 141 602q16 238 267 237h418v-839h143z" />
    <glyph glyph-name="uni0435" unicode="&#x435;" horiz-adv-x="1112" 
d="M715 557q100 0 96 133q0 92 -50.5 130t-188.5 38t-194.5 -62.5t-62.5 -238.5h400zM768 403h-449q14 -156 81 -209t209 -53t360 25l18 -131q-135 -59 -396 -59t-371.5 119.5t-110.5 408.5t108.5 405.5t345.5 116.5t342 -84t107 -252q0 -287 -244 -287z" />
    <glyph glyph-name="uni0436" unicode="&#x436;" horiz-adv-x="1628" 
d="M905 350v-350h-176v350q0 39 10 94h-145q-106 -2 -160.5 -80.5t-152.5 -326.5q-10 -25 -15 -37h-200q85 254 110 299t49.5 85t45 56.5t60.5 43t126 34.5v6q-59 6 -112.5 34t-82.5 69t-43 61.5t-41.5 89t-38 98t-45.5 123.5h199q103 -283 164 -344t145 -61h137
q-10 61 -10 115v290h176v-290q0 -70 -10 -115h129q109 0 166 86t143 319h201q-35 -94 -45 -123.5t-38 -98t-42 -89t-43 -61.5t-82.5 -69t-112.5 -34v-6q55 -6 95.5 -19.5t76 -48t58 -63.5t53.5 -100.5t49.5 -122.5t59.5 -164h-203q-106 279 -150 344q-66 98 -178 100h-137
q10 -55 10 -94z" />
    <glyph glyph-name="uni0437" unicode="&#x437;" horiz-adv-x="1026" 
d="M460 1018q222 0 321.5 -54.5t99.5 -213.5q0 -113 -47.5 -168.5t-161.5 -65.5v-6q131 -10 188.5 -73t57.5 -205t-97.5 -196t-341.5 -54t-403 32l14 150q483 -39 553 1t70 125t-52.5 115.5t-189.5 30.5h-248v146h246q127 0 171 29.5t44 109.5t-53 104.5t-217 24.5t-289 -16
l-16 149q129 35 351 35z" />
    <glyph glyph-name="uni0438" unicode="&#x438;" horiz-adv-x="1204" 
d="M158 0v999h176v-634q0 -61 -6 -136h6q39 78 69 119l484 651h160v-999h-179v633l6 139h-4q-20 -55 -71 -123l-482 -649h-159z" />
    <glyph glyph-name="uni0439" unicode="&#x439;" horiz-adv-x="1204" 
d="M158 0v999h176v-634q0 -61 -6 -136h6q39 78 69 119l484 651h160v-999h-179v633l6 139h-4q-20 -55 -71 -123l-482 -649h-159zM758 1442h149q10 -123 -75.5 -205t-235.5 -82t-237 82t-76 205h149q0 -178 166 -178q160 0 160 178z" />
    <glyph glyph-name="uni043A" unicode="&#x43a;" horiz-adv-x="1105" 
d="M481 442h-137q10 -51 10 -92v-350h-196v999h196v-288q0 -53 -10 -115h125q131 0 194.5 87t143.5 316h205q-35 -92 -47.5 -125.5t-40 -99t-44 -88t-44.5 -61.5q-59 -84 -199 -103v-4q150 -18 213 -101q28 -38 48 -68q39 -60 142 -349h-206q-113 295 -142.5 332t-61.5 65.5
t-67 36.5t-82 8z" />
    <glyph glyph-name="uni043B" unicode="&#x43b;" horiz-adv-x="1161" 
d="M1004 999v-999h-199v846h-201q-61 0 -86.5 -26.5t-36.5 -96.5q-49 -381 -92 -506q-74 -233 -330 -227l-20 151q80 18 115.5 46t58.5 85q47 125 82 486q14 123 78.5 182t193.5 59h437z" />
    <glyph glyph-name="uni043C" unicode="&#x43c;" horiz-adv-x="1542" 
d="M1090 999h202q74 0 74 -73l41 -926h-184l-37 850h-33l-233 -674q-18 -63 -76 -63h-150q-55 0 -78 63l-231 674h-33l-35 -850h-182l39 926q0 74 76 73h201q57 0 75 -63l189 -551q23 -66 39 -143h30q18 73 39 143l189 551q23 63 78 63z" />
    <glyph glyph-name="uni043D" unicode="&#x43d;" horiz-adv-x="1198" 
d="M1042 999v-999h-196v455h-494v-455h-194v999h194v-393h494v393h196z" />
    <glyph glyph-name="uni043E" unicode="&#x43e;" horiz-adv-x="1173" 
d="M587.5 858q-155.5 0 -213 -75.5t-57.5 -283.5t57.5 -284t212.5 -76t213 76t58 284t-57.5 283.5t-213 75.5zM588 1026q260 0 368.5 -121t108.5 -407.5t-108.5 -405.5t-369.5 -119t-369.5 120t-108.5 406t109.5 406.5t369.5 120.5z" />
    <glyph glyph-name="uni043F" unicode="&#x43f;" horiz-adv-x="1181" 
d="M1024 999v-999h-193v840h-481v-840h-192v999h866z" />
    <glyph glyph-name="uni0440" unicode="&#x440;" horiz-adv-x="1202" 
d="M887 492q0 203 -46 282.5t-159 79.5q-74 0 -148 -33.5t-180 -111.5v-508q204 -53 318 -53t164.5 70.5t50.5 273.5zM750 1026q178 0 260 -134t82 -408t-92 -391.5t-292 -117.5t-360 101q8 -102 6 -203v-281h-196v1407h164l14 -153q78 82 191.5 131t222.5 49z" />
    <glyph glyph-name="uni0441" unicode="&#x441;" horiz-adv-x="1013" 
d="M109 499.5q0 288.5 108.5 407.5t370.5 119q199 0 330 -51l-25 -127q-154 10 -272 10q-172 0 -238 -75.5t-66 -282.5t65.5 -283t235.5 -76t297 23l21 -133q-154 -55 -350 -56q-262 0 -369.5 118t-107.5 406.5z" />
    <glyph glyph-name="uni0442" unicode="&#x442;" horiz-adv-x="1011" 
d="M961 838h-355v-838h-198v838h-355v161h908v-161z" />
    <glyph glyph-name="uni0443" unicode="&#x443;" horiz-adv-x="1097" 
d="M459 0q-53 0 -70 51l-352 948h211l248 -727q29 -76 36 -122h29q4 14 13.5 40.5t15.5 46t12 35.5l246 727h213l-389 -1046q-74 -209 -189 -297q-137 -102 -391 -66l19 140q160 -12 239 41q78 55 137 192l15 37h-43z" />
    <glyph glyph-name="uni0444" unicode="&#x444;" horiz-adv-x="1480" 
d="M1182 498q0 190 -78 269t-279 89v-713q199 10 278 87.5t79 267.5zM299 499q0 -189 78.5 -267.5t277.5 -88.5v713q-201 -10 -278.5 -89t-77.5 -268zM831 1434v-410q295 -14 419 -136t124 -389t-125 -387t-418 -135v-385h-182v385q-293 14 -418 133.5t-125 387.5t124 390
t419 136v410h182z" />
    <glyph glyph-name="uni0445" unicode="&#x445;" horiz-adv-x="1097" 
d="M567 442h-37l-270 -442h-215l326 516l-301 483h213l243 -403h45l244 403h213l-301 -483l326 -516h-215z" />
    <glyph glyph-name="uni0446" unicode="&#x446;" horiz-adv-x="1226" 
d="M1155 -295h-131l-18 295h-848v999h194v-839h465v839h197v-839h141v-455z" />
    <glyph glyph-name="uni0447" unicode="&#x447;" horiz-adv-x="1099" 
d="M940 999v-999h-197v408q-197 -68 -376 -68q-258 0 -258 221v438h194v-370q0 -70 29.5 -98.5t99.5 -28.5q156 0 311 61v436h197z" />
    <glyph glyph-name="uni0448" unicode="&#x448;" horiz-adv-x="1660" 
d="M1503 999v-999h-1345v999h190v-839h391v839h179v-839h393v839h192z" />
    <glyph glyph-name="uni0449" unicode="&#x449;" horiz-adv-x="1718" 
d="M1647 -295h-131l-19 295h-1339v999h190v-839h393v839h177v-839h395v839h190v-839h144v-455z" />
    <glyph glyph-name="uni044A" unicode="&#x44a;" horiz-adv-x="1298" 
d="M1012 308q0 97 -43 133t-164 36h-215v-332l215 -2q119 0 163 34t44 131zM590 623h215q233 0 321 -69t88 -250t-87 -248.5t-328 -67.5t-402 12v844h-346v155h539v-376z" />
    <glyph glyph-name="uni044B" unicode="&#x44b;" horiz-adv-x="1497" 
d="M770 308q0 97 -42 133t-161 36h-219v-332l219 -2q117 0 160 34t43 131zM1339 999v-999h-198v999h198zM348 623h219q231 0 317.5 -69t86.5 -250t-84 -248.5t-287 -67.5q-279 0 -438 12h-4v999h190v-376z" />
    <glyph glyph-name="uni044C" unicode="&#x44c;" horiz-adv-x="1060" 
d="M776 308q0 97 -44 133t-165 36h-219v-332l219 -2q121 0 165 34t44 131zM348 623h219q233 0 321.5 -69t88.5 -250t-85 -248.5t-328 -67.5t-402 12h-4v999h190v-376z" />
    <glyph glyph-name="uni044D" unicode="&#x44d;" horiz-adv-x="1046" 
d="M438 1014q276 0 387 -115t111 -403t-110.5 -403.5t-387.5 -115.5q-213 0 -356 43l18 140q150 -12 324 -12t238.5 60t72.5 226h-506v150h504q-12 152 -77.5 209t-237.5 56t-305 -11l-21 137q133 39 346 39z" />
    <glyph glyph-name="uni044E" unicode="&#x44e;" horiz-adv-x="1640" 
d="M1050 147q155 0 214 76t59 280t-59.5 279.5t-213.5 75.5t-210 -74.5t-56 -279.5t55.5 -281t210.5 -76zM354 592h244q12 246 113.5 340t354.5 94t358.5 -111.5t105.5 -410.5t-105.5 -410.5t-361.5 -111.5t-357.5 98t-109.5 358h-242v-438h-196v999h196v-407z" />
    <glyph glyph-name="uni044F" unicode="&#x44f;" horiz-adv-x="1120" 
d="M770 512v340h-250q-119 0 -155.5 -34t-36.5 -133t39 -136t157 -37h246zM135 728q0 138 84 211t297 73q301 0 449 -15v-997h-195v365h-258q-131 0 -158 -97l-73 -268h-205l90 301q30 109 192 127v8q-119 18 -171 86t-52 206z" />
    <glyph glyph-name="uni0451" unicode="&#x451;" horiz-adv-x="1112" 
d="M715 557q100 0 96 133q0 92 -50.5 130t-188.5 38t-194.5 -62.5t-62.5 -238.5h400zM768 403h-449q14 -156 81 -209t209 -53t360 25l18 -131q-135 -59 -396 -59t-371.5 119.5t-110.5 408.5t108.5 405.5t345.5 116.5t342 -84t107 -252q0 -287 -244 -287zM793 1200h-66
q-55 0 -55 53v111q0 55 55 55h66q53 0 53 -55v-111q0 -53 -53 -53zM430 1200h-68q-53 0 -53 53v111q0 55 53 55h68q51 0 51 -55v-111q0 -53 -51 -53z" />
    <glyph glyph-name="uni0452" unicode="&#x452;" horiz-adv-x="1206" 
d="M403 1006v-156q0 -88 -10 -174q219 152 430 151q274 0 275 -274v-553h-199v496q0 86 -36 120.5t-126 34.5q-127 0 -336 -121v-530h-196v1006h-152v112h152v316h198v-316h369v-112h-369z" />
    <glyph glyph-name="uni0453" unicode="&#x453;" horiz-adv-x="956" 
d="M152 0v784q0 221 227 222q371 0 534 -19l-6 -139h-444q-59 0 -87 -27.5t-28 -89.5v-731h-196zM885 1360l-408 -240l-67 90l362 301z" />
    <glyph glyph-name="uni0454" unicode="&#x454;" horiz-adv-x="1046" 
d="M608 -23q-276 0 -386.5 116t-110.5 404t110.5 402.5t386.5 114.5q213 0 346 -39l-20 -137q-134 10 -306 11t-237 -56.5t-78 -208.5h506v-150h-508q8 -166 72.5 -226t238.5 -60t324 12l19 -140q-143 -43 -357 -43z" />
    <glyph glyph-name="uni0455" unicode="&#x455;" horiz-adv-x="1050" 
d="M102 748q0 166 89 223t317 54t414 -34l-15 -143q-317 10 -421 10t-148.5 -17.5t-44.5 -92.5q0 -35 6 -56.5t34 -37.5t103 -38l283 -69q125 -33 179 -94.5t54 -186.5q0 -176 -97 -232.5t-321 -56.5t-413 29l14 148q113 -10 311 -10t256 23t58 94t-39.5 93t-112.5 39
l-278 70q-125 33 -176.5 97.5t-51.5 187.5z" />
    <glyph glyph-name="uni0456" unicode="&#x456;" horiz-adv-x="526" 
d="M362 0h-196v999h196v-999zM217 1425h94q57 0 58 -57v-115q0 -59 -58 -59h-94q-59 0 -59 59v115q0 57 59 57z" />
    <glyph glyph-name="uni0457" unicode="&#x457;" horiz-adv-x="526" 
d="M362 0h-196v999h196v-999zM414 1419h63q55 0 55 -55v-111q0 -53 -55 -53h-63q-55 0 -56 53v111q1 55 56 55zM49 1419h66q53 0 53 -55v-111q0 -53 -53 -53h-66q-53 0 -53 53v111q0 55 53 55z" />
    <glyph glyph-name="uni0458" unicode="&#x458;" horiz-adv-x="528" 
d="M365 999v-1009q0 -123 -54.5 -229.5t-148.5 -174.5l-109 86q113 141 113 318v1009h199zM219 1425h92q59 0 60 -57v-115q0 -59 -60 -59h-92q-59 0 -59 59v115q0 57 59 57z" />
    <glyph glyph-name="uni0459" unicode="&#x459;" horiz-adv-x="1656" 
d="M954 143h205q123 0 168 33t45 133t-43 136t-162 36h-213v-338zM954 625h213q231 0 318.5 -69t87.5 -252t-87.5 -249.5t-323.5 -66.5t-396 12v850h-150q-57 0 -82.5 -20.5t-31.5 -73.5q-43 -401 -103 -551q-43 -113 -131 -165t-196 -46l-17 135q119 39 161 122t59.5 182
t46.5 360q23 207 239 206h393v-374z" />
    <glyph glyph-name="uni045A" unicode="&#x45a;" horiz-adv-x="1669" 
d="M965 143h215q117 0 160.5 34t43.5 132t-42 134t-162 36h-215v-336zM965 623h215q233 0 319 -68t86 -250t-85.5 -249.5t-323.5 -67.5t-398 12v479h-438v-479h-182v999h182v-376h438v376h187v-376z" />
    <glyph glyph-name="uni045B" unicode="&#x45b;" horiz-adv-x="1206" 
d="M403 1006v-156q0 -88 -10 -174q219 152 430 151q270 0 275 -274v-563q0 -123 -54.5 -229.5t-148.5 -174.5l-111 86q115 137 115 316v508q0 86 -36 120.5t-126 34.5q-127 0 -336 -121v-530h-196v1006h-152v112h152v316h198v-316h369v-112h-369z" />
    <glyph glyph-name="uni045C" unicode="&#x45c;" horiz-adv-x="1105" 
d="M481 442h-137q10 -51 10 -92v-350h-196v999h196v-288q0 -53 -10 -115h125q131 0 194.5 87t143.5 316h205q-35 -92 -47.5 -125.5t-40 -99t-44 -88t-60 -84t-183.5 -80.5v-4q150 -18 196 -78.5t75.5 -105.5t131.5 -334h-206q-113 295 -142.5 332t-61.5 65.5t-67 36.5t-82 8
zM498 1120l-66 90l363 301l112 -151z" />
    <glyph glyph-name="uni045D" unicode="&#x45d;" horiz-adv-x="1204" 
d="M158 0v999h176v-634q0 -61 -6 -136h6q39 78 69 119l484 651h160v-999h-179v633l6 139h-4q-20 -55 -71 -123l-482 -649h-159zM702 1210l-65 -90l-408 240l111 151z" />
    <glyph glyph-name="uni045E" unicode="&#x45e;" horiz-adv-x="1097" 
d="M459 0q-53 0 -70 51l-352 948h211l248 -727q29 -76 36 -122h29q4 14 13.5 40.5t15.5 46t12 35.5l246 727h213l-389 -1046q-74 -209 -189 -297q-137 -102 -391 -66l19 140q160 -12 239 41q78 55 137 192l15 37h-43zM709 1444h149q10 -123 -76 -206t-236 -83t-236.5 83
t-76.5 206h150q0 -180 166 -180q160 0 160 180z" />
    <glyph glyph-name="uni045F" unicode="&#x45f;" horiz-adv-x="1191" 
d="M1036 999v-999h-358l-16 -338h-134l-16 338h-354v999h198v-839h482v839h198z" />
    <glyph glyph-name="uni0490" unicode="&#x490;" horiz-adv-x="1075" 
d="M504 1241q-72 0 -101.5 -30.5t-29.5 -110.5v-1100h-205v1139q0 123 74.5 200.5t191.5 77.5q301 0 445 -14l22 321h133v-342l-8 -141h-522z" />
    <glyph glyph-name="uni0491" unicode="&#x491;" horiz-adv-x="960" 
d="M918 1298v-311l-9 -139h-446q-113 0 -113 -117v-731h-196v784q0 221 227 222q260 0 385 -7l20 299h132z" />
    <glyph glyph-name="uni04B0" unicode="&#x4b0;" horiz-adv-x="1198" 
d="M1004 449h-302v-449h-204v449h-301v120h262l-428 844h219l282 -579q16 -35 62 -164h16q31 100 62 161l282 582h213l-424 -844h261v-120z" />
    <glyph glyph-name="uni04B1" unicode="&#x4b1;" horiz-adv-x="1204" 
d="M1008 160v-125h-303v-443h-203v443h-305v125h264l-428 839h217l282 -573q29 -61 62 -162h16q33 100 62 162l282 573h217l-428 -839h265z" />
    <glyph glyph-name="uni04B6" unicode="&#x4b6;" horiz-adv-x="1349" 
d="M1288 141v-450h-139l-21 309h-213v621q-233 -113 -466 -113q-168 0 -249 80t-81 243v582h207v-541q-4 -98 42 -142t152 -44q184 0 395 98v629h205v-1272h168z" />
    <glyph glyph-name="uni04B7" unicode="&#x4b7;" horiz-adv-x="1155" 
d="M1083 160v-455h-131l-18 295h-191v408q-197 -68 -376 -68q-258 0 -258 221v438h194v-370q0 -70 29.5 -98.5t99.5 -28.5q156 0 311 61v436h197v-839h143z" />
    <glyph glyph-name="uni04BA" unicode="&#x4ba;" horiz-adv-x="1290" 
d="M377 1413v-620q225 113 465 112q168 0 248.5 -80t80.5 -243v-582h-204v541q2 98 -44 142t-153 44q-195 0 -393 -98v-629h-205v1413h205z" />
    <glyph glyph-name="uni04C0" unicode="&#x4c0;" horiz-adv-x="550" 
d="M379 0h-205v1413h205v-1413z" />
    <glyph glyph-name="Wgrave" unicode="&#x1e80;" horiz-adv-x="1947" 
d="M1536 0h-227q-66 0 -80 61l-205 1039q-20 106 -29 160h-43l-233 -1199q-4 -27 -27.5 -44t-52.5 -17h-229q-63 0 -78 59l-271 1354h218l202 -1077q6 -35 25 -180h47q10 88 31 180l202 1010q14 68 78 67h219q29 0 50.5 -19.5t27.5 -47.5l201 -1012q16 -82 31 -178h47
q4 29 12 88t14 88l203 1081h217l-270 -1354q-18 -59 -80 -59zM1081 1577l-65 -92l-408 239l111 154z" />
    <glyph glyph-name="wgrave" unicode="&#x1e81;" horiz-adv-x="1691" 
d="M1288 0h-178q-61 0 -76 63l-145 658q-4 18 -13 70t-18 90h-24l-177 -818q-14 -63 -77 -63h-177q-61 0 -73 55l-283 944h205l192 -720q25 -102 31 -154h27l182 813q14 61 74 61h178q59 0 74 -63l145 -657q4 -20 35 -154h27q14 92 30 154l193 720h205l-281 -944
q-16 -55 -76 -55zM954 1210l-67 -90l-408 240l113 151z" />
    <glyph glyph-name="Wacute" unicode="&#x1e82;" horiz-adv-x="1947" 
d="M1536 0h-227q-66 0 -80 61l-205 1039q-20 106 -29 160h-43l-233 -1199q-4 -27 -27.5 -44t-52.5 -17h-229q-63 0 -78 59l-271 1354h218l202 -1077q6 -35 25 -180h47q10 88 31 180l202 1010q14 68 78 67h219q29 0 50.5 -19.5t27.5 -47.5l201 -1012q16 -82 31 -178h47
q4 29 12 88t14 88l203 1081h217l-270 -1354q-18 -59 -80 -59zM1309 1724l-408 -239l-65 92l360 301z" />
    <glyph glyph-name="wacute" unicode="&#x1e83;" horiz-adv-x="1691" 
d="M1288 0h-178q-61 0 -76 63l-145 658q-4 18 -13 70t-18 90h-24l-177 -818q-14 -63 -77 -63h-177q-61 0 -73 55l-283 944h205l192 -720q25 -102 31 -154h27l182 813q14 61 74 61h178q59 0 74 -63l145 -657q4 -20 35 -154h27q14 92 30 154l193 720h205l-281 -944
q-16 -55 -76 -55zM1180 1360l-408 -240l-65 90l362 301z" />
    <glyph glyph-name="Wdieresis" unicode="&#x1e84;" horiz-adv-x="1947" 
d="M1536 0h-227q-66 0 -80 61l-205 1039q-20 106 -29 160h-43l-233 -1199q-4 -27 -27.5 -44t-52.5 -17h-229q-63 0 -78 59l-271 1354h218l202 -1077q6 -35 25 -180h47q10 88 31 180l202 1010q14 68 78 67h219q29 0 50.5 -19.5t27.5 -47.5l201 -1012q16 -82 31 -178h47
q4 29 12 88t14 88l203 1081h217l-270 -1354q-18 -59 -80 -59zM1124 1786h66q53 0 53 -55v-111q0 -55 -53 -55h-66q-53 0 -53 55v111q0 55 53 55zM760 1786h67q51 0 52 -55v-111q0 -55 -52 -55h-67q-51 0 -51 55v111q0 55 51 55z" />
    <glyph glyph-name="wdieresis" unicode="&#x1e85;" horiz-adv-x="1691" 
d="M1288 0h-178q-61 0 -76 63l-145 658q-4 18 -13 70t-18 90h-24l-177 -818q-14 -63 -77 -63h-177q-61 0 -73 55l-283 944h205l192 -720q25 -102 31 -154h27l182 813q14 61 74 61h178q59 0 74 -63l145 -657q4 -20 35 -154h27q14 92 30 154l193 720h205l-281 -944
q-16 -55 -76 -55zM995 1419h66q55 0 55 -55v-111q0 -55 -55 -55h-66q-53 0 -53 55v111q0 55 53 55zM633 1419h65q53 0 54 -55v-111q0 -55 -54 -55h-65q-53 0 -53 55v111q0 55 53 55z" />
    <glyph glyph-name="Ygrave" unicode="&#x1ef2;" horiz-adv-x="1175" 
d="M690 0h-205v492l-467 921h218l284 -579q16 -35 62 -164h14q43 127 61 161l285 582h213l-465 -924v-489zM627 1487l-408 239l113 152l360 -299z" />
    <glyph glyph-name="ygrave" unicode="&#x1ef3;" horiz-adv-x="1091" 
d="M457 0q-57 0 -70 51l-354 948h213l248 -727q25 -63 34 -122h29q20 55 41 122l246 727h213l-387 -1046q-139 -369 -459 -373l-21 131q117 35 184.5 96.5t108.5 155.5l15 37h-41zM590 1120l-408 240l113 151l362 -301z" />
    <glyph glyph-name="endash" unicode="&#x2013;" horiz-adv-x="1200" 
d="M1059 442h-918v152h918v-152z" />
    <glyph glyph-name="emdash" unicode="&#x2014;" horiz-adv-x="1820" 
d="M1677 442h-1536v152h1536v-152z" />
    <glyph glyph-name="quoteleft" unicode="&#x2018;" horiz-adv-x="452" 
d="M254 1006h-57q-39 0 -54.5 14t-15.5 53v119q2 170 78 301l92 -25q-20 -109 -21 -229q57 0 54 -57v-109q-2 -39 -18.5 -53t-57.5 -14z" />
    <glyph glyph-name="quoteright" unicode="&#x2019;" horiz-adv-x="446" 
d="M195 1479h57q41 0 56.5 -14.5t15.5 -51.5v-121q-2 -162 -78 -301l-94 25q23 106 22 229q-55 0 -55 58v110q2 37 19.5 51.5t56.5 14.5z" />
    <glyph glyph-name="quotesinglbase" unicode="&#x201a;" horiz-adv-x="475" 
d="M211 236h57q41 0 56.5 -14.5t15.5 -51.5v-121q-2 -164 -78 -301l-94 25q23 123 22 229q-55 0 -55 57v111q2 66 76 66z" />
    <glyph glyph-name="quotedblleft" unicode="&#x201c;" horiz-adv-x="780" 
d="M582 1006h-58q-39 0 -54 14t-15 53v119q2 164 77 301l95 -25q-23 -104 -23 -229q57 0 53 -57v-109q-2 -39 -18 -53t-57 -14zM254 1006h-57q-39 0 -54.5 14t-15.5 53v119q2 170 78 301l92 -25q-20 -109 -21 -229q57 0 54 -57v-109q-2 -39 -18.5 -53t-57.5 -14z" />
    <glyph glyph-name="quotedblright" unicode="&#x201d;" horiz-adv-x="774" 
d="M522 1479h60q39 0 54 -14.5t15 -51.5v-121q-2 -162 -78 -301l-94 25q23 106 23 229q-55 0 -56 58v110q2 37 19.5 51.5t56.5 14.5zM195 1479h57q41 0 56.5 -14.5t15.5 -51.5v-121q-2 -162 -78 -301l-94 25q23 106 22 229q-55 0 -55 58v110q2 37 19.5 51.5t56.5 14.5z" />
    <glyph glyph-name="quotedblbase" unicode="&#x201e;" horiz-adv-x="802" 
d="M539 236h57q41 0 56.5 -14.5t15.5 -51.5v-121q-2 -164 -78 -301l-94 25q23 123 22 229q-55 0 -55 57v111q2 37 19.5 51.5t56.5 14.5zM211 236h57q41 0 56.5 -14.5t15.5 -51.5v-121q-2 -164 -78 -301l-94 25q23 123 22 229q-55 0 -55 57v111q2 37 19.5 51.5t56.5 14.5z
" />
    <glyph glyph-name="dagger" unicode="&#x2020;" horiz-adv-x="935" 
d="M854 999v-172l-266 23v149h266zM82 999h266v-149l-266 -23v172zM549 -225h-162v1216l-8 424h180l-10 -424v-1216z" />
    <glyph glyph-name="daggerdbl" unicode="&#x2021;" horiz-adv-x="1013" 
d="M893 190h-266v150l266 22v-172zM387 190h-266v172l266 -22v-150zM627 999h266v-172l-266 23v149zM121 999h266v-149l-266 -23v172zM588 995v-805l8 -415h-178l8 415v805l-8 420h178z" />
    <glyph glyph-name="bullet" unicode="&#x2022;" horiz-adv-x="747" 
d="M365 741h26q98 0 137 -38.5t39 -137.5v-26q0 -104 -39 -144.5t-137 -40.5h-26q-104 0 -144.5 40t-40.5 145v26q0 98 40.5 137t144.5 39z" />
    <glyph glyph-name="ellipsis" unicode="&#x2026;" horiz-adv-x="1761" 
d="M1483 254h65q41 0 56.5 -16.5t15.5 -55.5v-108q0 -41 -15.5 -57.5t-56.5 -16.5h-65q-41 0 -57.5 16.5t-16.5 57.5v108q0 39 16.5 55.5t57.5 16.5zM840 254h65q41 0 57.5 -15.5t16.5 -56.5v-108q0 -41 -16.5 -57.5t-57.5 -16.5h-65q-41 0 -56.5 16.5t-15.5 57.5v108
q0 39 15.5 55.5t56.5 16.5zM199 254h65q39 0 55.5 -16.5t16.5 -55.5v-108q0 -41 -15.5 -57.5t-56.5 -16.5h-65q-41 0 -56.5 16.5t-15.5 57.5v108q0 39 16.5 55.5t55.5 16.5z" />
    <glyph glyph-name="perthousand" unicode="&#x2030;" horiz-adv-x="2605" 
d="M2177 694q-104 0 -143 -63.5t-39 -231.5t39 -232.5t142 -64.5t143 64.5t40 233.5t-39 231.5t-143 62.5zM1409 694q-104 0 -143 -63.5t-39 -231.5t39 -232.5t143 -64.5t143 64.5t39 233.5t-39 231.5t-143 62.5zM2177 819q184 0 258 -96.5t74 -324.5t-74 -323t-258 -95
t-258 95t-74 323t74 324.5t258 96.5zM1410 819q183 0 258 -96.5t75 -324.5t-75 -323t-258 -95t-258 95t-75 323t75 324.5t258 96.5zM423 1317q-103 0 -142 -63.5t-39 -233.5t39 -233.5t143 -63.5t142 62.5t38 233.5t-39 234.5t-142 63.5zM532 0h-139l903 1413h140zM424 1440
q184 0 259 -95.5t75 -323.5t-75 -324.5t-259 -96.5t-259 96.5t-75 324.5t75 323.5t259 95.5z" />
    <glyph glyph-name="guilsinglleft" unicode="&#x2039;" horiz-adv-x="606" 
d="M512 874l-250 -360l252 -367l-104 -69l-330 414v45l328 405z" />
    <glyph glyph-name="guilsinglright" unicode="&#x203a;" horiz-adv-x="610" 
d="M528 537v-45l-329 -414l-107 69l252 367l-250 360l107 68z" />
    <glyph glyph-name="fraction" unicode="&#x2044;" horiz-adv-x="327" 
d="M-217 0h-141l903 1413h139z" />
    <glyph glyph-name="Euro" unicode="&#x20ac;" horiz-adv-x="1304" 
d="M102 528v121h162v58q0 59 2 86h-162v120h170q31 266 164 395.5t398 129.5q184 0 342 -41l-21 -162q-165 29 -323 21t-238 -91.5t-104 -251.5h507l-14 -120h-506l-2 -91l2 -53h445l-15 -121h-422q20 -184 100.5 -274t235.5 -94q193 -11 359 22l22 -157q-154 -49 -368 -50
q-270 0 -403.5 135.5t-160.5 417.5h-170z" />
    <glyph glyph-name="trademark" unicode="&#x2122;" horiz-adv-x="1980" 
d="M803 1425v-116h-264v-662h-142v662h-264v116h670zM1417 743h-102q-43 0 -60 45l-172 529h-24l-29 -670h-131l31 723q4 55 53 55h145q39 0 56 -45l143 -432q4 -14 13.5 -52t15.5 -58h20q6 18 15.5 56t15.5 56l139 430q14 45 58 45h147q51 0 53 -55l31 -723h-131l-31 670
h-24l-172 -529q-16 -45 -60 -45z" />
    <glyph glyph-name="partialdiff" unicode="&#x2202;" horiz-adv-x="1173" 
d="M549 152q158 0 220 127t81 374q-123 102 -272 103q-260 0 -275 -289q-6 -143 54.5 -229t191.5 -86zM262 1288v152q186 2 390.5 -25t313 -193.5t89.5 -527.5q-18 -362 -134 -540.5t-376 -178.5q-127 0 -218 42t-160 148t-60 306q9 199 117 327t309 125t323 -147
q8 305 -110.5 408.5t-483.5 103.5z" />
    <glyph glyph-name="emptyset" unicode="&#x2205;" horiz-adv-x="1402" 
d="M735 350h-80q-14 0 -14 -16v-76q0 -14 14 -14h80q16 0 17 14v76q-1 16 -17 16zM639 494h111q0 72 29.5 132t66.5 95t66.5 89t29.5 116q0 190 -240 190q-104 0 -249 -22l6 -93q123 19 251 19t128 -94q0 -77 -69 -147t-99.5 -137.5t-30.5 -147.5zM702.5 1296
q247.5 0 422.5 -175t175 -422.5t-175 -424t-422.5 -176.5t-424 176.5t-176.5 424t176.5 422.5t424 175z" />
    <glyph glyph-name="product" unicode="&#x220f;" horiz-adv-x="1474" 
d="M1399 1245h-207v-1454h-197v1454h-514v-1454h-198v1454h-207v168h1323v-168z" />
    <glyph glyph-name="summation" unicode="&#x2211;" horiz-adv-x="1212" 
d="M1090 1247h-744l332 -540l-361 -775h793v-165h-1012v165l359 775l-334 540v166h967v-166z" />
    <glyph glyph-name="minus" unicode="&#x2212;" horiz-adv-x="1198" 
d="M1051 530h-906v148h906v-148z" />
    <glyph glyph-name="radical" unicode="&#x221a;" horiz-adv-x="1163" 
d="M582 0h-234q-23 0 -26 16l-259 983h166l222 -866h26l475 1661h168l-512 -1778q-6 -16 -26 -16z" />
    <glyph glyph-name="infinity" unicode="&#x221e;" horiz-adv-x="1593" 
d="M1139 477q78 0 122 39t44 115q0 141 -154 141q-59 0 -111.5 -25.5t-80 -53t-70.5 -77.5q109 -139 250 -139zM457 477q76 0 133 37t121 109q-68 78 -122 113.5t-143 35.5q-158 0 -157 -141q0 -154 168 -154zM1190 918q123 0 204 -72t81 -213t-87.5 -221t-222.5 -80
q-190 0 -366 184q-180 -184 -375 -184q-131 0 -218 81t-87 221t84 212t215 72q205 0 381 -195q186 195 391 195z" />
    <glyph glyph-name="integral" unicode="&#x222b;" horiz-adv-x="753" 
d="M484 1462q128 0 204 -8l-12 -141h-133q-72 0 -100.5 -35t-24.5 -123l94 -1337q8 -139 -48 -206t-198 -67t-200 9l12 141h129q74 0 102.5 37t24.5 125l-92 1333q-8 133 53 202.5t189 69.5z" />
    <glyph glyph-name="approxequal" unicode="&#x2248;" horiz-adv-x="1200" 
d="M285 270h-131q-20 137 36 201t166 59q68 -2 236 -58t228 -59t77.5 19.5t17.5 85.5h134q36 -258 -209 -254q-76 2 -242 58.5t-222 58.5t-73.5 -20.5t-17.5 -90.5zM285 664h-131q-20 135 36 198.5t166 59.5q68 -2 236 -57.5t228 -58.5t77.5 18.5t17.5 86.5h134
q36 -260 -209 -256q-76 2 -242 59.5t-221 59.5t-73.5 -21t-18.5 -89z" />
    <glyph glyph-name="notequal" unicode="&#x2260;" horiz-adv-x="1261" 
d="M1090 459v-148h-621l-152 -252l-57 29l135 223h-211v148h299l174 284h-473v148h561l136 223l59 -31l-119 -192h269v-148h-357l-174 -284h531z" />
    <glyph glyph-name="lessequal" unicode="&#x2264;" horiz-adv-x="1153" 
d="M1016 152h-883v145h883v-145zM999 948l-671 -203l671 -186v-158l-843 265v157l843 283v-158z" />
    <glyph glyph-name="greaterequal" unicode="&#x2265;" horiz-adv-x="1153" 
d="M1020 152h-883v145h883v-145zM997 823v-157l-843 -265v158l671 186l-671 203v158z" />
    <glyph glyph-name="lozenge" unicode="&#x25ca;" horiz-adv-x="1173" 
d="M229 709l359 -514l356 514l-356 510zM604 1415l502 -688q8 -18 0 -37l-502 -692q-16 -23 -33 0l-503 692q-8 18 0 37l503 688q17 23 33 0z" />
    <glyph glyph-name="fi" unicode="&#xfb01;" horiz-adv-x="1265" 
d="M956 1425h95q57 0 57 -57v-115q0 -59 -57 -59h-95q-59 0 -59 59v115q0 57 59 57zM1104 999v-999h-197v846h-473v-846h-198v846h-181v143l181 10v150q0 158 68 238.5t226 80.5t242 -14v-147h-170q-94 0 -131 -40t-37 -141v-127h670z" />
    <glyph glyph-name="fl" unicode="&#xfb02;" horiz-adv-x="1390" 
d="M928 219v1090h-328q-92 2 -130 -39t-38 -144v-127h291v-153h-291v-846h-199v846h-180v143l180 10v150q0 158 70 239.5t227 79.5q444 0 596 -24v-1180q0 -129 129 -129h95l22 -127q-59 -26 -184 -26t-192.5 62t-67.5 175z" />
    <glyph glyph-name="brevecy" horiz-adv-x="774" 
d="M551 1425h149q10 -123 -75.5 -204.5t-235 -81.5t-236.5 82t-77 204h149q0 -178 163 -178t163 178z" />
    </font>
</defs>
</svg>
