<?xml version="1.0" standalone="no"?>
<!DOCTYPE svg PUBLIC "-//W3C//DTD SVG 1.1//EN" "http://www.w3.org/Graphics/SVG/1.1/DTD/svg11.dtd" >
<svg xmlns="http://www.w3.org/2000/svg">
<metadata>
Created by FontPrep 20130207 at Sun Jan 24 18:29:08 2016
 By Alex
Copyright (c) 2013, Natanael Gama (www.ndiscovered.com . info(at)ndiscovered.com), with Reserved Font Name Exo. This Font Software is licensed under the SIL Open Font License, Version 1.1.
</metadata>
<defs>
<font id="15baac2f6c40d87d2c543e01969efca8" horiz-adv-x='1024' >
  <font-face 
    font-family="Exo2-Thin"
    font-weight="250"
    font-stretch="normal"
    units-per-em="2048"
    panose-1="0 0 3 0 0 0 0 0 0 0"
    ascent="1638"
    descent="-410"
    x-height="983"
    cap-height="1413"
    bbox="-354 -530 2415 1882"
    underline-thickness="102"
    underline-position="-102"
    unicode-range="U+0020-FB02"
  />
<missing-glyph horiz-adv-x="1228" 
 />
    <glyph glyph-name=".notdef" horiz-adv-x="1228" 
 />
    <glyph glyph-name=".null" horiz-adv-x="0" 
 />
    <glyph glyph-name="nonmarkingreturn" horiz-adv-x="681" 
 />
    <glyph glyph-name="space" unicode=" " horiz-adv-x="471" 
 />
    <glyph glyph-name="exclam" unicode="!" horiz-adv-x="518" 
d="M250 176h20q25 0 25 -24v-127q0 -25 -25 -25h-20q-25 0 -25 25v127q0 24 25 24zM233 1423h52v-698l-4 -309h-43l-5 309v698z" />
    <glyph glyph-name="quotedbl" unicode="&#x22;" horiz-adv-x="669" 
d="M489 987h-49v426h49v-426zM229 987h-49v426h49v-426z" />
    <glyph glyph-name="numbersign" unicode="#" horiz-adv-x="1366" 
d="M961 963h-463l-80 -451h463zM1012 963l-80 -451h225l-8 -45h-223l-82 -467h-51l81 467h-462l-82 -467h-51l81 467h-237l8 45h236l79 451h-237l8 45h238l69 405h51l-69 -405h463l69 405h52l-70 -405h223l-8 -45h-223z" />
    <glyph glyph-name="dollar" unicode="$" horiz-adv-x="1144" 
d="M963 377q0 135 -52.5 204.5t-181.5 86.5l-129 18l-35 -661h21q113 2 176 12t112.5 44t69 97.5t19.5 198.5zM567 1389q-236 0 -294.5 -48.5t-69 -119t-10.5 -148.5q0 -156 51 -226.5t172 -86.5l145 -21l33 650h-27zM584 -23h-21l-14 -253h-43l14 253q-195 4 -354 23l6 39
q184 -14 350 -14l35 665l-141 21q-147 16 -211 101.5t-64 235.5t23.5 225t84 110.5t128 45t190.5 7.5h31l10 211h43l-10 -213q184 -8 309 -23l-6 -39q-250 14 -307 17l-33 -656l125 -16q156 -18 220.5 -102.5t64.5 -269.5t-64 -265t-168 -91.5t-198 -11.5z" />
    <glyph glyph-name="percent" unicode="%" horiz-adv-x="1808" 
d="M1376.5 782q-143.5 0 -202 -89t-58.5 -289.5t58.5 -289.5t202 -89t201.5 89t58 289.5t-58 289.5t-201.5 89zM1376 821q168 0 237.5 -99t69.5 -318.5t-69.5 -318.5t-237.5 -99t-237.5 99t-69.5 318.5t69.5 318.5t237.5 99zM432 1399q-143 0 -201.5 -89t-58.5 -290
t58.5 -290t201.5 -89t201.5 89t58.5 290t-58.5 290t-201.5 89zM434 0h-49l983 1413h49zM432 1438q168 0 237.5 -99.5t69.5 -318.5t-69.5 -318.5t-237.5 -99.5t-237.5 99.5t-69.5 318.5t69.5 318.5t237.5 99.5z" />
    <glyph glyph-name="ampersand" unicode="&#x26;" horiz-adv-x="1603" 
d="M1087 711h-469q-223 0 -312 -75.5t-89 -269.5t77 -264.5t267 -70.5t310 55t216 180v445zM444 737q-239 19 -239 301q0 127 21.5 192.5t58.5 105.5t128.5 67t294.5 27t349 -17l-8 -37q-59 6 -329 6t-366 -58t-96 -250t78 -256t282 -64h469l13 319h37v-319h288l-6 -43h-282
v-514q0 -164 163 -164h181l6 -33q-82 -12 -174 -12q-225 0 -226 207v2q-98 -117 -218.5 -165t-320.5 -48t-292 80t-92 272t63.5 286.5t216.5 106.5v8z" />
    <glyph glyph-name="quotesingle" unicode="'" horiz-adv-x="409" 
d="M229 987h-49v426h49v-426z" />
    <glyph glyph-name="parenleft" unicode="(" horiz-adv-x="727" 
d="M195 644q0 -364 107.5 -593t332.5 -352l-8 -37q-250 119 -368 355.5t-118 622.5t118 623.5t368 354.5l8 -37q-225 -117 -332.5 -345t-107.5 -592z" />
    <glyph glyph-name="parenright" unicode=")" horiz-adv-x="727" 
d="M586 640q0 -386 -118 -622.5t-368 -355.5l-8 37q225 123 332.5 352t107.5 593t-107.5 592t-332.5 345l8 37q250 -117 368 -354.5t118 -623.5z" />
    <glyph glyph-name="asterisk" unicode="*" horiz-adv-x="927" 
d="M782 1163l-260 -76l-8 17v18l252 86zM414 1122l-2 -18l-9 -17l-256 80l17 45zM479 1100l193 -264l-37 -27l-172 256l-170 -254l-39 27l192 262l-6 313h49z" />
    <glyph glyph-name="plus" unicode="+" horiz-adv-x="1132" 
d="M993 586h-405v-383h-43v383h-406v45h404v383h47v-383h403v-45z" />
    <glyph glyph-name="comma" unicode="," horiz-adv-x="425" 
d="M205 176h18q25 0 25 -24v-132q-4 -143 -37 -260l-25 11q8 109 9 229q-18 0 -13 20v132q-2 24 23 24z" />
    <glyph glyph-name="hyphen" unicode="-" horiz-adv-x="989" 
d="M813 492h-637v45h637v-45z" />
    <glyph glyph-name="period" unicode="." horiz-adv-x="421" 
d="M201 176h20q25 0 25 -24v-127q0 -25 -25 -25h-20q-25 0 -25 25v127q0 24 25 24z" />
    <glyph glyph-name="slash" unicode="/" horiz-adv-x="1011" 
d="M129 -121h-51l805 1534h51z" />
    <glyph glyph-name="zero" unicode="0" horiz-adv-x="1196" 
d="M598 1391q-213 0 -300 -162t-87 -522.5t87 -522t300 -161.5t300 161.5t87 522t-87 522.5t-300 162zM598 1438q242 0 341 -174t99 -557t-99 -557.5t-341 -174.5t-341 174.5t-99 557.5t99 557t341 174z" />
    <glyph glyph-name="one" unicode="1" horiz-adv-x="774" 
d="M514 0h-51v1266q0 49 6 94l-383 -129l-10 33l387 149h51v-1413z" />
    <glyph glyph-name="two" unicode="2" horiz-adv-x="1140" 
d="M952 1172q0 -154 -65.5 -277t-218.5 -301l-475 -549h823v-45h-889v29q0 14 10 28l492 568q145 170 208.5 296.5t58.5 256.5t-88 171.5t-263 41.5t-393 -45l-13 36q229 56 424 56t292 -56t97 -210z" />
    <glyph glyph-name="three" unicode="3" horiz-adv-x="1130" 
d="M506 1438q238 0 330 -71t92 -255q0 -311 -223 -356v-8q256 -39 262 -355q4 -215 -92.5 -316.5t-329.5 -101.5q-168 0 -420 35l12 37q233 -25 418 -25t272.5 85.5t87.5 285.5q0 241 -122.5 287.5t-227.5 48.5h-264v37l264 6q313 6 314 338q-4 164 -83.5 222.5t-265.5 58.5
t-370 -25l-15 37q199 35 361 35z" />
    <glyph glyph-name="four" unicode="4" horiz-adv-x="1218" 
d="M938 0h-51v401h-672q-63 0 -94 51.5t0 108.5l457 852h53l-463 -866q-20 -37 -1 -69t60 -32h660v461l14 240h37v-701h168v-36l-168 -7v-403z" />
    <glyph glyph-name="five" unicode="5" horiz-adv-x="1077" 
d="M938 444q0 -104 -7 -160.5t-33 -118t-103 -126t-267 -64.5t-395 58l12 37q367 -90 531 -31.5t188.5 169t24.5 202.5t-14.5 152.5t-52.5 101.5t-109.5 78.5t-472.5 37.5h-29q-12 0 -20.5 8.5t-6.5 20.5l29 604h684l-6 -45h-633l-25 -543h113q170 -2 268.5 -16t178 -56
t112.5 -123.5t33 -185.5z" />
    <glyph glyph-name="six" unicode="6" horiz-adv-x="1155" 
d="M967 440q0 228 -70 323t-266 95q-123 0 -215 -44t-197 -163v-39q0 -264 30 -364.5t95 -164t273 -63.5t279 96t71 324zM635 903q219 0 301 -104.5t82 -376.5q0 -115 -14.5 -188.5t-77 -166t-326.5 -92.5q-209 0 -307 85.5t-112.5 247t-14.5 343.5t19.5 326.5t54 237
t101.5 140.5t144 65.5t211 17.5t232 -25l-17 -37q-78 14 -207 14t-245 -25.5t-174 -176t-66 -490.5q92 115 184.5 160t231.5 45z" />
    <glyph glyph-name="seven" unicode="7" horiz-adv-x="1034" 
d="M870 1413q51 0 64.5 -18.5t-2.5 -65.5l-463 -1329h-51l448 1290q4 14 13.5 40t13.5 38h-791l-4 45h772z" />
    <glyph glyph-name="eight" unicode="8" horiz-adv-x="1251" 
d="M628 711q-130 0 -202 -12.5t-121 -52.5t-64.5 -106.5t-15.5 -187.5q0 -178 83 -248.5t320 -70.5t317.5 69.5t80.5 249.5q0 121 -15.5 189.5t-64.5 107.5t-118.5 50.5t-199.5 11.5zM628 1382q-222 0 -298 -70t-76 -258t72 -243t304 -55t299.5 55t67.5 245t-73.5 258
t-295.5 68zM203 1084q0 176 90 261t334 86t333 -85t89 -262t-48.5 -255t-154.5 -92v-8q127 -14 179 -103t52 -285t-92 -275.5t-356 -81.5t-359.5 79t-95.5 277t52.5 285.5t179.5 103.5v8q-106 12 -154.5 91.5t-48.5 255.5z" />
    <glyph glyph-name="nine" unicode="9" horiz-adv-x="1157" 
d="M520 555q121 0 213 44t197 163q0 310 -28 415t-86 150t-126.5 55.5t-136.5 10.5q-209 0 -287 -105.5t-78 -316.5t74 -313.5t258 -102.5zM458 23q116 0 231.5 23.5t178 175.5t62.5 493q-92 -115 -184.5 -160t-229.5 -45q-205 0 -292 113.5t-87 348.5t90 350.5t339 115.5
t301.5 -79t71.5 -126t31.5 -159t12.5 -328t-19.5 -349t-56.5 -217t-103.5 -129t-143 -60.5t-210.5 -15.5t-241 25l16 37q117 -14 233 -14z" />
    <glyph glyph-name="colon" unicode=":" horiz-adv-x="421" 
d="M201 176h20q25 0 25 -24v-127q0 -25 -25 -25h-20q-25 0 -25 25v127q0 24 25 24zM201 881h20q25 0 25 -25v-127q0 -25 -25 -24h-20q-25 0 -25 24v127q0 25 25 25z" />
    <glyph glyph-name="semicolon" unicode=";" horiz-adv-x="425" 
d="M205 176h18q25 0 25 -24v-132q-4 -143 -37 -260l-25 11q8 109 9 229q-18 0 -13 20v132q-2 24 23 24zM201 881h20q25 0 25 -25v-127q0 -25 -25 -24h-20q-25 0 -25 24v127q0 25 25 25z" />
    <glyph glyph-name="less" unicode="&#x3c;" horiz-adv-x="1107" 
d="M938 956l-756 -352l756 -340v-45l-805 363v45l805 374v-45z" />
    <glyph glyph-name="equal" unicode="=" horiz-adv-x="1206" 
d="M1030 354h-854v45h854v-45zM1030 788h-854v46h854v-46z" />
    <glyph glyph-name="greater" unicode="&#x3e;" horiz-adv-x="1107" 
d="M975 627v-45l-805 -363v45l756 340l-756 352v45z" />
    <glyph glyph-name="question" unicode="?" horiz-adv-x="1038" 
d="M494 176h20q25 0 25 -24v-127q0 -25 -25 -25h-20q-25 0 -25 25v127q0 24 25 24zM518 1458q401 0 402 -317q0 -154 -97.5 -249t-155 -152.5t-97.5 -140.5t-40 -183h-49q0 205 97.5 304t193.5 190.5t96 230.5t-85 205.5t-271 66.5t-399 -29l-11 37q18 2 59.5 9.5t59 9.5
t76 10t221.5 8z" />
    <glyph glyph-name="at" unicode="@" horiz-adv-x="1419" 
d="M522 471q0 -168 203 -172q113 -2 249 49t226 125v272l-493 -8q-184 -6 -185 -157v-109zM977 1161q268 0 268 -239v-658h-35l-10 166q-74 -63 -209 -119.5t-260 -56.5t-191.5 56.5t-66.5 158.5v111q0 96 61.5 148t172.5 52h493v142q0 197 -225 194h-283q-113 0 -173 -4
t-118.5 -25.5t-83 -53.5t-46 -102.5t-25.5 -157.5t-4 -215t2 -201.5t13 -141.5t23.5 -106.5t43 -71.5t85.5 -60.5t332 -27.5h494v-39q-541 -13 -663.5 -5.5t-190.5 34t-100.5 64.5t-55 118t-27.5 172t-5 245t5 241.5t25.5 165.5t49 113t90 62.5t134 32.5t193.5 8h287z" />
    <glyph glyph-name="A" unicode="A" horiz-adv-x="1234" 
d="M938 561l-291 807h-59l-291 -807h641zM573 1413h89q20 0 26 -18l508 -1395h-55l-187 516h-673l-187 -516h-55l508 1395q6 18 26 18z" />
    <glyph glyph-name="B" unicode="B" horiz-adv-x="1253" 
d="M262 711v-676q143 -4 384 -4t323 64.5t82 264.5t-88.5 273.5t-313.5 77.5h-387zM262 754h387q203 2 282 65t79 249t-87 250t-313 64t-348 -4v-624zM1104 332q0 -196 -95.5 -272t-363.5 -76t-434 16v1413q145 17 399 17t353.5 -77t99.5 -292q0 -154 -57.5 -233t-182.5 -91
v-8q152 -14 216.5 -107.5t64.5 -289.5z" />
    <glyph glyph-name="C" unicode="C" horiz-adv-x="1148" 
d="M678 -25q-291 0 -406.5 163t-115.5 568.5t115.5 568.5t406.5 163q205 0 356 -35l-12 -37q-154 25 -344 25q-262 0 -365.5 -152t-103.5 -532.5t103.5 -532t365.5 -151.5q219 -1 373 26l12 -37q-162 -37 -385 -37z" />
    <glyph glyph-name="D" unicode="D" horiz-adv-x="1349" 
d="M680 29q256 0 358.5 150.5t102.5 527t-102.5 527t-358.5 150.5q-168 0 -418 -8v-1341q369 -6 418 -6zM1194 706.5q0 -399.5 -114.5 -562t-399.5 -162.5q-221 0 -469 18v1413q244 18 469 19q285 0 399.5 -163t114.5 -562.5z" />
    <glyph glyph-name="E" unicode="E" horiz-adv-x="1128" 
d="M408 0q-90 0 -149.5 59.5t-59.5 149.5v995q0 90 59 149.5t150 59.5q401 0 602 -8l-4 -37h-588q-74 0 -121 -47t-47 -121v-422h672v-43h-672v-522q0 -74 47 -121t121 -47h588l4 -37q-201 -8 -602 -8z" />
    <glyph glyph-name="F" unicode="F" horiz-adv-x="1085" 
d="M424 1368q-74 0 -121 -47t-47 -121v-430h657v-43h-657v-727h-51v1204q0 90 59.5 149.5t149.5 59.5q391 0 587 -8l-4 -37h-573z" />
    <glyph glyph-name="G" unicode="G" horiz-adv-x="1273" 
d="M1108 819v-819h-35l-12 182q-193 -207 -440.5 -207t-356 172t-108.5 569t117.5 559.5t410.5 162.5q229 0 401 -35l-12 -37q-172 25 -389 25q-266 0 -370.5 -152t-104.5 -523t96 -532t322 -161q143 0 237 59q93 59 193 147v590h51z" />
    <glyph glyph-name="H" unicode="H" horiz-adv-x="1345" 
d="M1135 1413v-1413h-52v735h-821v-735h-51v1413h51v-633h821v633h52z" />
    <glyph glyph-name="I" unicode="I" horiz-adv-x="473" 
d="M262 0h-51v1413h51v-1413z" />
    <glyph glyph-name="J" unicode="J" horiz-adv-x="663" 
d="M459 1413v-1177q0 -250 -250 -248q-57 0 -131 12l6 33h119q205 0 205 205v1175h51z" />
    <glyph glyph-name="K" unicode="K" horiz-adv-x="1150" 
d="M260 539v-539h-49v1413h49v-483q0 -47 -4 -170h233l498 653h62l-474 -625q-23 -31 -45 -49v-4q37 -37 45 -47l508 -688h-61l-533 715h-233q4 -63 4 -176z" />
    <glyph glyph-name="L" unicode="L" horiz-adv-x="1038" 
d="M256 1413v-1200q0 -74 47 -121t121 -47h557v-37q-188 -8 -567 -8q-90 0 -149.5 59.5t-59.5 149.5v1204h51z" />
    <glyph glyph-name="M" unicode="M" horiz-adv-x="1748" 
d="M1391 1413h86q31 0 30 -31l62 -1382h-51l-62 1368h-49l-463 -1227q-6 -18 -26 -18h-87q-20 0 -26 18l-463 1227h-49l-62 -1368h-51l62 1382q0 31 30 31h86q20 0 27 -18l391 -1035q12 -33 36 -96t36 -96h53l463 1227q7 18 27 18z" />
    <glyph glyph-name="N" unicode="N" horiz-adv-x="1409" 
d="M1198 1413v-1382q0 -31 -31 -31h-86q-25 0 -37 23l-655 1206q-12 23 -37.5 68.5t-38.5 70.5h-51v-1368h-51v1382q0 31 31 31h80q27 0 36 -22l732 -1346h57v1368h51z" />
    <glyph glyph-name="O" unicode="O" horiz-adv-x="1355" 
d="M678 1391q-262 0 -365.5 -152t-103.5 -532.5t103.5 -532t365.5 -151.5t365.5 151.5t103.5 532t-103.5 532.5t-365.5 152zM678 1438q291 0 406.5 -163t115.5 -568.5t-115.5 -568.5t-406.5 -163t-406.5 163t-115.5 568.5t115.5 568.5t406.5 163z" />
    <glyph glyph-name="P" unicode="P" horiz-adv-x="1189" 
d="M262 645h402q201 4 277.5 79t76.5 290t-78 291.5t-276 76.5q-262 0 -402 -4v-733zM211 0v1413q164 16 453 17q227 0 317 -89t90 -329t-88.5 -327t-334.5 -87t-386 8v-606h-51z" />
    <glyph glyph-name="Q" unicode="Q" horiz-adv-x="1355" 
d="M586 -133l24 29q182 -129 459 -175l-14 -51q-279 39 -469 197zM678 1391q-262 0 -365.5 -152t-103.5 -532.5t103.5 -532t365.5 -151.5t365.5 151.5t103.5 532t-103.5 532.5t-365.5 152zM678 1438q291 0 406.5 -163t115.5 -568.5t-115.5 -568.5t-406.5 -163t-406.5 163
t-115.5 568.5t115.5 568.5t406.5 163z" />
    <glyph glyph-name="R" unicode="R" horiz-adv-x="1243" 
d="M262 682h402q199 4 276.5 76.5t77.5 275.5t-78 275.5t-276 72.5q-262 0 -402 -4v-696zM262 0h-51v1413q164 16 453 17q229 0 318 -83t89 -293t-60.5 -294t-199.5 -105v-8q98 -31 156 -194l155 -453h-57l-152 446q-66 188 -231 189q-281 0 -420 8v-643z" />
    <glyph glyph-name="S" unicode="S" horiz-adv-x="1134" 
d="M135 1048.5q0 149.5 23.5 224.5t84 110.5t128 45t228.5 6.5t345 -24l-6 -39q-357 23 -447 17.5t-142 -14.5t-75.5 -28.5t-47.5 -54.5q-40 -60 -40 -217.5t51.5 -228t172.5 -86.5l313 -43q156 -18 220.5 -102.5t64.5 -269.5t-71 -274q-57 -71 -207 -87q-58 -6 -217.5 -6.5
t-352.5 22.5l6 39q213 -16 370 -14t220 12t112.5 44t68.5 97.5t19 198.5t-52 205t-181 86l-313 43q-147 16 -211 102t-64 235.5z" />
    <glyph glyph-name="T" unicode="T" horiz-adv-x="1155" 
d="M1100 1368h-498v-1368h-51v1368h-496v45h1045v-45z" />
    <glyph glyph-name="U" unicode="U" horiz-adv-x="1366" 
d="M1165 1413v-891q0 -297 -109.5 -422t-372.5 -125t-372.5 125t-109.5 422v891h51v-891q0 -274 97 -386.5t334 -112.5t334 112.5t97 386.5v891h51z" />
    <glyph glyph-name="V" unicode="V" horiz-adv-x="1212" 
d="M649 0h-86q-18 0 -26 18l-484 1395h56l417 -1216q25 -68 52 -152h57q33 102 51 154l418 1214h55l-483 -1395q-8 -18 -27 -18z" />
    <glyph glyph-name="W" unicode="W" horiz-adv-x="1904" 
d="M1434 0h-86q-23 0 -29 23l-342 1345h-49l-342 -1345q-6 -23 -29 -23h-86q-23 0 -29 20l-374 1393h53l364 -1368h58l342 1346q6 23 28 22h78q23 0 29 -22l307 -1205q14 -56 35 -141h57l365 1368h53l-375 -1393q-6 -20 -28 -20z" />
    <glyph glyph-name="X" unicode="X" horiz-adv-x="1214" 
d="M639 717h-64l-436 -717h-61l448 737l-422 676h62l407 -651h68l408 651h61l-422 -676l449 -737h-62z" />
    <glyph glyph-name="Y" unicode="Y" horiz-adv-x="1107" 
d="M580 0h-52v526l-483 887h57l369 -682q53 -98 78 -139h10q60 105 76 137l369 684h57l-481 -887v-526z" />
    <glyph glyph-name="Z" unicode="Z" horiz-adv-x="1142" 
d="M1038 47v-47h-932v47l863 1319h-856v47h915v-47l-862 -1319h872z" />
    <glyph glyph-name="bracketleft" unicode="[" horiz-adv-x="638" 
d="M537 1528h-246q-25 0 -25 -25v-1771q0 -25 25 -25h246v-45h-256q-27 0 -45.5 17.5t-18.5 46.5v1783q0 27 18.5 45.5t45.5 18.5h256v-45z" />
    <glyph glyph-name="backslash" unicode="\" horiz-adv-x="1011" 
d="M934 -121h-51l-805 1534h51z" />
    <glyph glyph-name="bracketright" unicode="]" horiz-adv-x="638" 
d="M102 1573h256q27 0 45.5 -18.5t18.5 -45.5v-1783q0 -29 -18.5 -46.5t-45.5 -17.5h-256v45h246q25 0 25 25v1771q0 25 -25 25h-246v45z" />
    <glyph glyph-name="asciicircum" unicode="^" horiz-adv-x="802" 
d="M741 774l-24 -24l-307 372h-17l-305 -372l-27 24l322 404h37z" />
    <glyph glyph-name="underscore" unicode="_" horiz-adv-x="1206" 
d="M1044 -45h-882v45h882v-45z" />
    <glyph glyph-name="grave" unicode="`" horiz-adv-x="567" 
d="M444 1153l-28 -27l-314 289l37 35z" />
    <glyph glyph-name="a" unicode="a" horiz-adv-x="1101" 
d="M186 362v-126q0 -195 205 -199q113 -2 250 58.5t225 144.5v313l-495 -8q-185 -5 -185 -183zM643 1008q272 0 272 -275v-733h-36l-11 190q-72 -74 -209 -138t-264 -64t-193.5 64.5t-66.5 183.5v126q0 111 61.5 171.5t174.5 60.5h495v139q0 227 -225 228q-203 0 -461 -33
l-6 37q305 43 469 43z" />
    <glyph glyph-name="b" unicode="b" horiz-adv-x="1142" 
d="M606 23q182 0 262 106.5t80 362.5t-69.5 362.5t-235.5 106.5q-92 0 -183 -48t-222 -157v-682q186 -51 368 -51zM238 1434v-445q0 -143 -7 -190q237 209 421 209t265.5 -118t81.5 -398t-91 -398.5t-306 -118.5q-176 0 -414 64v1395h50z" />
    <glyph glyph-name="c" unicode="c" horiz-adv-x="978" 
d="M592 -25q-246 0 -348.5 117t-102.5 399.5t101.5 399.5t347.5 117q164 0 276 -35l-12 -37q-96 25 -256 25q-225 0 -315 -100.5t-90 -369t90 -368.5t315 -100q162 -1 283 24l8 -37q-154 -35 -297 -35z" />
    <glyph glyph-name="d" unicode="d" horiz-adv-x="1148" 
d="M197 492q0 -256 69.5 -362.5t235.5 -106.5q94 0 185 45t218 151v643q-503 200 -605.5 43t-102.5 -413zM954 1434v-1434h-36l-9 172q-221 -197 -411 -197t-271.5 118t-81.5 398.5t81.5 398.5t265.5 118t419 -103q-6 53 -6 191v338h49z" />
    <glyph glyph-name="e" unicode="e" horiz-adv-x="1079" 
d="M739 510q88 0 126 53t35 168q-6 230 -335 230q-203 0 -286.5 -101.5t-85.5 -349.5h546zM739 465h-546q6 -244 98 -343t278.5 -99t350.5 26l8 -37q-119 -37 -350 -37t-334 120t-103 400.5t96.5 396.5t325.5 116q381 0 387 -279q4 -135 -45 -199.5t-166 -64.5z" />
    <glyph glyph-name="f" unicode="f" horiz-adv-x="724" 
d="M748 1417h-226q-123 0 -173 -51t-50 -176v-207h365v-45h-365v-938h-49v938h-178v35l178 10v207q0 139 59 205.5t203 66.5t236 -8v-37z" />
    <glyph glyph-name="g" unicode="g" horiz-adv-x="1116" 
d="M166 -166q0 -117 89 -169t302 -52t300 53t87 168.5t-36 164t-142 67.5l-408 71l-6 2l-69 -43q-72 -41 -94.5 -93t-22.5 -169zM891 702.5q0 133.5 -78 197t-262 63.5t-264 -63.5t-80 -197t80 -195t264 -61.5t262 61.5t78 195zM940 706q0 -160 -91 -232.5t-274.5 -72.5
t-275.5 43q-47 -51 -60.5 -105t23.5 -99t123 -62l395 -69q125 -23 169 -81.5t44 -179.5q0 -156 -98 -219t-339 -63t-340 63.5t-99 218.5q0 111 26.5 173.5t106.5 105.5l49 27q-70 29 -95.5 86t-7 117.5t71.5 105.5q-111 70 -110.5 231.5t93.5 237.5t300 76q119 0 199 -25
h307l-6 -37l-211 -6q100 -74 100 -234z" />
    <glyph glyph-name="h" unicode="h" horiz-adv-x="1165" 
d="M246 1434v-441q0 -121 -10 -190q274 205 479 205q264 0 264 -269v-739h-49v733q0 227 -225 228q-104 0 -208 -47.5t-255 -153.5v-760h-49v1434h53z" />
    <glyph glyph-name="i" unicode="i" horiz-adv-x="450" 
d="M250 0h-49v983h49v-983zM215 1391h21q25 0 24 -25v-127q0 -25 -24 -25h-21q-25 0 -25 25v127q0 25 25 25z" />
    <glyph glyph-name="j" unicode="j" horiz-adv-x="450" 
d="M250 983v-1077q0 -184 -135 -336l-27 20q113 150 113 316v1077h49zM215 1391h21q25 0 24 -25v-127q0 -25 -24 -25h-21q-25 0 -25 25v127q0 25 25 25z" />
    <glyph glyph-name="k" unicode="k" horiz-adv-x="968" 
d="M242 362v-362h-49v1434h53v-680q0 -88 -8 -168h170l395 397h65l-370 -379q-29 -29 -47 -41v-4q35 -35 47 -51l403 -508h-63l-430 541h-170q4 -63 4 -179z" />
    <glyph glyph-name="l" unicode="l" horiz-adv-x="552" 
d="M244 1434v-1237q0 -80 43 -122t121 -42h118l6 -33q-41 -12 -133 -12t-148 54t-56 153v1239h49z" />
    <glyph glyph-name="m" unicode="m" horiz-adv-x="1802" 
d="M683 1008q212 0 243 -203q231 203 436 203q123 0 188.5 -69t65.5 -200v-739h-49v733q0 227 -215 228q-96 0 -189.5 -47.5t-232.5 -153.5v-760h-49v733q0 227 -215 228q-96 0 -189.5 -47.5t-232.5 -153.5v-760h-49v983h36l7 -180q233 205 445 205z" />
    <glyph glyph-name="n" unicode="n" horiz-adv-x="1167" 
d="M717 1008q264 0 264 -269v-739h-49v733q0 227 -225 228q-104 0 -208 -47.5t-255 -153.5v-760h-49v983h36l7 -180q258 205 479 205z" />
    <glyph glyph-name="o" unicode="o" 
d="M573 961q-211 0 -294.5 -102.5t-83.5 -367t83.5 -366.5t294.5 -102t295 102t84 366.5t-84 367t-295 102.5zM573.5 1008q237.5 0 334 -116t96.5 -400.5t-96.5 -400.5t-334 -116t-334 116t-96.5 400.5t96.5 400.5t334 116z" />
    <glyph glyph-name="p" unicode="p" horiz-adv-x="1148" 
d="M652 23q162 0 231 106.5t69 362.5t-69.5 362.5t-235.5 106.5q-94 0 -186 -46.5t-217 -152.5v-641q246 -98 408 -98zM650 1008q190 0 272 -118t82 -398.5t-82 -398.5t-270 -118t-414 109q6 -51 6 -188v-326h-49v1413h36l9 -178q220 203 410 203z" />
    <glyph glyph-name="q" unicode="q" horiz-adv-x="1144" 
d="M195 496q0 -258 68.5 -365.5t223.5 -107.5q102 0 192.5 44t225.5 146v696q-193 51 -348 52q-201 0 -281.5 -103.5t-80.5 -361.5zM905 -430v410q0 143 6 190q-127 -100 -225 -147.5t-207 -47.5q-176 0 -256 124t-80 400t92.5 392.5t313.5 116.5q168 0 405 -64v-1374h-49z
" />
    <glyph glyph-name="r" unicode="r" horiz-adv-x="784" 
d="M692 961q-100 0 -199.5 -47.5t-248.5 -153.5v-760h-49v983h36l7 -180q260 205 460 205h39l-10 -47h-35z" />
    <glyph glyph-name="s" unicode="s" horiz-adv-x="1021" 
d="M127 748q0 172 80 218t282.5 42t380.5 -25l-6 -37q-343 24 -438.5 19.5t-139.5 -15t-64 -34.5q-46 -56 -46 -164t41 -154.5t123 -56.5l332 -41q223 -29 223 -250q0 -92 -23.5 -147.5t-79 -82t-117 -35t-211 -8.5t-312.5 23l6 37q178 -16 363.5 -13t255 44t69.5 182
q0 180 -174 203l-332 41q-106 12 -159.5 71.5t-53.5 182.5z" />
    <glyph glyph-name="t" unicode="t" horiz-adv-x="710" 
d="M297 938v-741q0 -164 164 -164h180l6 -33q-82 -12 -174 -12q-225 0 -225 207v743h-178v35l178 10v309h49v-309h365v-45h-365z" />
    <glyph glyph-name="u" unicode="u" 
d="M952 983v-983h-37l-6 180q-246 -205 -458 -205q-264 0 -265 269v739h50v-733q0 -227 225 -227q100 0 198.5 47t243.5 153v760h49z" />
    <glyph glyph-name="v" unicode="v" horiz-adv-x="1038" 
d="M547 0h-55q-16 0 -27 16l-404 967h54l313 -752q14 -31 39 -93t39 -93h26l392 938h53l-404 -967q-10 -16 -26 -16z" />
    <glyph glyph-name="w" unicode="w" horiz-adv-x="1662" 
d="M1225 0h-54q-18 0 -26 18l-256 773q-8 25 -23.5 73.5t-23.5 73.5h-21l-303 -920q-8 -18 -26 -18h-54q-20 0 -26 18l-342 965h53l283 -807q8 -23 22 -66.5t23 -64.5h28l301 920q8 18 27 18h49q18 0 27 -18l301 -920h28q8 23 22.5 67t22.5 66l283 805h53l-342 -965
q-6 -18 -26 -18z" />
    <glyph glyph-name="x" unicode="x" horiz-adv-x="1034" 
d="M541 492h-47l-359 -492h-61l372 512l-346 471h62l327 -446h56l327 446h62l-346 -471l373 -512h-62z" />
    <glyph glyph-name="y" unicode="y" horiz-adv-x="1036" 
d="M492 0q-16 0 -27 16l-404 967h54l391 -938h26l392 938h53l-453 -1079q-59 -139 -127.5 -219t-189.5 -115l-12 29q113 43 176 121.5t110 201.5l31 78h-20z" />
    <glyph glyph-name="z" unicode="z" horiz-adv-x="1021" 
d="M913 45v-45h-804v45l735 893h-729v45h792v-45l-735 -893h741z" />
    <glyph glyph-name="braceleft" unicode="{" horiz-adv-x="610" 
d="M508 1573v-37q-119 0 -165 -53t-46 -168v-420q0 -121 -29.5 -161t-126.5 -62q100 -35 132 -73t32 -142v-537q0 -113 46 -167t165 -54v-37q-141 0 -200.5 60.5t-59.5 197.5v557q0 43 -6 68.5t-29.5 44t-39 26t-66.5 25.5v61q113 34 123 77.5t10 94.5v441q0 137 59.5 197.5
t200.5 60.5z" />
    <glyph glyph-name="bar" unicode="|" horiz-adv-x="479" 
d="M262 -346h-45v1945h45v-1945z" />
    <glyph glyph-name="braceright" unicode="}" horiz-adv-x="610" 
d="M102 1536v37q141 0 200.5 -60.5t59.5 -197.5v-441q0 -98 22 -121.5t112 -50.5v-61q-51 -18 -66.5 -25.5t-39 -26t-30 -44t-6.5 -68.5v-557q0 -137 -59 -197.5t-201 -60.5v37q119 0 165 54t46 167v537q0 104 32 142t132 73q-96 23 -126 62.5t-30 160.5v420q0 115 -46 168
t-165 53z" />
    <glyph glyph-name="asciitilde" unicode="~" horiz-adv-x="1091" 
d="M213 494h-35q-2 92 39 140t123 43t207 -70.5t201 -69.5t104.5 26.5t28.5 102.5h34q2 -88 -38.5 -134.5t-114.5 -39.5q-111 6 -233.5 70.5t-190.5 69.5t-96.5 -28.5t-28.5 -109.5z" />
    <glyph glyph-name="uni00A0" unicode="&#xa0;" horiz-adv-x="471" 
 />
    <glyph glyph-name="exclamdown" unicode="&#xa1;" horiz-adv-x="477" 
d="M264 -420h-51v678l4 309h43l4 -309v-678zM229 983h21q25 0 24 -25v-127q0 -25 -24 -24h-21q-25 0 -24 24v127q-1 25 24 25z" />
    <glyph glyph-name="cent" unicode="&#xa2;" horiz-adv-x="1032" 
d="M193 727q0 -252 72.5 -355.5t248.5 -119.5l64 934q-213 -4 -299 -105.5t-86 -353.5zM592 201h-39l-14 -201h-43l14 205q-199 16 -284 134.5t-85 388.5t100.5 386.5t340.5 118.5l12 180h43l-12 -180q141 -4 241 -35l-12 -37q-78 20 -233 25l-64 -938h41q162 -1 283 24
l8 -36q-154 -35 -297 -35z" />
    <glyph glyph-name="sterling" unicode="&#xa3;" 
d="M1026 45v-45h-879v45q102 66 138.5 175.5t27.5 277.5l-10 225h-170v41h168l-14 315q-12 234 70.5 284t142.5 61.5t176 11.5t299 -21l-6 -37q-152 12 -361 13q-158 0 -218 -71t-54 -235l14 -321h514l-4 -41h-508l10 -225q6 -168 -22.5 -278.5t-126.5 -174.5h813z" />
    <glyph glyph-name="currency" unicode="&#xa4;" horiz-adv-x="1232" 
d="M961 720.5q0 145.5 -101.5 248t-245 102.5t-246 -102.5t-102.5 -248t102.5 -247.5t245.5 -102t245 102t102 247.5zM615 332q-153 0 -263 98l-151 -154l-31 29l154 154q-100 115 -100 265t100 259l-152 152l29 30l151 -151q111 98 260 98t265 -100l153 153l29 -30
l-154 -152q99 -111 99 -261t-101 -261l158 -156l-31 -29l-156 156q-106 -100 -259 -100z" />
    <glyph glyph-name="yen" unicode="&#xa5;" horiz-adv-x="1232" 
d="M1047 627v-41h-406v-185h406v-41h-406v-360h-51v360h-395v41h395v185h-395v41h372l-461 786h58l446 -762h11q72 121 81 140l363 622h57l-458 -786h383z" />
    <glyph glyph-name="brokenbar" unicode="&#xa6;" horiz-adv-x="483" 
d="M264 -346h-45v819h45v-819zM264 780h-45v819h45v-819z" />
    <glyph glyph-name="section" unicode="&#xa7;" horiz-adv-x="1112" 
d="M961 -48q0 -84 -20.5 -128.5t-48.5 -68t-90 -37t-234 -12.5q-171 1 -412 24l6 37q396 -20 523 -16.5t175.5 45t48.5 138.5q0 160 -161 250l-392 222q-125 70 -161.5 172t-18.5 274h45q-18 -150 11.5 -243t121.5 -146l396 -223q115 -66 163 -135t48 -153zM152 1214
q0 137 87 181.5t307 41.5t410 -24l-6 -37q-508 30 -587.5 13t-119.5 -48.5t-40 -126.5q0 -156 162 -247l393 -224q125 -72 160.5 -175t17.5 -277h-45q35 299 -133 395l-393 225q-119 68 -166 136.5t-47 166.5z" />
    <glyph glyph-name="dieresis" unicode="&#xa8;" horiz-adv-x="817" 
d="M580 1378h20q20 0 21 -22v-115q0 -23 -21 -22h-20q-20 0 -21 22v115q1 22 21 22zM217 1378h21q20 0 20 -22v-115q0 -23 -20 -22h-21q-20 0 -20 22v115q0 22 20 22z" />
    <glyph glyph-name="copyright" unicode="&#xa9;" horiz-adv-x="1757" 
d="M489 713q0 262 89.5 368.5t310.5 106.5q166 0 272 -25l-10 -30q-107 12 -283 12t-254.5 -95.5t-78.5 -337t78.5 -337.5t266.5 -96t296 16l8 -33q-123 -25 -295 -24q-221 0 -310.5 106.5t-89.5 368.5zM878.5 1395q-286.5 0 -487.5 -197t-201 -491.5t201 -491.5t487.5 -197
t487.5 197t201 491.5t-201 491.5t-487.5 197zM878.5 1438q307.5 0 519.5 -208t212 -523.5t-212 -523.5t-519.5 -208t-519.5 208t-212 523.5t212 523.5t519.5 208z" />
    <glyph glyph-name="ordfeminine" unicode="&#xaa;" horiz-adv-x="909" 
d="M209 797v-82q0 -125 143 -129q80 -2 174.5 37t155.5 94v203l-344 -7q-129 -3 -129 -116zM528 1229q199 0 199 -189v-487h-35l-8 129q-53 -51 -148.5 -94t-186.5 -43t-139 43t-48 125v84q0 74 45 114.5t127 40.5h348v88q0 147 -157.5 147t-327.5 -20l-7 33q219 29 338 29z
" />
    <glyph glyph-name="guillemotleft" unicode="&#xab;" horiz-adv-x="925" 
d="M786 909l-303 -395l305 -399l-24 -21l-336 412v16l334 408zM463 909l-303 -395l305 -399l-25 -21l-336 412v16l334 408z" />
    <glyph glyph-name="logicalnot" unicode="&#xac;" horiz-adv-x="1214" 
d="M1030 629v-365h-47v320h-807v45h854z" />
    <glyph glyph-name="softhyphen" unicode="&#xad;" horiz-adv-x="989" 
d="M813 492h-637v45h637v-45z" />
    <glyph glyph-name="registered" unicode="&#xae;" horiz-adv-x="1189" 
d="M426 973h192q96 2 134.5 30.5t38.5 106.5t-37.5 104.5t-163.5 26.5t-164 -2v-266zM426 688h-37v580q74 6 210 6t182 -35t46 -119t-30.5 -119t-100.5 -45v-4q53 -10 80 -80l76 -184h-41l-74 180q-31 76 -110 76l-201 2v-258zM595 557q173 0 296 124t123 299t-123 299
t-296 124t-296 -124t-123 -299t123 -299t296 -124zM595 1436q189 0 322.5 -133.5t133.5 -322.5t-133.5 -322.5t-322.5 -133.5t-322.5 133.5t-133.5 322.5t133.5 322.5t322.5 133.5z" />
    <glyph glyph-name="macron" unicode="&#xaf;" horiz-adv-x="819" 
d="M676 1280h-533v47h533v-47z" />
    <glyph glyph-name="degree" unicode="&#xb0;" horiz-adv-x="784" 
d="M393 1397q-88 0 -150.5 -61.5t-62.5 -148.5t62.5 -150.5t149.5 -63.5t149.5 63.5t62.5 150.5t-61.5 148.5t-149.5 61.5zM392 1438q103 0 178 -75t75 -178t-74.5 -178t-178.5 -75t-178.5 74t-74.5 178t75 179t178 75z" />
    <glyph glyph-name="plusminus" unicode="&#xb1;" horiz-adv-x="1226" 
d="M186 238h854v-45h-854v45zM1040 733v-45h-405v-301h-43v301h-406v45h404v301h47v-301h403z" />
    <glyph glyph-name="twosuperior" unicode="&#xb2;" horiz-adv-x="903" 
d="M707 1438q0 -94 -43 -166t-146 -176l-313 -320h545v-39h-600v25q0 10 8 22l323 330q96 102 138.5 175t40.5 137t-34 92t-74 35.5t-146 7.5t-240 -27l-8 33q150 33 284 33t199.5 -34t65.5 -128z" />
    <glyph glyph-name="threesuperior" unicode="&#xb3;" horiz-adv-x="868" 
d="M428 1599q142 0 205 -41.5t63 -152.5q0 -188 -153 -215v-4q172 -25 176 -213q4 -129 -62.5 -189.5t-224.5 -60.5q-102 0 -282 20l8 33q139 -14 270 -14t188.5 49t57.5 151t-49.5 153.5t-180.5 53.5h-176v31l176 4q137 4 173 63.5t35 142.5t-53 116.5t-184 33.5t-243 -14
l-8 33q122 20 264 20z" />
    <glyph glyph-name="acute" unicode="&#xb4;" horiz-adv-x="567" 
d="M465 1415l-313 -289l-29 27l305 297z" />
    <glyph glyph-name="paragraph" unicode="&#xb6;" horiz-adv-x="1222" 
d="M586 -430v842q-254 23 -364.5 141.5t-110.5 384.5t140 383t472 117q164 0 276 -35v-1403h-51v1372q-145 18 -311 19v-1821h-51z" />
    <glyph glyph-name="periodcentered" unicode="&#xb7;" horiz-adv-x="421" 
d="M201 614h20q25 0 25 -24v-127q0 -25 -25 -25h-20q-25 0 -25 25v127q0 24 25 24z" />
    <glyph glyph-name="cedilla" unicode="&#xb8;" horiz-adv-x="448" 
d="M326 -244.5q0 68.5 -26.5 91t-94.5 24.5l6 29q164 8 160 -133q-2 -106 -80 -169t-205 -47l8 31q104 -4 168 50.5t64 123z" />
    <glyph glyph-name="onesuperior" unicode="&#xb9;" horiz-adv-x="585" 
d="M399 737h-43v744q0 41 4 61l-254 -76l-8 29l258 90h43v-848z" />
    <glyph glyph-name="ordmasculine" unicode="&#xba;" horiz-adv-x="919" 
d="M458.5 1190q-143.5 0 -200.5 -66.5t-57 -239.5t57 -239.5t200.5 -66.5t201 66.5t57.5 239.5t-57.5 239.5t-201 66.5zM460 1229q169 0 237.5 -78t68.5 -268.5t-68.5 -268t-237.5 -77.5t-237.5 77.5t-68.5 268t68.5 268.5t237.5 78z" />
    <glyph glyph-name="guillemotright" unicode="&#xbb;" horiz-adv-x="925" 
d="M821 522v-16l-336 -412l-24 21l305 399l-303 395l24 21zM498 522v-16l-336 -412l-25 21l305 399l-303 395l25 21z" />
    <glyph glyph-name="onequarter" unicode="&#xbc;" horiz-adv-x="1720" 
d="M1522 0h-43v236h-467q-43 0 -64.5 31.5t-1.5 66.5l303 514h47l-305 -516q-12 -23 1.5 -41.5t39.5 -18.5h447v273l10 143h33v-416h92v-30l-92 -4v-238zM1290 1413l-983 -1413h-49l983 1413h49zM369 565v744q0 41 4 61l-254 -76l-8 29l258 90h43v-848h-43z" />
    <glyph glyph-name="onehalf" unicode="&#xbd;" horiz-adv-x="1783" 
d="M1354 862q134 0 200 -33t66 -127t-43 -166.5t-145 -177.5l-314 -319h545v-39h-600v25q0 10 8 22l324 330q96 102 138 175t40 136t-34 92t-73.5 36.5t-145.5 7.5t-241 -27l-8 32q149 33 283 33zM307 0h-49l983 1413h49zM412 565h-43v744q0 41 4 61l-254 -76l-8 29l258 90
h43v-848z" />
    <glyph glyph-name="threequarters" unicode="&#xbe;" horiz-adv-x="1904" 
d="M1683 0h-43v236h-446q-43 0 -64.5 31.5t-1.5 66.5l304 514h47l-305 -516q-12 -23 1 -41.5t39 -18.5h426v273l11 143h32v-416h113v-30l-113 -6v-236zM1503 1413l-983 -1413h-49l983 1413h49zM422 547q-102 0 -283 20l8 33q139 -14 270.5 -14t189 49t57.5 151t-49.5 153.5
t-180.5 53.5h-176v31l176 4q136 4 172.5 62.5t35.5 142.5t-53.5 117.5t-184.5 33.5t-242 -14l-8 33q123 20 264 20t204.5 -42t63.5 -152q0 -188 -154 -215v-4q172 -25 177 -213q4 -129 -62.5 -189.5t-224.5 -60.5z" />
    <glyph glyph-name="questiondown" unicode="&#xbf;" horiz-adv-x="1032" 
d="M504 588h49q0 -111 -40 -199t-96.5 -146.5t-153.5 -148.5t-97 -230t85 -207t271 -67t400 29l10 -37q-18 -2 -59.5 -9t-58.5 -9t-74 -10.5t-224 -8.5q-401 0 -401 318q0 152 97 248t154.5 153.5t97.5 140.5t40 183zM520 1004h21q25 0 24 -25v-127q0 -25 -24 -25h-21
q-25 0 -24 25v127q-1 25 24 25z" />
    <glyph glyph-name="Agrave" unicode="&#xc0;" horiz-adv-x="1234" 
d="M938 561l-291 807h-59l-291 -807h641zM573 1413h89q20 0 26 -18l508 -1395h-55l-187 516h-673l-187 -516h-55l508 1395q6 18 26 18zM670 1507l-314 289l37 35l305 -297z" />
    <glyph glyph-name="Aacute" unicode="&#xc1;" horiz-adv-x="1234" 
d="M938 561l-291 807h-59l-291 -807h641zM573 1413h89q20 0 26 -18l508 -1395h-55l-187 516h-673l-187 -516h-55l508 1395q6 18 26 18zM549 1507l-29 27l305 297l37 -35z" />
    <glyph glyph-name="Acircumflex" unicode="&#xc2;" horiz-adv-x="1234" 
d="M938 561l-291 807h-59l-291 -807h641zM573 1413h89q20 0 26 -18l508 -1395h-55l-187 516h-673l-187 -516h-55l508 1395q6 18 26 18zM344 1538l-25 25l279 239h37l278 -239l-22 -25l-266 209h-17z" />
    <glyph glyph-name="Atilde" unicode="&#xc3;" horiz-adv-x="1234" 
d="M938 561l-291 807h-59l-291 -807h641zM573 1413h89q20 0 26 -18l508 -1395h-55l-187 516h-673l-187 -516h-55l508 1395q6 18 26 18zM356 1591h-34q-2 92 38 140.5t108 43.5t150 -70t144 -70t90.5 26t28.5 102h34q2 -88 -38.5 -134t-114.5 -40t-157 70.5t-137 70.5
q-112 12 -112 -139z" />
    <glyph glyph-name="Adieresis" unicode="&#xc4;" horiz-adv-x="1234" 
d="M938 561l-291 807h-59l-291 -807h641zM573 1413h89q20 0 26 -18l508 -1395h-55l-187 516h-673l-187 -516h-55l508 1395q6 18 26 18zM809 1593h-21q-20 0 -20 23v115q0 23 20 22h21q20 0 20 -22v-115q0 -23 -20 -23zM446 1593h-20q-20 0 -20 23v115q0 23 20 22h20
q20 0 21 -22v-115q-1 -23 -21 -23z" />
    <glyph glyph-name="Aring" unicode="&#xc5;" horiz-adv-x="1234" 
d="M938 561l-291 807h-59l-291 -807h641zM573 1413h89q20 0 26 -18l508 -1395h-55l-187 516h-673l-187 -516h-55l508 1395q6 18 26 18zM618.5 1823q-65.5 0 -109.5 -45t-44 -112t44 -111t109.5 -44t109.5 44t44 111t-44 112t-109.5 45zM618.5 1473q-81.5 0 -139 56
t-57.5 137t57.5 138.5t139 57.5t139 -57.5t57.5 -138.5t-57.5 -137t-139 -56z" />
    <glyph glyph-name="AE" unicode="&#xc6;" horiz-adv-x="1855" 
d="M965 602v600q0 47 25.5 95.5t58.5 62.5h-13q-82 -33 -155 -148l-402 -610h486zM1735 1368h-551q-78 0 -123 -45t-45 -123v-422h631v-43h-631v-522q0 -74 47 -121t121 -47h551v-37q-188 -8 -561 -8q-90 0 -149.5 59.5t-59.5 149.5v348h-514l-367 -557h-61l817 1239
q70 104 147.5 139t190.5 35q358 0 557 -8v-37z" />
    <glyph glyph-name="Ccedilla" unicode="&#xc7;" horiz-adv-x="1148" 
d="M733 -270q0 68 -26.5 91t-94.5 25l6 29q164 8 160 -133q-2 -106 -79.5 -168.5t-204.5 -46.5l8 31q104 -4 167.5 50t63.5 122zM678 -25q-291 0 -406.5 163t-115.5 568.5t115.5 568.5t406.5 163q205 0 356 -35l-12 -37q-154 25 -344 25q-262 0 -365.5 -152t-103.5 -532.5
t103.5 -532t365.5 -151.5q219 -1 373 26l12 -37q-162 -37 -385 -37z" />
    <glyph glyph-name="Egrave" unicode="&#xc8;" horiz-adv-x="1128" 
d="M408 0q-90 0 -149.5 59.5t-59.5 149.5v995q0 90 59 149.5t150 59.5q401 0 602 -8l-4 -37h-588q-74 0 -121 -47t-47 -121v-422h672v-43h-672v-522q0 -74 47 -121t121 -47h588l4 -37q-201 -8 -602 -8zM686 1559l-313 288l37 35l305 -297z" />
    <glyph glyph-name="Eacute" unicode="&#xc9;" horiz-adv-x="1128" 
d="M408 0q-90 0 -149.5 59.5t-59.5 149.5v995q0 90 59 149.5t150 59.5q401 0 602 -8l-4 -37h-588q-74 0 -121 -47t-47 -121v-422h672v-43h-672v-522q0 -74 47 -121t121 -47h588l4 -37q-201 -8 -602 -8zM565 1559l-28 26l305 297l37 -35z" />
    <glyph glyph-name="Ecircumflex" unicode="&#xca;" horiz-adv-x="1128" 
d="M408 0q-90 0 -149.5 59.5t-59.5 149.5v995q0 90 59 149.5t150 59.5q401 0 602 -8l-4 -37h-588q-74 0 -121 -47t-47 -121v-422h672v-43h-672v-522q0 -74 47 -121t121 -47h588l4 -37q-201 -8 -602 -8zM360 1589l-24 25l278 239h37l279 -239l-23 -25l-266 209h-16z" />
    <glyph glyph-name="Edieresis" unicode="&#xcb;" horiz-adv-x="1128" 
d="M408 0q-90 0 -149.5 59.5t-59.5 149.5v995q0 90 59 149.5t150 59.5q401 0 602 -8l-4 -37h-588q-74 0 -121 -47t-47 -121v-422h672v-43h-672v-522q0 -74 47 -121t121 -47h588l4 -37q-201 -8 -602 -8zM825 1645h-20q-20 0 -21 22v115q0 23 21 22h20q20 0 21 -22v-115
q-1 -22 -21 -22zM463 1645h-21q-20 0 -20 22v115q0 23 20 22h21q20 0 20 -22v-115q0 -22 -20 -22z" />
    <glyph glyph-name="Igrave" unicode="&#xcc;" horiz-adv-x="473" 
d="M262 0h-51v1413h51v-1413zM315 1534l-28 -27l-314 289l37 35z" />
    <glyph glyph-name="Iacute" unicode="&#xcd;" horiz-adv-x="473" 
d="M262 0h-51v1413h51v-1413zM479 1796l-313 -289l-29 27l305 297z" />
    <glyph glyph-name="Icircumflex" unicode="&#xce;" horiz-adv-x="473" 
d="M262 0h-51v1413h51v-1413zM530 1563l-22 -25l-266 209h-17l-264 -209l-24 25l278 239h37z" />
    <glyph glyph-name="Idieresis" unicode="&#xcf;" horiz-adv-x="473" 
d="M262 0h-51v1413h51v-1413zM406 1753h20q20 0 20 -22v-115q0 -23 -20 -23h-20q-20 0 -21 23v115q1 22 21 22zM43 1753h20q20 0 21 -22v-115q0 -23 -21 -23h-20q-20 0 -20 23v115q0 22 20 22z" />
    <glyph glyph-name="Eth" unicode="&#xd0;" horiz-adv-x="1355" 
d="M268 739v-704q369 -6 418 -6q256 0 358.5 150.5t102.5 527t-102.5 527t-358.5 150.5q-168 0 -418 -8v-596h375v-41h-375zM217 780v633q244 18 469 19q285 0 399.5 -163t114.5 -562.5t-114.5 -562t-399.5 -162.5q-221 0 -469 18v739h-164v41h164z" />
    <glyph glyph-name="Ntilde" unicode="&#xd1;" horiz-adv-x="1409" 
d="M1198 1413v-1382q0 -31 -31 -31h-86q-25 0 -37 23l-655 1206q-12 23 -37.5 68.5t-38.5 70.5h-51v-1368h-51v1382q0 31 31 31h80q27 0 36 -22l732 -1346h57v1368h51zM471 1591h-35q-2 92 39 140.5t103 43.5t108.5 -38t92 -66t103.5 -37t85.5 27t27.5 102h35
q2 -88 -39 -134t-114.5 -40t-156.5 70.5t-137 70.5q-112 12 -112 -139z" />
    <glyph glyph-name="Ograve" unicode="&#xd2;" horiz-adv-x="1355" 
d="M678 1391q-262 0 -365.5 -152t-103.5 -532.5t103.5 -532t365.5 -151.5t365.5 151.5t103.5 532t-103.5 532.5t-365.5 152zM678 1438q291 0 406.5 -163t115.5 -568.5t-115.5 -568.5t-406.5 -163t-406.5 163t-115.5 568.5t115.5 568.5t406.5 163zM760 1534l-29 -27l-313 289
l37 35z" />
    <glyph glyph-name="Oacute" unicode="&#xd3;" horiz-adv-x="1355" 
d="M678 1391q-262 0 -365.5 -152t-103.5 -532.5t103.5 -532t365.5 -151.5t365.5 151.5t103.5 532t-103.5 532.5t-365.5 152zM678 1438q291 0 406.5 -163t115.5 -568.5t-115.5 -568.5t-406.5 -163t-406.5 163t-115.5 568.5t115.5 568.5t406.5 163zM924 1796l-314 -289l-28 27
l305 297z" />
    <glyph glyph-name="Ocircumflex" unicode="&#xd4;" horiz-adv-x="1355" 
d="M678 1391q-262 0 -365.5 -152t-103.5 -532.5t103.5 -532t365.5 -151.5t365.5 151.5t103.5 532t-103.5 532.5t-365.5 152zM678 1438q291 0 406.5 -163t115.5 -568.5t-115.5 -568.5t-406.5 -163t-406.5 163t-115.5 568.5t115.5 568.5t406.5 163zM975 1563l-23 -25l-266 209
h-16l-264 -209l-25 25l278 239h37z" />
    <glyph glyph-name="Otilde" unicode="&#xd5;" horiz-adv-x="1355" 
d="M678 1391q-262 0 -365.5 -152t-103.5 -532.5t103.5 -532t365.5 -151.5t365.5 151.5t103.5 532t-103.5 532.5t-365.5 152zM678 1438q291 0 406.5 -163t115.5 -568.5t-115.5 -568.5t-406.5 -163t-406.5 163t-115.5 568.5t115.5 568.5t406.5 163zM418 1591h-35
q-2 92 38.5 140.5t108.5 43.5t150 -70t144 -70t90 26t28 102h35q2 -88 -39 -134t-114.5 -40t-156.5 70.5t-137 70.5q-112 12 -112 -139z" />
    <glyph glyph-name="Odieresis" unicode="&#xd6;" horiz-adv-x="1355" 
d="M678 1391q-262 0 -365.5 -152t-103.5 -532.5t103.5 -532t365.5 -151.5t365.5 151.5t103.5 532t-103.5 532.5t-365.5 152zM678 1438q291 0 406.5 -163t115.5 -568.5t-115.5 -568.5t-406.5 -163t-406.5 163t-115.5 568.5t115.5 568.5t406.5 163zM850 1753h20q20 0 21 -22
v-115q0 -23 -21 -23h-20q-20 0 -21 23v115q1 22 21 22zM487 1753h21q20 0 20 -22v-115q0 -23 -20 -23h-21q-20 0 -20 23v115q0 22 20 22z" />
    <glyph glyph-name="multiply" unicode="&#xd7;" horiz-adv-x="999" 
d="M133 285l717 643l29 -33l-717 -645z" />
    <glyph glyph-name="Oslash" unicode="&#xd8;" horiz-adv-x="1355" 
d="M1147 707q0 246 -41 392t-135 216l-574 -1225q100 -68 281 -67q262 0 365.5 151.5t103.5 532.5zM358 121l572 1218q-96 51 -252 52q-262 0 -365.5 -152t-103.5 -532q-1 -445 149 -586zM1200 707q0 -406 -115.5 -569t-406.5 -163q-195 0 -303 68l-70 -147l-43 20l72 156
q-178 147 -178 635q0 406 115.5 568.5t406.5 162.5q170 0 274 -52l62 132l43 -21l-64 -135q111 -72 159 -229.5t48 -425.5z" />
    <glyph glyph-name="Ugrave" unicode="&#xd9;" horiz-adv-x="1366" 
d="M1165 1413v-891q0 -297 -109.5 -422t-372.5 -125t-372.5 125t-109.5 422v891h51v-891q0 -274 97 -386.5t334 -112.5t334 112.5t97 386.5v891h51zM766 1534l-29 -27l-313 289l37 35z" />
    <glyph glyph-name="Uacute" unicode="&#xda;" horiz-adv-x="1366" 
d="M1165 1413v-891q0 -297 -109.5 -422t-372.5 -125t-372.5 125t-109.5 422v891h51v-891q0 -274 97 -386.5t334 -112.5t334 112.5t97 386.5v891h51zM930 1796l-314 -289l-28 27l305 297z" />
    <glyph glyph-name="Ucircumflex" unicode="&#xdb;" horiz-adv-x="1366" 
d="M1165 1413v-891q0 -297 -109.5 -422t-372.5 -125t-372.5 125t-109.5 422v891h51v-891q0 -274 97 -386.5t334 -112.5t334 112.5t97 386.5v891h51zM981 1563l-23 -25l-266 209h-16l-264 -209l-25 25l279 239h36z" />
    <glyph glyph-name="Udieresis" unicode="&#xdc;" horiz-adv-x="1366" 
d="M1165 1413v-891q0 -297 -109.5 -422t-372.5 -125t-372.5 125t-109.5 422v891h51v-891q0 -274 97 -386.5t334 -112.5t334 112.5t97 386.5v891h51zM856 1753h21q20 0 20 -22v-115q0 -23 -20 -23h-21q-20 0 -20 23v115q0 22 20 22zM494 1753h20q20 0 21 -22v-115
q0 -23 -21 -23h-20q-20 0 -21 23v115q1 22 21 22z" />
    <glyph glyph-name="Yacute" unicode="&#xdd;" horiz-adv-x="1107" 
d="M580 0h-52v526l-483 887h57l369 -682q53 -98 78 -139h10q60 105 76 137l369 684h57l-481 -887v-526zM485 1507l-28 27l305 297l37 -35z" />
    <glyph glyph-name="Thorn" unicode="&#xde;" horiz-adv-x="1193" 
d="M262 352h402q201 4 277.5 79t76.5 290t-78 292t-276 77q-262 0 -402 -5v-733zM262 1413v-289q143 12 386 12t333 -87.5t90 -328.5t-88.5 -328t-334.5 -87t-386 8v-313h-51v1413h51z" />
    <glyph glyph-name="germandbls" unicode="&#xdf;" horiz-adv-x="1333" 
d="M1229 260q0 -191 -87 -237t-254 -46t-323 23l4 37q439 -41 524 15t85 176t-39 161t-115 64l-270 82q-90 27 -135.5 73.5t-45.5 134.5t25 118t36 43.5t50 30.5t54.5 23.5t71.5 24.5t77 25q96 33 131 77.5t35 146.5t-95.5 141.5t-297.5 39.5t-280.5 -65.5t-78.5 -260.5
v-1087h-49v938h-178v35l178 10v104q0 249 94 300t157.5 61t170.5 10q211 0 317.5 -50t106.5 -175t-47 -178.5t-162 -91.5q-23 -8 -70 -22.5t-62.5 -20t-47 -18.5t-41 -24.5t-27.5 -36.5t-18 -96t33.5 -107t101.5 -56l272 -82q100 -31 149.5 -85.5t49.5 -154.5z" />
    <glyph glyph-name="agrave" unicode="&#xe0;" horiz-adv-x="1101" 
d="M186 362v-126q0 -195 205 -199q113 -2 250 58.5t225 144.5v313l-495 -8q-185 -5 -185 -183zM643 1008q272 0 272 -275v-733h-36l-11 190q-72 -74 -209 -138t-264 -64t-193.5 64.5t-66.5 183.5v126q0 111 61.5 171.5t174.5 60.5h495v139q0 227 -225 228q-203 0 -461 -33
l-6 37q305 43 469 43zM598 1135l-313 288l37 35l305 -297z" />
    <glyph glyph-name="aacute" unicode="&#xe1;" horiz-adv-x="1101" 
d="M186 362v-126q0 -195 205 -199q113 -2 250 58.5t225 144.5v313l-495 -8q-185 -5 -185 -183zM643 1008q272 0 272 -275v-733h-36l-11 190q-72 -74 -209 -138t-264 -64t-193.5 64.5t-66.5 183.5v126q0 111 61.5 171.5t174.5 60.5h495v139q0 227 -225 228q-203 0 -461 -33
l-6 37q305 43 469 43zM477 1135l-28 26l305 297l37 -35z" />
    <glyph glyph-name="acircumflex" unicode="&#xe2;" horiz-adv-x="1101" 
d="M186 362v-126q0 -195 205 -199q113 -2 250 58.5t225 144.5v313l-495 -8q-185 -5 -185 -183zM643 1008q272 0 272 -275v-733h-36l-11 190q-72 -74 -209 -138t-264 -64t-193.5 64.5t-66.5 183.5v126q0 111 61.5 171.5t174.5 60.5h495v139q0 227 -225 228q-203 0 -461 -33
l-6 37q305 43 469 43zM272 1165l-24 25l278 240h37l279 -240l-23 -25l-266 209h-16z" />
    <glyph glyph-name="atilde" unicode="&#xe3;" horiz-adv-x="1101" 
d="M186 362v-126q0 -195 205 -199q113 -2 250 58.5t225 144.5v313l-495 -8q-185 -5 -185 -183zM643 1008q272 0 272 -275v-733h-36l-11 190q-72 -74 -209 -138t-264 -64t-193.5 64.5t-66.5 183.5v126q0 111 61.5 171.5t174.5 60.5h495v139q0 227 -225 228q-203 0 -461 -33
l-6 37q305 43 469 43zM285 1219h-35q-2 92 39 140t107 43t150.5 -70.5t145.5 -69.5t89 26.5t28 102.5h35q2 -88 -39 -134.5t-115 -40t-157 71t-137 69.5q-112 10 -111 -138z" />
    <glyph glyph-name="adieresis" unicode="&#xe4;" horiz-adv-x="1101" 
d="M186 362v-126q0 -195 205 -199q113 -2 250 58.5t225 144.5v313l-495 -8q-185 -5 -185 -183zM643 1008q272 0 272 -275v-733h-36l-11 190q-72 -74 -209 -138t-264 -64t-193.5 64.5t-66.5 183.5v126q0 111 61.5 171.5t174.5 60.5h495v139q0 227 -225 228q-203 0 -461 -33
l-6 37q305 43 469 43zM737 1221h-20q-20 0 -21 22v115q0 23 21 22h20q20 0 21 -22v-115q-1 -22 -21 -22zM375 1221h-21q-20 0 -20 22v115q0 23 20 22h21q20 0 20 -22v-115q0 -22 -20 -22z" />
    <glyph glyph-name="aring" unicode="&#xe5;" horiz-adv-x="1101" 
d="M186 362v-126q0 -195 205 -199q113 -2 250 58.5t225 144.5v313l-495 -8q-185 -5 -185 -183zM643 1008q272 0 272 -275v-733h-36l-11 190q-72 -74 -209 -138t-264 -64t-193.5 64.5t-66.5 183.5v126q0 111 61.5 171.5t174.5 60.5h495v139q0 227 -225 228q-203 0 -461 -33
l-6 37q305 43 469 43zM546.5 1450q-65.5 0 -109.5 -45t-44 -112t44 -110.5t109.5 -43.5t109.5 44.5t44 110.5t-44 111t-109.5 45zM547 1100q-82 0 -139.5 56t-57.5 137t57.5 138.5t139.5 57.5t139 -57.5t57 -138.5t-57 -137t-139 -56z" />
    <glyph glyph-name="ae" unicode="&#xe6;" horiz-adv-x="1802" 
d="M186 362v-126q0 -195 205 -199q117 -2 260.5 59.5t241.5 151.5q-23 86 -27 211v94l-495 -8q-185 -5 -185 -183zM1382 510q135 0 189.5 48t52.5 167q-6 236 -334 236q-203 0 -286.5 -101.5t-85.5 -349.5h464zM1382 465h-464q6 -244 98 -343t278.5 -99t350.5 26l8 -37
q-119 -37 -314.5 -37t-293 55.5t-140.5 176.5q-80 -80 -226.5 -149.5t-278.5 -69.5t-198.5 64.5t-66.5 183.5v126q0 111 61.5 171.5t174.5 60.5h495v139q0 227 -225 228q-203 0 -461 -33l-6 37q305 43 469 43q238 0 268 -207q80 207 377 207q381 0 387 -279
q2 -145 -64.5 -204.5t-228.5 -59.5z" />
    <glyph glyph-name="ccedilla" unicode="&#xe7;" horiz-adv-x="978" 
d="M641 -270q0 68 -26.5 91t-94.5 25l6 29q164 8 160 -133q-2 -106 -80 -168.5t-205 -46.5l9 31q104 -4 167.5 50t63.5 122zM592 -25q-246 0 -348.5 117t-102.5 399.5t101.5 399.5t347.5 117q164 0 276 -35l-12 -37q-96 25 -256 25q-225 0 -315 -100.5t-90 -369t90 -368.5
t315 -100q162 -1 283 24l8 -37q-154 -35 -297 -35z" />
    <glyph glyph-name="egrave" unicode="&#xe8;" horiz-adv-x="1079" 
d="M739 510q88 0 126 53t35 168q-6 230 -335 230q-203 0 -286.5 -101.5t-85.5 -349.5h546zM739 465h-546q6 -244 98.5 -343t278.5 -99t350 26l8 -37q-119 -37 -350 -37t-334 120t-103 400.5t96.5 396.5t325.5 116q381 0 387 -279q4 -135 -45 -199.5t-166 -64.5zM618 1135
l-313 288l37 35l305 -297z" />
    <glyph glyph-name="eacute" unicode="&#xe9;" horiz-adv-x="1079" 
d="M739 510q88 0 126 53t35 168q-6 230 -335 230q-203 0 -286.5 -101.5t-85.5 -349.5h546zM739 465h-546q6 -244 98.5 -343t278.5 -99t350 26l8 -37q-119 -37 -350 -37t-334 120t-103 400.5t96.5 396.5t325.5 116q381 0 387 -279q4 -135 -45 -199.5t-166 -64.5zM498 1135
l-29 26l305 297l37 -35z" />
    <glyph glyph-name="ecircumflex" unicode="&#xea;" horiz-adv-x="1079" 
d="M739 510q88 0 126 53t35 168q-6 230 -335 230q-203 0 -286.5 -101.5t-85.5 -349.5h546zM739 465h-546q6 -244 98.5 -343t278.5 -99t350 26l8 -37q-119 -37 -350 -37t-334 120t-103 400.5t96.5 396.5t325.5 116q381 0 387 -279q4 -135 -45 -199.5t-166 -64.5zM293 1165
l-25 25l279 240h37l278 -240l-22 -25l-267 209h-16z" />
    <glyph glyph-name="edieresis" unicode="&#xeb;" horiz-adv-x="1079" 
d="M739 510q88 0 126 53t35 168q-6 230 -335 230q-203 0 -286.5 -101.5t-85.5 -349.5h546zM739 465h-546q6 -244 98.5 -343t278.5 -99t350 26l8 -37q-119 -37 -350 -37t-334 120t-103 400.5t96.5 396.5t325.5 116q381 0 387 -279q4 -135 -45 -199.5t-166 -64.5zM758 1221
h-21q-20 0 -20 22v115q0 23 20 22h21q20 0 20 -22v-115q0 -22 -20 -22zM395 1221h-20q-20 0 -21 22v115q0 23 21 22h20q20 0 21 -22v-115q-1 -22 -21 -22z" />
    <glyph glyph-name="igrave" unicode="&#xec;" horiz-adv-x="450" 
d="M250 0h-49v983h49v-983zM303 1161l-29 -26l-313 288l37 35z" />
    <glyph glyph-name="iacute" unicode="&#xed;" horiz-adv-x="450" 
d="M250 0h-49v983h49v-983zM467 1423l-313 -288l-29 26l305 297z" />
    <glyph glyph-name="icircumflex" unicode="&#xee;" horiz-adv-x="450" 
d="M250 0h-49v983h49v-983zM518 1190l-22 -25l-267 209h-16l-264 -209l-25 25l279 240h37z" />
    <glyph glyph-name="idieresis" unicode="&#xef;" horiz-adv-x="450" 
d="M250 0h-49v983h49v-983zM393 1380h21q20 0 20 -22v-115q0 -23 -20 -22h-21q-20 0 -20 22v115q0 22 20 22zM31 1380h20q20 0 21 -22v-115q0 -23 -21 -22h-20q-20 0 -21 22v115q1 22 21 22z" />
    <glyph glyph-name="eth" unicode="&#xf0;" horiz-adv-x="1122" 
d="M553 20q224 0 289 148.5t65 381.5q0 106 -8 208q-176 110 -361 110t-264 -111t-79 -323t87 -313t271 -101zM553 -25q-211 0 -310.5 114t-99.5 364q0 461 408 460q170 0 342 -110q-47 305 -223 452l-191 -131l-22 35l178 123q-154 111 -397 111l12 37q254 4 424 -119
l174 119l22 -35l-161 -113q248 -211 247 -711q0 -355 -70.5 -440.5t-147 -120.5t-185.5 -35z" />
    <glyph glyph-name="ntilde" unicode="&#xf1;" horiz-adv-x="1167" 
d="M717 1008q264 0 264 -269v-739h-49v733q0 227 -225 228q-104 0 -208 -47.5t-255 -153.5v-760h-49v983h36l7 -180q258 205 479 205zM338 1219h-35q-2 92 39.5 140t107.5 43t150 -70.5t145 -69.5t89 26.5t28 102.5h35q2 -88 -39 -134.5t-114.5 -40t-156.5 71t-137 69.5
q-112 10 -112 -138z" />
    <glyph glyph-name="ograve" unicode="&#xf2;" 
d="M573 961q-211 0 -294.5 -102.5t-83.5 -367t83.5 -366.5t294.5 -102t295 102t84 366.5t-84 367t-295 102.5zM573.5 1008q237.5 0 334 -116t96.5 -400.5t-96.5 -400.5t-334 -116t-334 116t-96.5 400.5t96.5 400.5t334 116zM651 1161l-28 -26l-314 288l37 35z" />
    <glyph glyph-name="oacute" unicode="&#xf3;" 
d="M573 961q-211 0 -294.5 -102.5t-83.5 -367t83.5 -366.5t294.5 -102t295 102t84 366.5t-84 367t-295 102.5zM573.5 1008q237.5 0 334 -116t96.5 -400.5t-96.5 -400.5t-334 -116t-334 116t-96.5 400.5t96.5 400.5t334 116zM815 1423l-313 -288l-29 26l305 297z" />
    <glyph glyph-name="ocircumflex" unicode="&#xf4;" 
d="M573 961q-211 0 -294.5 -102.5t-83.5 -367t83.5 -366.5t294.5 -102t295 102t84 366.5t-84 367t-295 102.5zM573.5 1008q237.5 0 334 -116t96.5 -400.5t-96.5 -400.5t-334 -116t-334 116t-96.5 400.5t96.5 400.5t334 116zM866 1190l-22 -25l-266 209h-17l-264 -209l-25 25
l279 240h37z" />
    <glyph glyph-name="otilde" unicode="&#xf5;" 
d="M573 961q-211 0 -294.5 -102.5t-83.5 -367t83.5 -366.5t294.5 -102t295 102t84 366.5t-84 367t-295 102.5zM573.5 1008q237.5 0 334 -116t96.5 -400.5t-96.5 -400.5t-334 -116t-334 116t-96.5 400.5t96.5 400.5t334 116zM309 1219h-35q-2 92 39 140t109 43t150 -70.5
t144 -69.5t90 26.5t28 102.5h34q2 -88 -39 -134.5t-114.5 -40t-156.5 71t-137 69.5q-112 10 -112 -138z" />
    <glyph glyph-name="odieresis" unicode="&#xf6;" 
d="M573 961q-211 0 -294.5 -102.5t-83.5 -367t83.5 -366.5t294.5 -102t295 102t84 366.5t-84 367t-295 102.5zM573.5 1008q237.5 0 334 -116t96.5 -400.5t-96.5 -400.5t-334 -116t-334 116t-96.5 400.5t96.5 400.5t334 116zM741 1380h21q20 0 20 -22v-115q0 -23 -20 -22h-21
q-20 0 -20 22v115q0 22 20 22zM379 1380h20q20 0 21 -22v-115q0 -23 -21 -22h-20q-20 0 -21 22v115q1 22 21 22z" />
    <glyph glyph-name="divide" unicode="&#xf7;" horiz-adv-x="1206" 
d="M590 360h20q25 0 25 -24v-127q0 -25 -25 -25h-20q-25 0 -25 25v127q0 24 25 24zM1030 584h-854v45h854v-45zM590 1028h20q25 0 25 -24v-127q0 -25 -25 -25h-20q-25 0 -25 25v127q0 24 25 24z" />
    <glyph glyph-name="oslash" unicode="&#xf8;" 
d="M952 492q0 180 -39 282.5t-125 147.5l-405 -871q72 -29 190 -28q211 0 295 102t84 367zM573 961q-211 0 -294.5 -102.5t-83.5 -366.5q0 -174 34.5 -275.5t114.5 -146.5l406 868q-68 23 -177 23zM1004 492q0 -285 -96.5 -401t-334.5 -116q-125 0 -211 31l-61 -131l-39 19
l62 131q-96 49 -138.5 161.5t-42.5 305.5q0 285 96.5 400.5t333.5 115.5q119 0 197 -27l57 123l39 -19l-55 -118q102 -49 147.5 -162t45.5 -313z" />
    <glyph glyph-name="ugrave" unicode="&#xf9;" 
d="M952 983v-983h-37l-6 180q-246 -205 -458 -205q-264 0 -265 269v739h50v-733q0 -227 225 -227q100 0 198.5 47t243.5 153v760h49zM625 1135l-314 288l37 35l305 -297z" />
    <glyph glyph-name="uacute" unicode="&#xfa;" 
d="M952 983v-983h-37l-6 180q-246 -205 -458 -205q-264 0 -265 269v739h50v-733q0 -227 225 -227q100 0 198.5 47t243.5 153v760h49zM504 1135l-29 26l305 297l37 -35z" />
    <glyph glyph-name="ucircumflex" unicode="&#xfb;" 
d="M952 983v-983h-37l-6 180q-246 -205 -458 -205q-264 0 -265 269v739h50v-733q0 -227 225 -227q100 0 198.5 47t243.5 153v760h49zM299 1165l-25 25l279 240h37l278 -240l-22 -25l-266 209h-17z" />
    <glyph glyph-name="udieresis" unicode="&#xfc;" 
d="M952 983v-983h-37l-6 180q-246 -205 -458 -205q-264 0 -265 269v739h50v-733q0 -227 225 -227q100 0 198.5 47t243.5 153v760h49zM764 1221h-21q-20 0 -20 22v115q0 23 20 22h21q20 0 20 -22v-115q0 -22 -20 -22zM401 1221h-20q-20 0 -21 22v115q0 23 21 22h20
q20 0 21 -22v-115q-1 -22 -21 -22z" />
    <glyph glyph-name="yacute" unicode="&#xfd;" horiz-adv-x="1036" 
d="M492 0q-16 0 -27 16l-404 967h54l391 -938h26l392 938h53l-453 -1079q-59 -139 -127.5 -219t-189.5 -115l-12 29q113 43 176 121.5t110 201.5l31 78h-20zM455 1135l-29 26l305 297l37 -35z" />
    <glyph glyph-name="thorn" unicode="&#xfe;" horiz-adv-x="1150" 
d="M652 23q162 0 231 106.5t69 362.5t-69.5 362.5t-235.5 106.5q-94 0 -186 -41.5t-217 -137.5v-661q246 -98 408 -98zM1004 491.5q0 -280.5 -82 -398.5t-270 -118t-414 109q6 -51 6 -188v-326h-49v1864h49v-418q0 -138 -6 -191q218 183 410 183t274 -118t82 -398.5z" />
    <glyph glyph-name="ydieresis" unicode="&#xff;" horiz-adv-x="1036" 
d="M492 0q-16 0 -27 16l-404 967h54l391 -938h26l392 938h53l-453 -1079q-59 -139 -127.5 -219t-189.5 -115l-12 29q113 43 176 121.5t110 201.5l31 78h-20zM715 1221h-21q-20 0 -20 22v115q0 23 20 22h21q20 0 20 -22v-115q0 -22 -20 -22zM352 1221h-20q-20 0 -21 22v115
q0 23 21 22h20q20 0 21 -22v-115q-1 -22 -21 -22z" />
    <glyph glyph-name="Amacron" unicode="&#x100;" horiz-adv-x="1234" 
d="M938 561l-291 807h-59l-291 -807h641zM573 1413h89q20 0 26 -18l508 -1395h-55l-187 516h-673l-187 -516h-55l508 1395q6 18 26 18zM885 1647h-533v47h533v-47z" />
    <glyph glyph-name="amacron" unicode="&#x101;" horiz-adv-x="1101" 
d="M186 362v-126q0 -195 205 -199q113 -2 250 58.5t225 144.5v313l-495 -8q-185 -5 -185 -183zM643 1008q272 0 272 -275v-733h-36l-11 190q-72 -74 -209 -138t-264 -64t-193.5 64.5t-66.5 183.5v126q0 111 61.5 171.5t174.5 60.5h495v139q0 227 -225 228q-203 0 -461 -33
l-6 37q305 43 469 43zM813 1274h-532v47h532v-47z" />
    <glyph glyph-name="Abreve" unicode="&#x102;" horiz-adv-x="1234" 
d="M938 561l-291 807h-59l-291 -807h641zM573 1413h89q20 0 26 -18l508 -1395h-55l-187 516h-673l-187 -516h-55l508 1395q6 18 26 18zM617 1546q-128 0 -203.5 62.5t-75.5 171.5l37 8q0 -92 65.5 -142.5t177.5 -50.5t176 51.5t64 141.5l37 -8q0 -109 -75 -171.5t-203 -62.5
z" />
    <glyph glyph-name="abreve" unicode="&#x103;" horiz-adv-x="1101" 
d="M186 362v-126q0 -195 205 -199q113 -2 250 58.5t225 144.5v313l-495 -8q-185 -5 -185 -183zM643 1008q272 0 272 -275v-733h-36l-11 190q-72 -74 -209 -138t-264 -64t-193.5 64.5t-66.5 183.5v126q0 111 61.5 171.5t174.5 60.5h495v139q0 227 -225 228q-203 0 -461 -33
l-6 37q305 43 469 43zM546 1174q-128 0 -204 62t-76 171l37 8q0 -92 65.5 -142t177.5 -50t176 51t64 141l37 -8q0 -109 -74.5 -171t-202.5 -62z" />
    <glyph glyph-name="Aogonek" unicode="&#x104;" horiz-adv-x="1234" 
d="M938 561l-291 807h-59l-291 -807h641zM573 1413h89q20 0 26 -18l508 -1395q-133 -133 -178 -258q-33 -94 20 -126t170 11l6 -24q-156 -66 -218 -17t-20 169t179 245h-14l-187 516h-673l-187 -516h-55l508 1395q6 18 26 18z" />
    <glyph glyph-name="aogonek" unicode="&#x105;" horiz-adv-x="1101" 
d="M186 362v-126q0 -195 205 -199q113 -2 250 58.5t225 144.5v313l-495 -8q-185 -5 -185 -183zM395 -12q-127 0 -193.5 64.5t-66.5 183.5v126q0 111 61.5 171.5t174.5 60.5h495v139q0 227 -225 228q-203 0 -461 -33l-6 37q305 43 469 43q272 0 272 -275v-733
q-133 -133 -178 -258q-33 -94 20.5 -126t170.5 11l6 -24q-156 -66 -218.5 -17t-20.5 169t184 249l-11 186q-72 -74 -209 -138t-264 -64z" />
    <glyph glyph-name="Cacute" unicode="&#x106;" horiz-adv-x="1148" 
d="M678 -25q-291 0 -406.5 163t-115.5 568.5t115.5 568.5t406.5 163q205 0 356 -35l-12 -37q-154 25 -344 25q-262 0 -365.5 -152t-103.5 -532.5t103.5 -532t365.5 -151.5q219 -1 373 26l12 -37q-162 -37 -385 -37zM903 1796l-313 -289l-29 27l305 297z" />
    <glyph glyph-name="cacute" unicode="&#x107;" horiz-adv-x="978" 
d="M592 -25q-246 0 -348.5 117t-102.5 399.5t101.5 399.5t347.5 117q164 0 276 -35l-12 -37q-96 25 -256 25q-225 0 -315 -100.5t-90 -369t90 -368.5t315 -100q162 -1 283 24l8 -37q-154 -35 -297 -35zM803 1423l-314 -288l-28 26l305 297z" />
    <glyph glyph-name="Cdotaccent" unicode="&#x10a;" horiz-adv-x="1148" 
d="M678 -25q-291 0 -406.5 163t-115.5 568.5t115.5 568.5t406.5 163q205 0 356 -35l-12 -37q-154 25 -344 25q-262 0 -365.5 -152t-103.5 -532.5t103.5 -532t365.5 -151.5q219 -1 373 26l12 -37q-162 -37 -385 -37zM649 1761h21q25 0 24 -24v-127q0 -25 -24 -25h-21
q-25 0 -24 25v127q-1 24 24 24z" />
    <glyph glyph-name="cdotaccent" unicode="&#x10b;" horiz-adv-x="978" 
d="M592 -25q-246 0 -348.5 117t-102.5 399.5t101.5 399.5t347.5 117q164 0 276 -35l-12 -37q-96 25 -256 25q-225 0 -315 -100.5t-90 -369t90 -368.5t315 -100q162 -1 283 24l8 -37q-154 -35 -297 -35zM549 1389h20q25 0 25 -25v-127q0 -25 -25 -25h-20q-25 0 -25 25v127
q0 25 25 25z" />
    <glyph glyph-name="Ccaron" unicode="&#x10c;" horiz-adv-x="1148" 
d="M678 -25q-291 0 -406.5 163t-115.5 568.5t115.5 568.5t406.5 163q205 0 356 -35l-12 -37q-154 25 -344 25q-262 0 -365.5 -152t-103.5 -532.5t103.5 -532t365.5 -151.5q219 -1 373 26l12 -37q-162 -37 -385 -37zM961 1778l-281 -240h-37l-281 240l27 24l264 -209h17
l266 209z" />
    <glyph glyph-name="ccaron" unicode="&#x10d;" horiz-adv-x="978" 
d="M592 -25q-246 0 -348.5 117t-102.5 399.5t101.5 399.5t347.5 117q164 0 276 -35l-12 -37q-96 25 -256 25q-225 0 -315 -100.5t-90 -369t90 -368.5t315 -100q162 -1 283 24l8 -37q-154 -35 -297 -35zM860 1405l-280 -240h-37l-281 240l27 25l264 -209h16l267 209z" />
    <glyph glyph-name="Dcaron" unicode="&#x10e;" horiz-adv-x="1349" 
d="M680 29q256 0 358.5 150.5t102.5 527t-102.5 527t-358.5 150.5q-168 0 -418 -8v-1341q369 -6 418 -6zM1194 706.5q0 -399.5 -114.5 -562t-399.5 -162.5q-221 0 -469 18v1413q244 18 469 19q285 0 399.5 -163t114.5 -562.5zM647 1538l-280 240l26 24l264 -209h17l266 209
l25 -24l-281 -240h-37z" />
    <glyph glyph-name="dcaron" unicode="&#x10f;" horiz-adv-x="1148" 
d="M197 492q0 -256 69.5 -362.5t235.5 -106.5q94 0 185 45t218 151v643q-503 200 -605.5 43t-102.5 -413zM905 1434h49v-1434h-36l-9 172q-221 -197 -411 -197t-271.5 118t-81.5 398.5t81.5 398.5t265.5 118t419 -103q-6 53 -6 191v338zM1165 1436h15q23 0 22 -21v-121
q-4 -135 -33 -235l-20 8q6 115 6 209q-6 0 -9 6t-1 12v121q-3 21 20 21z" />
    <glyph glyph-name="Dcroat" unicode="&#x110;" horiz-adv-x="1355" 
d="M268 739v-704q369 -6 418 -6q256 0 358.5 150.5t102.5 527t-102.5 527t-358.5 150.5q-168 0 -418 -8v-596h375v-41h-375zM217 780v633q244 18 469 19q285 0 399.5 -163t114.5 -562.5t-114.5 -562t-399.5 -162.5q-221 0 -469 18v739h-164v41h164z" />
    <glyph glyph-name="dcroat" unicode="&#x111;" horiz-adv-x="1132" 
d="M197 492q0 -256 69.5 -362.5t235.5 -106.5q94 0 185 45t218 151v643q-503 200 -605.5 43t-102.5 -413zM1106 1208h-152v-1208h-36l-9 172q-221 -197 -411 -197t-271.5 118t-81.5 398.5t81.5 398.5t265.5 118t419 -103q-6 53 -6 191v112h-362v41h362v185h49v-185h152v-41z
" />
    <glyph glyph-name="Emacron" unicode="&#x112;" horiz-adv-x="1128" 
d="M408 0q-90 0 -149.5 59.5t-59.5 149.5v995q0 90 59 149.5t150 59.5q401 0 602 -8l-4 -37h-588q-74 0 -121 -47t-47 -121v-422h672v-43h-672v-522q0 -74 47 -121t121 -47h588l4 -37q-201 -8 -602 -8zM901 1698h-532v47h532v-47z" />
    <glyph glyph-name="emacron" unicode="&#x113;" horiz-adv-x="1079" 
d="M739 510q88 0 126 53t35 168q-6 230 -335 230q-203 0 -286.5 -101.5t-85.5 -349.5h546zM739 465h-546q6 -244 98.5 -343t278.5 -99t350 26l8 -37q-119 -37 -350 -37t-334 120t-103 400.5t96.5 396.5t325.5 116q381 0 387 -279q4 -135 -45 -199.5t-166 -64.5zM834 1274
h-533v47h533v-47z" />
    <glyph glyph-name="Edotaccent" unicode="&#x116;" horiz-adv-x="1128" 
d="M408 0q-90 0 -149.5 59.5t-59.5 149.5v995q0 90 59 149.5t150 59.5q401 0 602 -8l-4 -37h-588q-74 0 -121 -47t-47 -121v-422h672v-43h-672v-522q0 -74 47 -121t121 -47h588l4 -37q-201 -8 -602 -8zM645 1636h-20q-25 0 -25 25v127q0 25 25 24h20q25 0 25 -24v-127
q0 -25 -25 -25z" />
    <glyph glyph-name="edotaccent" unicode="&#x117;" horiz-adv-x="1079" 
d="M739 510q88 0 126 53t35 168q-6 230 -335 230q-203 0 -286.5 -101.5t-85.5 -349.5h546zM739 465h-546q6 -244 98.5 -343t278.5 -99t350 26l8 -37q-119 -37 -350 -37t-334 120t-103 400.5t96.5 396.5t325.5 116q381 0 387 -279q4 -135 -45 -199.5t-166 -64.5zM578 1212
h-21q-25 0 -25 25v127q0 25 25 25h21q25 0 24 -25v-127q1 -25 -24 -25z" />
    <glyph glyph-name="Eogonek" unicode="&#x118;" horiz-adv-x="1128" 
d="M408 0q-90 0 -149.5 59.5t-59.5 149.5v995q0 90 59 149.5t150 59.5q401 0 602 -8l-4 -37h-588q-74 0 -121 -47t-47 -121v-422h672v-43h-672v-522q0 -74 47 -121t121 -47h588l4 -37q-133 -133 -179 -258q-33 -94 20.5 -126t170.5 11l6 -24q-156 -66 -218 -16.5t-20 167.5
t177 244q-186 -6 -559 -6z" />
    <glyph glyph-name="eogonek" unicode="&#x119;" horiz-adv-x="1079" 
d="M739 510q88 0 126 53t35 168q-6 230 -335 230q-203 0 -286.5 -101.5t-85.5 -349.5h546zM580 -25q-233 0 -336 120t-103 400.5t96.5 396.5t325.5 116q381 0 387 -279q4 -135 -45 -199.5t-166 -64.5h-546q6 -244 98.5 -343.5t278.5 -99.5t350 27l8 -37q-133 -133 -178 -258
q-33 -94 20 -125.5t170 11.5l6 -25q-156 -66 -218 -16.5t-23 163.5t167 238q-141 -25 -292 -25z" />
    <glyph glyph-name="Ecaron" unicode="&#x11a;" horiz-adv-x="1128" 
d="M408 0q-90 0 -149.5 59.5t-59.5 149.5v995q0 90 59 149.5t150 59.5q401 0 602 -8l-4 -37h-588q-74 0 -121 -47t-47 -121v-422h672v-43h-672v-522q0 -74 47 -121t121 -47h588l4 -37q-201 -8 -602 -8zM618 1589l-280 240l27 24l264 -208h16l266 208l25 -24l-281 -240h-37z
" />
    <glyph glyph-name="ecaron" unicode="&#x11b;" horiz-adv-x="1079" 
d="M739 510q88 0 126 53t35 168q-6 230 -335 230q-203 0 -286.5 -101.5t-85.5 -349.5h546zM739 465h-546q6 -244 98.5 -343t278.5 -99t350 26l8 -37q-119 -37 -350 -37t-334 120t-103 400.5t96.5 396.5t325.5 116q381 0 387 -279q4 -135 -45 -199.5t-166 -64.5zM551 1165
l-281 240l27 25l264 -209h17l266 209l24 -25l-280 -240h-37z" />
    <glyph glyph-name="Gbreve" unicode="&#x11e;" horiz-adv-x="1273" 
d="M1108 819v-819h-35l-12 182q-193 -207 -441 -207t-356 172t-108 569t117.5 559.5t410.5 162.5q229 0 401 -35l-12 -37q-172 25 -389 25q-266 0 -370.5 -152t-104.5 -523t96 -532t322 -161q143 0 236.5 59t193.5 147v590h51zM663 1546q-128 0 -204 62.5t-76 171.5l37 8
q0 -92 65.5 -142.5t177.5 -50.5t176 51.5t64 141.5l37 -8q0 -109 -74.5 -171.5t-202.5 -62.5z" />
    <glyph glyph-name="gbreve" unicode="&#x11f;" horiz-adv-x="1116" 
d="M166 -166q0 -117 89 -169t302 -52t300 52.5t87 168.5t-36 164.5t-142 67.5l-408 71l-6 2l-69 -43q-72 -41 -94.5 -93t-22.5 -169zM891 702.5q0 133.5 -78 197t-262 63.5t-264 -63.5t-80 -197t80 -195t264 -61.5t262 61.5t78 195zM940 706q0 -160 -91 -232.5t-275 -72.5
t-275 43q-47 -51 -60.5 -105t23.5 -99t123 -62l395 -69q125 -23 169 -81.5t44 -179.5q0 -156 -98 -219t-339 -63t-340 63.5t-99 218.5q0 111 26.5 173.5t106.5 105.5l49 27q-70 29 -95.5 86t-7 117.5t71.5 105.5q-110 69 -110 231t93 238t300 76q119 0 199 -25h307l-6 -37
l-211 -6q100 -74 100 -234zM552 1174q-128 0 -204 62t-76 171l37 8q0 -92 65.5 -142t177.5 -50t176.5 51t64.5 141l36 -8q0 -109 -74.5 -171t-202.5 -62z" />
    <glyph glyph-name="Gdotaccent" unicode="&#x120;" horiz-adv-x="1273" 
d="M1108 819v-819h-35l-12 182q-193 -207 -441 -207t-356 172t-108 569t117.5 559.5t410.5 162.5q229 0 401 -35l-12 -37q-172 25 -389 25q-266 0 -370.5 -152t-104.5 -523t96 -532t322 -161q143 0 236.5 59t193.5 147v590h51zM674 1585h-21q-25 0 -24 25v127q0 25 24 24h21
q25 0 24 -24v-127q1 -25 -24 -25z" />
    <glyph glyph-name="gdotaccent" unicode="&#x121;" horiz-adv-x="1116" 
d="M166 -166q0 -117 89 -169t302 -52t300 52.5t87 168.5t-36 164.5t-142 67.5l-408 71l-6 2l-69 -43q-72 -41 -94.5 -93t-22.5 -169zM891 702.5q0 133.5 -78 197t-262 63.5t-264 -63.5t-80 -197t80 -195t264 -61.5t262 61.5t78 195zM940 706q0 -160 -91 -232.5t-275 -72.5
t-275 43q-47 -51 -60.5 -105t23.5 -99t123 -62l395 -69q125 -23 169 -81.5t44 -179.5q0 -156 -98 -219t-339 -63t-340 63.5t-99 218.5q0 111 26.5 173.5t106.5 105.5l49 27q-70 29 -95.5 86t-7 117.5t71.5 105.5q-110 69 -110 231t93 238t300 76q119 0 199 -25h307l-6 -37
l-211 -6q100 -74 100 -234zM563 1212h-20q-25 0 -25 25v127q0 25 25 25h20q25 0 25 -25v-127q0 -25 -25 -25z" />
    <glyph glyph-name="Gcommaaccent" unicode="&#x122;" horiz-adv-x="1273" 
d="M641 -293q-15 0 -10 19v118q-3 23 20 23h17q23 0 22 -23v-118q-4 -135 -33 -236l-22 8q6 113 6 209zM1108 819v-819h-35l-12 182q-193 -207 -441 -207t-356 172t-108 569t117.5 559.5t410.5 162.5q229 0 401 -35l-12 -37q-172 25 -389 25q-266 0 -370.5 -152t-104.5 -523
t96 -532t322 -161q143 0 236.5 59t193.5 147v590h51z" />
    <glyph glyph-name="gcommaaccent" unicode="&#x123;" horiz-adv-x="1116" 
d="M166 -166q0 -117 89 -169t302 -52t300 52.5t87 168.5t-36 164.5t-142 67.5l-408 71l-6 2l-69 -43q-72 -41 -94.5 -93t-22.5 -169zM891 702.5q0 133.5 -78 197t-262 63.5t-264 -63.5t-80 -197t80 -195t264 -61.5t262 61.5t78 195zM940 706q0 -160 -91 -232.5t-275 -72.5
t-275 43q-47 -51 -60.5 -105t23.5 -99t123 -62l395 -69q125 -23 169 -81.5t44 -179.5q0 -156 -98 -219t-339 -63t-340 63.5t-99 218.5q0 111 26.5 173.5t106.5 105.5l49 27q-70 29 -95.5 86t-7 117.5t71.5 105.5q-110 69 -110 231t93 238t300 76q119 0 199 -25h307l-6 -37
l-211 -6q100 -74 100 -234zM580 1319q15 0 10 -19v-118q2 -23 -21 -23h-16q-23 0 -23 23v118q4 135 33 236l23 -8q-6 -115 -6 -209z" />
    <glyph glyph-name="Hbar" unicode="&#x126;" horiz-adv-x="1361" 
d="M1092 1075h-822v-295h822v295zM1307 1075h-164v-1075h-51v735h-822v-735h-51v1075h-164v41h164v297h51v-297h822v297h51v-297h164v-41z" />
    <glyph glyph-name="hbar" unicode="&#x127;" horiz-adv-x="1173" 
d="M254 1208v-215q0 -121 -10 -190q274 205 479 205q264 0 264 -269v-739h-49v733q0 227 -225 228q-104 0 -208 -47.5t-255 -153.5v-760h-49v1208h-174v41h174v185h51v-185h338v-41h-336z" />
    <glyph glyph-name="Imacron" unicode="&#x12a;" horiz-adv-x="473" 
d="M262 0h-51v1413h51v-1413zM502 1647h-533v47h533v-47z" />
    <glyph glyph-name="imacron" unicode="&#x12b;" horiz-adv-x="450" 
d="M250 0h-49v983h49v-983zM489 1274h-532v47h532v-47z" />
    <glyph glyph-name="Iogonek" unicode="&#x12e;" horiz-adv-x="473" 
d="M211 0v1413h51v-1413q-133 -133 -178 -258q-33 -94 20 -126t170 11l7 -24q-156 -66 -218.5 -17t-20.5 169t179 245h-10z" />
    <glyph glyph-name="iogonek" unicode="&#x12f;" horiz-adv-x="450" 
d="M201 0v983h49v-983q-133 -133 -178 -258q-33 -94 20 -126t170 11l6 -24q-156 -66 -218 -17t-20 169t179 245h-8zM233 1212h-20q-25 0 -25 25v127q0 25 25 25h20q25 0 25 -25v-127q0 -25 -25 -25z" />
    <glyph glyph-name="Idotaccent" unicode="&#x130;" horiz-adv-x="473" 
d="M262 0h-51v1413h51v-1413zM225 1761h21q25 0 24 -24v-127q0 -25 -24 -25h-21q-25 0 -24 25v127q-1 24 24 24z" />
    <glyph glyph-name="dotlessi" unicode="&#x131;" horiz-adv-x="450" 
d="M250 0h-49v983h49v-983z" />
    <glyph glyph-name="IJ" unicode="&#x132;" horiz-adv-x="1136" 
d="M932 1413v-1177q0 -250 -250 -248q-57 0 -131 12l6 33h119q205 0 205 205v1175h51zM262 0h-51v1413h51v-1413z" />
    <glyph glyph-name="ij" unicode="&#x133;" horiz-adv-x="901" 
d="M700 983v-1077q0 -184 -135 -336l-26 20q113 150 112 316v1077h49zM250 0h-49v983h49v-983zM666 1391h20q25 0 25 -25v-127q0 -25 -25 -25h-20q-25 0 -25 25v127q0 25 25 25zM215 1391h21q25 0 24 -25v-127q0 -25 -24 -25h-21q-25 0 -25 25v127q0 25 25 25z" />
    <glyph glyph-name="Kcommaaccent" unicode="&#x136;" horiz-adv-x="1150" 
d="M606 -293q-15 0 -10 19v118q-3 23 20 23h17q23 0 22 -23v-118q-4 -135 -32 -236l-23 8q6 113 6 209zM260 539v-539h-49v1413h49v-483q0 -47 -4 -170h233l498 653h62l-474 -625q-23 -31 -45 -49v-4q37 -37 45 -47l508 -688h-61l-533 715h-233q4 -63 4 -176z" />
    <glyph glyph-name="kcommaaccent" unicode="&#x137;" horiz-adv-x="968" 
d="M514 -293q-15 0 -10 19v118q-3 23 20 23h17q23 0 22 -23v-118q-4 -135 -33 -236l-22 8q6 113 6 209zM242 362v-362h-49v1434h53v-680q0 -88 -8 -168h170l395 397h65l-370 -379q-29 -29 -47 -41v-4q35 -35 47 -51l403 -508h-63l-430 541h-170q4 -63 4 -179z" />
    <glyph glyph-name="Lacute" unicode="&#x139;" horiz-adv-x="1038" 
d="M256 1413v-1200q0 -74 47 -121t121 -47h557v-37q-188 -8 -567 -8q-90 0 -149.5 59.5t-59.5 149.5v1204h51zM475 1796l-313 -289l-29 27l305 297z" />
    <glyph glyph-name="lacute" unicode="&#x13a;" horiz-adv-x="552" 
d="M244 1434v-1237q0 -80 43 -122t121 -42h118l6 -33q-41 -12 -133 -12t-148 54t-56 153v1239h49zM465 1843l-313 -289l-29 27l305 297z" />
    <glyph glyph-name="Lcommaaccent" unicode="&#x13b;" horiz-adv-x="1038" 
d="M608 -154h17q23 0 22 -22v-119q-4 -135 -33 -235l-22 8q6 115 6 209q-6 0 -9 6t-1 12v119q-3 22 20 22zM256 1413v-1200q0 -74 47 -121t121 -47h557v-37q-188 -8 -567 -8q-90 0 -149.5 59.5t-59.5 149.5v1204h51z" />
    <glyph glyph-name="lcommaaccent" unicode="&#x13c;" horiz-adv-x="552" 
d="M332 -154h16q23 0 23 -22v-119q-4 -135 -33 -235l-23 8q6 115 7 209q-6 0 -9.5 6t-1.5 12v119q-2 22 21 22zM244 1434v-1237q0 -80 43 -122t121 -42h118l6 -33q-41 -12 -133 -12t-148 54t-56 153v1239h49z" />
    <glyph glyph-name="Lcaron" unicode="&#x13d;" horiz-adv-x="1038" 
d="M256 1413v-1200q0 -74 47 -121t121 -47h557v-37q-188 -8 -567 -8q-90 0 -149.5 59.5t-59.5 149.5v1204h51zM584 1413h16q23 0 23 -22v-119q-4 -135 -33 -236l-23 8q6 113 6 209q-6 0 -9 6.5t-1 12.5v119q-2 22 21 22z" />
    <glyph glyph-name="lcaron" unicode="&#x13e;" horiz-adv-x="552" 
d="M244 1434v-1237q0 -80 43 -122t121 -42h118l6 -33q-41 -12 -133 -12t-148 54t-56 153v1239h49zM459 1436h14q23 0 23 -21v-121q-4 -135 -33 -235l-21 8q6 115 7 209q-6 0 -9.5 6t-1.5 12v121q-2 21 21 21z" />
    <glyph glyph-name="Ldot" unicode="&#x13f;" horiz-adv-x="1038" 
d="M764 678h-21q-25 0 -24 24v127q0 25 24 25h21q25 0 24 -25v-127q1 -24 -24 -24zM256 1413v-1200q0 -74 47 -121t121 -47h557v-37q-188 -8 -567 -8q-90 0 -149.5 59.5t-59.5 149.5v1204h51z" />
    <glyph glyph-name="ldot" unicode="&#x140;" horiz-adv-x="612" 
d="M516 711h-20q-25 0 -25 24v127q0 25 25 25h20q25 0 25 -25v-127q0 -24 -25 -24zM244 1434v-1237q0 -80 43 -122t121 -42h118l6 -33q-41 -12 -133 -12t-148 54t-56 153v1239h49z" />
    <glyph glyph-name="Lslash" unicode="&#x141;" horiz-adv-x="1046" 
d="M989 45v-37q-188 -8 -567 -8q-90 0 -149.5 59.5t-59.5 149.5v522l-158 -69v43l158 69v639h51v-616l264 116v-43l-264 -116v-541q0 -74 47 -121t121 -47h557z" />
    <glyph glyph-name="lslash" unicode="&#x142;" horiz-adv-x="618" 
d="M449 -12q-92 0 -148.5 54t-56.5 153v548l-181 -79v43l181 79v648h49v-627l244 108v-43l-244 -108v-567q0 -80 43 -122t121 -42h118l7 -33q-41 -12 -133 -12z" />
    <glyph glyph-name="Nacute" unicode="&#x143;" horiz-adv-x="1409" 
d="M1198 1413v-1382q0 -31 -31 -31h-86q-25 0 -37 23l-655 1206q-12 23 -37.5 68.5t-38.5 70.5h-51v-1368h-51v1382q0 31 31 31h80q27 0 36 -22l732 -1346h57v1368h51zM977 1796l-313 -289l-29 27l305 297z" />
    <glyph glyph-name="nacute" unicode="&#x144;" horiz-adv-x="1167" 
d="M717 1008q264 0 264 -269v-739h-49v733q0 227 -225 228q-104 0 -208 -47.5t-255 -153.5v-760h-49v983h36l7 -180q258 205 479 205zM530 1135l-28 26l305 297l37 -35z" />
    <glyph glyph-name="Ncommaaccent" unicode="&#x145;" horiz-adv-x="1409" 
d="M657 -293q-15 0 -10 19v118q-2 23 21 23h16q23 0 23 -23v-118q-4 -135 -33 -236l-23 8q6 113 6 209zM1198 1413v-1382q0 -31 -31 -31h-86q-25 0 -37 23l-655 1206q-12 23 -37.5 68.5t-38.5 70.5h-51v-1368h-51v1382q0 31 31 31h80q27 0 36 -22l732 -1346h57v1368h51z" />
    <glyph glyph-name="ncommaaccent" unicode="&#x146;" horiz-adv-x="1167" 
d="M575 -293q-15 0 -10 19v118q-2 23 21 23h16q23 0 23 -23v-118q-4 -135 -33 -236l-23 8q6 113 6 209zM717 1008q264 0 264 -269v-739h-49v733q0 227 -225 228q-104 0 -208 -47.5t-255 -153.5v-760h-49v983h36l7 -180q258 205 479 205z" />
    <glyph glyph-name="Ncaron" unicode="&#x147;" horiz-adv-x="1409" 
d="M1198 1413v-1382q0 -31 -31 -31h-86q-25 0 -37 23l-655 1206q-12 23 -37.5 68.5t-38.5 70.5h-51v-1368h-51v1382q0 31 31 31h80q27 0 36 -22l732 -1346h57v1368h51zM1034 1778l-280 -240h-37l-281 240l27 24l264 -209h16l267 209z" />
    <glyph glyph-name="ncaron" unicode="&#x148;" horiz-adv-x="1167" 
d="M717 1008q264 0 264 -269v-739h-49v733q0 227 -225 228q-104 0 -208 -47.5t-255 -153.5v-760h-49v983h36l7 -180q258 205 479 205zM584 1165l-281 240l27 25l264 -209h16l267 209l24 -25l-280 -240h-37z" />
    <glyph glyph-name="Eng" unicode="&#x14a;" horiz-adv-x="1409" 
d="M1198 1413v-1620q0 -250 -250 -248q-57 0 -131 13l6 32h119q205 0 205 205v205h-66q-25 0 -37 23l-655 1206q-12 23 -37.5 68.5t-38.5 70.5h-51v-1368h-51v1382q0 31 31 31h80q27 0 36 -22l732 -1346h57v1368h51z" />
    <glyph glyph-name="eng" unicode="&#x14b;" horiz-adv-x="1167" 
d="M981 -182q0 -252 -227 -248q-8 0 -111 12l6 33h99q184 0 184 205v913q0 227 -225 228q-104 0 -208 -47.5t-255 -153.5v-760h-49v983h36l7 -180q258 205 479 205q264 0 264 -269v-921z" />
    <glyph glyph-name="Omacron" unicode="&#x14c;" horiz-adv-x="1355" 
d="M678 1391q-262 0 -365.5 -152t-103.5 -532.5t103.5 -532t365.5 -151.5t365.5 151.5t103.5 532t-103.5 532.5t-365.5 152zM678 1438q291 0 406.5 -163t115.5 -568.5t-115.5 -568.5t-406.5 -163t-406.5 163t-115.5 568.5t115.5 568.5t406.5 163zM946 1647h-532v47h532v-47z
" />
    <glyph glyph-name="omacron" unicode="&#x14d;" 
d="M573 961q-211 0 -294.5 -102.5t-83.5 -367t83.5 -366.5t294.5 -102t295 102t84 366.5t-84 367t-295 102.5zM573.5 1008q237.5 0 334 -116t96.5 -400.5t-96.5 -400.5t-334 -116t-334 116t-96.5 400.5t96.5 400.5t334 116zM838 1274h-533v47h533v-47z" />
    <glyph glyph-name="Ohungarumlaut" unicode="&#x150;" horiz-adv-x="1355" 
d="M678 1391q-262 0 -365.5 -152t-103.5 -532.5t103.5 -532t365.5 -151.5t365.5 151.5t103.5 532t-103.5 532.5t-365.5 152zM678 1438q291 0 406.5 -163t115.5 -568.5t-115.5 -568.5t-406.5 -163t-406.5 163t-115.5 568.5t115.5 568.5t406.5 163zM1040 1815l-239 -312
l-33 21l227 321zM754 1815l-240 -312l-33 21l228 321z" />
    <glyph glyph-name="ohungarumlaut" unicode="&#x151;" 
d="M573 961q-211 0 -294.5 -102.5t-83.5 -367t83.5 -366.5t294.5 -102t295 102t84 366.5t-84 367t-295 102.5zM573.5 1008q237.5 0 334 -116t96.5 -400.5t-96.5 -400.5t-334 -116t-334 116t-96.5 400.5t96.5 400.5t334 116zM932 1442l-240 -312l-33 21l228 322zM645 1442
l-239 -312l-33 21l227 322z" />
    <glyph glyph-name="OE" unicode="&#x152;" horiz-adv-x="1820" 
d="M932 209v995q0 76 41 129q-137 57 -295 58q-262 0 -365.5 -149.5t-103.5 -532.5t103.5 -534.5t365.5 -151.5q158 0 295 57q-41 53 -41 129zM1702 1368h-551q-74 0 -121 -47t-47 -121v-422h631v-43h-631v-522q0 -74 47 -121t121 -47h551v-37q-188 -8 -561 -8
q-74 0 -133 43q-152 -68 -330 -68q-291 0 -406.5 163t-115.5 568.5t115.5 568.5t406.5 163q104 0 172 -14.5t158 -53.5q55 43 133 43q373 0 561 -8v-37z" />
    <glyph glyph-name="oe" unicode="&#x153;" horiz-adv-x="1888" 
d="M1468 510q135 0 189.5 48t52.5 167q-6 236 -334 236q-203 0 -286.5 -101.5t-85.5 -349.5h464zM573 23q211 0 295 102t84 366.5t-84 367t-295 102.5t-294.5 -102.5t-83.5 -367t83.5 -366.5t294.5 -102zM1468 465h-464q6 -244 98 -343t278.5 -99t350.5 26l8 -37
q-119 -37 -320.5 -37t-301 64.5t-138.5 206.5q-35 -145 -131 -208t-275 -63q-238 0 -334 116t-96 400.5t96.5 400.5t333.5 116q176 0 272.5 -61.5t133.5 -203.5q37 141 131 203t264 62q381 0 387 -279q2 -145 -64.5 -204.5t-228.5 -59.5z" />
    <glyph glyph-name="Racute" unicode="&#x154;" horiz-adv-x="1243" 
d="M262 682h402q199 4 276.5 76.5t77.5 275.5t-78 275.5t-276 72.5q-262 0 -402 -4v-696zM262 0h-51v1413q164 16 453 17q229 0 318 -83t89 -293t-60.5 -294t-199.5 -105v-8q98 -31 156 -194l155 -453h-57l-152 446q-66 188 -231 189q-281 0 -420 8v-643zM551 1507l-29 27
l305 297l37 -35z" />
    <glyph glyph-name="racute" unicode="&#x155;" horiz-adv-x="784" 
d="M692 961q-100 0 -199.5 -47.5t-248.5 -153.5v-760h-49v983h36l7 -180q260 205 460 205h39l-10 -47h-35zM383 1135l-29 26l305 297l37 -35z" />
    <glyph glyph-name="Rcommaaccent" unicode="&#x156;" horiz-adv-x="1243" 
d="M653 -293q-15 0 -10 19v118q-2 23 21 23h16q23 0 22 -23v-118q-4 -135 -32 -236l-23 8q6 113 6 209zM262 682h402q199 4 276.5 76.5t77.5 275.5t-78 275.5t-276 72.5q-262 0 -402 -4v-696zM262 0h-51v1413q164 16 453 17q229 0 318 -83t89 -293t-60.5 -294t-199.5 -105
v-8q98 -31 156 -194l155 -453h-57l-152 446q-66 188 -231 189q-281 0 -420 8v-643z" />
    <glyph glyph-name="rcommaaccent" unicode="&#x157;" horiz-adv-x="784" 
d="M188 -293q-15 0 -10 19v118q-2 23 21 23h16q23 0 23 -23v-118q-4 -135 -33 -236l-23 8q6 115 6 209zM692 961q-100 0 -199.5 -47.5t-248.5 -153.5v-760h-49v983h36l7 -180q260 205 460 205h39l-10 -47h-35z" />
    <glyph glyph-name="Rcaron" unicode="&#x158;" horiz-adv-x="1243" 
d="M262 682h402q199 4 276.5 76.5t77.5 275.5t-78 275.5t-276 72.5q-262 0 -402 -4v-696zM262 0h-51v1413q164 16 453 17q229 0 318 -83t89 -293t-60.5 -294t-199.5 -105v-8q98 -31 156 -194l155 -453h-57l-152 446q-66 188 -231 189q-281 0 -420 8v-643zM604 1538l-280 240
l26 24l264 -209h17l266 209l25 -24l-281 -240h-37z" />
    <glyph glyph-name="rcaron" unicode="&#x159;" horiz-adv-x="784" 
d="M698 1008h39l-10 -47h-35q-100 0 -199.5 -47.5t-248.5 -153.5v-760h-49v983h36l7 -180q260 205 460 205zM436 1165l-280 240l26 25l264 -209h17l266 209l25 -25l-281 -240h-37z" />
    <glyph glyph-name="Sacute" unicode="&#x15a;" horiz-adv-x="1134" 
d="M135 1048q0 150 23.5 225t84 110.5t128 45t228.5 6.5t345 -24l-6 -39q-357 23 -447 17.5t-142 -14.5t-75.5 -28.5t-55.5 -67t-32 -205.5q0 -157 51.5 -227.5t172.5 -86.5l313 -43q156 -18 220.5 -102.5t64.5 -269.5t-64 -265t-168 -91.5t-264 -11.5t-352 23l6 39
q213 -16 370 -14t220 12t112.5 44t68.5 97.5t19 198.5t-52 205t-181 86l-313 43q-147 16 -211 101.5t-64 235.5zM817 1796l-313 -289l-29 27l305 297z" />
    <glyph glyph-name="sacute" unicode="&#x15b;" horiz-adv-x="1021" 
d="M127 748q0 172 80 218t282.5 42t380.5 -25l-6 -37q-343 24 -438.5 19.5t-139.5 -15t-77 -50.5t-33 -148t41 -154.5t123 -56.5l332 -41q223 -29 223 -250q0 -92 -23.5 -147.5t-79 -82t-117 -35t-211.5 -8.5t-312 23l6 37q178 -16 364 -13t255 44t69 182q0 180 -174 203
l-332 41q-106 12 -159.5 71.5t-53.5 182.5zM762 1423l-313 -288l-29 26l305 297z" />
    <glyph glyph-name="Scedilla" unicode="&#x15e;" horiz-adv-x="1134" 
d="M633 -268q0 68 -26.5 91t-94.5 25l6 29q164 8 160 -133q-2 -106 -80 -168.5t-205 -46.5l8 31q104 -4 168 50t64 122zM135 1048q0 150 23.5 225t84 110.5t128 45t228.5 6.5t345 -24l-6 -39q-357 23 -447 17.5t-142 -14.5t-75.5 -28.5t-55.5 -67t-32 -205.5
q0 -157 51.5 -227.5t172.5 -86.5l313 -43q156 -18 220.5 -102.5t64.5 -269.5t-64 -265t-168 -91.5t-264 -11.5t-352 23l6 39q213 -16 370 -14t220 12t112.5 44t68.5 97.5t19 198.5t-52 205t-181 86l-313 43q-147 16 -211 101.5t-64 235.5z" />
    <glyph glyph-name="scedilla" unicode="&#x15f;" horiz-adv-x="1021" 
d="M563 -268q0 68 -26.5 91t-94.5 25l7 29q163 8 159 -133q-2 -106 -79.5 -168.5t-204.5 -46.5l8 31q104 -4 167.5 50t63.5 122zM127 748q0 172 80 218t282.5 42t380.5 -25l-6 -37q-343 24 -438.5 19.5t-139.5 -15t-77 -50.5t-33 -148t41 -154.5t123 -56.5l332 -41
q223 -29 223 -250q0 -92 -23.5 -147.5t-79 -82t-117 -35t-211.5 -8.5t-312 23l6 37q178 -16 364 -13t255 44t69 182q0 180 -174 203l-332 41q-106 12 -159.5 71.5t-53.5 182.5z" />
    <glyph glyph-name="Scaron" unicode="&#x160;" horiz-adv-x="1134" 
d="M135 1048q0 150 23.5 225t84 110.5t128 45t228.5 6.5t345 -24l-6 -39q-357 23 -447 17.5t-142 -14.5t-75.5 -28.5t-55.5 -67t-32 -205.5q0 -157 51.5 -227.5t172.5 -86.5l313 -43q156 -18 220.5 -102.5t64.5 -269.5t-64 -265t-168 -91.5t-264 -11.5t-352 23l6 39
q213 -16 370 -14t220 12t112.5 44t68.5 97.5t19 198.5t-52 205t-181 86l-313 43q-147 16 -211 101.5t-64 235.5zM874 1778l-280 -240h-37l-281 240l27 24l264 -209h17l266 209z" />
    <glyph glyph-name="scaron" unicode="&#x161;" horiz-adv-x="1021" 
d="M127 748q0 172 80 218t282.5 42t380.5 -25l-6 -37q-343 24 -438.5 19.5t-139.5 -15t-77 -50.5t-33 -148t41 -154.5t123 -56.5l332 -41q223 -29 223 -250q0 -92 -23.5 -147.5t-79 -82t-117 -35t-211.5 -8.5t-312 23l6 37q178 -16 364 -13t255 44t69 182q0 180 -174 203
l-332 41q-106 12 -159.5 71.5t-53.5 182.5zM819 1405l-280 -240h-37l-281 240l27 25l264 -209h16l267 209z" />
    <glyph glyph-name="Tcedilla" unicode="&#x162;" horiz-adv-x="1155" 
d="M633 -244q0 68 -26.5 90.5t-94.5 24.5l6 29q164 8 160 -133q-2 -106 -80 -169t-205 -47l8 31q104 -4 168 51t64 123zM1100 1413v-45h-498v-1368h-51v1368h-496v45h1045z" />
    <glyph glyph-name="tcedilla" unicode="&#x163;" horiz-adv-x="710" 
d="M467 -258q0 68 -26.5 91.5t-94.5 25.5l6 28q164 8 160 -133q-2 -106 -80 -168.5t-205 -46.5l9 31q104 -4 167.5 50t63.5 122zM297 938v-741q0 -164 164 -164h180l6 -33q-82 -12 -174 -12q-225 0 -225 207v743h-178v35l178 10v309h49v-309h365v-45h-365z" />
    <glyph glyph-name="Tcaron" unicode="&#x164;" horiz-adv-x="1155" 
d="M1100 1368h-498v-1368h-51v1368h-496v45h1045v-45zM563 1538l-280 240l26 24l264 -209h17l266 209l25 -24l-281 -240h-37z" />
    <glyph glyph-name="tcaron" unicode="&#x165;" horiz-adv-x="710" 
d="M297 938v-741q0 -164 164 -164h180l6 -33q-82 -12 -174 -12q-225 0 -225 207v743h-178v35l178 10v309h49v-309h365v-45h-365zM530 1368q-6 0 -9 6t-1 12v119q-2 23 21 23h16q23 0 23 -23v-119q-4 -135 -33 -235l-23 8q6 113 6 209z" />
    <glyph glyph-name="Tbar" unicode="&#x166;" horiz-adv-x="1155" 
d="M602 1368v-498h305v-41h-305v-829h-51v829h-318v41h318v498h-496v45h1045v-45h-498z" />
    <glyph glyph-name="tbar" unicode="&#x167;" horiz-adv-x="710" 
d="M297 938v-242h321v-41h-321v-458q0 -164 164 -164h180l6 -33q-82 -12 -174 -12q-225 0 -225 207v460h-152v41h152v242h-178v35l178 10v309h49v-309h365v-45h-365z" />
    <glyph glyph-name="Umacron" unicode="&#x16a;" horiz-adv-x="1366" 
d="M1165 1413v-891q0 -297 -109.5 -422t-372.5 -125t-372.5 125t-109.5 422v891h51v-891q0 -274 97 -386.5t334 -112.5t334 112.5t97 386.5v891h51zM952 1647h-532v47h532v-47z" />
    <glyph glyph-name="umacron" unicode="&#x16b;" 
d="M952 983v-983h-37l-6 180q-246 -205 -458 -205q-264 0 -265 269v739h50v-733q0 -227 225 -227q100 0 198.5 47t243.5 153v760h49zM840 1274h-533v47h533v-47z" />
    <glyph glyph-name="Uring" unicode="&#x16e;" horiz-adv-x="1366" 
d="M1165 1413v-891q0 -297 -109.5 -422t-372.5 -125t-372.5 125t-109.5 422v891h51v-891q0 -274 97 -386.5t334 -112.5t334 112.5t97 386.5v891h51zM686.5 1823q-65.5 0 -110 -45t-44.5 -112t44.5 -111t110 -44t109.5 44t44 111t-44 112t-109.5 45zM686 1862
q82 0 139.5 -57.5t57.5 -138.5t-57.5 -137t-139.5 -56t-139.5 56t-57.5 137t57.5 138.5t139.5 57.5z" />
    <glyph glyph-name="uring" unicode="&#x16f;" 
d="M952 983v-983h-37l-6 180q-246 -205 -458 -205q-264 0 -265 269v739h50v-733q0 -227 225 -227q100 0 198.5 47t243.5 153v760h49zM573.5 1450q-65.5 0 -109.5 -45t-44 -112t44 -110.5t109.5 -43.5t109.5 44.5t44 110.5t-44 111t-109.5 45zM573.5 1100q-81.5 0 -139 56
t-57.5 137t57.5 138.5t139 57.5t139 -57.5t57.5 -138.5t-57.5 -137t-139 -56z" />
    <glyph glyph-name="Uhungarumlaut" unicode="&#x170;" horiz-adv-x="1366" 
d="M1165 1413v-891q0 -297 -109.5 -422t-372.5 -125t-372.5 125t-109.5 422v891h51v-891q0 -274 97 -386.5t334 -112.5t334 112.5t97 386.5v891h51zM1047 1815l-240 -312l-33 21l227 321zM760 1815l-240 -312l-33 21l228 321z" />
    <glyph glyph-name="uhungarumlaut" unicode="&#x171;" 
d="M952 983v-983h-37l-6 180q-246 -205 -458 -205q-264 0 -265 269v739h50v-733q0 -227 225 -227q100 0 198.5 47t243.5 153v760h49zM694 1130l-32 21l227 322l45 -31zM408 1130l-33 21l227 322l45 -31z" />
    <glyph glyph-name="Uogonek" unicode="&#x172;" horiz-adv-x="1366" 
d="M1165 1413v-891q0 -274 -93 -401t-310 -144q-127 -127 -174 -253q-33 -94 20.5 -126t169.5 11l6 -25q-156 -66 -218 -16.5t-20 168.5t173 239h-35q-264 0 -373.5 125t-109.5 422v891h51v-891q0 -274 97 -386.5t334 -112.5t334 112.5t97 386.5v891h51z" />
    <glyph glyph-name="uogonek" unicode="&#x173;" 
d="M451 -25q-264 0 -265 269v739h50v-733q0 -227 225 -227q100 0 198.5 47t243.5 153v760h49v-983q-133 -133 -178 -258q-33 -94 20.5 -126t170.5 11l6 -24q-156 -66 -218.5 -17t-20.5 169t183 249l-6 176q-246 -205 -458 -205z" />
    <glyph glyph-name="Wcircumflex" unicode="&#x174;" horiz-adv-x="1904" 
d="M1434 0h-86q-23 0 -29 23l-342 1345h-49l-342 -1345q-6 -23 -29 -23h-86q-23 0 -29 20l-374 1393h53l364 -1368h58l342 1346q6 23 28 22h78q23 0 29 -22l307 -1205q14 -56 35 -141h57l365 1368h53l-375 -1393q-6 -20 -28 -20zM1249 1563l-22 -25l-266 209h-17l-264 -209
l-25 25l279 239h37z" />
    <glyph glyph-name="wcircumflex" unicode="&#x175;" horiz-adv-x="1662" 
d="M1225 0h-54q-18 0 -26 18l-256 773q-8 25 -23.5 73.5t-23.5 73.5h-21l-303 -920q-8 -18 -26 -18h-54q-20 0 -26 18l-342 965h53l283 -807q8 -23 22 -66.5t23 -64.5h28l301 920q8 18 27 18h49q18 0 27 -18l301 -920h28q8 23 22.5 67t22.5 66l283 805h53l-342 -965
q-6 -18 -26 -18zM1126 1190l-22 -25l-266 209h-17l-264 -209l-25 25l279 240h37z" />
    <glyph glyph-name="Ycircumflex" unicode="&#x176;" horiz-adv-x="1107" 
d="M580 0h-52v526l-483 887h57l369 -682q53 -98 78 -139h10q60 105 76 137l369 684h57l-481 -887v-526zM281 1538l-25 25l279 239h36l279 -239l-23 -25l-266 209h-16z" />
    <glyph glyph-name="ycircumflex" unicode="&#x177;" horiz-adv-x="1036" 
d="M492 0q-16 0 -27 16l-404 967h54l391 -938h26l392 938h53l-453 -1079q-59 -139 -127.5 -219t-189.5 -115l-12 29q113 43 176 121.5t110 201.5l31 78h-20zM250 1165l-25 25l279 240h37l278 -240l-22 -25l-267 209h-16z" />
    <glyph glyph-name="Ydieresis" unicode="&#x178;" horiz-adv-x="1107" 
d="M580 0h-52v526l-483 887h57l369 -682q53 -98 78 -139h10q60 105 76 137l369 684h57l-481 -887v-526zM745 1593h-20q-20 0 -20 23v115q0 23 20 22h20q20 0 21 -22v-115q-1 -23 -21 -23zM383 1593h-21q-20 0 -20 23v115q0 23 20 22h21q20 0 20 -22v-115q0 -23 -20 -23z" />
    <glyph glyph-name="Zacute" unicode="&#x179;" horiz-adv-x="1142" 
d="M1038 47v-47h-932v47l863 1319h-856v47h915v-47l-862 -1319h872zM502 1507l-29 27l305 297l37 -35z" />
    <glyph glyph-name="zacute" unicode="&#x17a;" horiz-adv-x="1021" 
d="M913 45v-45h-804v45l735 893h-729v45h792v-45l-735 -893h741zM436 1135l-28 26l305 297l37 -35z" />
    <glyph glyph-name="Zdotaccent" unicode="&#x17b;" horiz-adv-x="1142" 
d="M1038 47v-47h-932v47l863 1319h-856v47h915v-47l-862 -1319h872zM582 1585h-21q-25 0 -24 25v127q0 25 24 24h21q25 0 24 -24v-127q1 -25 -24 -25z" />
    <glyph glyph-name="zdotaccent" unicode="&#x17c;" horiz-adv-x="1021" 
d="M913 45v-45h-804v45l735 893h-729v45h792v-45l-735 -893h741zM516 1212h-20q-25 0 -25 25v127q0 25 25 25h20q25 0 25 -25v-127q0 -25 -25 -25z" />
    <glyph glyph-name="Zcaron" unicode="&#x17d;" horiz-adv-x="1142" 
d="M1038 47v-47h-932v47l863 1319h-856v47h915v-47l-862 -1319h872zM555 1538l-281 240l27 24l264 -209h17l266 209l24 -24l-280 -240h-37z" />
    <glyph glyph-name="zcaron" unicode="&#x17e;" horiz-adv-x="1021" 
d="M913 45v-45h-804v45l735 893h-729v45h792v-45l-735 -893h741zM489 1165l-280 240l27 25l264 -209h16l266 209l25 -25l-281 -240h-37z" />
    <glyph glyph-name="florin" unicode="&#x192;" horiz-adv-x="827" 
d="M645 1386q-123 0 -177 -50t-67 -177l-34 -371h342l-7 -47h-342l-69 -735q-12 -139 -72.5 -205.5t-174.5 -66.5t-171 8l2 37h143q113 0 162 50t62 177l69 735h-194l4 37l196 10l35 371q24 273 262 273q118 0 177 -9l-3 -37h-143z" />
    <glyph glyph-name="Scommaaccent" unicode="&#x218;" horiz-adv-x="1134" 
d="M590 -133h16q23 0 23 -23v-118q-4 -135 -33 -236l-23 8q6 113 7 209q-6 0 -9.5 6t-1.5 13v118q-2 23 21 23zM135 1048q0 150 23.5 225t84 110.5t128 45t228.5 6.5t345 -24l-6 -39q-357 23 -447 17.5t-142 -14.5t-75.5 -28.5t-55.5 -67t-32 -205.5q0 -157 51.5 -227.5
t172.5 -86.5l313 -43q156 -18 220.5 -102.5t64.5 -269.5t-64 -265t-168 -91.5t-264 -11.5t-352 23l6 39q213 -16 370 -14t220 12t112.5 44t68.5 97.5t19 198.5t-52 205t-181 86l-313 43q-147 16 -211 101.5t-64 235.5z" />
    <glyph glyph-name="scommaaccent" unicode="&#x219;" horiz-adv-x="1021" 
d="M516 -293q-15 0 -10 19v118q-3 23 20 23h17q23 0 22 -23v-118q-4 -135 -33 -236l-22 8q6 113 6 209zM127 748q0 172 80 218t282.5 42t380.5 -25l-6 -37q-343 24 -438.5 19.5t-139.5 -15t-77 -50.5t-33 -148t41 -154.5t123 -56.5l332 -41q223 -29 223 -250
q0 -92 -23.5 -147.5t-79 -82t-117 -35t-211.5 -8.5t-312 23l6 37q178 -16 364 -13t255 44t69 182q0 180 -174 203l-332 41q-106 12 -159.5 71.5t-53.5 182.5z" />
    <glyph glyph-name="uni021A" unicode="&#x21a;" horiz-adv-x="1155" 
d="M551 -133h16q23 0 23 -23v-118q-4 -135 -33 -236l-22 8q6 113 6 209q-6 0 -9.5 6t-1.5 13v118q-2 23 21 23zM1100 1368h-498v-1368h-51v1368h-496v45h1045v-45z" />
    <glyph glyph-name="uni021B" unicode="&#x21b;" horiz-adv-x="710" 
d="M463 -133h16q23 0 23 -23v-118q-4 -135 -33 -236l-23 8q6 115 7 209q-6 0 -9.5 6t-1.5 13v118q-2 23 21 23zM297 938v-741q0 -164 164 -164h180l6 -33q-82 -12 -174 -12q-225 0 -225 207v743h-178v35l178 10v309h49v-309h365v-45h-365z" />
    <glyph glyph-name="circumflex" unicode="&#x2c6;" horiz-adv-x="802" 
d="M698 1202l-22 -24l-266 208h-17l-264 -208l-25 24l279 240h37z" />
    <glyph glyph-name="caron" unicode="&#x2c7;" horiz-adv-x="802" 
d="M700 1417l-280 -239h-37l-281 239l27 25l264 -209h17l266 209z" />
    <glyph glyph-name="breve" unicode="&#x2d8;" horiz-adv-x="731" 
d="M368 1165q-128 0 -204 62.5t-76 171.5l37 8q0 -92 65.5 -142.5t177.5 -50.5t176 51.5t64 141.5l37 -8q0 -109 -74.5 -171.5t-202.5 -62.5z" />
    <glyph glyph-name="dotaccent" unicode="&#x2d9;" horiz-adv-x="421" 
d="M201 1384h20q25 0 25 -24v-127q0 -25 -25 -25h-20q-25 0 -25 25v127q0 24 25 24z" />
    <glyph glyph-name="ring" unicode="&#x2da;" horiz-adv-x="598" 
d="M299 1462q-66 0 -110 -45t-44 -111t44 -110.5t110 -44.5t110 44t44 111t-44 111.5t-110 44.5zM299 1501q82 0 139.5 -57.5t57.5 -137.5t-57.5 -137t-139.5 -57t-139.5 56.5t-57.5 137.5t57.5 138t139.5 57z" />
    <glyph glyph-name="ogonek" unicode="&#x2db;" horiz-adv-x="518" 
d="M299 4l37 -4q-133 -133 -178 -258q-33 -94 20 -126t170 11l6 -24q-156 -66 -218 -17t-20 169t183 249z" />
    <glyph glyph-name="tilde" unicode="&#x2dc;" horiz-adv-x="819" 
d="M147 1225h-34q-2 92 39 140t107 42t150.5 -69.5t145.5 -68.5t89 25.5t28 102.5h35q2 -88 -39 -134t-115 -40t-157 70.5t-137 69.5q-112 10 -112 -138z" />
    <glyph glyph-name="hungarumlaut" unicode="&#x2dd;" horiz-adv-x="839" 
d="M690 1434l-239 -312l-33 21l227 321zM403 1434l-239 -312l-33 21l227 321z" />
    <glyph glyph-name="Delta" unicode="&#x394;" horiz-adv-x="1257" 
d="M1128 45l-499 1313q-8 -25 -25.5 -71t-25.5 -68l-449 -1174h999zM1182 0h-1106v45l524 1368h57l525 -1368v-45z" />
    <glyph glyph-name="Omega" unicode="&#x3a9;" horiz-adv-x="1470" 
d="M113 45h403q-176 117 -254 277.5t-78 408.5q0 356 131 531.5t417 175.5t420 -176.5t134 -530.5q0 -252 -79 -409.5t-253 -276.5h404v-45h-467v45q188 123 265 280.5t77 401.5q0 340 -120 502t-381 162t-377.5 -161t-116.5 -505q0 -254 78.5 -401.5t263.5 -278.5v-45h-467
v45z" />
    <glyph glyph-name="mu" unicode="&#x3bc;" horiz-adv-x="1179" 
d="M969 983v-983h-37l-6 180q-246 -205 -459 -205q-160 0 -223 101q8 -61 8 -185v-321h-49v1413h49v-733q0 -227 225 -227q100 0 198.5 47t244.5 153v760h49z" />
    <glyph glyph-name="pi" unicode="&#x3c0;" horiz-adv-x="1310" 
d="M1247 940h-227v-940h-49v940h-631v-940h-49v940h-228v43h1184v-43z" />
    <glyph glyph-name="uni0401" unicode="&#x401;" horiz-adv-x="1128" 
d="M408 0q-90 0 -149.5 59.5t-59.5 149.5v995q0 90 59 149.5t150 59.5q401 0 602 -8l-4 -37h-588q-74 0 -121 -47t-47 -121v-422h672v-43h-672v-522q0 -74 47 -121t121 -47h588l4 -37q-201 -8 -602 -8zM825 1645h-20q-20 0 -21 22v115q0 23 21 22h20q20 0 21 -22v-115
q-1 -22 -21 -22zM463 1645h-21q-20 0 -20 22v115q0 23 20 22h21q20 0 20 -22v-115q0 -22 -20 -22z" />
    <glyph glyph-name="uni0402" unicode="&#x402;" horiz-adv-x="1531" 
d="M602 1368v-649q131 92 237.5 129t235.5 37q172 0 255 -98.5t83 -325.5q0 -475 -516 -459l-4 35q233 12 351 102.5t118 310.5t-71 304t-215 84t-242.5 -38t-231.5 -130v-670h-51v1368h-496v45h1045v-45h-498z" />
    <glyph glyph-name="uni0403" unicode="&#x403;" horiz-adv-x="1052" 
d="M205 0v1204q0 90 59.5 149.5t149.5 59.5q387 0 583 -8l-4 -37h-569q-74 0 -121 -47t-47 -121v-1200h-51zM852 1796l-313 -289l-29 27l305 297z" />
    <glyph glyph-name="uni0404" unicode="&#x404;" horiz-adv-x="1167" 
d="M698 -25q-301 0 -421.5 164t-120.5 567.5t120.5 567.5t421.5 164q209 0 361 -35l-12 -37q-154 25 -349 25q-260 0 -370.5 -137.5t-118.5 -475.5h651v-43h-651v-28q0 -381 108.5 -532.5t380.5 -151.5q211 -1 365 26l12 -37q-162 -37 -377 -37z" />
    <glyph glyph-name="uni0405" unicode="&#x405;" horiz-adv-x="1134" 
d="M135 1048q0 150 23.5 225t84 110.5t128 45t228.5 6.5t345 -24l-6 -39q-357 23 -447 17.5t-142 -14.5t-75.5 -28.5t-55.5 -67t-32 -205.5q0 -157 51.5 -227.5t172.5 -86.5l313 -43q156 -18 220.5 -102.5t64.5 -269.5t-64 -265t-168 -91.5t-264 -11.5t-352 23l6 39
q213 -16 370 -14t220 12t112.5 44t68.5 97.5t19 198.5t-52 205t-181 86l-313 43q-147 16 -211 101.5t-64 235.5z" />
    <glyph glyph-name="uni0406" unicode="&#x406;" horiz-adv-x="473" 
d="M262 0h-51v1413h51v-1413z" />
    <glyph glyph-name="uni0407" unicode="&#x407;" horiz-adv-x="473" 
d="M262 0h-51v1413h51v-1413zM406 1753h20q20 0 20 -22v-115q0 -23 -20 -23h-20q-20 0 -21 23v115q1 22 21 22zM43 1753h20q20 0 21 -22v-115q0 -23 -21 -23h-20q-20 0 -20 23v115q0 22 20 22z" />
    <glyph glyph-name="uni0408" unicode="&#x408;" horiz-adv-x="663" 
d="M459 1413v-1177q0 -250 -250 -248q-57 0 -131 12l6 33h119q205 0 205 205v1175h51z" />
    <glyph glyph-name="uni0409" unicode="&#x409;" horiz-adv-x="1976" 
d="M1057 739v-704q135 -4 359 -4t306 72.5t82 276.5t-78.5 281.5t-291.5 77.5h-377zM1057 786h377q240 0 332 -90t92 -317t-94 -311t-346 -84t-412 16v1368h-347q-164 0 -176 -170q-33 -373 -54 -583.5t-126 -383.5q-119 -203 -242 -231l-8 37q113 63 199 207t111.5 291
t70.5 667q18 211 217 211h406v-627z" />
    <glyph glyph-name="uni040A" unicode="&#x40a;" horiz-adv-x="2013" 
d="M1094 735v-700q135 -4 359 -4t306 72.5t82 274.5t-80 279.5t-291 77.5h-376zM1094 782h376q240 0 332 -90t92 -315t-94 -309t-346 -84t-412 16v735h-780v-735h-51v1413h51v-633h780v633h52v-631z" />
    <glyph glyph-name="uni040B" unicode="&#x40b;" horiz-adv-x="1617" 
d="M602 1368v-653q274 170 574 170t299 -297v-588h-52v582q0 131 -61.5 193.5t-203.5 62.5t-268 -38t-288 -132v-668h-51v1368h-496v45h1045v-45h-498z" />
    <glyph glyph-name="uni040C" unicode="&#x40c;" horiz-adv-x="1173" 
d="M467 715h-211q4 -63 4 -176v-539h-49v1413h49v-483q0 -47 -4 -170h211q74 0 141.5 38t110.5 81t97 141t76.5 149.5t58.5 136.5t46 107h54q-131 -311 -181 -403q-143 -257 -307 -271v-4q77 -3 180.5 -77.5t214.5 -346.5t127 -311h-55q-56 144 -118 283t-82.5 172.5
t-53.5 84t-63.5 75t-86.5 62.5t-159 38zM520 1507l-28 27l305 297l37 -35z" />
    <glyph glyph-name="uni040D" unicode="&#x40d;" horiz-adv-x="1388" 
d="M1178 0h-52v1333h-2q-68 -117 -71 -123l-793 -1210h-49v1413h51v-1333h2q14 20 43 69.5t39 65.5l782 1198h50v-1413zM778 1534l-28 -27l-314 289l37 35z" />
    <glyph glyph-name="uni040E" unicode="&#x40e;" horiz-adv-x="1099" 
d="M532 420q-76 0 -102 72l-356 921h53l346 -903q16 -45 64 -45h104l358 948h54l-414 -1083q-72 -193 -113 -250q-61 -86 -152 -93t-190 25l6 33q135 -23 185.5 -10.5t71 27t50.5 63t95 213.5l33 82h-93zM554 1546q-128 0 -204 62.5t-76 171.5l37 8q0 -92 65.5 -142.5
t177.5 -50.5t176.5 51.5t64.5 141.5l36 -8q0 -109 -74.5 -171.5t-202.5 -62.5z" />
    <glyph glyph-name="uni040F" unicode="&#x40f;" horiz-adv-x="1363" 
d="M1153 1413v-1413h-446l-5 -309h-36l-9 309h-446v1413h51v-1368h840v1368h51z" />
    <glyph glyph-name="uni0410" unicode="&#x410;" horiz-adv-x="1234" 
d="M938 561l-291 807h-59l-291 -807h641zM573 1413h89q20 0 26 -18l508 -1395h-55l-187 516h-673l-187 -516h-55l508 1395q6 18 26 18z" />
    <glyph glyph-name="uni0411" unicode="&#x411;" horiz-adv-x="1212" 
d="M262 711v-676q140 -4 372 -4t314 68.5t82 264.5t-79 271.5t-292 75.5h-397zM262 758h397q240 0 332 -87t92 -306t-93.5 -300t-353.5 -81t-425 16v1413q180 8 403 8t402 -8l-6 -41h-748v-614z" />
    <glyph glyph-name="uni0412" unicode="&#x412;" horiz-adv-x="1253" 
d="M262 711v-676q143 -4 384 -4t323 64.5t82 264.5t-88.5 273.5t-313.5 77.5h-387zM262 754h387q203 2 282 65t79 249t-87 250t-313 64t-348 -4v-624zM1104 332q0 -196 -95.5 -272t-363.5 -76t-434 16v1413q145 17 399 17t353.5 -77t99.5 -292q0 -154 -57.5 -233t-182.5 -91
v-8q152 -14 216.5 -107.5t64.5 -289.5z" />
    <glyph glyph-name="uni0413" unicode="&#x413;" horiz-adv-x="1052" 
d="M205 0v1204q0 90 59.5 149.5t149.5 59.5q387 0 583 -8l-4 -37h-569q-74 0 -121 -47t-47 -121v-1200h-51z" />
    <glyph glyph-name="uni0414" unicode="&#x414;" horiz-adv-x="1341" 
d="M1044 45v1323h-421q-162 0 -166 -166q-16 -758 -234 -1157h821zM1264 45v-354h-37l-13 309h-1114l-12 -309h-37v354h113q225 391 244 1157q4 211 210 211h478v-1368h168z" />
    <glyph glyph-name="uni0415" unicode="&#x415;" horiz-adv-x="1128" 
d="M408 0q-90 0 -149.5 59.5t-59.5 149.5v995q0 90 59 149.5t150 59.5q401 0 602 -8l-4 -37h-588q-74 0 -121 -47t-47 -121v-422h672v-43h-672v-522q0 -74 47 -121t121 -47h588l4 -37q-201 -8 -602 -8z" />
    <glyph glyph-name="uni0416" unicode="&#x416;" horiz-adv-x="1798" 
d="M1092 715h-166q6 -96 6 -176v-539h-49v539q0 80 6 176h-182q-105 0 -160 -38t-86 -62.5t-63.5 -75t-53 -84t-51.5 -102t-48.5 -108.5t-51 -122t-50.5 -123h-55q16 39 54 132t55.5 134t53.5 118t86 159.5t122.5 135.5t150.5 56v4q-63 6 -121.5 47t-100.5 92.5t-98 158.5
t-106 230t-61 146h53q127 -299 174 -383q156 -268 357 -270h182q-6 61 -6 170v483h49v-483q0 -109 -6 -170h166q74 0 141 38t110 81t97.5 141t77 149.5t58.5 136.5t46 107h53q-131 -311 -180 -403q-143 -257 -307 -271v-4q77 -3 180.5 -77.5t214.5 -346.5t127 -311h-55
q-56 144 -118 283t-82.5 172.5t-53.5 84t-63.5 75t-86.5 62.5t-159 38z" />
    <glyph glyph-name="uni0417" unicode="&#x417;" horiz-adv-x="1114" 
d="M467 1430q256 0 355.5 -77t99.5 -292q0 -154 -57.5 -232.5t-182.5 -91.5v-8q152 -14 216.5 -107.5t64.5 -289t-95.5 -272t-347.5 -76.5t-430 28l8 37q12 0 140 -9t317.5 -9t271.5 64.5t82 264t-88 275.5t-313 76h-207v43h207q203 0 281.5 63.5t78.5 250t-87 250.5
t-314 64q-154 0 -243 -8t-99 -8l-8 37q174 27 350 27z" />
    <glyph glyph-name="uni0418" unicode="&#x418;" horiz-adv-x="1388" 
d="M1178 0h-52v1333h-2q-68 -117 -71 -123l-793 -1210h-49v1413h51v-1333h2q14 20 43 69.5t39 65.5l782 1198h50v-1413z" />
    <glyph glyph-name="uni0419" unicode="&#x419;" horiz-adv-x="1388" 
d="M1178 0h-52v1333h-2q-68 -117 -71 -123l-793 -1210h-49v1413h51v-1333h2q14 20 43 69.5t39 65.5l782 1198h50v-1413zM924 1796h49q0 -111 -76 -180.5t-202 -69.5t-202.5 70t-76.5 180h49q0 -100 63.5 -156.5t166.5 -56.5t166 56.5t63 156.5z" />
    <glyph glyph-name="uni041A" unicode="&#x41a;" horiz-adv-x="1173" 
d="M467 715h-211q4 -63 4 -176v-539h-49v1413h49v-483q0 -47 -4 -170h211q74 0 141.5 38t110.5 81t97 141t76.5 149.5t58.5 136.5t46 107h54q-131 -311 -181 -403q-143 -257 -307 -271v-4q77 -3 169 -69q115 -83 261 -440q76 -187 92 -226h-55q-56 144 -118 283t-82.5 172.5
t-53.5 84.5q-34 50 -64 74q-30 26 -69 52q-73 50 -176 49z" />
    <glyph glyph-name="uni041B" unicode="&#x41b;" horiz-adv-x="1294" 
d="M1083 1413v-1413h-51v1368h-397q-164 0 -176 -170q-33 -373 -55 -585.5t-128 -387.5q-106 -176 -239 -225l-8 41q113 61 199 203t111.5 290t70.5 668q18 211 217 211h456z" />
    <glyph glyph-name="uni041C" unicode="&#x41c;" horiz-adv-x="1748" 
d="M1391 1413h86q31 0 30 -31l62 -1382h-51l-62 1368h-49l-463 -1227q-6 -18 -26 -18h-87q-20 0 -26 18l-463 1227h-49l-62 -1368h-51l62 1382q0 31 30 31h86q20 0 27 -18l391 -1035q12 -33 36 -96t36 -96h53l463 1227q7 18 27 18z" />
    <glyph glyph-name="uni041D" unicode="&#x41d;" horiz-adv-x="1345" 
d="M1135 1413v-1413h-52v735h-821v-735h-51v1413h51v-633h821v633h52z" />
    <glyph glyph-name="uni041E" unicode="&#x41e;" horiz-adv-x="1355" 
d="M678 1391q-262 0 -365.5 -152t-103.5 -532.5t103.5 -532t365.5 -151.5t365.5 151.5t103.5 532t-103.5 532.5t-365.5 152zM678 1438q291 0 406.5 -163t115.5 -568.5t-115.5 -568.5t-406.5 -163t-406.5 163t-115.5 568.5t115.5 568.5t406.5 163z" />
    <glyph glyph-name="uni041F" unicode="&#x41f;" horiz-adv-x="1353" 
d="M1143 1413v-1413h-51v1368h-830v-1368h-51v1413h932z" />
    <glyph glyph-name="uni0420" unicode="&#x420;" horiz-adv-x="1189" 
d="M262 645h402q201 4 277.5 79t76.5 290t-78 291.5t-276 76.5q-262 0 -402 -4v-733zM211 0v1413q164 16 453 17q227 0 317 -89t90 -329t-88.5 -327t-334.5 -87t-386 8v-606h-51z" />
    <glyph glyph-name="uni0421" unicode="&#x421;" horiz-adv-x="1148" 
d="M678 -25q-291 0 -406.5 163t-115.5 568.5t115.5 568.5t406.5 163q205 0 356 -35l-12 -37q-154 25 -344 25q-262 0 -365.5 -152t-103.5 -532.5t103.5 -532t365.5 -151.5q219 -1 373 26l12 -37q-162 -37 -385 -37z" />
    <glyph glyph-name="uni0422" unicode="&#x422;" horiz-adv-x="1155" 
d="M1100 1368h-498v-1368h-51v1368h-496v45h1045v-45z" />
    <glyph glyph-name="uni0423" unicode="&#x423;" horiz-adv-x="1099" 
d="M532 420q-76 0 -102 72l-356 921h53l346 -903q16 -45 64 -45h104l358 948h54l-414 -1083q-72 -193 -113 -250q-61 -86 -152 -93t-190 25l6 33q135 -23 185.5 -10.5t71 27t50.5 63.5t95 213l33 82h-93z" />
    <glyph glyph-name="uni0424" unicode="&#x424;" horiz-adv-x="1681" 
d="M1475 727q0 315 -135.5 437t-473.5 126v-1126q338 4 473.5 126t135.5 437zM207 727q0 -315 135 -437t473 -126v1126q-338 -4 -473 -126t-135 -437zM866 1552v-217q362 -4 512 -140t150 -468t-149.5 -468t-512.5 -140v-217h-51v217q-362 4 -511.5 140t-149.5 468
t149.5 468t511.5 140v217h51z" />
    <glyph glyph-name="uni0425" unicode="&#x425;" horiz-adv-x="1226" 
d="M645 717h-63l-437 -717h-61l448 737l-421 676h61l408 -651h67l408 651h61l-422 -676l449 -737h-62z" />
    <glyph glyph-name="uni0426" unicode="&#x426;" horiz-adv-x="1376" 
d="M1296 45v-354h-36l-13 309h-1036v1413h51v-1368h815v1368h51v-1368h168z" />
    <glyph glyph-name="uni0427" unicode="&#x427;" horiz-adv-x="1239" 
d="M1028 1413v-1413h-51v719q-260 -170 -549 -170q-283 0 -283 297v567h52v-561q0 -131 58 -193.5t194 -62.5t254 37t274 133v647h51z" />
    <glyph glyph-name="uni0428" unicode="&#x428;" horiz-adv-x="1845" 
d="M1634 1413v-1413h-1423v1413h51v-1368h635v1368h51v-1368h635v1368h51z" />
    <glyph glyph-name="uni0429" unicode="&#x429;" horiz-adv-x="1859" 
d="M1782 45v-354h-37l-12 309h-1522v1413h51v-1368h625v1368h51v-1368h625v1368h51v-1368h168z" />
    <glyph glyph-name="uni042A" unicode="&#x42a;" horiz-adv-x="1523" 
d="M584 739v-704q140 -4 372 -4t314 72.5t82 276.5t-79 281.5t-292 77.5h-397zM584 786h397q240 0 332 -90t92 -317t-93.5 -311t-353.5 -84t-426 16v1368h-477v45h529v-627z" />
    <glyph glyph-name="uni042B" unicode="&#x42b;" horiz-adv-x="1656" 
d="M262 739v-704q140 -4 372 -4t314 72.5t82 276.5t-79 281.5t-292 77.5h-397zM1446 1413v-1413h-51v1413h51zM262 786h397q240 0 332 -90t92 -317t-93.5 -311t-353.5 -84t-425 16v1413h51v-627z" />
    <glyph glyph-name="uni042C" unicode="&#x42c;" horiz-adv-x="1202" 
d="M262 739v-704q140 -4 372 -4t314 72.5t82 276.5t-79 281.5t-292 77.5h-397zM262 786h397q240 0 332 -90t92 -317t-93.5 -311t-353.5 -84t-425 16v1413h51v-627z" />
    <glyph glyph-name="uni042D" unicode="&#x42d;" horiz-adv-x="1167" 
d="M469 1438q301 0 422 -164t121 -567.5t-121 -567.5t-422 -164q-215 0 -377 37l12 37q154 -27 365 -26q272 0 380.5 151.5t108.5 532.5v30h-651v43h651q-8 336 -119.5 473.5t-369.5 137.5q-194 0 -348 -25l-12 37q152 35 360 35z" />
    <glyph glyph-name="uni042E" unicode="&#x42e;" horiz-adv-x="1828" 
d="M1157 23q256 0 359.5 151.5t103.5 532t-103.5 532.5t-359.5 152t-355.5 -152t-99.5 -532.5t99.5 -532t355.5 -151.5zM264 760h385q6 373 119.5 525.5t393.5 152.5t395.5 -163t115.5 -568.5t-115.5 -568.5t-400.5 -163t-396.5 163t-111.5 569v8h-385v-715h-51v1413h51
v-653z" />
    <glyph glyph-name="uni042F" unicode="&#x42f;" horiz-adv-x="1232" 
d="M971 662v716q-135 4 -381 4q-186 0 -270 -82t-84 -264t76.5 -278t242.5 -96h416zM182 1012q0 231 96.5 324.5t311.5 93.5q274 0 432 -17v-1413h-51v623q-139 -8 -420 -9q-166 0 -232 -188l-151 -426h-57l155 432q60 162 160 195l-2 12q-117 18 -179.5 126.5t-62.5 246.5z
" />
    <glyph glyph-name="uni0430" unicode="&#x430;" horiz-adv-x="1101" 
d="M186 362v-126q0 -195 205 -199q113 -2 250 58.5t225 144.5v313l-495 -8q-185 -5 -185 -183zM643 1008q272 0 272 -275v-733h-36l-11 190q-72 -74 -209 -138t-264 -64t-193.5 64.5t-66.5 183.5v126q0 111 61.5 171.5t174.5 60.5h495v139q0 227 -225 228q-203 0 -461 -33
l-6 37q305 43 469 43z" />
    <glyph glyph-name="uni0431" unicode="&#x431;" horiz-adv-x="1148" 
d="M595 909q-210 0 -289 -108.5t-79 -342.5t83 -334.5t284 -100.5t279.5 99t78.5 349t-73.5 344t-283.5 94zM621 956q215 0 299 -109.5t84 -381.5q0 -119 -15.5 -200t-79 -185.5t-312.5 -104.5q-248 0 -318.5 107.5t-86.5 226.5t-16 282t12 325t100 273t287 169
q187 49 250.5 81.5t106.5 61.5l14 -35q-97 -69 -166 -91.5t-83.5 -27t-58.5 -16.5t-50 -14q-199 -57 -270.5 -165t-88.5 -310q-4 -49 -8 -140h2q57 254 398 254z" />
    <glyph glyph-name="uni0432" unicode="&#x432;" horiz-adv-x="1120" 
d="M240 485v-450q144 -4 344 -3t273 44t73 175t-77 183t-273 51h-340zM240 526h340q180 2 247.5 43t67.5 166t-77 169t-263 45t-315 -3v-420zM981 232q0 -135 -84.5 -189.5t-316.5 -54.5t-387 12v981q135 12 356 12t309 -55t88 -207q0 -104 -51 -159.5t-162 -63.5v-4
q135 -10 191.5 -73.5t56.5 -198.5z" />
    <glyph glyph-name="uni0433" unicode="&#x433;" horiz-adv-x="897" 
d="M188 0v791q0 90 50.5 141t138.5 51q301 0 459 -6v-39h-449q-150 0 -149 -154v-784h-50z" />
    <glyph glyph-name="uni0434" unicode="&#x434;" horiz-adv-x="1124" 
d="M856 43v897h-313q-141 0 -148 -145q-18 -487 -190 -752h651zM1016 43v-340h-37l-10 297h-860l-11 -297h-37v340h86q176 262 199 754q10 186 191 186h368v-940h111z" />
    <glyph glyph-name="uni0435" unicode="&#x435;" horiz-adv-x="1079" 
d="M739 510q88 0 126 53t35 168q-6 230 -335 230q-203 0 -286.5 -101.5t-85.5 -349.5h546zM739 465h-546q6 -244 98 -343t278.5 -99t350.5 26l8 -37q-119 -37 -350 -37t-334 120t-103 400.5t96.5 396.5t325.5 116q381 0 387 -279q4 -135 -45 -199.5t-166 -64.5z" />
    <glyph glyph-name="uni0436" unicode="&#x436;" horiz-adv-x="1554" 
d="M809 373v-373h-49v373q0 57 6 119h-191q-50 0 -97.5 -17.5t-73 -40t-43 -38t-40 -50.5t-39.5 -63t-63 -126.5t-69 -156.5h-56q117 264 158 330q106 172 246 182v2q-95 8 -147 68.5t-82 97t-148 303.5h55q106 -236 166 -315q102 -133 238 -133h186q-6 41 -6 118v330h49
v-330q0 -78 -6 -118h174q146 0 226 116t126 219q47 104 51 113h56q-119 -268 -149 -304t-81.5 -96.5t-146.5 -68.5v-2q86 -6 159.5 -79t109.5 -142t80 -169t54 -122h-55q-32 79 -78.5 174.5t-59 116t-35 55.5t-63.5 72t-90.5 55.5t-99.5 18.5h-178q6 -61 6 -119z" />
    <glyph glyph-name="uni0437" unicode="&#x437;" horiz-adv-x="966" 
d="M428.5 995q192.5 0 280.5 -53t88 -203q0 -109 -46 -165t-165 -66v-4q127 -10 183 -72.5t56 -192.5t-89 -190.5t-294 -60.5t-346 20l8 37q295 -12 324 -12q193 0 268.5 50t75.5 175t-73.5 174t-264.5 53h-190v41h190q180 2 245.5 44t65.5 169t-76.5 169t-272 42
t-275.5 -12l-8 37q123 20 315.5 20z" />
    <glyph glyph-name="uni0438" unicode="&#x438;" horiz-adv-x="1189" 
d="M997 0h-49v911h-2q-20 -35 -59 -84l-649 -827h-45v983h49v-911h2q27 41 67 92l641 819h45v-983z" />
    <glyph glyph-name="uni0439" unicode="&#x439;" horiz-adv-x="1189" 
d="M997 0h-49v911h-2q-20 -35 -59 -84l-649 -827h-45v983h49v-911h2q27 41 67 92l641 819h45v-983zM801 1423h49q0 -111 -76 -180t-202 -69t-202.5 69.5t-76.5 179.5h49q0 -100 63.5 -156.5t166.5 -56.5t166 56.5t63 156.5z" />
    <glyph glyph-name="uni043A" unicode="&#x43a;" horiz-adv-x="1054" 
d="M242 373v-373h-49v983h49v-330q0 -37 -4 -118h204q158 1 258 131q77 100 166 282q10 25 17 35h53q-117 -246 -182 -328q-103 -131 -226 -141v-2q144 -8 240 -146q79 -113 132.5 -230.5t64.5 -135.5h-56q-8 16 -37.5 78.5t-38 78t-35 67.5t-37.5 67.5t-38 54.5t-44 51.5
t-47 37t-84.5 41t-103.5 16.5h-206q4 -41 4 -119z" />
    <glyph glyph-name="uni043B" unicode="&#x43b;" horiz-adv-x="1099" 
d="M905 983v-983h-49v940h-313q-136 0 -152 -143q-18 -162 -25.5 -242.5t-35.5 -195.5t-62 -177q-78 -150 -213 -192l-8 43q121 53 180 172q57 109 76 245t29 233t12 116q12 94 59.5 139t143.5 45h358z" />
    <glyph glyph-name="uni043C" unicode="&#x43c;" horiz-adv-x="1474" 
d="M1151 983h74q29 0 28 -27l52 -956h-50l-49 938h-41l-366 -829q-8 -18 -25 -19h-74q-16 0 -24 19l-367 829h-41l-49 -938h-49l51 956q0 27 29 27h76q18 0 24 -18l307 -699q41 -90 60 -135h41q28 69 59 137l307 697q7 18 27 18z" />
    <glyph glyph-name="uni043D" unicode="&#x43d;" horiz-adv-x="1159" 
d="M967 983v-983h-49v504h-676v-504h-49v983h49v-436h676v436h49z" />
    <glyph glyph-name="uni043E" unicode="&#x43e;" 
d="M573 961q-211 0 -294.5 -102.5t-83.5 -367t83.5 -366.5t294.5 -102t295 102t84 366.5t-84 367t-295 102.5zM573.5 1008q237.5 0 334 -116t96.5 -400.5t-96.5 -400.5t-334 -116t-334 116t-96.5 400.5t96.5 400.5t334 116z" />
    <glyph glyph-name="uni043F" unicode="&#x43f;" horiz-adv-x="1155" 
d="M963 983v-983h-50v940h-671v-940h-49v983h770z" />
    <glyph glyph-name="uni0440" unicode="&#x440;" horiz-adv-x="1148" 
d="M652 23q162 0 231 106.5t69 362.5t-69.5 362.5t-235.5 106.5q-94 0 -186 -46.5t-217 -152.5v-641q246 -98 408 -98zM650 1008q190 0 272 -118t82 -398.5t-82 -398.5t-270 -118t-414 109q6 -51 6 -188v-326h-49v1413h36l9 -178q220 203 410 203z" />
    <glyph glyph-name="uni0441" unicode="&#x441;" horiz-adv-x="978" 
d="M592 -25q-246 0 -348.5 117t-102.5 399.5t101.5 399.5t347.5 117q164 0 276 -35l-12 -37q-96 25 -256 25q-225 0 -315 -100.5t-90 -369t90 -368.5t315 -100q162 -1 283 24l8 -37q-154 -35 -297 -35z" />
    <glyph glyph-name="uni0442" unicode="&#x442;" horiz-adv-x="962" 
d="M901 938h-395v-938h-51v938h-394v45h840v-45z" />
    <glyph glyph-name="uni0443" unicode="&#x443;" horiz-adv-x="1036" 
d="M492 0q-16 0 -27 16l-404 967h54l391 -938h26l392 938h53l-453 -1079q-78 -190 -172 -269q-117 -82 -266 -57l4 29q143 -8 242 65q80 72 149 250l31 78h-20z" />
    <glyph glyph-name="uni0444" unicode="&#x444;" horiz-adv-x="1425" 
d="M1235 492q0 256 -112 360.5t-384 108.5v-938q272 4 384 108.5t112 360.5zM190 491.5q0 -258.5 113 -361.5t385 -107v938q-272 -4 -385 -107.5t-113 -362zM739 1434v-426q297 -4 422 -124t125 -392.5t-125 -392t-422 -124.5v-405h-51v405q-299 4 -424 124t-125 392.5
t125 392.5t424 124v426h51z" />
    <glyph glyph-name="uni0445" unicode="&#x445;" horiz-adv-x="1034" 
d="M541 492h-47l-359 -492h-61l372 512l-346 471h62l327 -446h56l327 446h62l-346 -471l373 -512h-62z" />
    <glyph glyph-name="uni0446" unicode="&#x446;" horiz-adv-x="1159" 
d="M1051 43v-336h-35l-12 293h-809v983h49v-940h649v940h49v-940h109z" />
    <glyph glyph-name="uni0447" unicode="&#x447;" horiz-adv-x="1034" 
d="M842 983v-983h-49v483q-221 -111 -453 -110q-207 0 -207 209v401h49v-393q0 -168 170 -168q217 0 441 106v455h49z" />
    <glyph glyph-name="uni0448" unicode="&#x448;" horiz-adv-x="1599" 
d="M1407 983v-983h-1214v983h51v-940h530v940h51v-940h533v940h49z" />
    <glyph glyph-name="uni0449" unicode="&#x449;" horiz-adv-x="1628" 
d="M1520 43v-336h-37l-10 293h-1278v983h49v-940h532v940h49v-940h537v940h47v-940h111z" />
    <glyph glyph-name="uni044A" unicode="&#x44a;" horiz-adv-x="1277" 
d="M487 506v-469q123 -4 307 -4t252 49t68 184t-64.5 187.5t-238.5 52.5h-324zM487 549h324q201 0 278.5 -63.5t77.5 -221.5t-78.5 -217t-291.5 -59t-359 12v938h-377v45h426v-434z" />
    <glyph glyph-name="uni044B" unicode="&#x44b;" horiz-adv-x="1380" 
d="M242 506v-469q118 -4 294 -4t233.5 48t57.5 185t-55 188.5t-205 51.5h-325zM1186 983v-983h-49v983h49zM242 549h325q176 0 245 -63.5t69 -221.5t-69.5 -217t-271.5 -59t-347 12v983h49v-434z" />
    <glyph glyph-name="uni044C" unicode="&#x44c;" horiz-adv-x="1032" 
d="M242 506v-469q119 -4 306 -4t253.5 49t66.5 185t-64.5 187.5t-236.5 51.5h-325zM242 549h325q201 0 278 -62.5t77 -221.5t-79 -218t-292 -59t-358 12v983h49v-434z" />
    <glyph glyph-name="uni044D" unicode="&#x44d;" horiz-adv-x="989" 
d="M846 488q0 -280 -98.5 -392t-344.5 -112q-180 0 -307 26l10 39q131 -18 297 -18q217 0 303.5 99t88.5 353h-521v41h521q-6 233 -93.5 326.5t-298.5 93.5q-159 0 -284 -16l-10 39q117 25 294 24q246 0 344.5 -111.5t98.5 -391.5z" />
    <glyph glyph-name="uni044E" unicode="&#x44e;" horiz-adv-x="1570" 
d="M990 29q212 0 298 102t86 364.5t-86 365t-298 102.5t-293 -102.5t-81 -365t81 -364.5t293 -102zM244 530h319q4 266 98.5 372t332.5 106t335.5 -113t97.5 -399t-97.5 -399t-337.5 -113t-333.5 111.5t-95.5 391.5h-319v-487h-49v983h49v-453z" />
    <glyph glyph-name="uni044F" unicode="&#x44f;" horiz-adv-x="1075" 
d="M831 442v496q-119 4 -354 4q-139 0 -202.5 -65.5t-63.5 -169.5q0 -264 295 -265h325zM160 709q0 125 75.5 201.5t241.5 76.5q246 0 404 -12v-975h-50v399h-325q-211 0 -254 -137l-82 -262h-55l94 285q37 113 197 133v6q-123 2 -184.5 81t-61.5 204z" />
    <glyph glyph-name="uni0451" unicode="&#x451;" horiz-adv-x="1079" 
d="M739 510q88 0 126 53t35 168q-6 230 -335 230q-203 0 -286.5 -101.5t-85.5 -349.5h546zM739 465h-546q6 -244 98.5 -343t278.5 -99t350 26l8 -37q-119 -37 -350 -37t-334 120t-103 400.5t96.5 396.5t325.5 116q381 0 387 -279q4 -135 -45 -199.5t-166 -64.5zM758 1221
h-21q-20 0 -20 22v115q0 23 20 22h21q20 0 20 -22v-115q0 -22 -20 -22zM395 1221h-20q-20 0 -21 22v115q0 23 21 22h20q20 0 21 -22v-115q-1 -22 -21 -22z" />
    <glyph glyph-name="uni0452" unicode="&#x452;" horiz-adv-x="1159" 
d="M287 1047v-259q0 -121 -11 -190q274 205 480 205q264 0 264 -268v-535h-49v528q0 227 -226 228q-104 0 -207.5 -47t-254.5 -154v-555h-50v1047h-165v40h165v347h52v-347h448v-40h-446z" />
    <glyph glyph-name="uni0453" unicode="&#x453;" horiz-adv-x="897" 
d="M188 0v791q0 90 50.5 141t138.5 51q301 0 459 -6v-39h-449q-150 0 -149 -154v-784h-50zM770 1423l-313 -288l-29 26l305 297z" />
    <glyph glyph-name="uni0454" unicode="&#x454;" horiz-adv-x="991" 
d="M145 488q0 280 98.5 391.5t344.5 111.5q178 0 295 -24l-11 -39q-125 16 -284 16q-211 0 -298 -93t-93 -329h520v-41h-520q2 -252 88 -351t303 -99q166 0 297 18l10 -39q-127 -27 -307 -26q-246 0 -344.5 112t-98.5 392z" />
    <glyph glyph-name="uni0455" unicode="&#x455;" horiz-adv-x="1021" 
d="M127 748q0 172 80 218t282.5 42t380.5 -25l-6 -37q-343 24 -438.5 19.5t-139.5 -15t-77 -50.5t-33 -148t41 -154.5t123 -56.5l332 -41q223 -29 223 -250q0 -92 -23.5 -147.5t-79 -82t-117 -35t-211.5 -8.5t-312 23l6 37q178 -16 364 -13t255 44t69 182q0 180 -174 203
l-332 41q-106 12 -159.5 71.5t-53.5 182.5z" />
    <glyph glyph-name="uni0456" unicode="&#x456;" horiz-adv-x="450" 
d="M250 0h-49v983h49v-983zM215 1391h21q25 0 24 -25v-127q0 -25 -24 -25h-21q-25 0 -25 25v127q0 25 25 25z" />
    <glyph glyph-name="uni0457" unicode="&#x457;" horiz-adv-x="450" 
d="M250 0h-49v983h49v-983zM393 1380h21q20 0 20 -22v-115q0 -23 -20 -22h-21q-20 0 -20 22v115q0 22 20 22zM31 1380h20q20 0 21 -22v-115q0 -23 -21 -22h-20q-20 0 -21 22v115q1 22 21 22z" />
    <glyph glyph-name="uni0458" unicode="&#x458;" horiz-adv-x="450" 
d="M250 983v-1077q0 -184 -135 -336l-27 20q113 150 113 316v1077h49zM215 1391h21q25 0 24 -25v-127q0 -25 -24 -25h-21q-25 0 -25 25v127q0 25 25 25z" />
    <glyph glyph-name="uni0459" unicode="&#x459;" horiz-adv-x="1576" 
d="M852 530v-495q115 -4 225 -4q197 0 266.5 44.5t69.5 194.5t-59.5 205t-218.5 55h-283zM852 571h283q186 0 257.5 -65.5t71.5 -226.5q0 -98 -21.5 -158t-74.5 -88.5t-113.5 -36.5t-194.5 -8t-257 12v942h-260q-121 0 -133 -121q-33 -340 -53.5 -446.5t-84.5 -204.5
q-78 -127 -194 -170l-12 39q100 57 159 147q63 102 82 196.5t53 444.5q16 156 183 156h309v-412z" />
    <glyph glyph-name="uni045A" unicode="&#x45a;" horiz-adv-x="1605" 
d="M881 526v-491q111 -4 275 -4t225 51.5t61 193.5t-58.5 196t-218.5 54h-284zM881 567h284q186 0 257 -64.5t71 -228.5t-72.5 -225t-265.5 -61t-324 12v524h-587v-524h-49v983h49v-418h587v418h50v-416z" />
    <glyph glyph-name="uni045B" unicode="&#x45b;" horiz-adv-x="1159" 
d="M287 1047v-259q0 -121 -11 -190q274 205 480 205q264 0 264 -268v-629q0 -184 -135 -336l-27 20q113 150 113 318v620q0 227 -226 228q-104 0 -207.5 -47t-254.5 -154v-555h-50v1047h-165v40h165v347h52v-347h448v-40h-446z" />
    <glyph glyph-name="uni045C" unicode="&#x45c;" horiz-adv-x="1054" 
d="M242 373v-373h-49v983h49v-330q0 -37 -4 -118h204q157 0 246 115.5t178 297.5q10 25 17 35h53q-117 -246 -182 -328q-103 -131 -226 -141v-2q144 -8 231.5 -133.5t140.5 -243.5q54 -117 65 -135h-56q-8 16 -37.5 78.5t-38 78t-35 67.5t-37.5 67.5t-38 54.5t-44 51.5
t-47 37t-84.5 41t-103.5 16.5h-206q4 -41 4 -119zM492 1135l-29 26l305 297l37 -35z" />
    <glyph glyph-name="uni045D" unicode="&#x45d;" horiz-adv-x="1189" 
d="M997 0h-49v911h-2q-20 -35 -59 -84l-649 -827h-45v983h49v-911h2q27 41 67 92l641 819h45v-983zM655 1161l-28 -26l-314 288l37 35z" />
    <glyph glyph-name="uni045E" unicode="&#x45e;" horiz-adv-x="1036" 
d="M492 0q-16 0 -27 16l-404 967h54l391 -938h26l392 938h53l-453 -1079q-78 -190 -172 -269q-117 -82 -266 -57l4 29q143 -8 242 65q80 72 149 250l31 78h-20zM756 1423h49q0 -111 -76 -180t-202 -69t-202.5 69.5t-76.5 179.5h49q0 -100 63.5 -156.5t166.5 -56.5t166 56.5
t63 156.5z" />
    <glyph glyph-name="uni045F" unicode="&#x45f;" horiz-adv-x="1157" 
d="M963 983v-983h-357l-8 -344h-35l-12 344h-356v983h51v-940h665v940h52z" />
    <glyph glyph-name="uni0490" unicode="&#x490;" horiz-adv-x="1050" 
d="M995 1722v-317l-2 -37h-569q-74 0 -121 -47t-47 -121v-1200h-51v1204q0 90 59.5 149.5t149.5 59.5q356 0 536 -6l11 315h34z" />
    <glyph glyph-name="uni0491" unicode="&#x491;" horiz-adv-x="897" 
d="M836 1284v-346h-449q-150 0 -149 -154v-784h-50v791q0 90 50.5 141t138.5 51q262 0 414 -4l10 305h35z" />
    <glyph glyph-name="uni04B0" unicode="&#x4b0;" horiz-adv-x="1138" 
d="M928 539v-41h-332v-498h-51v498h-334v41h328l-478 874h58l368 -682q53 -98 78 -139h10q60 105 76 137l369 684h57l-475 -874h326z" />
    <glyph glyph-name="uni04B1" unicode="&#x4b1;" horiz-adv-x="1150" 
d="M934 109v-41h-332v-498h-51v498h-334v41h328l-477 874h57l369 -682q53 -98 77 -139h11q58 101 75 137l369 684h57l-475 -874h326z" />
    <glyph glyph-name="uni04B6" unicode="&#x4b6;" horiz-adv-x="1267" 
d="M1186 45v-354h-37l-12 309h-160v717q-254 -168 -537 -168q-295 0 -295 297v567h52v-561q0 -131 61.5 -193.5t197.5 -62.5t253.5 37t267.5 131v649h51v-1368h158z" />
    <glyph glyph-name="uni04B7" unicode="&#x4b7;" horiz-adv-x="1058" 
d="M950 43v-336h-35l-12 293h-110v483q-221 -111 -453 -110q-207 0 -207 209v401h49v-393q0 -168 170 -168q217 0 441 106v455h49v-940h108z" />
    <glyph glyph-name="uni04BA" unicode="&#x4ba;" horiz-adv-x="1239" 
d="M262 1413v-717q254 168 537 168q295 0 295 -297v-567h-52v561q0 131 -61 193.5t-197 62.5t-254 -37t-268 -131v-649h-51v1413h51z" />
    <glyph glyph-name="uni04C0" unicode="&#x4c0;" horiz-adv-x="473" 
d="M262 0h-51v1413h51v-1413z" />
    <glyph glyph-name="Wgrave" unicode="&#x1e80;" horiz-adv-x="1904" 
d="M1434 0h-86q-23 0 -29 23l-342 1345h-49l-342 -1345q-6 -23 -29 -23h-86q-23 0 -29 20l-374 1393h53l364 -1368h58l342 1346q6 23 28 22h78q23 0 29 -22l307 -1205q14 -56 35 -141h57l365 1368h53l-375 -1393q-6 -20 -28 -20zM1034 1534l-28 -27l-314 289l37 35z" />
    <glyph glyph-name="wgrave" unicode="&#x1e81;" horiz-adv-x="1662" 
d="M1225 0h-54q-18 0 -26 18l-256 773q-8 25 -23.5 73.5t-23.5 73.5h-21l-303 -920q-8 -18 -26 -18h-54q-20 0 -26 18l-342 965h53l283 -807q8 -23 22 -66.5t23 -64.5h28l301 920q8 18 27 18h49q18 0 27 -18l301 -920h28q8 23 22.5 67t22.5 66l283 805h53l-342 -965
q-6 -18 -26 -18zM911 1161l-28 -26l-314 288l37 35z" />
    <glyph glyph-name="Wacute" unicode="&#x1e82;" horiz-adv-x="1904" 
d="M1434 0h-86q-23 0 -29 23l-342 1345h-49l-342 -1345q-6 -23 -29 -23h-86q-23 0 -29 20l-374 1393h53l364 -1368h58l342 1346q6 23 28 22h78q23 0 29 -22l307 -1205q14 -56 35 -141h57l365 1368h53l-375 -1393q-6 -20 -28 -20zM1198 1796l-313 -289l-29 27l305 297z" />
    <glyph glyph-name="wacute" unicode="&#x1e83;" horiz-adv-x="1662" 
d="M1225 0h-54q-18 0 -26 18l-256 773q-8 25 -23.5 73.5t-23.5 73.5h-21l-303 -920q-8 -18 -26 -18h-54q-20 0 -26 18l-342 965h53l283 -807q8 -23 22 -66.5t23 -64.5h28l301 920q8 18 27 18h49q18 0 27 -18l301 -920h28q8 23 22.5 67t22.5 66l283 805h53l-342 -965
q-6 -18 -26 -18zM1075 1423l-313 -288l-29 26l305 297z" />
    <glyph glyph-name="Wdieresis" unicode="&#x1e84;" horiz-adv-x="1904" 
d="M1434 0h-86q-23 0 -29 23l-342 1345h-49l-342 -1345q-6 -23 -29 -23h-86q-23 0 -29 20l-374 1393h53l364 -1368h58l342 1346q6 23 28 22h78q23 0 29 -22l307 -1205q14 -56 35 -141h57l365 1368h53l-375 -1393q-6 -20 -28 -20zM1124 1753h21q20 0 20 -22v-115
q0 -23 -20 -23h-21q-20 0 -20 23v115q0 22 20 22zM762 1753h20q20 0 21 -22v-115q0 -23 -21 -23h-20q-20 0 -21 23v115q1 22 21 22z" />
    <glyph glyph-name="wdieresis" unicode="&#x1e85;" horiz-adv-x="1662" 
d="M1225 0h-54q-18 0 -26 18l-256 773q-8 25 -23.5 73.5t-23.5 73.5h-21l-303 -920q-8 -18 -26 -18h-54q-20 0 -26 18l-342 965h53l283 -807q8 -23 22 -66.5t23 -64.5h28l301 920q8 18 27 18h49q18 0 27 -18l301 -920h28q8 23 22.5 67t22.5 66l283 805h53l-342 -965
q-6 -18 -26 -18zM1001 1380h21q20 0 20 -22v-115q0 -23 -20 -22h-21q-20 0 -20 22v115q0 22 20 22zM639 1380h20q20 0 21 -22v-115q0 -23 -21 -22h-20q-20 0 -21 22v115q1 22 21 22z" />
    <glyph glyph-name="Ygrave" unicode="&#x1ef2;" horiz-adv-x="1107" 
d="M580 0h-52v526l-483 887h57l369 -682q53 -98 78 -139h10q60 105 76 137l369 684h57l-481 -887v-526zM606 1507l-313 289l37 35l305 -297z" />
    <glyph glyph-name="ygrave" unicode="&#x1ef3;" horiz-adv-x="1036" 
d="M492 0q-16 0 -27 16l-404 967h54l391 -938h26l392 938h53l-453 -1079q-59 -139 -127.5 -219t-189.5 -115l-12 29q113 43 176 121.5t110 201.5l31 78h-20zM575 1135l-313 288l37 35l305 -297z" />
    <glyph glyph-name="endash" unicode="&#x2013;" horiz-adv-x="1275" 
d="M1100 492h-924v45h924v-45z" />
    <glyph glyph-name="emdash" unicode="&#x2014;" horiz-adv-x="1910" 
d="M1735 492h-1559v45h1559v-45z" />
    <glyph glyph-name="quoteleft" unicode="&#x2018;" horiz-adv-x="403" 
d="M211 1081h-18q-23 0 -23 25v131q4 152 35 260l22 -10q-6 -82 -6 -230q16 0 10 -20v-131q3 -25 -20 -25z" />
    <glyph glyph-name="quoteright" unicode="&#x2019;" horiz-adv-x="399" 
d="M193 1477h18q23 0 22 -25v-131q-4 -152 -34 -260l-23 10q6 82 6 229q-16 0 -10 21v131q-4 25 21 25z" />
    <glyph glyph-name="quotesinglbase" unicode="&#x201a;" horiz-adv-x="425" 
d="M205 176h18q25 0 25 -24v-132q-4 -143 -37 -260l-25 11q8 109 9 229q-18 0 -13 20v132q-2 24 23 24z" />
    <glyph glyph-name="quotedblleft" unicode="&#x201c;" horiz-adv-x="636" 
d="M444 1081h-18q-23 0 -23 25v131q4 152 35 260l23 -10q-6 -82 -6 -230q16 0 10 -20v-131q2 -25 -21 -25zM211 1081h-18q-23 0 -23 25v131q4 152 35 260l22 -10q-6 -82 -6 -230q16 0 10 -20v-131q3 -25 -20 -25z" />
    <glyph glyph-name="quotedblright" unicode="&#x201d;" horiz-adv-x="632" 
d="M426 1477h18q23 0 23 -25v-131q-4 -152 -35 -260l-22 10q6 82 6 229q-16 0 -10 21v131q-5 25 20 25zM193 1477h18q23 0 22 -25v-131q-4 -152 -34 -260l-23 10q6 82 6 229q-16 0 -10 21v131q-4 25 21 25z" />
    <glyph glyph-name="quotedblbase" unicode="&#x201e;" horiz-adv-x="657" 
d="M436 176h19q23 0 22 -24v-132q-4 -152 -35 -260l-22 11q6 82 6 229q-16 0 -10 20v132q-3 24 20 24zM203 176h18q23 0 23 -24v-132q-4 -152 -35 -260l-23 11q6 82 7 229q-16 0 -11 20v132q-2 24 21 24z" />
    <glyph glyph-name="dagger" unicode="&#x2020;" horiz-adv-x="884" 
d="M772 983v-53l-274 10v43h274zM113 983h274v-43l-274 -10v53zM467 -225h-49v1175l-2 23v442h51v-1640z" />
    <glyph glyph-name="daggerdbl" unicode="&#x2021;" horiz-adv-x="958" 
d="M809 207h-274v43l274 10v-53zM424 207h-274v53l274 -10v-43zM535 983h274v-53l-274 10v43zM150 983h274v-43l-274 -10v53zM506 -225h-53v1640h53v-1640z" />
    <glyph glyph-name="bullet" unicode="&#x2022;" horiz-adv-x="718" 
d="M350 690h21q74 0 102.5 -28.5t28.5 -102.5v-20q0 -76 -29 -104.5t-102 -28.5h-21q-76 0 -104.5 28.5t-28.5 104.5v20q0 74 28.5 102.5t104.5 28.5z" />
    <glyph glyph-name="ellipsis" unicode="&#x2026;" horiz-adv-x="1576" 
d="M1356 176h20q25 0 25 -24v-127q0 -25 -25 -25h-20q-25 0 -25 25v127q0 24 25 24zM778 176h21q25 0 24 -24v-127q0 -25 -24 -25h-21q-25 0 -24 25v127q-1 24 24 24zM201 176h20q25 0 25 -24v-127q0 -25 -25 -25h-20q-25 0 -25 25v127q0 24 25 24z" />
    <glyph glyph-name="perthousand" unicode="&#x2030;" horiz-adv-x="2543" 
d="M2107.5 782q-143.5 0 -202 -89t-58.5 -289.5t58.5 -289.5t202 -89t201.5 89t58 289.5t-58 289.5t-201.5 89zM1376.5 782q-143.5 0 -202 -89t-58.5 -289.5t58.5 -289.5t202 -89t201.5 89t58 289.5t-58 289.5t-201.5 89zM2107 821q168 0 238 -99t70 -318.5t-70 -318.5
t-238 -99t-237.5 99t-69.5 318.5t69.5 318.5t237.5 99zM1376 821q168 0 237.5 -99t69.5 -318.5t-69.5 -318.5t-237.5 -99t-237.5 99t-69.5 318.5t69.5 318.5t237.5 99zM432 1399q-143 0 -201.5 -89t-58.5 -290t58.5 -290t201.5 -89t201.5 89t58.5 290t-58.5 290t-201.5 89z
M434 0h-49l983 1413h49zM432 1438q168 0 237.5 -99.5t69.5 -318.5t-69.5 -318.5t-237.5 -99.5t-237.5 99.5t-69.5 318.5t69.5 318.5t237.5 99.5z" />
    <glyph glyph-name="guilsinglleft" unicode="&#x2039;" horiz-adv-x="460" 
d="M401 909l-303 -395l305 -399l-24 -21l-336 412v16l334 408z" />
    <glyph glyph-name="guilsinglright" unicode="&#x203a;" horiz-adv-x="462" 
d="M420 522v-16l-338 -412l-25 21l305 399l-303 395l25 21z" />
    <glyph glyph-name="fraction" unicode="&#x2044;" horiz-adv-x="327" 
d="M-305 0h-49l983 1413h49z" />
    <glyph glyph-name="Euro" unicode="&#x20ac;" horiz-adv-x="1327" 
d="M856 -25q-254 0 -376 146.5t-142 443.5h-199v43h197q-2 32 -2 92t4 150h-199v43h203q27 274 148.5 409.5t365.5 135.5q186 0 328 -35l-13 -37q-145 25 -315 25q-217 0 -326.5 -123t-134.5 -375h592l-16 -43h-580q-4 -90 -4 -150t2 -92h490l-17 -43h-471
q20 -274 130 -408.5t321 -134.5t346 27l12 -37q-143 -37 -344 -37z" />
    <glyph glyph-name="trademark" unicode="&#x2122;" horiz-adv-x="1939" 
d="M1366 719h-55q-18 0 -23 16l-264 651h-29l-34 -739h-46l35 754q4 25 25 24h63q16 0 21 -16l223 -547l12 -27l29 -79h31l262 653q6 16 22 16h64q25 0 24 -24l35 -754h-45l-35 739h-28l-264 -651q-4 -16 -23 -16zM793 1425v-39h-295v-739h-45v739h-293v39h633z" />
    <glyph glyph-name="partialdiff" unicode="&#x2202;" horiz-adv-x="1161" 
d="M551 20q242 0 310 201t83 404q-143 233 -389 233q-162 0 -258.5 -112t-104.5 -298t79 -307t280 -121zM303 1397v41q416 0 545 -125.5t150 -328.5t-6 -404t-58 -302.5t-77 -162t-124 -100.5t-182 -40q-219 0 -318.5 131.5t-91.5 343.5t119 332.5t299 120.5q260 0 387 -227
q18 165 -2 301.5t-64 216.5t-128 125t-188.5 61.5t-260.5 16.5z" />
    <glyph glyph-name="emptyset" unicode="&#x2205;" horiz-adv-x="1402" 
d="M735 350h-80q-14 0 -14 -16v-76q0 -14 14 -14h80q16 0 17 14v76q-1 16 -17 16zM639 494h111q0 72 29.5 132t66.5 95t66.5 89t29.5 116q0 190 -240 190q-104 0 -249 -22l6 -93q123 19 251 19t128 -94q0 -77 -69 -147t-99.5 -137.5t-30.5 -147.5zM702.5 1296
q247.5 0 422.5 -175t175 -422.5t-175 -424t-422.5 -176.5t-424 176.5t-176.5 424t176.5 422.5t424 175z" />
    <glyph glyph-name="product" unicode="&#x220f;" horiz-adv-x="1495" 
d="M1401 1370h-248v-1595h-49v1595h-713v-1595h-49v1595h-248v43h1307v-43z" />
    <glyph glyph-name="summation" unicode="&#x2211;" horiz-adv-x="1187" 
d="M1044 1368h-845l387 -629l-416 -864h895v-45h-950v45l413 864l-389 629v45h905v-45z" />
    <glyph glyph-name="minus" unicode="&#x2212;" horiz-adv-x="1206" 
d="M1030 584h-854v45h854v-45z" />
    <glyph glyph-name="radical" unicode="&#x221a;" horiz-adv-x="1128" 
d="M438 0h-55q-23 0 -27 16l-260 967h54l247 -938h27l577 1749h54l-590 -1778q-6 -16 -27 -16z" />
    <glyph glyph-name="infinity" unicode="&#x221e;" horiz-adv-x="1622" 
d="M1194 410q96 0 160.5 59t64.5 169t-56.5 163t-144.5 53t-164.5 -40t-118.5 -82t-95 -105q43 -59 77.5 -98.5t107.5 -79t169 -39.5zM441 410q110 0 187 55t160 164q-84 109 -166.5 167t-197.5 58q-221 0 -221 -213q0 -113 64 -172t174 -59zM1208 897q115 0 186.5 -64.5
t71.5 -193.5t-78.5 -200.5t-201.5 -71.5q-173 0 -252.5 90t-118.5 139q-90 -109 -178 -169t-206 -60t-196.5 71.5t-78.5 200.5t73.5 193.5t194.5 64.5q211 0 391 -235q188 235 393 235z" />
    <glyph glyph-name="integral" unicode="&#x222b;" horiz-adv-x="794" 
d="M547 1462q100 0 160 -8l-7 -37h-137q-102 0 -146 -52t-36 -175l82 -1372q16 -272 -215 -273q-100 0 -160 9l6 36h137q102 0 146.5 52.5t36.5 175.5l-82 1372q-16 272 215 272z" />
    <glyph glyph-name="approxequal" unicode="&#x2248;" horiz-adv-x="1214" 
d="M219 315h-41q-2 100 39 141.5t124 41.5t265 -68t259 -69t104.5 24t27.5 102h41q0 -92 -36 -133t-132 -41t-276 69t-250 69t-97.5 -28t-27.5 -108zM219 705h-41q-2 100 39 141t124 41t265 -67.5t259 -68.5t104.5 23.5t27.5 102.5h41q0 -92 -36 -133.5t-132 -41.5t-276 69
t-250 69t-97.5 -27.5t-27.5 -107.5z" />
    <glyph glyph-name="notequal" unicode="&#x2260;" horiz-adv-x="1259" 
d="M1100 399v-45h-580l-153 -254l-39 19l143 235h-225v45h252l237 389h-489v46h516l133 219l39 -19l-123 -200h289v-46h-316l-235 -389h551z" />
    <glyph glyph-name="lessequal" unicode="&#x2264;" horiz-adv-x="1206" 
d="M1032 215h-854v43h854v-43zM1004 995l-754 -288l754 -256v-48l-805 281v45l805 313v-47z" />
    <glyph glyph-name="greaterequal" unicode="&#x2265;" horiz-adv-x="1206" 
d="M1028 215h-854v43h854v-43zM1008 729v-45l-805 -281v46l753 258l-753 290v45z" />
    <glyph glyph-name="lozenge" unicode="&#x25ca;" horiz-adv-x="1214" 
d="M154 709l454 -660l453 660l-453 655zM623 1419l489 -696q8 -14 0 -29l-489 -700q-14 -18 -29 0l-492 700q-8 14 0 29l492 696q15 18 29 0z" />
    <glyph glyph-name="fi" unicode="&#xfb01;" horiz-adv-x="1124" 
d="M887 1391h20q25 0 25 -25v-127q0 -25 -25 -25h-20q-25 0 -25 25v127q0 25 25 25zM922 983v-983h-50v936h-573v-936h-49v936h-178v37l178 10v207q0 139 59.5 205.5t190.5 66.5t207 -8v-37h-185q-123 0 -173 -51t-50 -176v-207h623z" />
    <glyph glyph-name="fl" unicode="&#xfb02;" horiz-adv-x="1261" 
d="M1108 -12q-92 0 -148.5 54t-56.5 153v1222h-379q-123 2 -173 -49t-50 -178v-207h346v-47h-346v-936h-49v936h-178v37l178 10v207q0 139 59.5 205.5t196.5 66.5q305 0 444 -12v-1253q0 -80 43 -122t121 -42h119l6 -33q-41 -12 -133 -12z" />
    <glyph glyph-name="brevecy" horiz-adv-x="731" 
d="M596 1415h49q0 -111 -75.5 -180.5t-201.5 -69.5t-203 70t-77 180h49q0 -100 63.5 -156.5t167.5 -56.5t166 56.5t62 156.5z" />
    </font>
</defs>
</svg>
