<?xml version="1.0" standalone="no"?>
<!DOCTYPE svg PUBLIC "-//W3C//DTD SVG 1.1//EN" "http://www.w3.org/Graphics/SVG/1.1/DTD/svg11.dtd" >
<svg xmlns="http://www.w3.org/2000/svg">
<metadata>
Created by FontPrep 20130207 at Sun Jan 24 18:29:01 2016
 By Alex
Copyright (c) 2013, Natanael Gama (www.ndiscovered.com . info(at)ndiscovered.com), with Reserved Font Name Exo. This Font Software is licensed under the SIL Open Font License, Version 1.1.
</metadata>
<defs>
<font id="64afc03f87116c5051f965b967fd1484" horiz-adv-x='1024' >
  <font-face 
    font-family="Exo2-Bold"
    font-weight="700"
    font-stretch="normal"
    units-per-em="2048"
    panose-1="0 0 8 0 0 0 0 0 0 0"
    ascent="1638"
    descent="-410"
    x-height="1010"
    cap-height="1413"
    bbox="-358 -598 2578 1944"
    underline-thickness="102"
    underline-position="-102"
    unicode-range="U+0020-FB02"
  />
<missing-glyph horiz-adv-x="1228" 
 />
    <glyph glyph-name=".notdef" horiz-adv-x="1228" 
 />
    <glyph glyph-name=".null" horiz-adv-x="0" 
 />
    <glyph glyph-name="nonmarkingreturn" horiz-adv-x="681" 
 />
    <glyph glyph-name="space" unicode=" " horiz-adv-x="444" 
 />
    <glyph glyph-name="exclam" unicode="!" horiz-adv-x="614" 
d="M272 309h70q59 0 83 -22.5t24 -81.5v-99q0 -59 -24 -82.5t-83 -23.5h-70q-59 0 -82.5 23.5t-23.5 82.5v99q0 59 23.5 81.5t82.5 22.5zM156 1423h301v-553l-31 -421h-238l-32 421v553z" />
    <glyph glyph-name="quotedbl" unicode="&#x22;" horiz-adv-x="768" 
d="M643 961h-186l-19 452h224zM311 961h-186l-16 452h221z" />
    <glyph glyph-name="numbersign" unicode="#" horiz-adv-x="1454" 
d="M899 872h-285l-49 -286h285zM1128 872l-49 -286h224l-35 -183h-221l-70 -403h-229l69 403h-285l-69 -403h-230l70 403h-237l34 183h236l49 286h-233l34 181h232l61 360h230l-64 -360h287l61 360h230l-64 -360h230l-35 -181h-226z" />
    <glyph glyph-name="dollar" unicode="$" horiz-adv-x="1181" 
d="M1106 381q0 -225 -103.5 -313t-361.5 -93l-20 -221h-228l21 228q-141 10 -308 45l21 229q342 -8 463 -8t163 25.5t42 101.5t-29 105.5t-107 54.5l-278 100q-156 57 -222.5 155.5t-66.5 256.5t50.5 242.5t149.5 116.5t277 34l19 184h227l-20 -192q147 -14 264 -48
l-19 -213q-178 6 -438 7q-121 0 -162 -21.5t-41 -99.5t32 -108.5t118 -59.5l262 -92q162 -57 228.5 -156.5t66.5 -259.5z" />
    <glyph glyph-name="percent" unicode="%" horiz-adv-x="1857" 
d="M1435.5 647q-75.5 0 -101 -48t-25.5 -202t25.5 -203t101 -49t101.5 49.5t26 201.5t-26 201.5t-101.5 49.5zM1437 817q196 0 273.5 -93t77.5 -328t-78 -328t-274 -93t-272.5 93.5t-76.5 327.5t77 327.5t273 93.5zM420 1272q-76 0 -101.5 -51t-25.5 -203t25.5 -201
t101.5 -49t101.5 49t25.5 203t-25.5 203t-101.5 49zM600 0h-194l847 1413h193zM421 1440q196 0 273.5 -92.5t77.5 -326.5t-78 -327.5t-274 -93.5t-273 93t-77 328t77.5 327t273.5 92z" />
    <glyph glyph-name="ampersand" unicode="&#x26;" horiz-adv-x="1566" 
d="M954 623h-317q-119 0 -161 -42t-42 -160t37 -157t150 -39q203 4 333 92v306zM1237 -25q-203 0 -262 150q-84 -80 -185.5 -115t-257.5 -35q-231 0 -329.5 86.5t-98.5 276.5t64.5 284.5t214.5 106.5v8q-125 12 -180.5 92.5t-55.5 220.5t29 213.5t101.5 111.5t165 50.5
t273.5 12.5t314 -25l-37 -215q-209 6 -325 6t-160.5 -34.5t-44.5 -146.5t40 -150.5t150 -38.5h312l20 217h254v-217h219v-211h-219v-297q0 -59 21.5 -82t76.5 -23h127l33 -205q-106 -41 -260 -41z" />
    <glyph glyph-name="quotesingle" unicode="'" horiz-adv-x="436" 
d="M311 961h-186l-16 452h221z" />
    <glyph glyph-name="parenleft" unicode="(" horiz-adv-x="747" 
d="M373 646q0 -687 336 -853l-35 -131q-307 98 -450.5 334.5t-143.5 643.5t143.5 644.5t450.5 333.5l35 -131q-336 -154 -336 -841z" />
    <glyph glyph-name="parenright" unicode=")" horiz-adv-x="747" 
d="M668 640q0 -407 -143.5 -643.5t-450.5 -334.5l-35 131q336 166 336 853t-336 841l35 131q307 -96 450.5 -333.5t143.5 -644.5z" />
    <glyph glyph-name="asterisk" unicode="*" horiz-adv-x="925" 
d="M367 1153v-74l-37 -45l-252 60l51 159zM848 1094l-250 -60l-39 45v74l238 100zM522 1073l217 -264l-133 -100l-143 249l-144 -247l-135 98l219 262l-24 344h168z" />
    <glyph glyph-name="plus" unicode="+" horiz-adv-x="1103" 
d="M1018 506h-354v-342h-224v342h-354v221h352v344h226v-344h354v-221z" />
    <glyph glyph-name="comma" unicode="," horiz-adv-x="497" 
d="M213 309h72q59 0 81.5 -22.5t22.5 -81.5v-131q0 -205 -104 -375l-125 39q29 121 28 262q-82 0 -86 94l2 111q2 59 26 81.5t83 22.5z" />
    <glyph glyph-name="hyphen" unicode="-" horiz-adv-x="847" 
d="M729 422h-610v199h610v-199z" />
    <glyph glyph-name="period" unicode="." horiz-adv-x="503" 
d="M211 309h82q59 0 82.5 -22.5t23.5 -81.5v-99q0 -59 -23.5 -82.5t-82.5 -23.5h-82q-59 0 -83 23.5t-24 82.5v99q0 59 24 81.5t83 22.5z" />
    <glyph glyph-name="slash" unicode="/" horiz-adv-x="1126" 
d="M281 -147h-240l805 1560h239z" />
    <glyph glyph-name="zero" unicode="0" horiz-adv-x="1288" 
d="M643 1192q-139 0 -187 -99.5t-48 -386t48 -386t187 -99.5t188.5 99.5t49.5 386t-49.5 386t-188.5 99.5zM644 1440q302 0 423 -164t121 -569.5t-121 -569.5t-423 -164t-423 164t-121 569.5t121 569.5t423 164z" />
    <glyph glyph-name="one" unicode="1" horiz-adv-x="878" 
d="M688 0h-311v995q0 90 12 154l-330 -86l-36 209l354 141h311v-1413z" />
    <glyph glyph-name="two" unicode="2" horiz-adv-x="1183" 
d="M579.5 1438q237.5 0 355.5 -70t118 -258q0 -127 -46 -224.5t-184 -242.5l-362 -377q78 14 209 15h424v-281h-1002v174q0 80 45 127l346 373q254 264 252 403q-2 59 -45.5 76.5t-203.5 17.5t-369 -18l-13 236q238 49 475.5 49z" />
    <glyph glyph-name="three" unicode="3" horiz-adv-x="1159" 
d="M572 1440q234 0 339 -72t105 -244t-47 -260t-168 -108v-8q137 -23 193.5 -108t58.5 -247q4 -223 -106.5 -321.5t-377.5 -98.5q-209 0 -485 37l12 234q229 -14 384 -14t210 42t55 154t-45 158.5t-172 44.5h-264v213h264q123 0 159 46t35 144t-44.5 126t-197.5 28t-355 -8
l-14 225q227 37 461 37z" />
    <glyph glyph-name="four" unicode="4" horiz-adv-x="1302" 
d="M1239 532v-192l-172 -29h-4v-311h-289v311h-559q-92 0 -138 72t-11 158l366 872h295l-336 -813q-27 -68 41 -68h342v381l51 226h238v-607h176z" />
    <glyph glyph-name="five" unicode="5" horiz-adv-x="1128" 
d="M1042 432q0 -457 -493 -457q-205 0 -471 45l28 242q227 -24 373 -24t198 45t57 163t-60.5 155.5t-270.5 55.5l-172 21q-45 4 -72.5 37t-25.5 78l35 620h831l-10 -242h-579l-17 -256l203 -24q244 -27 345 -141.5t101 -317.5z" />
    <glyph glyph-name="six" unicode="6" horiz-adv-x="1204" 
d="M620 215q138 0 172.5 56.5t34.5 197.5t-39.5 188.5t-154.5 47.5t-227 -74q2 -266 39 -341t175 -75zM720 1200q-186 0 -244 -69.5t-68 -301.5q112 103 326 103t301 -101.5t87 -347.5q0 -131 -20.5 -219t-97 -188.5t-377.5 -100.5q-213 0 -322.5 62.5t-155 213t-45.5 392.5
t25 375t69 215t120.5 128t162.5 61.5t250 15.5t297 -37l-16 -205q-106 4 -292 4z" />
    <glyph glyph-name="seven" unicode="7" horiz-adv-x="1077" 
d="M903 1413q78 0 114 -48t11 -118l-428 -1247h-307l358 1024q25 76 60 133h-643l-13 256h848z" />
    <glyph glyph-name="eight" unicode="8" horiz-adv-x="1267" 
d="M636 625q-140 0 -187.5 -42t-47.5 -164t47.5 -163t186.5 -41t184 41t45 164t-44 164t-184 41zM636 1214q-128 0 -170 -37.5t-42 -149.5t43 -148.5t171 -36.5t167 35.5t39 148.5t-40 150.5t-168 37.5zM143 1061q0 207 101.5 292t390.5 85t390 -85t101 -292
q0 -133 -52 -222t-156 -102v-8q135 -12 188 -110.5t53 -286.5t-108.5 -272.5t-414.5 -86.5t-416.5 85t-110.5 294q-1 354 243 377v8q-106 12 -157.5 101.5t-51.5 222.5z" />
    <glyph glyph-name="nine" unicode="9" horiz-adv-x="1204" 
d="M570 707q109 0 227 77q0 264 -36 340t-171 76t-174 -59.5t-39 -194.5t42 -187t151 -52zM506 215q160 0 220 77t69 296q-115 -106 -314 -107q-395 0 -395 449q-2 270 108.5 389t375.5 119t375 -85t130.5 -269.5t20.5 -392.5t-30 -353t-105.5 -226t-179 -109t-295.5 -28
t-341 37l19 207q115 -4 342 -4z" />
    <glyph glyph-name="colon" unicode=":" horiz-adv-x="530" 
d="M213 311h82q59 0 82.5 -23.5t23.5 -82.5v-99q0 -59 -23.5 -82.5t-82.5 -23.5h-82q-59 0 -83 23.5t-24 82.5v99q0 59 24 82.5t83 23.5zM213 924h82q59 0 82.5 -23.5t23.5 -83.5v-98q0 -59 -23.5 -82t-82.5 -23h-82q-59 0 -83 22.5t-24 82.5v98q0 59 24 83t83 24z" />
    <glyph glyph-name="semicolon" unicode=";" horiz-adv-x="530" 
d="M229 309h72q59 0 82 -22.5t25 -81.5v-131q-2 -207 -107 -375l-125 39q27 104 31 262q-84 0 -88 94l4 111q2 59 25.5 81.5t80.5 22.5zM227 924h82q59 0 83 -23.5t24 -83.5v-98q0 -59 -23.5 -82t-83.5 -23h-82q-59 0 -82.5 22.5t-23.5 82.5v98q0 59 23.5 83t82.5 24z" />
    <glyph glyph-name="less" unicode="&#x3c;" horiz-adv-x="1060" 
d="M942 836l-604 -220l604 -219v-235l-860 338v233l860 338v-235z" />
    <glyph glyph-name="equal" unicode="=" horiz-adv-x="1185" 
d="M1063 283h-940v215h940v-215zM1063 719h-940v215h940v-215z" />
    <glyph glyph-name="greater" unicode="&#x3e;" horiz-adv-x="1058" 
d="M977 733v-233l-860 -338v235l604 219l-604 220v235z" />
    <glyph glyph-name="question" unicode="?" horiz-adv-x="1056" 
d="M467 309h72q59 0 82.5 -22.5t23.5 -81.5v-99q0 -59 -23.5 -82.5t-82.5 -23.5h-72q-59 0 -83 23.5t-24 82.5v99q0 59 24 81.5t83 22.5zM886.5 1380.5q108.5 -77.5 108.5 -233.5t-87 -246t-178.5 -186t-102.5 -266h-246q-4 123 39 227t97 163.5t103.5 125t54.5 125.5
q10 122 -180 122t-421 -10l-11 207q23 4 141.5 26.5t345.5 22.5q228 0 336.5 -77.5z" />
    <glyph glyph-name="at" unicode="@" horiz-adv-x="1548" 
d="M807 592v-33q0 -94 98 -94q143 0 246 90v129l-248 -8q-53 -2 -74.5 -21.5t-21.5 -62.5zM764 1231h311q178 0 267.5 -79t89.5 -261v-615h-224l-26 142q-57 -66 -152.5 -115t-214.5 -49t-199.5 67.5t-80.5 190.5v98q0 106 67.5 166t192.5 60h356v51q0 70 -29.5 94.5
t-107.5 24.5h-250q-96 0 -142.5 -2.5t-96.5 -18.5t-68.5 -40.5t-37 -80t-21.5 -126t-3 -191.5t3 -192.5t27 -129t42 -81t83.5 -39t117.5 -16.5t116 -1h646v-203q-819 -62 -984 -7.5t-210.5 96.5t-75 127t-36.5 184.5t-7 262.5t6 260t32.5 181t65.5 125t117 70.5t174 38
t252 8.5z" />
    <glyph glyph-name="A" unicode="A" horiz-adv-x="1331" 
d="M842 612l-119 432q-25 102 -29 134h-55q-13 -65 -31 -134l-119 -432h353zM518 1413h295q88 0 109 -82l407 -1331h-317l-103 371h-485l-102 -371h-320l408 1331q8 37 38.5 59.5t69.5 22.5z" />
    <glyph glyph-name="B" unicode="B" horiz-adv-x="1304" 
d="M449 219h237q129 0 174 38t45 160t-47 166t-180 46h-229v-410zM449 836h227q115 0 156.5 36t41.5 144t-45 143t-170 35l-210 2v-360zM1219 334q0 -194 -109 -272t-371 -78q-393 0 -596 16v1413q182 17 498 17t424.5 -77t108.5 -292q0 -154 -58.5 -233t-189.5 -91v-8
q158 -14 225.5 -107.5t67.5 -287.5z" />
    <glyph glyph-name="C" unicode="C" horiz-adv-x="1200" 
d="M96 706.5q0 403.5 133 567.5t461 164q238 0 424 -47l-27 -234q-166 10 -397 10q-154 0 -210 -97t-56 -363.5t56.5 -363.5t209.5 -97q285 0 426 18l27 -231q-184 -57 -453 -58q-328 0 -461 164t-133 567.5z" />
    <glyph glyph-name="D" unicode="D" horiz-adv-x="1392" 
d="M967 706.5q0 278.5 -58.5 380t-216.5 101.5l-237 -2v-957l237 -2q158 0 216.5 100.5t58.5 379zM1294 706.5q0 -413.5 -132 -569t-470 -155.5q-258 0 -549 18v1413q291 18 549 19q338 0 470 -156t132 -569.5z" />
    <glyph glyph-name="E" unicode="E" horiz-adv-x="1179" 
d="M442 -6q-141 0 -225 76.5t-86 208.5v856q2 131 86 207.5t225 76.5q463 0 656 -20l-15 -232h-542q-51 0 -74 -24.5t-23 -79.5v-215h564v-225h-564v-273q0 -57 22.5 -81.5t74.5 -24.5h542l15 -230q-193 -20 -656 -20z" />
    <glyph glyph-name="F" unicode="F" horiz-adv-x="1134" 
d="M563 1167q-59 0 -84.5 -24.5t-25.5 -79.5v-242h540v-227h-540v-594h-314v1126q0 135 85 214t227 79q451 0 634 -22l-16 -230h-506z" />
    <glyph glyph-name="G" unicode="G" horiz-adv-x="1320" 
d="M1212 815v-815h-229l-29 141q-164 -168 -404 -168t-347 174.5t-107 576.5t140.5 559t492.5 157q256 0 434 -49l-24 -230q-231 10 -363 10t-185.5 -15t-94.5 -66.5t-55.5 -142.5t-14.5 -247q0 -264 49 -362t177 -98t259 71v504h301z" />
    <glyph glyph-name="H" unicode="H" horiz-adv-x="1409" 
d="M1266 1413v-1413h-312v631h-499v-631h-312v1413h312v-541h499v541h312z" />
    <glyph glyph-name="I" unicode="I" horiz-adv-x="598" 
d="M455 0h-312v1413h312v-1413z" />
    <glyph glyph-name="J" unicode="J" horiz-adv-x="755" 
d="M618 1413v-1116q0 -154 -83.5 -238t-244.5 -84t-249 41l35 209h96q135 0 135 109v1079h311z" />
    <glyph glyph-name="K" unicode="K" horiz-adv-x="1292" 
d="M455 0h-312v1413h312v-399q0 -90 -15 -168h121l359 567h337l-364 -563q-35 -61 -102 -113v-8q74 -51 118 -125l373 -604h-348l-373 623h-121q14 -82 15 -136v-487z" />
    <glyph glyph-name="L" unicode="L" horiz-adv-x="1089" 
d="M451 1413v-1055q0 -55 25.5 -79.5t84.5 -24.5h486l14 -238q-207 -23 -598 -22q-164 0 -244 82t-80 219v1118h312z" />
    <glyph glyph-name="M" unicode="M" horiz-adv-x="1865" 
d="M1278 1413h301q113 0 117 -117l55 -1296h-295l-47 1169h-35l-213 -874q-20 -100 -127 -100h-205q-106 0 -127 100l-215 874h-34l-41 -1169h-295l51 1296q6 117 117 117h301q100 0 123 -100l172 -705q16 -68 37 -198h26q2 10 15.5 83.5t21.5 114.5l170 705q25 100 127 100
z" />
    <glyph glyph-name="N" unicode="N" horiz-adv-x="1478" 
d="M1335 1413v-1300q0 -113 -110 -113h-195q-47 0 -73.5 21.5t-51.5 70.5l-370 754q-70 150 -86 219h-23q14 -102 14 -225v-840h-297v1300q0 113 113 113h190q47 0 74 -21.5t51 -70.5l359 -731q51 -102 102 -228h21q-12 160 -13 238v813h295z" />
    <glyph glyph-name="O" unicode="O" horiz-adv-x="1400" 
d="M700.5 1188q-159.5 0 -218 -100.5t-58.5 -381t58.5 -381t218 -100.5t218 100.5t58.5 381t-58.5 381t-218 100.5zM700 1440q340 0 473.5 -157t133.5 -576.5t-133.5 -576.5t-473.5 -157t-472 157t-132 576.5t132 576.5t472 157z" />
    <glyph glyph-name="P" unicode="P" horiz-adv-x="1257" 
d="M455 748h219q121 2 165 47t44 176t-44 176t-165 45l-219 -2v-442zM143 0v1413q190 19 512 19t431.5 -96.5t109.5 -365t-103.5 -365.5t-371.5 -97q-135 0 -266 16v-524h-312z" />
    <glyph glyph-name="Q" unicode="Q" horiz-adv-x="1404" 
d="M526 -238l74 166q246 -86 614 -139l-88 -278q-307 75 -600 251zM702.5 1188q-159.5 0 -218 -100.5t-58.5 -381t58.5 -381t218 -100.5t218 100.5t58.5 381t-58.5 381t-218 100.5zM702 1440q340 0 472.5 -157t132.5 -576.5t-132.5 -576.5t-472.5 -157t-473 157t-133 576.5
t133 576.5t473 157z" />
    <glyph glyph-name="R" unicode="R" horiz-adv-x="1316" 
d="M451 793h225q123 0 168 42t45 158.5t-44 157.5t-169 41l-225 -2v-397zM451 0h-308v1413q190 18 507 18.5t435.5 -90t118.5 -327.5q0 -156 -62.5 -244t-207.5 -106v-11q162 -37 201 -213l122 -440h-329l-107 432q-20 68 -54 93.5t-97 25.5l-219 2v-553z" />
    <glyph glyph-name="S" unicode="S" horiz-adv-x="1191" 
d="M88 1049q0 233 113.5 312t392 79t473.5 -56l-20 -213q-178 6 -443 7q-123 0 -164 -21.5t-41 -99.5t31 -108.5t117 -59.5l268 -92q164 -57 231.5 -156.5t67.5 -259.5q0 -238 -114.5 -323t-382 -85t-513.5 54l19 225q436 -10 467 -10q125 0 167 26.5t42 104.5t-28.5 107.5
t-104.5 54.5l-285 100q-158 57 -225.5 155.5t-67.5 258.5z" />
    <glyph glyph-name="T" unicode="T" horiz-adv-x="1230" 
d="M1194 1159h-422v-1159h-313v1159h-422v254h1157v-254z" />
    <glyph glyph-name="U" unicode="U" horiz-adv-x="1394" 
d="M1264 1413v-850q0 -324 -124 -457t-435 -133t-441.5 133.5t-130.5 456.5v850h311v-850q0 -195 54.5 -266.5t198.5 -71.5t198.5 72t54.5 266v850h314z" />
    <glyph glyph-name="V" unicode="V" horiz-adv-x="1302" 
d="M795 0h-285q-41 0 -70.5 23.5t-40.5 62.5l-385 1327h322l256 -1020q20 -82 35 -157h51q6 39 35 157l254 1020h321l-383 -1327q-10 -39 -39.5 -62.5t-70.5 -23.5z" />
    <glyph glyph-name="W" unicode="W" horiz-adv-x="1992" 
d="M1604 0h-299q-43 0 -74 24.5t-37 63.5l-154 924q-16 90 -24 178h-39q0 -38 -25 -180l-151 -922q-6 -39 -38 -63.5t-75 -24.5h-299q-41 0 -72.5 23.5t-40.5 62.5l-223 1327h320l137 -981q12 -92 18 -205h41q6 57 31 205l152 885q6 43 35.5 69.5t74.5 26.5h271
q43 0 72.5 -26.5t35.5 -69.5l152 -887q25 -152 28 -203h43q8 117 19 201l139 985h317l-223 -1327q-8 -39 -38.5 -62.5t-73.5 -23.5z" />
    <glyph glyph-name="X" unicode="X" horiz-adv-x="1312" 
d="M668 629h-25l-301 -629h-322l369 725l-340 688h320l272 -584h31l272 584h320l-340 -688l368 -725h-323z" />
    <glyph glyph-name="Y" unicode="Y" horiz-adv-x="1245" 
d="M780 0h-313v467l-467 946h326l235 -518q20 -45 53 -178h21q25 111 51 178l236 518h321l-463 -946v-467z" />
    <glyph glyph-name="Z" unicode="Z" horiz-adv-x="1193" 
d="M1114 240v-240h-1032v240l672 934h-656v239h1000v-239l-672 -934h688z" />
    <glyph glyph-name="bracketleft" unicode="[" horiz-adv-x="708" 
d="M641 1384h-164q-39 0 -39 -38v-1457q0 -39 39 -39h164v-188h-328q-158 0 -157 158v1595q0 70 44 114t113 44h328v-189z" />
    <glyph glyph-name="backslash" unicode="\" horiz-adv-x="1128" 
d="M1087 -147h-241l-805 1560h242z" />
    <glyph glyph-name="bracketright" unicode="]" horiz-adv-x="708" 
d="M68 1573h325q70 0 115 -44t45 -114v-1595q0 -70 -45 -114t-115 -44h-325v188h163q39 0 39 39v1457q0 39 -39 38h-163v189z" />
    <glyph glyph-name="asciicircum" unicode="^" horiz-adv-x="946" 
d="M885 823l-119 -65l-283 338h-16l-289 -338l-117 65l304 461h219z" />
    <glyph glyph-name="underscore" unicode="_" horiz-adv-x="1140" 
d="M1026 -199h-911v199h911v-199z" />
    <glyph glyph-name="grave" unicode="`" horiz-adv-x="722" 
d="M608 1204l-88 -131l-463 225l140 209z" />
    <glyph glyph-name="a" unicode="a" horiz-adv-x="1161" 
d="M373 346v-39q0 -104 121 -104t249 98v141h-272q-98 -2 -98 -96zM624.5 1038q229.5 0 326 -83t96.5 -287v-668h-240l-31 154q-152 -178 -373 -179q-145 0 -237 77t-92 214v103q0 121 82 188.5t227 67.5h360v45q-2 78 -35.5 104.5t-165.5 26t-390 -16.5l-29 205
q272 49 501.5 49z" />
    <glyph glyph-name="b" unicode="b" horiz-adv-x="1212" 
d="M817 508q0 172 -34.5 230.5t-132.5 58.5t-226 -86v-492q104 -23 206 -19t144.5 70t42.5 238zM426 1434v-322q0 -141 -27 -238q160 164 358 164t284.5 -122t86.5 -392t-106.5 -409.5t-386.5 -139.5q-123 0 -275.5 20.5t-238.5 57.5v1381h305z" />
    <glyph glyph-name="c" unicode="c" horiz-adv-x="1038" 
d="M566 -25q-257 0 -370.5 120t-113.5 412t114.5 411.5t395.5 119.5q229 0 373 -63l-33 -189q-221 4 -289 5q-139 0 -191.5 -59.5t-52.5 -225.5t52.5 -225.5t211 -59t289.5 18.5l27 -197q-156 -68 -413 -68z" />
    <glyph glyph-name="d" unicode="d" horiz-adv-x="1216" 
d="M561 813q-90 0 -128 -57.5t-38 -235.5t37.5 -236.5t115.5 -58.5t123 17.5t117 64.5v467q-137 39 -227 39zM1092 1434v-1434h-240l-25 147q-145 -172 -385 -172q-188 0 -273 136.5t-85 414.5t94 395t291 117t330 -90q-10 113 -11 211v275h304z" />
    <glyph glyph-name="e" unicode="e" horiz-adv-x="1146" 
d="M684 586q55 0 74.5 26.5t19.5 88t-36.5 89t-144.5 27.5t-151 -46t-49 -185h287zM768 403h-365q14 -111 66.5 -148.5t194 -37.5t356.5 23l29 -189q-158 -76 -442 -76t-404.5 123t-120.5 413t117.5 408.5t383 118.5t378 -87t113.5 -246.5t-71.5 -230.5t-234.5 -71z" />
    <glyph glyph-name="f" unicode="f" horiz-adv-x="827" 
d="M655 1253q-76 0 -105.5 -28.5t-29.5 -102.5v-112h279v-203h-279v-807h-305v807h-176v192l176 11v153q0 311 332 312q215 0 327 -21l-28 -201h-191z" />
    <glyph glyph-name="g" unicode="g" horiz-adv-x="1185" 
d="M577.5 -166q149.5 0 197.5 21.5t48 82t-31 75t-135 26.5l-254 27q-66 -53 -65.5 -122t45.5 -89.5t194.5 -20.5zM566 584q112 0 154 28.5t42 103.5t-41 101.5t-153.5 26.5t-154.5 -26.5t-42 -101.5t41.5 -103.5t153.5 -28.5zM567 391q-88 0 -174 10q-25 -33 -9.5 -73.5
t69.5 -46.5l366 -43q156 -18 224.5 -90t68.5 -211q0 -193 -115.5 -260.5t-420.5 -67.5t-416 64.5t-111 236.5q0 78 36 128t124 91q-70 68 -56.5 167t89.5 144q-150 70 -150 260.5t106.5 264t370.5 73.5q160 0 265 -28h325l-14 -133l-127 -17q25 -57 24 -145
q0 -176 -105.5 -250t-369.5 -74z" />
    <glyph glyph-name="h" unicode="h" horiz-adv-x="1226" 
d="M430 1434v-351q0 -104 -18 -211q211 166 413 166q137 0 210 -71.5t73 -208.5v-758h-301v664q0 68 -21.5 93t-76.5 25q-109 0 -281 -92v-690h-303v1434h305z" />
    <glyph glyph-name="i" unicode="i" horiz-adv-x="565" 
d="M434 0h-301v1010h301v-1010zM215 1456h135q88 0 88 -88v-111q0 -88 -88 -88h-135q-88 0 -88 88v111q0 88 88 88z" />
    <glyph glyph-name="j" unicode="j" horiz-adv-x="569" 
d="M436 1010v-963q0 -141 -69.5 -263t-190.5 -187l-166 133q125 141 125 317v963h301zM217 1464h133q88 0 88 -88v-110q0 -88 -88 -88h-133q-88 0 -88 88v110q0 88 88 88z" />
    <glyph glyph-name="k" unicode="k" horiz-adv-x="1140" 
d="M428 317v-317h-303v1434h303v-592q0 -100 -14 -185h94l250 353h340l-262 -351q-33 -55 -95 -96v-4q51 -35 95 -108l297 -451h-340l-283 469h-96q14 -92 14 -152z" />
    <glyph glyph-name="l" unicode="l" horiz-adv-x="669" 
d="M428 1434v-1104q0 -102 115 -103h82l34 -211q-78 -41 -227 -41t-227 73t-78 206v1180h301z" />
    <glyph glyph-name="m" unicode="m" horiz-adv-x="1798" 
d="M778 1038q198 0 254 -164q178 164 369 164q137 0 208.5 -71.5t71.5 -208.5v-758h-301v664q0 66 -22.5 92t-77.5 26t-100 -18.5t-131 -71.5v-692h-291v664q0 66 -25.5 92t-94.5 26t-212 -88v-694h-301v1010h242l20 -148q193 176 391 176z" />
    <glyph glyph-name="n" unicode="n" horiz-adv-x="1226" 
d="M825 1038q137 0 210 -71.5t73 -208.5v-758h-301v664q0 68 -21.5 93t-76.5 25q-96 0 -281 -92v-690h-303v1010h246l22 -150q219 178 432 178z" />
    <glyph glyph-name="o" unicode="o" horiz-adv-x="1202" 
d="M601 811q-120 0 -161 -61.5t-41 -243.5t41 -243.5t160 -61.5t161 61.5t42 242.5t-41 243.5t-161 62.5zM601 1038q284 0 401.5 -121.5t117.5 -412.5t-117.5 -411t-401.5 -120t-401.5 120t-117.5 412t117.5 412.5t401.5 120.5z" />
    <glyph glyph-name="p" unicode="p" horiz-adv-x="1228" 
d="M670 199q84 0 122.5 57.5t38.5 237.5t-34.5 242t-128.5 62t-242 -96v-462q160 -41 244 -41zM795 1036q348 0 348 -540q0 -291 -93.5 -407t-295.5 -116t-334 99q10 -104 6 -217v-244h-301v1399h246l22 -148q63 76 175 125t227 49z" />
    <glyph glyph-name="q" unicode="q" horiz-adv-x="1210" 
d="M393 510q0 -168 34 -226.5t130 -58.5t231 78v490q-286 63 -340.5 -26t-54.5 -257zM1090 -389h-304v295q0 133 25 229q-178 -162 -366.5 -162t-275.5 128.5t-87 398.5t106.5 404t393.5 134q121 0 271.5 -20.5t236.5 -59.5v-1347z" />
    <glyph glyph-name="r" unicode="r" horiz-adv-x="870" 
d="M737 758q-100 0 -309 -70v-688h-303v1010h235l27 -148q207 176 410 176h53l-31 -280h-82z" />
    <glyph glyph-name="s" unicode="s" horiz-adv-x="1079" 
d="M76 766.5q0 141.5 97 206.5t351 63t449 -37l-21 -194q-258 4 -359.5 4t-129 -1t-55 -7t-33.5 -19.5t-6 -32t1 -26.5t5 -15.5t7 -11.5t11 -9t13.5 -7t18.5 -7t20.5 -7t27 -7.5t29.5 -7.5l258 -69q135 -39 192.5 -103.5t57.5 -191.5q0 -180 -104.5 -245t-354.5 -65t-457 35
l19 197q74 -4 291 -4t265 13t48 54t-9.5 49.5t-18.5 13.5t-14 8q-13 8 -51 17.5t-51 14.5l-251 67q-139 41 -192.5 112t-53.5 212.5z" />
    <glyph glyph-name="t" unicode="t" horiz-adv-x="841" 
d="M518 807v-477q0 -57 24.5 -80t86.5 -23h129l33 -211q-117 -41 -269 -41t-228.5 77t-76.5 214v541h-178v192l178 11v282h301v-282h281v-203h-281z" />
    <glyph glyph-name="u" unicode="u" 
d="M1083 1010v-1010h-239l-23 139q-209 -166 -418 -166q-285 0 -284 281v756h303v-664q-2 -66 22 -92q26 -26 100 -26.5t238 83.5v699h301z" />
    <glyph glyph-name="v" unicode="v" horiz-adv-x="1153" 
d="M707 0h-263q-74 0 -98 72l-332 938h322l182 -633q23 -84 43 -180h27l47 180l182 633h320l-332 -938q-25 -72 -98 -72z" />
    <glyph glyph-name="w" unicode="w" horiz-adv-x="1734" 
d="M1350 0h-238q-41 0 -71.5 25.5t-36.5 66.5l-103 572q-14 126 -22 170h-25l-25 -170l-100 -572q-6 -41 -36.5 -66.5t-74.5 -25.5h-233q-84 0 -104 80l-248 930h305l137 -656q20 -111 25 -166h26q4 29 13.5 84.5t13.5 81.5l102 566q14 90 105 90h213q41 0 70.5 -24.5
t35.5 -67.5l101 -564q4 -29 14 -84t14 -82h25l24 166l140 656h305l-248 -930q-20 -80 -104 -80z" />
    <glyph glyph-name="x" unicode="x" horiz-adv-x="1155" 
d="M584 424h-13l-239 -424h-312l312 518l-289 492h309l215 -389h21l215 389h309l-289 -492l312 -518h-312z" />
    <glyph glyph-name="y" unicode="y" horiz-adv-x="1150" 
d="M442 0q-76 0 -98 74l-330 936h324l188 -654q18 -72 31 -151h27q22 90 41 151l186 654h324l-359 -1024q-61 -172 -178 -286q-143 -139 -379 -112l-24 179q123 33 192.5 85t108.5 140l4 8h-58z" />
    <glyph glyph-name="z" unicode="z" horiz-adv-x="1075" 
d="M993 217v-217h-911v217l557 578h-547v215h891v-215l-555 -578h565z" />
    <glyph glyph-name="braceleft" unicode="{" horiz-adv-x="694" 
d="M621 1386q-92 0 -124 -25.5t-32 -100.5v-310q2 -133 -42 -195.5t-169 -82.5q125 -35 171 -96.5t48 -174.5v-430q0 -76 32 -99.5t124 -23.5v-186q-227 -29 -336 48t-109 237v489q0 37 -4 57.5t-24.5 37t-23.5 17.5l-62 25v197q43 14 55 18.5t29.5 20.5t19.5 38.5t2 67.5
v373q0 158 109 236t336 49v-187z" />
    <glyph glyph-name="bar" unicode="|" horiz-adv-x="534" 
d="M373 -346h-213v1945h213v-1945z" />
    <glyph glyph-name="braceright" unicode="}" horiz-adv-x="696" 
d="M76 1386v187q227 29 335.5 -49t108.5 -236v-373q0 -45 2 -67.5t19.5 -38.5t30 -20.5t55.5 -18.5v-197q-79 -33 -97 -55t-18 -82v-489q0 -160 -108.5 -237t-335.5 -48v186q92 0 123.5 24t31.5 99v430q2 113 48 174.5t171 96.5q-123 20 -168 82.5t-43 195.5v310
q0 76 -31.5 101t-123.5 25z" />
    <glyph glyph-name="asciitilde" unicode="~" horiz-adv-x="1050" 
d="M264 444h-137q-23 147 26.5 224t127.5 74t239.5 -51t201.5 -54t53 14.5t13 81.5h138q23 -145 -25.5 -223t-130.5 -75t-241.5 51.5t-199.5 54.5t-52.5 -15t-12.5 -82z" />
    <glyph glyph-name="uni00A0" unicode="&#xa0;" horiz-adv-x="444" 
 />
    <glyph glyph-name="exclamdown" unicode="&#xa1;" horiz-adv-x="579" 
d="M440 -379h-301v547l33 422h238l30 -422v-547zM256 1038h70q59 0 82.5 -23.5t23.5 -82.5v-101q0 -59 -23.5 -81.5t-82.5 -22.5h-70q-59 0 -82.5 22.5t-23.5 81.5v101q0 59 23.5 82.5t82.5 23.5z" />
    <glyph glyph-name="cent" unicode="&#xa2;" horiz-adv-x="1067" 
d="M80 728q0 266 106.5 386.5t360.5 128.5l18 170h228l-21 -180q117 -18 195 -51l-33 -185q-147 9 -295 9t-204 -60.5t-56 -232.5t56.5 -232.5t220.5 -60.5t298 16l27 -186q-139 -59 -324 -66l-20 -184h-227l20 193q-188 29 -269 149t-81 386z" />
    <glyph glyph-name="sterling" unicode="&#xa3;" horiz-adv-x="1198" 
d="M1114 252v-252h-1012v252q176 80 158 328l-6 86h-158l-2 157h150l-17 232q-12 225 87.5 304t307.5 79t447 -21l-16 -233q-88 2 -367 2q-92 0 -126 -31t-28 -113l19 -219h367l-9 -157h-346l6 -86q8 -131 -27.5 -203t-119.5 -139q51 14 156 14h536z" />
    <glyph glyph-name="currency" unicode="&#xa4;" horiz-adv-x="1198" 
d="M597 479q97 0 168 71t71 171t-71 172t-168 72t-169 -72t-72 -172t72 -171t169 -71zM598 305q-119 0 -223 66l-142 -142l-135 133l144 144q-60 98 -60 218t68 222l-144 141l127 125l142 -143q96 66 222 66t226 -68l146 145l125 -125l-146 -145q64 -98 64 -220t-66 -224
l148 -146l-127 -125l-146 144q-104 -66 -223 -66z" />
    <glyph glyph-name="yen" unicode="&#xa5;" horiz-adv-x="1347" 
d="M1161 483v-190h-332v-293h-309v293h-325l-2 190h968zM1161 739v-192h-966l-2 192h204l-346 674h322l237 -485q10 -18 56 -180h20q45 158 55 180l232 485h321l-342 -674h209z" />
    <glyph glyph-name="brokenbar" unicode="&#xa6;" horiz-adv-x="538" 
d="M375 -346h-213v819h213v-819zM375 780h-213v819h213v-819z" />
    <glyph glyph-name="section" unicode="&#xa7;" horiz-adv-x="1132" 
d="M566 -367q-250 0 -447 25l20 217q156 -8 315 -8t207 14.5t50 65.5q6 47 -23 76.5t-86 60.5l-278 147q-164 82 -204 206t19 298h211q-6 -121 25 -178t131 -113l321 -178q47 -27 76 -48t80 -78.5t51 -220.5t-109 -224.5t-359 -61.5zM559 1440q244 0 457 -25l-21 -217
q-111 6 -292 7t-229 -12t-52 -63t23.5 -79t86.5 -60l281 -147q162 -82 201 -207t-21 -299h-211q6 123 -23.5 180.5t-129.5 112.5l-324 180q-49 29 -75.5 48.5t-79 75.5t-52.5 217t108.5 224.5t352.5 63.5z" />
    <glyph glyph-name="dieresis" unicode="&#xa8;" horiz-adv-x="868" 
d="M571 1450h99q68 0 67 -68v-118q0 -68 -67 -68h-99q-68 0 -67 68v118q-1 68 67 68zM199 1450h100q66 0 66 -68v-118q0 -68 -66 -68h-100q-66 0 -66 68v118q0 68 66 68z" />
    <glyph glyph-name="copyright" unicode="&#xa9;" horiz-adv-x="1658" 
d="M440 710q0 234 90.5 329.5t309.5 95.5q162 0 278 -29l-18 -164q-176 4 -268 4t-126 -48t-34 -188t32.5 -187.5t133.5 -47.5q198 0 282 8l19 -164q-129 -37 -299 -36q-219 0 -309.5 96.5t-90.5 330.5zM830 1294q-245 0 -416.5 -168t-171.5 -419.5t172 -419.5t416 -168
t415.5 168t171.5 419.5t-171 419.5t-416 168zM830 1440q314 0 527.5 -208t213.5 -525.5t-213.5 -525.5t-527.5 -208t-528 208t-214 525.5t214 525.5t528 208z" />
    <glyph glyph-name="ordfeminine" unicode="&#xaa;" horiz-adv-x="894" 
d="M311 795v-21q0 -61 79 -61t169 61v94l-174 -14q-74 -6 -74 -59zM488 1260q156 0 224 -57.5t68 -196.5v-443h-176l-22 111q-113 -129 -265 -129q-96 0 -158.5 49t-62.5 139v74q0 80 56.5 126t154.5 46h252v29q0 41 -22.5 60t-110.5 19t-272 -10l-23 150q201 33 357 33z
" />
    <glyph glyph-name="guillemotleft" unicode="&#xab;" horiz-adv-x="1060" 
d="M979 850l-217 -336l217 -346l-158 -100l-327 413v66l325 405zM553 850l-215 -336l217 -346l-160 -100l-325 413v66l323 405z" />
    <glyph glyph-name="logicalnot" unicode="&#xac;" horiz-adv-x="1191" 
d="M1061 727v-451h-225v236h-717v215h942z" />
    <glyph glyph-name="softhyphen" unicode="&#xad;" horiz-adv-x="847" 
d="M729 422h-610v199h610v-199z" />
    <glyph glyph-name="registered" unicode="&#xae;" horiz-adv-x="1071" 
d="M461 1018h86q51 2 68.5 15t17.5 49t-17.5 48.5t-68.5 12.5h-86v-125zM545 934h-84v-182h-127v477q68 6 200 6t180 -30.5t48 -110.5q0 -105 -111 -115v-4q66 -8 82 -76l49 -147h-137l-39 143q-16 39 -61 39zM536 616q151 0 258 107.5t107 260.5t-107.5 260.5t-257.5 107.5
t-257 -107.5t-107 -260.5t106.5 -260.5t257.5 -107.5zM536 1440q189 0 322 -133t133 -323t-133 -323t-322 -133t-322.5 133.5t-133.5 322.5t133.5 322.5t322.5 133.5z" />
    <glyph glyph-name="macron" unicode="&#xaf;" horiz-adv-x="819" 
d="M717 1225h-615v194h615v-194z" />
    <glyph glyph-name="degree" unicode="&#xb0;" horiz-adv-x="704" 
d="M352 1288q-51 0 -85 -32.5t-34 -86t35 -88t84 -34.5t84 34.5t35 88t-34 86t-85 32.5zM351 1440q114 0 197 -79t83 -191.5t-82 -193.5t-196.5 -81t-196.5 81t-82 193.5t81.5 191.5t195.5 79z" />
    <glyph glyph-name="plusminus" unicode="&#xb1;" horiz-adv-x="1175" 
d="M121 313h934v-221h-934v221zM1055 874v-223h-357v-243h-223v243h-354v223h354v246h225v-246h355z" />
    <glyph glyph-name="twosuperior" unicode="&#xb2;" horiz-adv-x="884" 
d="M758 1390q0 -121 -148 -262l-221 -200q59 10 127 10l268 -4v-197h-684v121q0 61 35 96l207 191q147 133 164 207q4 35 -22.5 45t-105.5 10t-261 -6l-8 172q159 27 325 27t245 -44.5t79 -165.5z" />
    <glyph glyph-name="threesuperior" unicode="&#xb3;" horiz-adv-x="845" 
d="M436 1602q160 0 229.5 -43t69.5 -147t-33.5 -157t-126.5 -65v-4q100 -14 140.5 -63.5t42.5 -149.5q4 -135 -73 -193.5t-237 -58.5t-354 22l8 168q112 -6 232 -6t153 20.5t33 74.5t-25.5 75t-103.5 21l-176 4v151l176 2q74 2 96.5 24.5t22.5 66.5t-26.5 58.5t-160.5 14.5
t-202 -2l-8 164q163 23 323 23z" />
    <glyph glyph-name="acute" unicode="&#xb4;" horiz-adv-x="722" 
d="M649 1298l-461 -225l-90 131l412 303z" />
    <glyph glyph-name="paragraph" unicode="&#xb6;" horiz-adv-x="1234" 
d="M532 -430v842q-254 23 -363.5 141.5t-109.5 384.5t149.5 383t504.5 117q211 0 350 -35v-1403h-201v1249q-90 4 -129 4v-1683h-201z" />
    <glyph glyph-name="periodcentered" unicode="&#xb7;" horiz-adv-x="520" 
d="M219 684h82q59 0 83 -23.5t24 -82.5v-99q0 -59 -24 -82.5t-83 -23.5h-82q-59 0 -82.5 23.5t-23.5 82.5v99q0 59 23.5 82.5t82.5 23.5z" />
    <glyph glyph-name="cedilla" unicode="&#xb8;" horiz-adv-x="507" 
d="M135 -197l29 119q170 18 234.5 -6.5t60.5 -126.5q-6 -150 -121 -224.5t-289 -51.5l39 133q168 -4 176 118q2 27 -21.5 33t-107.5 6z" />
    <glyph glyph-name="onesuperior" unicode="&#xb9;" horiz-adv-x="626" 
d="M502 737h-232v555q0 68 9 103l-211 -43l-27 149l229 84h232v-848z" />
    <glyph glyph-name="ordmasculine" unicode="&#xba;" horiz-adv-x="899" 
d="M450 1096q-77 0 -104 -39t-27 -155t27 -154.5t104 -38.5t104.5 38.5t27.5 154.5t-27.5 155t-104.5 39zM450.5 1260q198.5 0 279.5 -81t81 -277t-81 -275.5t-279.5 -79.5t-280.5 79.5t-82 275.5t82 277t280.5 81z" />
    <glyph glyph-name="guillemotright" unicode="&#xbb;" horiz-adv-x="1060" 
d="M567 547v-66l-325 -413l-160 100l217 346l-215 336l158 102zM993 547v-66l-327 -413l-158 100l217 346l-217 336l160 102z" />
    <glyph glyph-name="onequarter" unicode="&#xbc;" horiz-adv-x="1843" 
d="M1679 0h-215v174h-366q-59 0 -90 40t-2 101l231 533h213l-207 -479q-12 -33 29 -33h192v215l37 131h178v-346h97v-141l-97 -19v-176zM1358 1413l-852 -1413h-195l854 1413h193zM279 565v555q0 59 10 103l-207 -43l-27 149l224 84h231v-848h-231z" />
    <glyph glyph-name="onehalf" unicode="&#xbd;" horiz-adv-x="1869" 
d="M1761 653q0 -121 -149 -262l-217 -201q59 10 127 11l264 -4v-197h-680v121q0 61 35 96l205 191q150 137 161 206q6 35 -20.5 45.5t-105.5 10.5t-259 -6l-8 172q158 26 324 26t244.5 -44t78.5 -165zM496 0h-195l852 1413h195zM510 565h-231v555q0 59 10 103l-207 -43
l-27 149l224 84h231v-848z" />
    <glyph glyph-name="threequarters" unicode="&#xbe;" horiz-adv-x="2015" 
d="M1853 0h-215v174h-364q-59 0 -90 40t-2 101l229 533h213l-207 -479q-12 -33 29 -33h192v215l37 131h178v-346h97v-141l-97 -19v-176zM1544 1413l-852 -1413h-194l852 1413h194zM432 543q-166 0 -344 24l8 168q114 -6 232 -6t150 19.5t32 73.5t-25.5 77t-101.5 25h-174
v147l174 4q72 0 93.5 22.5t21.5 67.5t-26 60.5t-158 15.5t-199 -2l-9 164q150 20 315 20t233.5 -42t68.5 -147t-33 -156.5t-125 -63.5v-4q102 -14 141.5 -64t41.5 -168t-74 -176.5t-242 -58.5z" />
    <glyph glyph-name="questiondown" unicode="&#xbf;" horiz-adv-x="1046" 
d="M605 -170q142 0 374 10l10 -207q-16 -2 -60 -11t-60.5 -11t-95.5 -14.5t-289 -12.5q-425 0 -425 318q0 148 87 238.5t178 185t106 268.5h242q4 -123 -38 -227.5t-145.5 -215.5t-109.5 -184q-6 -74 39 -105.5t187 -31.5zM518 1042h70q59 0 82.5 -23.5t23.5 -82.5v-98
q0 -59 -23.5 -83t-82.5 -24h-70q-59 0 -82.5 23.5t-23.5 83.5v98q0 59 23.5 82.5t82.5 23.5z" />
    <glyph glyph-name="Agrave" unicode="&#xc0;" horiz-adv-x="1331" 
d="M842 612l-119 432q-25 102 -29 134h-55q-13 -65 -31 -134l-119 -432h353zM518 1413h295q88 0 109 -82l407 -1331h-317l-103 371h-485l-102 -371h-320l408 1331q8 37 38.5 59.5t69.5 22.5zM725 1481l-461 223l137 211l414 -305z" />
    <glyph glyph-name="Aacute" unicode="&#xc1;" horiz-adv-x="1331" 
d="M842 612l-119 432q-25 102 -29 134h-55q-13 -65 -31 -134l-119 -432h353zM518 1413h295q88 0 109 -82l407 -1331h-317l-103 371h-485l-102 -371h-320l408 1331q8 37 38.5 59.5t69.5 22.5zM586 1481l-90 129l413 305l138 -211z" />
    <glyph glyph-name="Acircumflex" unicode="&#xc2;" horiz-adv-x="1331" 
d="M842 612l-119 432q-25 102 -29 134h-55q-13 -65 -31 -134l-119 -432h353zM518 1413h295q88 0 109 -82l407 -1331h-317l-103 371h-485l-102 -371h-320l408 1331q8 37 38.5 59.5t69.5 22.5zM369 1473l-84 118l274 271h219l271 -277l-84 -112l-289 194h-17z" />
    <glyph glyph-name="Atilde" unicode="&#xc3;" horiz-adv-x="1331" 
d="M842 612l-119 432q-25 102 -29 134h-55q-13 -65 -31 -134l-119 -432h353zM518 1413h295q88 0 109 -82l407 -1331h-317l-103 371h-485l-102 -371h-320l408 1331q8 37 38.5 59.5t69.5 22.5zM440 1550h-129q-23 145 28.5 221t130.5 70t182.5 -48t151.5 -50t63.5 11.5
t15.5 76.5h131q20 -139 -29 -217t-133 -72t-189.5 50t-149.5 51t-58.5 -13.5t-14.5 -79.5z" />
    <glyph glyph-name="Adieresis" unicode="&#xc4;" horiz-adv-x="1331" 
d="M842 612l-119 432q-25 102 -29 134h-55q-13 -65 -31 -134l-119 -432h353zM518 1413h295q88 0 109 -82l407 -1331h-317l-103 371h-485l-102 -371h-320l408 1331q8 37 38.5 59.5t69.5 22.5zM901 1563h-98q-68 0 -68 67v117q0 68 68 68h98q68 0 68 -68v-117q0 -67 -68 -67z
M528 1563h-98q-68 0 -68 67v117q0 68 68 68h98q68 0 68 -68v-117q0 -67 -68 -67z" />
    <glyph glyph-name="Aring" unicode="&#xc5;" horiz-adv-x="1331" 
d="M842 612l-119 432q-25 102 -29 134h-55q-13 -65 -31 -134l-119 -432h353zM518 1413h295q88 0 109 -82l407 -1331h-317l-103 371h-485l-102 -371h-320l408 1331q8 37 38.5 59.5t69.5 22.5zM668 1800q-43 0 -73 -29.5t-30 -75.5t30 -75t73 -29t72.5 29t29.5 75t-29.5 75.5
t-72.5 29.5zM667.5 1460q-100.5 0 -171 68.5t-70.5 167t71.5 167t170 68.5t170 -68.5t71.5 -167t-70.5 -167t-171 -68.5z" />
    <glyph glyph-name="AE" unicode="&#xc6;" horiz-adv-x="1906" 
d="M909 623v458q0 82 47 138h-22q-39 -33 -82 -109l-244 -487h301zM1176 -6q-121 0 -194 80t-73 205v110h-417l-193 -389h-322l596 1143q53 106 150 189t442 83q444 0 660 -16l-15 -230h-501q-47 0 -78 -29.5t-31 -80.5v-213h535v-221h-535v-275q0 -57 25.5 -81.5
t83.5 -24.5h501l15 -230q-203 -20 -649 -20z" />
    <glyph glyph-name="Ccedilla" unicode="&#xc7;" horiz-adv-x="1200" 
d="M516 -238l31 119q168 18 233.5 -6.5t61.5 -126.5q-6 -150 -122 -224.5t-288 -49.5l39 131q76 -2 124 27.5t52 91.5q2 27 -21.5 32.5t-109.5 5.5zM96 706.5q0 403.5 133 567.5t461 164q238 0 424 -47l-27 -234q-166 10 -397 10q-154 0 -210 -97t-56 -363.5t56.5 -363.5
t209.5 -97q285 0 426 18l27 -231q-184 -57 -453 -58q-328 0 -461 164t-133 567.5z" />
    <glyph glyph-name="Egrave" unicode="&#xc8;" horiz-adv-x="1179" 
d="M442 -6q-141 0 -225 76.5t-86 208.5v856q2 131 86 207.5t225 76.5q463 0 656 -20l-15 -232h-542q-51 0 -74 -24.5t-23 -79.5v-215h564v-225h-564v-273q0 -57 22.5 -81.5t74.5 -24.5h542l15 -230q-193 -20 -656 -20zM702 1505l-460 224l137 208l414 -303z" />
    <glyph glyph-name="Eacute" unicode="&#xc9;" horiz-adv-x="1179" 
d="M442 -6q-141 0 -225 76.5t-86 208.5v856q2 131 86 207.5t225 76.5q463 0 656 -20l-15 -232h-542q-51 0 -74 -24.5t-23 -79.5v-215h564v-225h-564v-273q0 -57 22.5 -81.5t74.5 -24.5h542l15 -230q-193 -20 -656 -20zM563 1505l-90 129l414 303l137 -208z" />
    <glyph glyph-name="Ecircumflex" unicode="&#xca;" horiz-adv-x="1179" 
d="M442 -6q-141 0 -225 76.5t-86 208.5v856q2 131 86 207.5t225 76.5q463 0 656 -20l-15 -232h-542q-51 0 -74 -24.5t-23 -79.5v-215h564v-225h-564v-273q0 -57 22.5 -81.5t74.5 -24.5h542l15 -230q-193 -20 -656 -20zM346 1497l-84 119l275 270h219l270 -276l-84 -113
l-289 195h-16z" />
    <glyph glyph-name="Edieresis" unicode="&#xcb;" horiz-adv-x="1179" 
d="M442 -6q-141 0 -225 76.5t-86 208.5v856q2 131 86 207.5t225 76.5q463 0 656 -20l-15 -232h-542q-51 0 -74 -24.5t-23 -79.5v-215h564v-225h-564v-273q0 -57 22.5 -81.5t74.5 -24.5h542l15 -230q-193 -20 -656 -20zM879 1587h-99q-68 0 -67 66v119q0 68 67 67h99
q68 0 67 -67v-119q1 -66 -67 -66zM508 1587h-100q-68 0 -68 66v119q0 68 68 67h100q66 0 65 -67v-119q1 -66 -65 -66z" />
    <glyph glyph-name="Igrave" unicode="&#xcc;" horiz-adv-x="598" 
d="M455 0h-312v1413h312v-1413zM446 1610l-90 -129l-460 223l139 211z" />
    <glyph glyph-name="Iacute" unicode="&#xcd;" horiz-adv-x="598" 
d="M455 0h-312v1413h312v-1413zM678 1704l-461 -223l-88 129l412 305z" />
    <glyph glyph-name="Icircumflex" unicode="&#xce;" horiz-adv-x="598" 
d="M455 0h-312v1413h312v-1413zM682 1585l-86 -112l-287 194h-16l-293 -194l-84 118l274 271h220z" />
    <glyph glyph-name="Idieresis" unicode="&#xcf;" horiz-adv-x="598" 
d="M455 0h-312v1413h312v-1413zM434 1815h101q68 0 67 -68v-117q0 -68 -67 -67h-101q-68 0 -67 67v117q-1 68 67 68zM61 1815h101q66 0 65 -68v-117q0 -68 -65 -67h-101q-66 0 -65 67v117q-1 68 65 68z" />
    <glyph glyph-name="Eth" unicode="&#xd0;" horiz-adv-x="1398" 
d="M973 708q0 278 -57.5 379t-215.5 101l-239 -2v-367h254v-157h-254v-433l239 -2q158 0 215.5 101.5t57.5 379.5zM150 819v594q291 18 550 19q336 0 468 -156t132 -569.5t-132 -569t-468 -155.5q-260 0 -550 18v662h-117v157h117z" />
    <glyph glyph-name="Ntilde" unicode="&#xd1;" horiz-adv-x="1478" 
d="M1335 1413v-1300q0 -113 -110 -113h-195q-47 0 -73.5 21.5t-51.5 70.5l-370 754q-70 150 -86 219h-23q14 -102 14 -225v-840h-297v1300q0 113 113 113h190q47 0 74 -21.5t51 -70.5l359 -731q51 -102 102 -228h21q-12 160 -13 238v813h295zM526 1550h-129
q-23 145 28.5 221t130.5 70t182.5 -48t151.5 -50t63.5 11.5t15.5 76.5h129q23 -139 -26.5 -217t-133.5 -72t-189.5 50t-149.5 51t-58.5 -13.5t-14.5 -79.5z" />
    <glyph glyph-name="Ograve" unicode="&#xd2;" horiz-adv-x="1400" 
d="M700.5 1188q-159.5 0 -218 -100.5t-58.5 -381t58.5 -381t218 -100.5t218 100.5t58.5 381t-58.5 381t-218 100.5zM700 1440q340 0 473.5 -157t133.5 -576.5t-133.5 -576.5t-473.5 -157t-472 157t-132 576.5t132 576.5t472 157zM846 1610l-88 -129l-463 223l139 211z" />
    <glyph glyph-name="Oacute" unicode="&#xd3;" horiz-adv-x="1400" 
d="M700.5 1188q-159.5 0 -218 -100.5t-58.5 -381t58.5 -381t218 -100.5t218 100.5t58.5 381t-58.5 381t-218 100.5zM700 1440q340 0 473.5 -157t133.5 -576.5t-133.5 -576.5t-473.5 -157t-472 157t-132 576.5t132 576.5t472 157zM1077 1704l-461 -223l-88 129l412 305z" />
    <glyph glyph-name="Ocircumflex" unicode="&#xd4;" horiz-adv-x="1400" 
d="M700.5 1188q-159.5 0 -218 -100.5t-58.5 -381t58.5 -381t218 -100.5t218 100.5t58.5 381t-58.5 381t-218 100.5zM700 1440q340 0 473.5 -157t133.5 -576.5t-133.5 -576.5t-473.5 -157t-472 157t-132 576.5t132 576.5t472 157zM1081 1585l-86 -112l-286 194h-17l-293 -194
l-84 118l275 271h219z" />
    <glyph glyph-name="Otilde" unicode="&#xd5;" horiz-adv-x="1400" 
d="M700.5 1188q-159.5 0 -218 -100.5t-58.5 -381t58.5 -381t218 -100.5t218 100.5t58.5 381t-58.5 381t-218 100.5zM700 1440q340 0 473.5 -157t133.5 -576.5t-133.5 -576.5t-473.5 -157t-472 157t-132 576.5t132 576.5t472 157zM473 1550h-131q-23 145 29.5 221t131.5 70
t182 -49t151 -50t63.5 12.5t15.5 76.5h129q23 -139 -26 -217t-133 -72t-191.5 50t-149.5 51t-56.5 -13.5t-14.5 -79.5z" />
    <glyph glyph-name="Odieresis" unicode="&#xd6;" horiz-adv-x="1400" 
d="M700.5 1188q-159.5 0 -218 -100.5t-58.5 -381t58.5 -381t218 -100.5t218 100.5t58.5 381t-58.5 381t-218 100.5zM700 1440q340 0 473.5 -157t133.5 -576.5t-133.5 -576.5t-473.5 -157t-472 157t-132 576.5t132 576.5t472 157zM834 1815h100q68 0 67 -68v-117
q0 -68 -67 -67h-100q-68 0 -68 67v117q0 68 68 68zM461 1815h100q66 0 66 -68v-117q0 -68 -66 -67h-100q-66 0 -66 67v117q0 68 66 68z" />
    <glyph glyph-name="multiply" unicode="&#xd7;" horiz-adv-x="1007" 
d="M63 844l144 172l745 -668l-143 -170z" />
    <glyph glyph-name="Oslash" unicode="&#xd8;" horiz-adv-x="1400" 
d="M700.5 225q159.5 0 218 100.5t58.5 381t-58.5 381t-218 100.5t-218 -100.5t-58.5 -381t58.5 -381t218 -100.5zM1307 707q0 -420 -133.5 -577t-473.5 -157q-113 0 -196 15l-98 -211l-236 114l96 201q-170 150 -170 592t132 599t472 157q115 0 195 -15l92 201l236 -113
l-88 -190q92 -80 132 -227.5t40 -388.5z" />
    <glyph glyph-name="Ugrave" unicode="&#xd9;" horiz-adv-x="1394" 
d="M1264 1413v-850q0 -324 -124 -457t-435 -133t-441.5 133.5t-130.5 456.5v850h311v-850q0 -195 54.5 -266.5t198.5 -71.5t198.5 72t54.5 266v850h314zM846 1610l-88 -129l-463 223l139 211z" />
    <glyph glyph-name="Uacute" unicode="&#xda;" horiz-adv-x="1394" 
d="M1264 1413v-850q0 -324 -124 -457t-435 -133t-441.5 133.5t-130.5 456.5v850h311v-850q0 -195 54.5 -266.5t198.5 -71.5t198.5 72t54.5 266v850h314zM1077 1704l-461 -223l-88 129l412 305z" />
    <glyph glyph-name="Ucircumflex" unicode="&#xdb;" horiz-adv-x="1394" 
d="M1264 1413v-850q0 -324 -124 -457t-435 -133t-441.5 133.5t-130.5 456.5v850h311v-850q0 -195 54.5 -266.5t198.5 -71.5t198.5 72t54.5 266v850h314zM1081 1585l-86 -112l-286 194h-17l-293 -194l-84 118l275 271h219z" />
    <glyph glyph-name="Udieresis" unicode="&#xdc;" horiz-adv-x="1394" 
d="M1264 1413v-850q0 -324 -124 -457t-435 -133t-441.5 133.5t-130.5 456.5v850h311v-850q0 -195 54.5 -266.5t198.5 -71.5t198.5 72t54.5 266v850h314zM834 1815h100q68 0 67 -68v-117q0 -68 -67 -67h-100q-68 0 -68 67v117q0 68 68 68zM461 1815h100q66 0 66 -68v-117
q0 -68 -66 -67h-100q-66 0 -66 67v117q0 68 66 68z" />
    <glyph glyph-name="Yacute" unicode="&#xdd;" horiz-adv-x="1245" 
d="M780 0h-313v467l-467 946h326l235 -518q20 -45 53 -178h21q25 111 51 178l236 518h321l-463 -946v-467zM541 1481l-90 129l411 305l139 -211z" />
    <glyph glyph-name="Thorn" unicode="&#xde;" horiz-adv-x="1249" 
d="M457 485h211q119 0 160.5 45.5t41.5 179.5t-42 180t-160 46l-211 -2v-449zM457 1413v-237h219q291 0 399.5 -97.5t108.5 -368.5t-102.5 -368.5t-366.5 -97.5q-131 0 -258 16v-260h-314v1413h314z" />
    <glyph glyph-name="germandbls" unicode="&#xdf;" horiz-adv-x="1443" 
d="M1399 272q0 -162 -89.5 -228.5t-273.5 -66.5t-372 23l18 203q172 -4 262 -4t122 14t32 65t-34.5 79.5t-107.5 76.5l-145 78q-154 94 -154 240q0 74 33 114.5t87 86.5t90 79t56.5 64.5t20.5 81.5t-41 74t-171 24t-173 -35t-43 -141v-1100h-303v805h-176v201l176 4v125
q0 213 117.5 288.5t399.5 75.5t387.5 -68.5t105.5 -242.5q0 -72 -29.5 -132.5t-133.5 -143.5t-111 -104.5t-7 -41.5t17.5 -43t32 -33t42.5 -28t35 -23l160 -92q98 -63 134 -118.5t36 -156.5z" />
    <glyph glyph-name="agrave" unicode="&#xe0;" horiz-adv-x="1161" 
d="M373 346v-39q0 -104 121 -104t249 98v141h-272q-98 -2 -98 -96zM624 1038q230 0 326.5 -83t96.5 -287v-668h-240l-31 154q-152 -178 -373 -179q-145 0 -237 77t-92 214v103q0 121 82 188.5t227 67.5h360v45q-2 78 -35.5 104t-165.5 26t-390 -16l-29 205q271 49 501 49z
M637 1106l-461 225l137 209l414 -303z" />
    <glyph glyph-name="aacute" unicode="&#xe1;" horiz-adv-x="1161" 
d="M373 346v-39q0 -104 121 -104t249 98v141h-272q-98 -2 -98 -96zM624 1038q230 0 326.5 -83t96.5 -287v-668h-240l-31 154q-152 -178 -373 -179q-145 0 -237 77t-92 214v103q0 121 82 188.5t227 67.5h360v45q-2 78 -35.5 104t-165.5 26t-390 -16l-29 205q271 49 501 49z
M498 1106l-90 131l411 303l139 -209z" />
    <glyph glyph-name="acircumflex" unicode="&#xe2;" horiz-adv-x="1161" 
d="M373 346v-39q0 -104 121 -104t249 98v141h-272q-98 -2 -98 -96zM624 1038q230 0 326.5 -83t96.5 -287v-668h-240l-31 154q-152 -178 -373 -179q-145 0 -237 77t-92 214v103q0 121 82 188.5t227 67.5h360v45q-2 78 -35.5 104t-165.5 26t-390 -16l-29 205q271 49 501 49z
M281 1100l-84 119l274 270h219l271 -277l-84 -112l-289 194h-17z" />
    <glyph glyph-name="atilde" unicode="&#xe3;" horiz-adv-x="1161" 
d="M373 346v-39q0 -104 121 -104t249 98v141h-272q-98 -2 -98 -96zM624 1038q230 0 326.5 -83t96.5 -287v-668h-240l-31 154q-152 -178 -373 -179q-145 0 -237 77t-92 214v103q0 121 82 188.5t227 67.5h360v45q-2 78 -35.5 104t-165.5 26t-390 -16l-29 205q271 49 501 49z
M352 1178h-129q-23 143 28.5 218.5t131.5 69.5t183.5 -48t151.5 -50t62.5 12.5t14.5 75.5h131q20 -139 -29 -216t-133 -71t-189.5 50.5t-149.5 50.5t-58.5 -14.5t-14.5 -77.5z" />
    <glyph glyph-name="adieresis" unicode="&#xe4;" horiz-adv-x="1161" 
d="M373 346v-39q0 -104 121 -104t249 98v141h-272q-98 -2 -98 -96zM624 1038q230 0 326.5 -83t96.5 -287v-668h-240l-31 154q-152 -178 -373 -179q-145 0 -237 77t-92 214v103q0 121 82 188.5t227 67.5h360v45q-2 78 -35.5 104t-165.5 26t-390 -16l-29 205q271 49 501 49z
M813 1188h-98q-68 0 -68 67v119q0 68 68 68h98q68 0 68 -68v-119q0 -67 -68 -67zM440 1188h-98q-68 0 -68 67v119q0 68 68 68h98q68 0 68 -68v-119q0 -67 -68 -67z" />
    <glyph glyph-name="aring" unicode="&#xe5;" horiz-adv-x="1161" 
d="M373 346v-39q0 -104 121 -104t249 98v141h-272q-98 -2 -98 -96zM624 1038q230 0 326.5 -83t96.5 -287v-668h-240l-31 154q-152 -178 -373 -179q-145 0 -237 77t-92 214v103q0 121 82 188.5t227 67.5h360v45q-2 78 -35.5 104t-165.5 26t-390 -16l-29 205q271 49 501 49z
M580 1427q-43 0 -73 -29.5t-30 -76.5t30 -75.5t73 -28.5t72.5 28.5t29.5 75.5t-29.5 76.5t-72.5 29.5zM579.5 1085q-100.5 0 -171 69t-70.5 167t70 166.5t170 68.5t171.5 -68.5t71.5 -166.5t-70.5 -167t-171 -69z" />
    <glyph glyph-name="ae" unicode="&#xe6;" horiz-adv-x="1792" 
d="M373 346v-39q1 -104 121 -104t258 108q-14 63 -17 131h-266q-96 -2 -96 -96zM1329 586q55 0 74.5 26t19.5 88t-36.5 89.5t-143.5 27.5t-151 -46t-48 -185h285zM1413 403h-364q14 -111 67.5 -148.5t193.5 -37.5t355 23l29 -189q-158 -76 -439 -76q-346 0 -456 199
q-156 -199 -400 -199q-143 0 -234 77t-91 214v103q0 119 82 186.5t225 67.5h354v47q0 76 -33.5 103.5t-163.5 27.5t-388 -17l-27 205q268 49 486 49t313 -65q113 65 343 65t341.5 -87t111.5 -265q2 -141 -70.5 -212t-234.5 -71z" />
    <glyph glyph-name="ccedilla" unicode="&#xe7;" horiz-adv-x="1038" 
d="M420 -225l31 119q168 18 233.5 -6.5t60.5 -127.5q-6 -150 -121.5 -224.5t-287.5 -51.5l39 133q76 -2 124 27.5t52 91.5q2 27 -21.5 33t-109.5 6zM566 -25q-257 0 -370.5 120t-113.5 412t114.5 411.5t395.5 119.5q229 0 373 -63l-33 -189q-221 4 -289 5
q-139 0 -191.5 -59.5t-52.5 -225.5t52.5 -225t210.5 -59t290 18l27 -197q-156 -68 -413 -68z" />
    <glyph glyph-name="egrave" unicode="&#xe8;" horiz-adv-x="1146" 
d="M684 586q55 0 74.5 26t19.5 88t-36.5 89.5t-144.5 27.5t-151 -46t-49 -185h287zM768 403h-365q14 -111 66.5 -148.5t194.5 -37.5t356 23l29 -189q-158 -76 -442 -76t-404.5 123t-120.5 413t117 408.5t383 118.5t378.5 -87t113.5 -247t-71.5 -230.5t-234.5 -70.5z
M657 1106l-460 225l139 209l412 -303z" />
    <glyph glyph-name="eacute" unicode="&#xe9;" horiz-adv-x="1146" 
d="M684 586q55 0 74.5 26t19.5 88t-36.5 89.5t-144.5 27.5t-151 -46t-49 -185h287zM768 403h-365q14 -111 66.5 -148.5t194.5 -37.5t356 23l29 -189q-158 -76 -442 -76t-404.5 123t-120.5 413t117 408.5t383 118.5t378.5 -87t113.5 -247t-71.5 -230.5t-234.5 -70.5z
M518 1106l-90 131l414 303l137 -209z" />
    <glyph glyph-name="ecircumflex" unicode="&#xea;" horiz-adv-x="1146" 
d="M684 586q55 0 74.5 26t19.5 88t-36.5 89.5t-144.5 27.5t-151 -46t-49 -185h287zM768 403h-365q14 -111 66.5 -148.5t194.5 -37.5t356 23l29 -189q-158 -76 -442 -76t-404.5 123t-120.5 413t117 408.5t383 118.5t378.5 -87t113.5 -247t-71.5 -230.5t-234.5 -70.5z
M301 1100l-84 119l275 270h219l270 -277l-84 -112l-289 194h-16z" />
    <glyph glyph-name="edieresis" unicode="&#xeb;" horiz-adv-x="1146" 
d="M684 586q55 0 74.5 26t19.5 88t-36.5 89.5t-144.5 27.5t-151 -46t-49 -185h287zM768 403h-365q14 -111 66.5 -148.5t194.5 -37.5t356 23l29 -189q-158 -76 -442 -76t-404.5 123t-120.5 413t117 408.5t383 118.5t378.5 -87t113.5 -247t-71.5 -230.5t-234.5 -70.5z
M834 1188h-99q-68 0 -67 67v119q0 68 67 68h99q68 0 67 -68v-119q1 -67 -67 -67zM463 1188h-101q-68 0 -67 67v119q0 68 67 68h101q66 0 65 -68v-119q1 -67 -65 -67z" />
    <glyph glyph-name="igrave" unicode="&#xec;" horiz-adv-x="569" 
d="M436 0h-303v1010h303v-1010zM432 1237l-88 -131l-461 225l137 209z" />
    <glyph glyph-name="iacute" unicode="&#xed;" horiz-adv-x="569" 
d="M436 0h-303v1010h303v-1010zM666 1331l-463 -225l-88 131l411 303z" />
    <glyph glyph-name="icircumflex" unicode="&#xee;" horiz-adv-x="569" 
d="M436 0h-303v1010h303v-1010zM668 1212l-84 -112l-289 194h-16l-293 -194l-84 119l274 270h219z" />
    <glyph glyph-name="idieresis" unicode="&#xef;" horiz-adv-x="569" 
d="M436 0h-303v1010h303v-1010zM422 1442h98q68 0 68 -68v-119q0 -68 -68 -67h-98q-68 0 -68 67v119q0 68 68 68zM47 1442h100q66 0 66 -68v-119q0 -68 -66 -67h-100q-66 0 -65 67v119q-1 68 65 68z" />
    <glyph glyph-name="eth" unicode="&#xf0;" horiz-adv-x="1173" 
d="M590 201q110 0 146 83t36 308l-2 86q-86 18 -188.5 18t-144.5 -55t-42 -194t42.5 -192.5t152.5 -53.5zM589 -27q-267 0 -388 113.5t-121 357.5t100.5 362t335.5 118q133 0 229 -43q-43 207 -162.5 283.5t-334.5 64.5l26 201q240 14 422 -70l172 170l170 -172l-147 -144
q197 -223 196 -626q0 -319 -115.5 -467t-382.5 -148z" />
    <glyph glyph-name="ntilde" unicode="&#xf1;" horiz-adv-x="1226" 
d="M825 1038q137 0 210 -71.5t73 -208.5v-758h-301v664q0 68 -21.5 93t-76.5 25q-96 0 -281 -92v-690h-303v1010h246l22 -150q219 178 432 178zM401 1178h-129q-23 143 29.5 218.5t132.5 69.5t182.5 -48t150.5 -50t63.5 12.5t15.5 75.5h129q23 -139 -26.5 -216t-134.5 -71
t-190.5 50.5t-149.5 50.5t-58.5 -14.5t-14.5 -77.5z" />
    <glyph glyph-name="ograve" unicode="&#xf2;" horiz-adv-x="1202" 
d="M601 811q-120 0 -161 -61.5t-41 -243.5t41 -243.5t160 -61.5t161 61.5t42 242.5t-41 243.5t-161 62.5zM601 1038q284 0 401.5 -121.5t117.5 -412.5t-117.5 -411t-401.5 -120t-401.5 120t-117.5 412t117.5 412.5t401.5 120.5zM750 1237l-91 -131l-460 225l139 209z" />
    <glyph glyph-name="oacute" unicode="&#xf3;" horiz-adv-x="1202" 
d="M601 811q-120 0 -161 -61.5t-41 -243.5t41 -243.5t160 -61.5t161 61.5t42 242.5t-41 243.5t-161 62.5zM601 1038q284 0 401.5 -121.5t117.5 -412.5t-117.5 -411t-401.5 -120t-401.5 120t-117.5 412t117.5 412.5t401.5 120.5zM981 1331l-461 -225l-88 131l412 303z" />
    <glyph glyph-name="ocircumflex" unicode="&#xf4;" horiz-adv-x="1202" 
d="M601 811q-120 0 -161 -61.5t-41 -243.5t41 -243.5t160 -61.5t161 61.5t42 242.5t-41 243.5t-161 62.5zM601 1038q284 0 401.5 -121.5t117.5 -412.5t-117.5 -411t-401.5 -120t-401.5 120t-117.5 412t117.5 412.5t401.5 120.5zM985 1212l-86 -112l-287 194h-16l-293 -194
l-84 119l275 270h219z" />
    <glyph glyph-name="otilde" unicode="&#xf5;" horiz-adv-x="1202" 
d="M601 811q-120 0 -161 -61.5t-41 -243.5t41 -243.5t160 -61.5t161 61.5t42 242.5t-41 243.5t-161 62.5zM601 1038q284 0 401.5 -121.5t117.5 -412.5t-117.5 -411t-401.5 -120t-401.5 120t-117.5 412t117.5 412.5t401.5 120.5zM377 1178h-131q-23 143 29.5 218.5
t132.5 69.5t182 -48t150 -50t63.5 12.5t15.5 75.5h129q23 -139 -25.5 -216t-133.5 -71t-192 50.5t-149 50.5t-56.5 -14.5t-14.5 -77.5z" />
    <glyph glyph-name="odieresis" unicode="&#xf6;" horiz-adv-x="1202" 
d="M601 811q-120 0 -161 -61.5t-41 -243.5t41 -243.5t160 -61.5t161 61.5t42 242.5t-41 243.5t-161 62.5zM601 1038q284 0 401.5 -121.5t117.5 -412.5t-117.5 -411t-401.5 -120t-401.5 120t-117.5 412t117.5 412.5t401.5 120.5zM737 1442h101q68 0 67 -68v-119
q0 -68 -67 -67h-101q-68 0 -67 67v119q-1 68 67 68zM365 1442h100q66 0 65 -68v-119q0 -68 -65 -67h-100q-66 0 -66 67v119q0 68 66 68z" />
    <glyph glyph-name="divide" unicode="&#xf7;" horiz-adv-x="1132" 
d="M526 360h74q63 0 87 -23.5t24 -86.5v-68q0 -63 -23.5 -86.5t-87.5 -23.5h-74q-61 0 -84.5 23.5t-23.5 86.5v68q0 63 23.5 86.5t84.5 23.5zM1036 494h-940v215h940v-215zM526 1126h74q63 0 87 -23.5t24 -86.5v-70q0 -61 -23.5 -84.5t-87.5 -23.5h-74q-61 0 -84.5 23.5
t-23.5 84.5v70q0 63 23.5 86.5t84.5 23.5z" />
    <glyph glyph-name="oslash" unicode="&#xf8;" horiz-adv-x="1202" 
d="M600 201q119 0 161 61.5t42 242.5t-41 243.5t-161 62.5t-161 -61.5t-41 -243.5t41 -243.5t160 -61.5zM1120 504q0 -291 -117.5 -411t-400.5 -120q-80 0 -131 9l-88 -185l-209 103l74 153q-166 113 -166 451q0 293 117.5 413.5t402.5 120.5q66 0 117 -6l92 191l209 -105
l-76 -153q176 -113 176 -461z" />
    <glyph glyph-name="ugrave" unicode="&#xf9;" 
d="M1083 1010v-1010h-239l-23 139q-209 -166 -418 -166q-285 0 -284 281v756h303v-664q-2 -66 23 -92.5t99 -26.5t238 84v699h301zM668 1122l-463 224l139 208l412 -303z" />
    <glyph glyph-name="uacute" unicode="&#xfa;" 
d="M1083 1010v-1010h-239l-23 139q-209 -166 -418 -166q-285 0 -284 281v756h303v-664q-2 -66 23 -92.5t99 -26.5t238 84v699h301zM526 1122l-88 129l412 303l137 -208z" />
    <glyph glyph-name="ucircumflex" unicode="&#xfb;" 
d="M1083 1010v-1010h-239l-23 139q-209 -166 -418 -166q-285 0 -284 281v756h303v-664q-2 -66 23 -92.5t99 -26.5t238 84v699h301zM309 1114l-84 119l275 270h219l272 -276l-86 -113l-287 195h-16z" />
    <glyph glyph-name="udieresis" unicode="&#xfc;" 
d="M1083 1010v-1010h-239l-23 139q-209 -166 -418 -166q-285 0 -284 281v756h303v-664q-2 -66 23 -92.5t99 -26.5t238 84v699h301zM844 1204h-101q-68 0 -67 68v117q0 68 67 67h101q68 0 67 -67v-117q1 -68 -67 -68zM471 1204h-100q-66 0 -66 68v117q0 68 66 67h100
q66 0 66 -67v-117q0 -68 -66 -68z" />
    <glyph glyph-name="yacute" unicode="&#xfd;" horiz-adv-x="1150" 
d="M442 0q-76 0 -98 74l-330 936h324l188 -654q18 -72 31 -151h27q22 90 41 151l186 654h324l-359 -1024q-61 -172 -191 -299t-366 -99l-24 179q123 33 192.5 85t108.5 140l4 8h-58zM500 1106l-88 131l411 303l138 -209z" />
    <glyph glyph-name="thorn" unicode="&#xfe;" horiz-adv-x="1216" 
d="M648 193q93 0 132 61.5t39 241.5t-38 242.5t-132 62.5t-221 -88v-471q127 -49 220 -49zM428 1434v-277q0 -113 -10 -246q139 123 341 123t286.5 -131t84.5 -417t-88 -399.5t-286 -113.5t-336 84q8 -88 8 -202v-244h-303v1823h303z" />
    <glyph glyph-name="ydieresis" unicode="&#xff;" horiz-adv-x="1150" 
d="M442 0q-76 0 -98 74l-330 936h324l188 -654q18 -72 31 -151h27q22 90 41 151l186 654h324l-359 -1024q-61 -172 -191 -299t-366 -99l-24 179q123 33 192.5 85t108.5 140l4 8h-58zM817 1188h-100q-68 0 -68 67v119q0 68 68 68h100q66 0 66 -68v-119q0 -67 -66 -67z
M444 1188h-100q-66 0 -65 67v119q0 68 65 68h100q66 0 66 -68v-119q0 -67 -66 -67z" />
    <glyph glyph-name="Amacron" unicode="&#x100;" horiz-adv-x="1331" 
d="M842 612l-119 432q-25 102 -29 134h-55q-13 -65 -31 -134l-119 -432h353zM518 1413h295q88 0 109 -82l407 -1331h-317l-103 371h-485l-102 -371h-320l408 1331q8 37 38.5 59.5t69.5 22.5zM975 1589h-613v197h613v-197z" />
    <glyph glyph-name="amacron" unicode="&#x101;" horiz-adv-x="1161" 
d="M373 346v-39q0 -104 121 -104t249 98v141h-272q-98 -2 -98 -96zM624 1038q230 0 326.5 -83t96.5 -287v-668h-240l-31 154q-152 -178 -373 -179q-145 0 -237 77t-92 214v103q0 121 82 188.5t227 67.5h360v45q-2 78 -35.5 104t-165.5 26t-390 -16l-29 205q271 49 501 49z
M887 1217h-613v194h613v-194z" />
    <glyph glyph-name="Abreve" unicode="&#x102;" horiz-adv-x="1331" 
d="M842 612l-119 432q-25 102 -29 134h-55q-13 -65 -31 -134l-119 -432h353zM518 1413h295q88 0 109 -82l407 -1331h-317l-103 371h-485l-102 -371h-320l408 1331q8 37 38.5 59.5t69.5 22.5zM666 1516q-164 0 -258.5 89t-77.5 220l143 20q1 -131 193 -131t192 131l146 -20
q16 -131 -79 -220t-259 -89z" />
    <glyph glyph-name="abreve" unicode="&#x103;" horiz-adv-x="1161" 
d="M373 346v-39q0 -104 121 -104t249 98v141h-272q-98 -2 -98 -96zM624 1038q230 0 326.5 -83t96.5 -287v-668h-240l-31 154q-152 -178 -373 -179q-145 0 -237 77t-92 214v103q0 121 82 188.5t227 67.5h360v45q-2 78 -35.5 104t-165.5 26t-390 -16l-29 205q271 49 501 49z
M578 1143q-164 0 -258.5 89t-77.5 220l143 21q1 -133 193 -133t192 133l143 -21q16 -131 -77.5 -220t-257.5 -89z" />
    <glyph glyph-name="Aogonek" unicode="&#x104;" horiz-adv-x="1331" 
d="M842 612l-119 432q-25 102 -29 134h-55q-13 -65 -31 -134l-119 -432h353zM518 1413h295q88 0 109 -82l407 -1331q-88 -122 -120 -194t8 -92t118 3l25 -112q-217 -74 -308 -14.5t-48 182.5q35 113 198 227h-190l-103 371h-485l-102 -371h-320l408 1331q8 37 38.5 59.5
t69.5 22.5z" />
    <glyph glyph-name="aogonek" unicode="&#x105;" horiz-adv-x="1161" 
d="M373 346v-39q0 -104 121 -104t249 98v141h-272q-98 -2 -98 -96zM74 266v103q0 121 82 188.5t227 67.5h360v45q-2 78 -35.5 104.5t-165.5 26.5t-390 -17l-29 205q271 49 501 49t326.5 -83t96.5 -287v-668q-184 -250 -128 -278t134 -5l24 -112q-217 -74 -308 -14.5
t-48 182.5q35 113 199 227h-113l-31 154q-152 -178 -373 -179q-145 0 -237 77t-92 214z" />
    <glyph glyph-name="Cacute" unicode="&#x106;" horiz-adv-x="1200" 
d="M96 706.5q0 403.5 133 567.5t461 164q238 0 424 -47l-27 -234q-166 10 -397 10q-154 0 -210 -97t-56 -363.5t56.5 -363.5t209.5 -97q285 0 426 18l27 -231q-184 -57 -453 -58q-328 0 -461 164t-133 567.5zM1053 1704l-461 -223l-88 129l411 305z" />
    <glyph glyph-name="cacute" unicode="&#x107;" horiz-adv-x="1038" 
d="M566 -25q-257 0 -370.5 120t-113.5 412t114.5 411.5t395.5 119.5q229 0 373 -63l-33 -189q-221 4 -289 5q-139 0 -191.5 -59.5t-52.5 -225.5t52.5 -225t210.5 -59t290 18l27 -197q-156 -68 -413 -68zM944 1331l-461 -225l-90 131l414 303z" />
    <glyph glyph-name="Cdotaccent" unicode="&#x10a;" horiz-adv-x="1200" 
d="M96 706.5q0 403.5 133 567.5t461 164q238 0 424 -47l-27 -234q-166 10 -397 10q-154 0 -210 -97t-56 -363.5t56.5 -363.5t209.5 -97q285 0 426 18l27 -231q-184 -57 -453 -58q-328 0 -461 164t-133 567.5zM629 1817h92q86 0 86 -84v-107q0 -84 -86 -84h-92q-86 0 -86 84
v107q0 84 86 84z" />
    <glyph glyph-name="cdotaccent" unicode="&#x10b;" horiz-adv-x="1038" 
d="M566 -25q-257 0 -370.5 120t-113.5 412t114.5 411.5t395.5 119.5q229 0 373 -63l-33 -189q-221 4 -289 5q-139 0 -191.5 -59.5t-52.5 -225.5t52.5 -225t210.5 -59t290 18l27 -197q-156 -68 -413 -68zM520 1442h92q86 0 86 -84v-107q0 -84 -86 -84h-92q-86 0 -86 84v107
q0 84 86 84z" />
    <glyph glyph-name="Ccaron" unicode="&#x10c;" horiz-adv-x="1200" 
d="M96 706.5q0 403.5 133 567.5t461 164q238 0 424 -47l-27 -234q-166 10 -397 10q-154 0 -210 -97t-56 -363.5t56.5 -363.5t209.5 -97q285 0 426 18l27 -231q-184 -57 -453 -58q-328 0 -461 164t-133 567.5zM1051 1782l-312 -269h-127l-311 269l84 119l283 -162h16l283 162
z" />
    <glyph glyph-name="ccaron" unicode="&#x10d;" horiz-adv-x="1038" 
d="M566 -25q-257 0 -370.5 120t-113.5 412t114.5 411.5t395.5 119.5q229 0 373 -63l-33 -189q-221 4 -289 5q-139 0 -191.5 -59.5t-52.5 -225.5t52.5 -225t210.5 -59t290 18l27 -197q-156 -68 -413 -68zM942 1409l-313 -268h-125l-311 268l81 119l285 -164h16l283 164z" />
    <glyph glyph-name="Dcaron" unicode="&#x10e;" horiz-adv-x="1392" 
d="M967 706.5q0 278.5 -58.5 380t-216.5 101.5l-237 -2v-957l237 -2q158 0 216.5 100.5t58.5 379zM1294 706.5q0 -413.5 -132 -569t-470 -155.5q-258 0 -549 18v1413q291 18 549 19q338 0 470 -156t132 -569.5zM610 1513l-311 269l84 119l283 -162h16l283 162l84 -119
l-312 -269h-127z" />
    <glyph glyph-name="dcaron" unicode="&#x10f;" horiz-adv-x="1216" 
d="M561 813q-90 0 -128 -57.5t-38 -235.5t37.5 -236.5t115.5 -58.5t123 17.5t117 64.5v467q-137 39 -227 39zM788 1434h304v-1434h-240l-25 147q-145 -172 -385 -172q-188 0 -273 136.5t-85 414.5t94 395t291 117t330 -90q-10 113 -11 211v275zM1425 1362v-96
q0 -152 -88 -273l-110 27q27 82 26 192q-74 0 -73 68l2 82q2 43 22.5 59.5t69.5 16.5h61q51 0 70.5 -16.5t19.5 -59.5z" />
    <glyph glyph-name="Dcroat" unicode="&#x110;" horiz-adv-x="1398" 
d="M973 708q0 278 -57.5 379t-215.5 101l-239 -2v-367h254v-157h-254v-433l239 -2q158 0 215.5 101.5t57.5 379.5zM150 819v594q291 18 550 19q336 0 468 -156t132 -569.5t-132 -569t-468 -155.5q-260 0 -550 18v662h-117v157h117z" />
    <glyph glyph-name="dcroat" unicode="&#x111;" 
d="M561 813q-90 0 -128 -57.5t-38 -235.5t37.5 -236.5t115.5 -58.5t123 17.5t117 64.5v467q-137 39 -227 39zM1217 1145h-125v-1145h-240l-25 147q-145 -172 -385 -172q-188 0 -273 136.5t-85 414.5t94 395t291 117t330 -90q-10 106 -11 197h-266v143h266v146h304v-146h125
v-143z" />
    <glyph glyph-name="Emacron" unicode="&#x112;" horiz-adv-x="1179" 
d="M442 -6q-141 0 -225 76.5t-86 208.5v856q2 131 86 207.5t225 76.5q463 0 656 -20l-15 -232h-542q-51 0 -74 -24.5t-23 -79.5v-215h564v-225h-564v-273q0 -57 22.5 -81.5t74.5 -24.5h542l15 -230q-193 -20 -656 -20zM952 1614h-612v194h612v-194z" />
    <glyph glyph-name="emacron" unicode="&#x113;" horiz-adv-x="1146" 
d="M684 586q55 0 74.5 26t19.5 88t-36.5 89.5t-144.5 27.5t-151 -46t-49 -185h287zM768 403h-365q14 -111 66.5 -148.5t194.5 -37.5t356 23l29 -189q-158 -76 -442 -76t-404.5 123t-120.5 413t117 408.5t383 118.5t378.5 -87t113.5 -247t-71.5 -230.5t-234.5 -70.5z
M907 1217h-612v194h612v-194z" />
    <glyph glyph-name="Edotaccent" unicode="&#x116;" horiz-adv-x="1179" 
d="M442 -6q-141 0 -225 76.5t-86 208.5v856q2 131 86 207.5t225 76.5q463 0 656 -20l-15 -232h-542q-51 0 -74 -24.5t-23 -79.5v-215h564v-225h-564v-273q0 -57 22.5 -81.5t74.5 -24.5h542l15 -230q-193 -20 -656 -20zM692 1565h-92q-86 0 -86 84v106q0 84 86 84h92
q86 0 86 -84v-106q0 -84 -86 -84z" />
    <glyph glyph-name="edotaccent" unicode="&#x117;" horiz-adv-x="1146" 
d="M684 586q55 0 74.5 26t19.5 88t-36.5 89.5t-144.5 27.5t-151 -46t-49 -185h287zM768 403h-365q14 -111 66.5 -148.5t194.5 -37.5t356 23l29 -189q-158 -76 -442 -76t-404.5 123t-120.5 413t117 408.5t383 118.5t378.5 -87t113.5 -247t-71.5 -230.5t-234.5 -70.5z
M647 1167h-92q-86 0 -86 84v107q0 84 86 84h92q86 0 86 -84v-107q0 -84 -86 -84z" />
    <glyph glyph-name="Eogonek" unicode="&#x118;" horiz-adv-x="1179" 
d="M442 -6q-141 0 -225 76.5t-86 208.5v856q2 131 86 207.5t225 76.5q463 0 656 -20l-15 -232h-542q-51 0 -74 -24.5t-23 -79.5v-215h564v-225h-564v-273q0 -57 22.5 -81.5t74.5 -24.5h542l15 -230q-88 -123 -120 -194t8 -91t118 3l24 -111q-150 -57 -235.5 -40.5
t-116.5 73.5t-4 133q35 111 182 217q-162 -10 -512 -10z" />
    <glyph glyph-name="eogonek" unicode="&#x119;" horiz-adv-x="1146" 
d="M684 586q55 0 74.5 26t19.5 88t-36.5 89.5t-144.5 27.5t-151 -46t-49 -185h287zM82 511q0 290 117 408.5t383 118.5t378.5 -87t113.5 -247t-71.5 -230.5t-234.5 -70.5h-365q14 -111 66.5 -148.5t194.5 -37.5t356 23l29 -189q-90 -127 -121 -197t8 -89t117 4l26 -113
q-150 -55 -236.5 -39t-117.5 73.5t-3 137.5t124 166q-102 -18 -238 -19q-285 0 -405.5 123t-120.5 413z" />
    <glyph glyph-name="Ecaron" unicode="&#x11a;" horiz-adv-x="1179" 
d="M442 -6q-141 0 -225 76.5t-86 208.5v856q2 131 86 207.5t225 76.5q463 0 656 -20l-15 -232h-542q-51 0 -74 -24.5t-23 -79.5v-215h564v-225h-564v-273q0 -57 22.5 -81.5t74.5 -24.5h542l15 -230q-193 -20 -656 -20zM584 1538l-312 268l82 119l285 -164h16l283 164
l84 -119l-313 -268h-125z" />
    <glyph glyph-name="ecaron" unicode="&#x11b;" horiz-adv-x="1146" 
d="M684 586q55 0 74.5 26t19.5 88t-36.5 89.5t-144.5 27.5t-151 -46t-49 -185h287zM768 403h-365q14 -111 66.5 -148.5t194.5 -37.5t356 23l29 -189q-158 -76 -442 -76t-404.5 123t-120.5 413t117 408.5t383 118.5t378.5 -87t113.5 -247t-71.5 -230.5t-234.5 -70.5z
M539 1141l-312 268l82 119l285 -164h16l283 164l84 -119l-313 -268h-125z" />
    <glyph glyph-name="Gbreve" unicode="&#x11e;" horiz-adv-x="1320" 
d="M1212 815v-815h-229l-29 141q-164 -168 -404 -168t-347 174.5t-107 576.5t140.5 559t492.5 157q256 0 434 -49l-24 -230q-231 10 -363 10t-185.5 -15t-94.5 -66.5t-55.5 -142.5t-14.5 -247q0 -264 49 -362t177 -98t259 71v504h301zM692 1516q-166 0 -260 89t-78 220
l146 20q-4 -131 190 -131q193 0 193 131l145 -20q16 -131 -77 -220t-259 -89z" />
    <glyph glyph-name="gbreve" unicode="&#x11f;" horiz-adv-x="1185" 
d="M577.5 -166q149.5 0 197.5 22t48 82t-31 74.5t-135 26.5l-254 27q-65 -53 -65 -122t45 -89.5t194.5 -20.5zM566 584q112 0 154 28.5t42 103.5t-41 101.5t-153.5 26.5t-154.5 -26.5t-42 -101.5t41.5 -103.5t153.5 -28.5zM567 391q-88 0 -174 10q-25 -33 -9.5 -73.5
t69.5 -46.5l366 -43q156 -18 224.5 -90t68.5 -211q0 -193 -115.5 -260.5t-420.5 -67.5t-416 64.5t-111 236.5q0 78 36 128t124 91q-70 68 -56.5 167t89.5 144q-150 70 -150 260t106.5 264t370.5 74q160 0 265 -28h325l-14 -133l-127 -17q25 -57 24 -145q0 -176 -105.5 -250
t-369.5 -74zM573.5 1143q-165.5 0 -259 89t-76.5 220l143 21q1 -133 193 -133t192 133l143 -21q16 -131 -77 -220t-258.5 -89z" />
    <glyph glyph-name="Gdotaccent" unicode="&#x120;" horiz-adv-x="1320" 
d="M1212 815v-815h-229l-29 141q-164 -168 -404 -168t-347 174.5t-107 576.5t140.5 559t492.5 157q256 0 434 -49l-24 -230q-231 10 -363 10t-185.5 -15t-94.5 -66.5t-55.5 -142.5t-14.5 -247q0 -264 49 -362t177 -98t259 71v504h301zM739 1542h-92q-86 0 -86 84v107
q0 84 86 84h92q86 0 86 -84v-107q0 -84 -86 -84z" />
    <glyph glyph-name="gdotaccent" unicode="&#x121;" horiz-adv-x="1185" 
d="M577.5 -166q149.5 0 197.5 22t48 82t-31 74.5t-135 26.5l-254 27q-65 -53 -65 -122t45 -89.5t194.5 -20.5zM566 584q112 0 154 28.5t42 103.5t-41 101.5t-153.5 26.5t-154.5 -26.5t-42 -101.5t41.5 -103.5t153.5 -28.5zM567 391q-88 0 -174 10q-25 -33 -9.5 -73.5
t69.5 -46.5l366 -43q156 -18 224.5 -90t68.5 -211q0 -193 -115.5 -260.5t-420.5 -67.5t-416 64.5t-111 236.5q0 78 36 128t124 91q-70 68 -56.5 167t89.5 144q-150 70 -150 260t106.5 264t370.5 74q160 0 265 -28h325l-14 -133l-127 -17q25 -57 24 -145q0 -176 -105.5 -250
t-369.5 -74zM621 1167h-93q-86 0 -86 84v107q0 84 86 84h93q86 0 86 -84v-107q0 -84 -86 -84z" />
    <glyph glyph-name="Gcommaaccent" unicode="&#x122;" horiz-adv-x="1320" 
d="M655 -106h66q53 0 73.5 -19.5t20.5 -67.5v-106q0 -166 -94 -299l-115 29q27 92 27 213q-78 0 -78 75l2 88q2 47 23.5 67t74.5 20zM1212 815v-815h-229l-29 141q-164 -168 -404 -168t-347 174.5t-107 576.5t140.5 559t492.5 157q256 0 434 -49l-24 -230q-231 10 -363 10
t-185.5 -15t-94.5 -66.5t-55.5 -142.5t-14.5 -247q0 -264 49 -362t177 -98t259 71v504h301z" />
    <glyph glyph-name="gcommaaccent" unicode="&#x123;" horiz-adv-x="1185" 
d="M577.5 -166q149.5 0 197.5 22t48 82t-31 74.5t-135 26.5l-254 27q-65 -53 -65 -122t45 -89.5t194.5 -20.5zM566 584q112 0 154 28.5t42 103.5t-41 101.5t-153.5 26.5t-154.5 -26.5t-42 -101.5t41.5 -103.5t153.5 -28.5zM567 391q-88 0 -174 10q-25 -33 -9.5 -73.5
t69.5 -46.5l366 -43q156 -18 224.5 -90t68.5 -211q0 -193 -115.5 -260.5t-420.5 -67.5t-416 64.5t-111 236.5q0 78 36 128t124 91q-70 68 -56.5 167t89.5 144q-150 70 -150 260t106.5 264t370.5 74q160 0 265 -28h325l-14 -133l-127 -17q25 -57 24 -145q0 -176 -105.5 -250
t-369.5 -74zM633 1128h-64q-53 0 -74.5 18.5t-21.5 67.5v105q0 164 94 301l115 -31q-27 -100 -27 -211q78 0 78 -75l-2 -89q-2 -49 -23.5 -67.5t-74.5 -18.5z" />
    <glyph glyph-name="Hbar" unicode="&#x126;" horiz-adv-x="1419" 
d="M958 1051h-497v-179h497v179zM1395 1051h-123v-1051h-314v631h-497v-631h-311v1051h-123v147h123v215h311v-215h497v215h314v-215h123v-147z" />
    <glyph glyph-name="hbar" unicode="&#x127;" horiz-adv-x="1234" 
d="M436 1145v-62q0 -121 -18 -211q213 166 413 166q139 0 212 -71.5t73 -208.5v-758h-303v664q0 68 -20.5 93t-75.5 25q-106 0 -283 -92v-690h-303v1145h-133v143h133v146h305v-146h256v-143h-256z" />
    <glyph glyph-name="Imacron" unicode="&#x12a;" horiz-adv-x="598" 
d="M455 0h-312v1413h312v-1413zM606 1589h-612v197h612v-197z" />
    <glyph glyph-name="imacron" unicode="&#x12b;" horiz-adv-x="569" 
d="M436 0h-303v1010h303v-1010zM594 1217h-614v194h614v-194z" />
    <glyph glyph-name="Iogonek" unicode="&#x12e;" horiz-adv-x="598" 
d="M455 0h-39q-184 -250 -129 -277.5t133 -5.5l26 -112q-150 -55 -236.5 -39t-117.5 73.5t-4 133.5q41 117 201 227h-146v1413h312v-1413z" />
    <glyph glyph-name="iogonek" unicode="&#x12f;" horiz-adv-x="569" 
d="M133 0v1010h303v-1010h-26q-184 -250 -129 -278t133 -5l26 -112q-150 -55 -236.5 -39t-117.5 73.5t-4 133.5q41 117 201 227h-150zM332 1167h-92q-86 0 -86 84v107q0 84 86 84h92q86 0 86 -84v-107q0 -84 -86 -84z" />
    <glyph glyph-name="Idotaccent" unicode="&#x130;" horiz-adv-x="598" 
d="M455 0h-312v1413h312v-1413zM254 1817h92q86 0 86 -84v-107q0 -84 -86 -84h-92q-86 0 -86 84v107q0 84 86 84z" />
    <glyph glyph-name="dotlessi" unicode="&#x131;" horiz-adv-x="569" 
d="M436 0h-303v1010h303v-1010z" />
    <glyph glyph-name="IJ" unicode="&#x132;" horiz-adv-x="1351" 
d="M1214 1413v-1116q0 -154 -82.5 -238t-243.5 -84t-249 41l33 209h96q137 0 137 109v1079h309zM455 0h-312v1413h312v-1413z" />
    <glyph glyph-name="ij" unicode="&#x133;" horiz-adv-x="1134" 
d="M1001 1010v-963q0 -141 -69.5 -263t-188.5 -187l-168 133q125 141 125 317v963h301zM434 0h-301v1010h301v-1010zM215 1456h135q88 0 88 -88v-111q0 -88 -88 -88h-135q-88 0 -88 88v111q0 88 88 88zM782 1464h136q86 0 86 -88v-110q0 -88 -86 -88h-136q-88 0 -88 88v110
q0 88 88 88z" />
    <glyph glyph-name="Kcommaaccent" unicode="&#x136;" horiz-adv-x="1292" 
d="M643 -106h66q53 0 73.5 -19.5t22.5 -67.5v-106q-2 -166 -96 -299l-115 29q25 88 29 213q-76 0 -80 75l2 88q4 47 25.5 67t72.5 20zM455 0h-312v1413h312v-399q0 -90 -15 -168h121l359 567h337l-364 -563q-35 -61 -102 -113v-8q74 -51 118 -125l373 -604h-348l-373 623
h-121q14 -82 15 -136v-487z" />
    <glyph glyph-name="kcommaaccent" unicode="&#x137;" horiz-adv-x="1140" 
d="M565 -98h66q53 0 73.5 -19.5t20.5 -66.5v-107q0 -166 -94 -299l-115 29q27 94 27 213q-78 0 -78 74l2 90q2 47 23.5 66.5t74.5 19.5zM428 317v-317h-303v1434h303v-592q0 -100 -14 -185h94l250 353h340l-262 -351q-33 -55 -95 -96v-4q51 -35 95 -108l297 -451h-340
l-283 469h-96q14 -92 14 -152z" />
    <glyph glyph-name="Lacute" unicode="&#x139;" horiz-adv-x="1089" 
d="M451 1413v-1055q0 -55 25.5 -79.5t84.5 -24.5h486l14 -238q-207 -23 -598 -22q-164 0 -244 82t-80 219v1118h312zM682 1704l-463 -223l-88 129l412 305z" />
    <glyph glyph-name="lacute" unicode="&#x13a;" horiz-adv-x="669" 
d="M428 1434v-1104q0 -102 115 -103h82l34 -211q-78 -41 -227 -41t-227 73t-78 206v1180h301zM666 1735l-461 -224l-90 129l411 304z" />
    <glyph glyph-name="Lcommaaccent" unicode="&#x13b;" horiz-adv-x="1089" 
d="M571 -106h64q53 0 74.5 -19.5t21.5 -67.5v-106q-2 -166 -96 -299l-115 29q29 100 29 213q-78 0 -78 75l2 88q2 47 23.5 67t74.5 20zM451 1413v-1055q0 -55 25.5 -79.5t84.5 -24.5h486l14 -238q-207 -23 -598 -22q-164 0 -244 82t-80 219v1118h312z" />
    <glyph glyph-name="lcommaaccent" unicode="&#x13c;" horiz-adv-x="669" 
d="M340 -106h66q51 0 72.5 -19.5t21.5 -67.5v-106q0 -162 -94 -299l-115 29q27 104 26 213q-78 0 -77 75l2 88q2 47 23.5 67t74.5 20zM428 1434v-1104q0 -102 115 -103h82l34 -211q-78 -41 -227 -41t-227 73t-78 206v1180h301z" />
    <glyph glyph-name="Lcaron" unicode="&#x13d;" horiz-adv-x="1089" 
d="M451 1413v-1055q0 -55 25.5 -79.5t84.5 -24.5h486l14 -238q-207 -23 -598 -22q-164 0 -244 82t-80 219v1118h312zM727 1415h66q53 0 73.5 -18.5t22.5 -65.5v-106q-2 -166 -96 -301l-115 30q27 90 27 213q-74 0 -78 74l2 90q2 47 23.5 65.5t74.5 18.5z" />
    <glyph glyph-name="lcaron" unicode="&#x13e;" horiz-adv-x="669" 
d="M428 1434v-1104q0 -102 115 -103h82l34 -211q-78 -41 -227 -41t-227 73t-78 206v1180h301zM610 1438h62q51 0 70.5 -16.5t19.5 -59.5v-96q0 -150 -90 -273l-109 27q23 80 27 192q-72 0 -76 68l2 82q4 43 23.5 59.5t70.5 16.5z" />
    <glyph glyph-name="Ldot" unicode="&#x13f;" horiz-adv-x="1089" 
d="M891 700h-94q-86 0 -86 84v107q0 84 86 84h94q86 0 86 -84v-107q0 -84 -86 -84zM451 1413v-1055q0 -55 25.5 -79.5t84.5 -24.5h486l14 -238q-207 -23 -598 -22q-164 0 -244 82t-80 219v1118h312z" />
    <glyph glyph-name="ldot" unicode="&#x140;" horiz-adv-x="794" 
d="M719 662h-94q-86 0 -86 83v107q0 84 86 84h94q84 0 84 -84v-107q0 -83 -84 -83zM428 1434v-1104q0 -102 115 -103h82l34 -211q-78 -41 -227 -41t-227 73t-78 206v1180h301z" />
    <glyph glyph-name="Lslash" unicode="&#x141;" horiz-adv-x="1097" 
d="M147 295v342l-118 -49v168l118 47v610h312v-485l223 88v-168l-223 -88v-402q0 -55 25.5 -79.5t84.5 -24.5h486l14 -238q-207 -23 -598 -22q-164 0 -244 82t-80 219z" />
    <glyph glyph-name="lslash" unicode="&#x142;" horiz-adv-x="733" 
d="M482 -25q-150 0 -228 73t-78 206v379l-151 -62v168l151 62v633h301v-512l197 77v-168l-197 -77v-424q0 -102 115 -103h82l35 -211q-77 -41 -227 -41z" />
    <glyph glyph-name="Nacute" unicode="&#x143;" horiz-adv-x="1478" 
d="M1335 1413v-1300q0 -113 -110 -113h-195q-47 0 -73.5 21.5t-51.5 70.5l-370 754q-70 150 -86 219h-23q14 -102 14 -225v-840h-297v1300q0 113 113 113h190q47 0 74 -21.5t51 -70.5l359 -731q51 -102 102 -228h21q-12 160 -13 238v813h295zM1133 1704l-461 -223l-90 129
l411 305z" />
    <glyph glyph-name="nacute" unicode="&#x144;" horiz-adv-x="1226" 
d="M825 1038q137 0 210 -71.5t73 -208.5v-758h-301v664q0 68 -21.5 93t-76.5 25q-96 0 -281 -92v-690h-303v1010h246l22 -150q219 178 432 178zM547 1106l-90 131l413 303l138 -209z" />
    <glyph glyph-name="Ncommaaccent" unicode="&#x145;" horiz-adv-x="1478" 
d="M700 -106h64q53 0 74.5 -19.5t21.5 -67.5v-106q-2 -166 -96 -299l-113 29q27 104 27 213q-78 0 -78 75l2 88q2 47 23.5 67t74.5 20zM1335 1413v-1300q0 -113 -110 -113h-195q-47 0 -73.5 21.5t-51.5 70.5l-370 754q-70 150 -86 219h-23q14 -102 14 -225v-840h-297v1300
q0 113 113 113h190q47 0 74 -21.5t51 -70.5l359 -731q51 -102 102 -228h21q-12 160 -13 238v813h295z" />
    <glyph glyph-name="ncommaaccent" unicode="&#x146;" horiz-adv-x="1226" 
d="M571 -98h64q53 0 74.5 -19.5t21.5 -66.5v-107q-2 -166 -94 -299l-115 29q27 104 27 213q-78 0 -78 74l2 90q2 47 23.5 66.5t74.5 19.5zM825 1038q137 0 210 -71.5t73 -208.5v-758h-301v664q0 68 -21.5 93t-76.5 25q-96 0 -281 -92v-690h-303v1010h246l22 -150
q219 178 432 178z" />
    <glyph glyph-name="Ncaron" unicode="&#x147;" horiz-adv-x="1478" 
d="M1335 1413v-1300q0 -113 -110 -113h-195q-47 0 -73.5 21.5t-51.5 70.5l-370 754q-70 150 -86 219h-23q14 -102 14 -225v-840h-297v1300q0 113 113 113h190q47 0 74 -21.5t51 -70.5l359 -731q51 -102 102 -228h21q-12 160 -13 238v813h295zM1130 1782l-313 -269h-125
l-313 269l84 119l282 -162h17l282 162z" />
    <glyph glyph-name="ncaron" unicode="&#x148;" horiz-adv-x="1226" 
d="M825 1038q137 0 210 -71.5t73 -208.5v-758h-301v664q0 68 -21.5 93t-76.5 25q-96 0 -281 -92v-690h-303v1010h246l22 -150q219 178 432 178zM567 1141l-311 268l84 119l283 -164h16l283 164l84 -119l-314 -268h-125z" />
    <glyph glyph-name="Eng" unicode="&#x14a;" horiz-adv-x="1478" 
d="M1335 1413v-1528q0 -150 -78.5 -233.5t-214.5 -82.5t-233 40l33 196h86q129 0 129 105v98h-49q-31 0 -74 80l-399 733q-39 72 -91 219h-18q14 -102 14 -219v-821h-297v1300q0 113 113 113h162q47 0 73.5 -20.5t55.5 -71.5l381 -707q45 -82 102 -227h21q-12 117 -13 231
v795h297z" />
    <glyph glyph-name="eng" unicode="&#x14b;" horiz-adv-x="1226" 
d="M823 1038q285 0 285 -280v-852q0 -152 -73.5 -234t-221.5 -82t-233 39l32 197h80q115 0 115 106v732q0 61 -22.5 84.5t-79.5 23.5q-98 0 -277 -84v-688h-303v1010h235l27 -154q219 182 436 182z" />
    <glyph glyph-name="Omacron" unicode="&#x14c;" horiz-adv-x="1400" 
d="M700.5 1188q-159.5 0 -218 -100.5t-58.5 -381t58.5 -381t218 -100.5t218 100.5t58.5 381t-58.5 381t-218 100.5zM700 1440q340 0 473.5 -157t133.5 -576.5t-133.5 -576.5t-473.5 -157t-472 157t-132 576.5t132 576.5t472 157zM1006 1589h-613v197h613v-197z" />
    <glyph glyph-name="omacron" unicode="&#x14d;" horiz-adv-x="1202" 
d="M601 811q-120 0 -161 -61.5t-41 -243.5t41 -243.5t160 -61.5t161 61.5t42 242.5t-41 243.5t-161 62.5zM601 1038q284 0 401.5 -121.5t117.5 -412.5t-117.5 -411t-401.5 -120t-401.5 120t-117.5 412t117.5 412.5t401.5 120.5zM909 1217h-612v194h612v-194z" />
    <glyph glyph-name="Ohungarumlaut" unicode="&#x150;" horiz-adv-x="1400" 
d="M700.5 1188q-159.5 0 -218 -100.5t-58.5 -381t58.5 -381t218 -100.5t218 100.5t58.5 381t-58.5 381t-218 100.5zM700 1440q340 0 473.5 -157t133.5 -576.5t-133.5 -576.5t-473.5 -157t-472 157t-132 576.5t132 576.5t472 157zM791 1804l-312 -342l-123 99l236 378z
M1180 1804l-314 -342l-121 97l234 380z" />
    <glyph glyph-name="ohungarumlaut" unicode="&#x151;" horiz-adv-x="1202" 
d="M601 811q-120 0 -161 -61.5t-41 -243.5t41 -243.5t160 -61.5t161 61.5t42 242.5t-41 243.5t-161 62.5zM601 1038q284 0 401.5 -121.5t117.5 -412.5t-117.5 -411t-401.5 -120t-401.5 120t-117.5 412t117.5 412.5t401.5 120.5zM694 1432l-311 -342l-123 96l236 379z
M1083 1432l-313 -342l-121 96l234 379z" />
    <glyph glyph-name="OE" unicode="&#x152;" horiz-adv-x="1935" 
d="M911 295v823q0 33 2 49q-91 21 -233 21t-198 -99t-56 -381t56.5 -382.5t200.5 -100.5t230 23q-2 16 -2 47zM1192 -6q-86 0 -158 45q-139 -66 -352 -66t-340 65.5t-186.5 223.5t-59.5 444.5t59.5 444.5t186.5 223.5t340 65.5t373 -60q68 39 149 39q461 0 649 -20l-14 -232
h-506q-57 0 -82.5 -24.5t-25.5 -79.5v-217h540v-221h-540v-275q0 -57 25.5 -81.5t82.5 -24.5h506l14 -230q-193 -20 -661 -20z" />
    <glyph glyph-name="oe" unicode="&#x153;" horiz-adv-x="1853" 
d="M595 201q114 0 157 51t47 197v114q-4 145 -47 196.5t-157 51.5t-155 -61.5t-41 -243.5t41 -243.5t155 -61.5zM1376 586q66 0 88.5 25t19.5 89t-44.5 89.5t-143.5 26.5t-143 -46t-47 -184h270zM1430 410h-320q14 -117 66 -156t198 -39t350 25l29 -191q-158 -76 -417 -76
t-380 90q-117 -90 -379 -90t-378.5 120t-116.5 412t116 412.5t376 120.5t378 -86q115 84 342 84q485 0 486 -336q0 -164 -77.5 -227t-272.5 -63z" />
    <glyph glyph-name="Racute" unicode="&#x154;" horiz-adv-x="1316" 
d="M451 793h225q123 0 168 42t45 158.5t-44 157.5t-169 41l-225 -2v-397zM451 0h-308v1413q190 19 507 19t435.5 -90.5t118.5 -327.5q0 -156 -62.5 -244t-207.5 -106v-11q162 -37 201 -213l122 -440h-329l-107 432q-20 68 -54 93.5t-97 25.5l-219 2v-553zM567 1481l-90 129
l414 305l137 -211z" />
    <glyph glyph-name="racute" unicode="&#x155;" horiz-adv-x="870" 
d="M797 1038h53l-31 -280h-82q-100 0 -309 -70v-688h-303v1010h235l27 -148q207 176 410 176zM403 1106l-88 131l412 303l137 -209z" />
    <glyph glyph-name="Rcommaaccent" unicode="&#x156;" horiz-adv-x="1316" 
d="M655 -106h66q53 0 73.5 -19.5t20.5 -67.5v-106q0 -166 -94 -299l-115 29q27 92 27 213q-78 0 -78 75l2 88q4 47 25.5 67t72.5 20zM451 793h225q123 0 168 42t45 158.5t-44 157.5t-169 41l-225 -2v-397zM451 0h-308v1413q190 19 507 19t435.5 -90.5t118.5 -327.5
q0 -156 -62.5 -244t-207.5 -106v-11q162 -37 201 -213l122 -440h-329l-107 432q-20 68 -54 93.5t-97 25.5l-219 2v-553z" />
    <glyph glyph-name="rcommaaccent" unicode="&#x157;" horiz-adv-x="870" 
d="M223 -98h66q53 0 73.5 -19.5t20.5 -66.5v-107q0 -166 -94 -299l-115 29q27 92 27 213q-78 0 -78 74l2 90q4 47 25.5 66.5t72.5 19.5zM737 758q-100 0 -309 -70v-688h-303v1010h235l27 -148q207 176 410 176h53l-31 -280h-82z" />
    <glyph glyph-name="Rcaron" unicode="&#x158;" horiz-adv-x="1316" 
d="M451 793h225q123 0 168 42t45 158.5t-44 157.5t-169 41l-225 -2v-397zM451 0h-308v1413q190 19 507 19t435.5 -90.5t118.5 -327.5q0 -156 -62.5 -244t-207.5 -106v-11q162 -37 201 -213l122 -440h-329l-107 432q-20 68 -54 93.5t-97 25.5l-219 2v-553zM588 1513l-312 269
l82 119l285 -162h16l283 162l84 -119l-313 -269h-125z" />
    <glyph glyph-name="rcaron" unicode="&#x159;" horiz-adv-x="870" 
d="M797 1038h53l-31 -280h-82q-100 0 -309 -70v-688h-303v1010h235l27 -148q207 176 410 176zM424 1141l-311 268l84 119l282 -164h17l282 164l84 -119l-311 -268h-127z" />
    <glyph glyph-name="Sacute" unicode="&#x15a;" horiz-adv-x="1191" 
d="M88 1049q0 233 114 312t392 79t473 -56l-20 -213q-178 6 -443 7q-123 0 -164 -21.5t-41 -99.5t31 -108.5t117 -59.5l268 -92q164 -57 231.5 -156.5t67.5 -259.5q0 -238 -114 -323t-382 -85t-514 54l19 225q436 -10 467 -10q125 0 167 26.5t42 104.5t-28.5 107.5
t-104.5 54.5l-285 100q-158 57 -225.5 155.5t-67.5 258.5zM977 1704l-461 -223l-90 129l414 305z" />
    <glyph glyph-name="sacute" unicode="&#x15b;" horiz-adv-x="1079" 
d="M76 766q0 142 97 207t351 63t449 -37l-21 -194q-258 4 -360 4t-129 -1t-54.5 -7t-33.5 -19.5t-6 -31.5t1 -26.5t5 -16t7 -11.5t11 -9t13.5 -7t18.5 -7t20.5 -7t27 -7.5t29.5 -7.5l258 -69q135 -39 192.5 -103.5t57.5 -191.5q0 -180 -104.5 -245t-354.5 -65t-457 35
l19 197q74 -4 291 -4t265 13t48 54t-9.5 49.5t-18.5 13.5t-18 10.5t-47 15t-51 14.5l-251 67q-139 41 -192.5 111.5t-53.5 212.5zM928 1331l-461 -225l-90 131l414 303z" />
    <glyph glyph-name="Scedilla" unicode="&#x15e;" horiz-adv-x="1191" 
d="M455 -240l28 121q170 16 234.5 -7.5t62.5 -125.5q-6 -152 -121.5 -226.5t-287.5 -49.5l39 131q168 0 176 118q2 27 -21.5 33t-109.5 6zM88 1049q0 233 114 312t392 79t473 -56l-20 -213q-178 6 -443 7q-123 0 -164 -21.5t-41 -99.5t31 -108.5t117 -59.5l268 -92
q164 -57 231.5 -156.5t67.5 -259.5q0 -238 -114 -323t-382 -85t-514 54l19 225q436 -10 467 -10q125 0 167 26.5t42 104.5t-28.5 107.5t-104.5 54.5l-285 100q-158 57 -225.5 155.5t-67.5 258.5z" />
    <glyph glyph-name="scedilla" unicode="&#x15f;" horiz-adv-x="1079" 
d="M379 -223l29 119q168 18 233.5 -6.5t60.5 -127.5q-6 -150 -121.5 -224.5t-287.5 -51.5l39 133q76 -2 124 27.5t52 91.5q2 27 -21.5 33t-107.5 6zM76 766q0 142 97 207t351 63t449 -37l-21 -194q-258 4 -360 4t-129 -1t-54.5 -7t-33.5 -19.5t-6 -31.5t1 -26.5t5 -16
t7 -11.5t11 -9t13.5 -7t18.5 -7t20.5 -7t27 -7.5t29.5 -7.5l258 -69q135 -39 192.5 -103.5t57.5 -191.5q0 -180 -104.5 -245t-354.5 -65t-457 35l19 197q74 -4 291 -4t265 13t48 54t-9.5 49.5t-18.5 13.5t-18 10.5t-47 15t-51 14.5l-251 67q-139 41 -192.5 111.5
t-53.5 212.5z" />
    <glyph glyph-name="Scaron" unicode="&#x160;" horiz-adv-x="1191" 
d="M88 1049q0 233 114 312t392 79t473 -56l-20 -213q-178 6 -443 7q-123 0 -164 -21.5t-41 -99.5t31 -108.5t117 -59.5l268 -92q164 -57 231.5 -156.5t67.5 -259.5q0 -238 -114 -323t-382 -85t-514 54l19 225q436 -10 467 -10q125 0 167 26.5t42 104.5t-28.5 107.5
t-104.5 54.5l-285 100q-158 57 -225.5 155.5t-67.5 258.5zM975 1782l-313 -269h-125l-312 269l82 119l285 -162h16l283 162z" />
    <glyph glyph-name="scaron" unicode="&#x161;" horiz-adv-x="1079" 
d="M76 766q0 142 97 207t351 63t449 -37l-21 -194q-258 4 -360 4t-129 -1t-54.5 -7t-33.5 -19.5t-6 -31.5t1 -26.5t5 -16t7 -11.5t11 -9t13.5 -7t18.5 -7t20.5 -7t27 -7.5t29.5 -7.5l258 -69q135 -39 192.5 -103.5t57.5 -191.5q0 -180 -104.5 -245t-354.5 -65t-457 35
l19 197q74 -4 291 -4t265 13t48 54t-9.5 49.5t-18.5 13.5t-18 10.5t-47 15t-51 14.5l-251 67q-139 41 -192.5 111.5t-53.5 212.5zM926 1409l-314 -268h-125l-311 268l84 119l283 -164h16l283 164z" />
    <glyph glyph-name="Tcedilla" unicode="&#x162;" horiz-adv-x="1230" 
d="M461 -213l28 119q168 18 233.5 -6.5t61.5 -126.5q-6 -150 -121.5 -224.5t-287.5 -50.5l39 131q76 -2 124 28t52 91q2 27 -21.5 33t-107.5 6zM1194 1413v-254h-422v-1159h-313v1159h-422v254h1157z" />
    <glyph glyph-name="tcedilla" unicode="&#x163;" horiz-adv-x="841" 
d="M324 -225l28 121q168 18 233.5 -6.5t61.5 -127.5q-4 -152 -119.5 -226.5t-289.5 -49.5l38 131q168 0 177 119q2 25 -21.5 32t-107.5 7zM518 807v-477q0 -57 24.5 -80t86.5 -23h129l33 -211q-117 -41 -269 -41t-228.5 77t-76.5 214v541h-178v192l178 11v282h301v-282h281
v-203h-281z" />
    <glyph glyph-name="Tcaron" unicode="&#x164;" horiz-adv-x="1230" 
d="M1194 1159h-422v-1159h-313v1159h-422v254h1157v-254zM553 1513l-311 269l82 119l284 -162h17l282 162l84 -119l-313 -269h-125z" />
    <glyph glyph-name="tcaron" unicode="&#x165;" horiz-adv-x="841" 
d="M518 1010h281v-203h-281v-477q0 -57 24.5 -80t86.5 -23h129l33 -211q-117 -41 -269 -41t-228.5 77t-76.5 214v541h-178v192l178 11v282h301v-282zM682 1624h66q51 0 72.5 -19.5t21.5 -66.5v-106q0 -162 -94 -299l-115 28q27 104 26 213q-78 0 -77 76l2 88q2 47 23.5 66.5
t74.5 19.5z" />
    <glyph glyph-name="Tbar" unicode="&#x166;" horiz-adv-x="1234" 
d="M774 1159v-315h260v-150h-260v-694h-313v694h-264v150h264v315h-422v254h1157v-254h-422z" />
    <glyph glyph-name="tbar" unicode="&#x167;" horiz-adv-x="841" 
d="M518 807v-150h217v-147h-217v-180q0 -57 24.5 -80t86.5 -23h129l33 -211q-117 -41 -269 -41t-228.5 77t-76.5 214v244h-123v147h123v150h-178v192l178 11v282h301v-282h281v-203h-281z" />
    <glyph glyph-name="Umacron" unicode="&#x16a;" horiz-adv-x="1394" 
d="M1264 1413v-850q0 -324 -124 -457t-435 -133t-441.5 133.5t-130.5 456.5v850h311v-850q0 -195 54.5 -266.5t198.5 -71.5t198.5 72t54.5 266v850h314zM1006 1589h-613v197h613v-197z" />
    <glyph glyph-name="umacron" unicode="&#x16b;" 
d="M1083 1010v-1010h-239l-23 139q-209 -166 -418 -166q-285 0 -284 281v756h303v-664q-2 -66 23 -92.5t99 -26.5t238 84v699h301zM915 1231h-612v196h612v-196z" />
    <glyph glyph-name="Uring" unicode="&#x16e;" horiz-adv-x="1394" 
d="M1264 1413v-850q0 -324 -124 -457t-435 -133t-441.5 133.5t-130.5 456.5v850h311v-850q0 -195 54.5 -266.5t198.5 -71.5t198.5 72t54.5 266v850h314zM699 1800q-44 0 -73.5 -29.5t-29.5 -75.5t29.5 -75t73.5 -29t74 29t30 75t-30 75.5t-74 29.5zM699 1931q99 0 171 -68.5
t72 -167t-72 -167t-172 -68.5t-169.5 67t-69.5 167t70.5 168.5t169.5 68.5z" />
    <glyph glyph-name="uring" unicode="&#x16f;" 
d="M1083 1010v-1010h-239l-23 139q-209 -166 -418 -166q-285 0 -284 281v756h303v-664q-2 -66 23 -92.5t99 -26.5t238 84v699h301zM609 1442q-44 0 -73.5 -30t-29.5 -77t29.5 -75.5t73.5 -28.5t74 28.5t30 75.5t-30 77t-74 30zM609 1102q-101 0 -170.5 66.5t-69.5 167
t70.5 169t169.5 68.5t171 -69.5t72 -168t-71 -166t-172 -67.5z" />
    <glyph glyph-name="Uhungarumlaut" unicode="&#x170;" horiz-adv-x="1394" 
d="M1264 1413v-850q0 -324 -124 -457t-435 -133t-441.5 133.5t-130.5 456.5v850h311v-850q0 -195 54.5 -266.5t198.5 -71.5t198.5 72t54.5 266v850h314zM791 1804l-312 -342l-123 99l236 378zM1180 1804l-314 -342l-121 97l234 380z" />
    <glyph glyph-name="uhungarumlaut" unicode="&#x171;" 
d="M782 1010h301v-1010h-239l-23 139q-209 -166 -418 -166q-285 0 -284 281v756h303v-664q-2 -66 23 -92.5t99 -26.5t238 84v699zM389 1104l-123 96l236 379l198 -133zM655 1200l234 379l201 -133l-314 -342z" />
    <glyph glyph-name="Uogonek" unicode="&#x172;" horiz-adv-x="1394" 
d="M1264 1413v-850q0 -305 -110 -440t-372 -150q-82 -113 -114 -185t7.5 -92t117.5 3l24 -113q-217 -74 -308 -14.5t-51 177.5t191 224q-283 12 -399.5 146.5t-116.5 443.5v850h311v-850q0 -195 54.5 -266.5t198.5 -71.5t198.5 72t54.5 266v850h314z" />
    <glyph glyph-name="uogonek" unicode="&#x173;" 
d="M403 -27q-285 0 -284 281v756h303v-664q-2 -66 23 -92.5t99 -26.5t238 84v699h301v-1010h4q-86 -117 -122 -205q-29 -61 11 -81t118 3l24 -112q-217 -74 -308 -14.5t-48 182.5q35 113 199 227h-117l-23 139q-209 -166 -418 -166z" />
    <glyph glyph-name="Wcircumflex" unicode="&#x174;" horiz-adv-x="1992" 
d="M1604 0h-299q-43 0 -74 24.5t-37 63.5l-154 924q-16 90 -24 178h-39q0 -38 -25 -180l-151 -922q-6 -39 -38 -63.5t-75 -24.5h-299q-41 0 -72.5 23.5t-40.5 62.5l-223 1327h320l137 -981q12 -92 18 -205h41q6 57 31 205l152 885q6 43 35.5 69.5t74.5 26.5h271
q43 0 72.5 -26.5t35.5 -69.5l152 -887q25 -152 28 -203h43q8 117 19 201l139 985h317l-223 -1327q-8 -39 -38.5 -62.5t-73.5 -23.5zM1380 1585l-86 -112l-286 194h-17l-293 -194l-84 118l275 271h219z" />
    <glyph glyph-name="wcircumflex" unicode="&#x175;" horiz-adv-x="1734" 
d="M1350 0h-238q-41 0 -71.5 25.5t-36.5 66.5l-103 572q-14 126 -22 170h-25l-25 -170l-100 -572q-6 -41 -36.5 -66.5t-74.5 -25.5h-233q-84 0 -104 80l-248 930h305l137 -656q20 -111 25 -166h26q4 29 13.5 84.5t13.5 81.5l102 566q14 90 105 90h213q41 0 70.5 -24.5
t35.5 -67.5l101 -564q4 -29 14 -84t14 -82h25l24 166l140 656h305l-248 -930q-20 -80 -104 -80zM1251 1212l-84 -112l-288 194h-17l-291 -194l-84 119l275 270h217z" />
    <glyph glyph-name="Ycircumflex" unicode="&#x176;" horiz-adv-x="1245" 
d="M780 0h-313v467l-467 946h326l235 -518q20 -45 53 -178h21q25 111 51 178l236 518h321l-463 -946v-467zM324 1473l-84 118l274 271h219l271 -277l-84 -112l-289 194h-17z" />
    <glyph glyph-name="ycircumflex" unicode="&#x177;" horiz-adv-x="1150" 
d="M442 0q-76 0 -98 74l-330 936h324l188 -654q18 -72 31 -151h27q22 90 41 151l186 654h324l-359 -1024q-61 -172 -191 -299t-366 -99l-24 179q123 33 192.5 85t108.5 140l4 8h-58zM283 1100l-84 119l274 270h219l273 -277l-86 -112l-287 194h-17z" />
    <glyph glyph-name="Ydieresis" unicode="&#x178;" horiz-adv-x="1245" 
d="M780 0h-313v467l-467 946h326l235 -518q20 -45 53 -178h21q25 111 51 178l236 518h321l-463 -946v-467zM856 1563h-98q-68 0 -68 67v117q0 68 68 68h98q68 0 68 -68v-117q0 -67 -68 -67zM483 1563h-100q-66 0 -66 67v117q0 68 66 68h100q68 0 68 -68v-117q0 -67 -68 -67z
" />
    <glyph glyph-name="Zacute" unicode="&#x179;" horiz-adv-x="1193" 
d="M1114 240v-240h-1032v240l672 934h-656v239h1000v-239l-672 -934h688zM524 1481l-90 129l414 305l137 -211z" />
    <glyph glyph-name="zacute" unicode="&#x17a;" horiz-adv-x="1075" 
d="M993 217v-217h-911v217l557 578h-547v215h891v-215l-555 -578h565zM461 1106l-90 131l413 303l138 -209z" />
    <glyph glyph-name="Zdotaccent" unicode="&#x17b;" horiz-adv-x="1193" 
d="M1114 240v-240h-1032v240l672 934h-656v239h1000v-239l-672 -934h688zM653 1542h-92q-86 0 -86 84v107q0 84 86 84h92q86 0 86 -84v-107q0 -84 -86 -84z" />
    <glyph glyph-name="zdotaccent" unicode="&#x17c;" horiz-adv-x="1075" 
d="M993 217v-217h-911v217l557 578h-547v215h891v-215l-555 -578h565zM590 1167h-92q-86 0 -86 84v107q0 84 86 84h92q86 0 86 -84v-107q0 -84 -86 -84z" />
    <glyph glyph-name="Zcaron" unicode="&#x17d;" horiz-adv-x="1193" 
d="M1114 240v-240h-1032v240l672 934h-656v239h1000v-239l-672 -934h688zM545 1513l-312 269l84 119l283 -162h16l283 162l84 -119l-313 -269h-125z" />
    <glyph glyph-name="zcaron" unicode="&#x17e;" horiz-adv-x="1075" 
d="M993 217v-217h-911v217l557 578h-547v215h891v-215l-555 -578h565zM481 1141l-311 268l82 119l285 -164h16l283 164l84 -119l-314 -268h-125z" />
    <glyph glyph-name="florin" unicode="&#x192;" horiz-adv-x="978" 
d="M774 1214q-70 0 -99.5 -26.5t-35.5 -102.5l-23 -254h242l-18 -204h-242l-59 -647q-27 -313 -349 -314q-162 0 -262 21l43 202h131q70 0 99.5 29t36.5 100l55 609h-197l15 194l200 8l27 297q31 311 354 312q162 0 264 -21l-45 -203h-137z" />
    <glyph glyph-name="Scommaaccent" unicode="&#x218;" horiz-adv-x="1191" 
d="M541 -106h65q53 0 73.5 -19.5t20.5 -67.5v-106q0 -166 -94 -299l-114 29q27 92 26 213q-78 0 -78 75l2 88q4 47 26 67t73 20zM88 1049q0 233 114 312t392 79t473 -56l-20 -213q-178 6 -443 7q-123 0 -164 -21.5t-41 -99.5t31 -108.5t117 -59.5l268 -92
q164 -57 231.5 -156.5t67.5 -259.5q0 -238 -114 -323t-382 -85t-514 54l19 225q436 -10 467 -10q125 0 167 26.5t42 104.5t-28.5 107.5t-104.5 54.5l-285 100q-158 57 -225.5 155.5t-67.5 258.5z" />
    <glyph glyph-name="scommaaccent" unicode="&#x219;" horiz-adv-x="1079" 
d="M506 -98h63q53 0 75 -19.5t22 -66.5v-107q-2 -166 -97 -299l-114 29q25 88 28 213q-78 0 -77 74l2 90q2 47 23.5 66.5t74.5 19.5zM76 766q0 142 97 207t351 63t449 -37l-21 -194q-258 4 -360 4t-129 -1t-54.5 -7t-33.5 -19.5t-6 -31.5t1 -26.5t5 -16t7 -11.5t11 -9
t13.5 -7t18.5 -7t20.5 -7t27 -7.5t29.5 -7.5l258 -69q135 -39 192.5 -103.5t57.5 -191.5q0 -180 -104.5 -245t-354.5 -65t-457 35l19 197q74 -4 291 -4t265 13t48 54t-9.5 49.5t-18.5 13.5t-18 10.5t-47 15t-51 14.5l-251 67q-139 41 -192.5 111.5t-53.5 212.5z" />
    <glyph glyph-name="uni021A" unicode="&#x21a;" horiz-adv-x="1230" 
d="M563 -106h66q53 0 73.5 -19.5t20.5 -67.5v-106q0 -166 -94 -299l-115 29q27 92 27 213q-78 0 -78 75l2 88q2 47 23.5 67t74.5 20zM1194 1159h-422v-1159h-313v1159h-422v254h1157v-254z" />
    <glyph glyph-name="uni021B" unicode="&#x21b;" horiz-adv-x="841" 
d="M446 -106h66q51 0 72.5 -19.5t21.5 -67.5v-106q0 -162 -94 -299l-115 29q27 92 27 213q-78 0 -78 75l2 88q2 47 23.5 67t74.5 20zM518 807v-477q0 -57 24.5 -80t86.5 -23h129l33 -211q-117 -41 -269 -41t-228.5 77t-76.5 214v541h-178v192l178 11v282h301v-282h281v-203
h-281z" />
    <glyph glyph-name="circumflex" unicode="&#x2c6;" horiz-adv-x="917" 
d="M842 1206l-84 -112l-289 192h-16l-291 -192l-84 118l274 269h219z" />
    <glyph glyph-name="caron" unicode="&#x2c7;" horiz-adv-x="917" 
d="M838 1397l-314 -269h-125l-313 269l84 121l283 -164h16l283 164z" />
    <glyph glyph-name="breve" unicode="&#x2d8;" horiz-adv-x="804" 
d="M404.5 1317q193.5 0 189.5 131l145 -21q16 -131 -77 -220t-258.5 -89t-260 89t-77.5 220l145 21q0 -131 193.5 -131z" />
    <glyph glyph-name="dotaccent" unicode="&#x2d9;" horiz-adv-x="483" 
d="M195 1440h94q84 0 84 -84v-107q0 -86 -84 -86h-94q-86 0 -86 86v107q0 84 86 84z" />
    <glyph glyph-name="ring" unicode="&#x2da;" horiz-adv-x="632" 
d="M316 1423q-44 0 -72.5 -29.5t-28.5 -76.5t29.5 -76t72.5 -29t73 29t30 76t-30 76.5t-74 29.5zM316 1554q99 0 171 -69.5t72 -167.5t-70.5 -166t-171 -68t-171 68t-70.5 167t70.5 167.5t169.5 68.5z" />
    <glyph glyph-name="ogonek" unicode="&#x2db;" horiz-adv-x="514" 
d="M289 4l121 -4q-88 -122 -120 -194t8 -91.5t118 2.5l26 -112q-150 -55 -236.5 -39t-117.5 73.5t-4 133.5q39 118 205 231z" />
    <glyph glyph-name="tilde" unicode="&#x2dc;" horiz-adv-x="901" 
d="M229 1167h-129q-23 145 28.5 221t130.5 70t182.5 -49t151.5 -50t63.5 13.5t15.5 75.5h129q23 -139 -26.5 -217t-133.5 -72q-83 6 -191 51q-108 46 -150 52t-56.5 -15t-14.5 -80z" />
    <glyph glyph-name="hungarumlaut" unicode="&#x2dd;" horiz-adv-x="1026" 
d="M532 1397l-311 -344l-123 98l236 379zM922 1397l-314 -344l-121 96l234 381z" />
    <glyph glyph-name="Delta" unicode="&#x394;" horiz-adv-x="1351" 
d="M954 233l-235 699q-10 35 -25.5 104.5t-17.5 77.5q-6 -25 -20.5 -87t-24.5 -97l-238 -697h561zM1311 0h-1272v109l481 1304h309l482 -1304v-109z" />
    <glyph glyph-name="Omega" unicode="&#x3a9;" horiz-adv-x="1472" 
d="M92 252h170q76 0 146 -27q-156 121 -220.5 247t-62.5 325q0 330 142.5 486.5t468.5 156.5t469 -158t143 -491q0 -203 -63.5 -327t-219.5 -239q80 27 143 27h172v-252h-567v238q119 96 165 208t46 332t-63.5 316t-225.5 96t-224 -96.5t-62 -320.5t46 -327.5t164 -207.5
v-238h-567v252z" />
    <glyph glyph-name="mu" unicode="&#x3bc;" horiz-adv-x="1271" 
d="M1118 1010v-1010h-235l-29 147q-190 -174 -389 -174q-45 0 -68 4q12 -55 13 -112v-254h-263v1399h304v-664q0 -104 124 -104q98 0 240 67v701h303z" />
    <glyph glyph-name="pi" unicode="&#x3c0;" horiz-adv-x="1327" 
d="M1284 795h-160v-795h-303v795h-315v-795h-301v795h-162v217h1241v-217z" />
    <glyph glyph-name="uni0401" unicode="&#x401;" horiz-adv-x="1181" 
d="M442 -6q-141 0 -225 76.5t-84 208.5v856q0 131 85 207.5t224 76.5q465 0 656 -20l-13 -232h-544q-51 0 -74 -24.5t-23 -79.5v-215h564v-225h-564v-273q0 -57 22.5 -81.5t74.5 -24.5h544l13 -230q-190 -20 -656 -20zM879 1587h-99q-68 0 -67 66v119q0 68 67 67h99
q68 0 67 -67v-119q1 -66 -67 -66zM508 1587h-100q-66 0 -66 66v119q0 68 66 67h100q66 0 65 -67v-119q1 -66 -65 -66z" />
    <glyph glyph-name="uni0402" unicode="&#x402;" horiz-adv-x="1562" 
d="M770 1159v-332q178 93 364 93t276.5 -92t90.5 -358t-142 -381.5t-401 -108.5l-28 221q145 18 202.5 73.5t57.5 187.5t-34 168t-146 36t-240 -58v-608h-313v1159h-420v254h1153v-254h-420z" />
    <glyph glyph-name="uni0403" unicode="&#x403;" horiz-adv-x="1091" 
d="M141 0v1118q0 133 84 217t213 84q442 0 627 -22l-14 -230h-486q-59 0 -84.5 -25.5t-25.5 -86.5v-1055h-314zM989 1704l-461 -223l-90 129l412 305z" />
    <glyph glyph-name="uni0404" unicode="&#x404;" 
d="M96 706.5q0 403.5 135.5 567.5t468.5 164q244 0 430 -47l-26 -234q-221 10 -383 10t-224.5 -70.5t-74.5 -250.5h573v-217h-577q8 -219 68.5 -301t213.5 -82q262 0 414 20l27 -233q-178 -57 -441 -58q-334 0 -469 164t-135 567.5z" />
    <glyph glyph-name="uni0405" unicode="&#x405;" horiz-adv-x="1191" 
d="M88 1049q0 233 114 312t392 79t473 -56l-20 -213q-178 6 -443 7q-123 0 -164 -21.5t-41 -99.5t31 -108.5t117 -59.5l268 -92q164 -57 231.5 -156.5t67.5 -259.5q0 -238 -114 -323t-382 -85t-514 54l19 225q436 -10 467 -10q125 0 167 26.5t42 104.5t-28.5 107.5
t-104.5 54.5l-285 100q-158 57 -225.5 155.5t-67.5 258.5z" />
    <glyph glyph-name="uni0406" unicode="&#x406;" horiz-adv-x="604" 
d="M457 0h-310v1413h310v-1413z" />
    <glyph glyph-name="uni0407" unicode="&#x407;" horiz-adv-x="604" 
d="M457 0h-310v1413h310v-1413zM438 1815h99q68 0 67 -68v-119q0 -68 -67 -67h-99q-68 0 -67 67v119q-1 68 67 68zM66 1815h98q68 0 67 -68v-119q0 -68 -67 -67h-98q-68 0 -68 67v119q0 68 68 68z" />
    <glyph glyph-name="uni0408" unicode="&#x408;" horiz-adv-x="757" 
d="M618 1413v-1116q0 -154 -83.5 -238t-244.5 -84t-249 41l35 209h96q135 0 135 109v1079h311z" />
    <glyph glyph-name="uni0409" unicode="&#x409;" horiz-adv-x="1998" 
d="M1227 225h192q123 0 160 42t37 176t-37 180.5t-160 46.5h-192v-445zM1227 889h192q289 0 400.5 -97.5t111.5 -355.5t-104.5 -355t-353.5 -97q-354 0 -551 16h-2v1188h-175q-98 0 -110 -119q-29 -326 -70.5 -616t-184 -379.5t-325.5 -79.5l-22 213q68 18 114.5 55
t86.5 131t61 240.5t31 300.5t12 176q18 303 332 303h557v-524z" />
    <glyph glyph-name="uni040A" unicode="&#x40a;" horiz-adv-x="1998" 
d="M1227 225h200q117 0 153 41t36 170t-36 174t-153 45h-200v-430zM1227 874h200q285 0 394.5 -95t109.5 -349t-102.5 -350t-345.5 -96q-365 0 -559 16h-6v647h-459v-647h-312v1413h312v-539h459v539h309v-539z" />
    <glyph glyph-name="uni040B" unicode="&#x40b;" horiz-adv-x="1609" 
d="M770 1159v-319q207 88 393 88t273.5 -84t87.5 -260v-584h-314v518q0 84 -32 115t-146 31t-262 -52v-612h-313v1159h-420v254h1153v-254h-420z" />
    <glyph glyph-name="uni040C" unicode="&#x40c;" horiz-adv-x="1306" 
d="M459 0h-312v1413h312v-399q0 -80 -17 -168h97q145 0 209.5 110.5t158.5 436.5q4 14 6 20h318q-115 -360 -146 -428q-72 -160 -180 -211q-51 -23 -123 -33v-8q96 -15 130 -34t56.5 -31.5t46 -44t39 -50t37 -67.5t39.5 -89t66 -192.5t72 -224.5h-326q-115 375 -156 459
q-63 129 -159 153q-37 10 -84 11h-101q16 -76 17 -136v-487zM588 1481l-90 129l413 305l138 -211z" />
    <glyph glyph-name="uni040D" unicode="&#x40d;" horiz-adv-x="1456" 
d="M1309 0h-299v844q0 94 18 190h-14q-31 -94 -80 -186l-477 -848h-310v1413h297v-829q0 -88 -16 -197h12q27 78 82 184l477 842h310v-1413zM885 1610l-88 -129l-461 223l137 211z" />
    <glyph glyph-name="uni040E" unicode="&#x40e;" horiz-adv-x="1212" 
d="M487 401q-137 0 -182 142l-291 870h320l223 -747q6 -25 37 -25h51l244 772h319l-346 -1048q-61 -186 -139 -279.5t-217 -106t-340 30.5l35 221q199 -10 253 7.5t93 117.5l16 45h-76zM609 1516q-165 0 -259 90t-78 219l144 20q0 -131 192 -131t193 131l143 -20
q16 -129 -77 -219t-258 -90z" />
    <glyph glyph-name="uni040F" unicode="&#x40f;" horiz-adv-x="1421" 
d="M1276 1413v-1413h-438l-13 -309h-213l-14 309h-451v1413h312v-1188h504v1188h313z" />
    <glyph glyph-name="uni0410" unicode="&#x410;" horiz-adv-x="1331" 
d="M842 612l-119 432q-25 102 -29 134h-55q-13 -65 -31 -134l-119 -432h353zM518 1413h295q88 0 109 -82l407 -1331h-317l-103 371h-485l-102 -371h-320l408 1331q8 37 38.5 59.5t69.5 22.5z" />
    <glyph glyph-name="uni0411" unicode="&#x411;" horiz-adv-x="1267" 
d="M459 221h215q129 0 169 39t40 161t-40 164t-169 42h-215v-406zM459 840h215q293 0 407.5 -93.5t114.5 -336.5q0 -137 -30.5 -223.5t-102.5 -130.5t-160 -59t-307 -15t-442 18h-9v1413q229 14 458 14t505 -14l-25 -239h-624v-334z" />
    <glyph glyph-name="uni0412" unicode="&#x412;" horiz-adv-x="1308" 
d="M451 219h237q131 0 176 38t45 160t-47 166t-180 46h-231v-410zM451 836h229q113 0 155 36t42 144t-44.5 143t-170.5 35l-211 2v-360zM1221 334q0 -194 -108.5 -272t-369.5 -78q-391 0 -598 16v1413q184 17 499 17t423.5 -77t108.5 -292q0 -154 -57.5 -233t-188.5 -91v-8
q158 -14 224.5 -107.5t66.5 -287.5z" />
    <glyph glyph-name="uni0413" unicode="&#x413;" horiz-adv-x="1091" 
d="M141 0v1118q0 133 84 217t213 84q442 0 627 -22l-14 -230h-486q-59 0 -84.5 -25.5t-25.5 -86.5v-1055h-314z" />
    <glyph glyph-name="uni0414" unicode="&#x414;" horiz-adv-x="1509" 
d="M967 225v963h-183q-61 0 -88.5 -27.5t-31.5 -93.5q-25 -297 -66 -487.5t-121 -354.5h490zM35 -309v534h149q145 362 185 893q10 133 98 214t231 81h580v-1188h184v-534h-221l-24 309h-936l-25 -309h-221z" />
    <glyph glyph-name="uni0415" unicode="&#x415;" horiz-adv-x="1181" 
d="M442 -6q-141 0 -225 76.5t-84 208.5v856q0 131 85 207.5t224 76.5q465 0 656 -20l-13 -232h-544q-51 0 -74 -24.5t-23 -79.5v-215h564v-225h-564v-273q0 -57 22.5 -81.5t74.5 -24.5h544l13 -230q-190 -20 -656 -20z" />
    <glyph glyph-name="uni0416" unicode="&#x416;" horiz-adv-x="1921" 
d="M1112 487v-487h-299v487q0 59 16 136h-100q-113 0 -168 -97.5t-119 -293.5t-75 -232h-328q123 399 168 494q72 158 186 206q51 23 125 33v8q-155 18 -204.5 88t-69 102t-51.5 120.5t-67 205.5l-48 156h317q111 -348 152 -428q84 -131 182 -139h100q-16 88 -16 168v399
h299v-399q0 -80 -16 -168h92q109 0 164 100.5t151 396.5q14 45 23 70h317q-113 -360 -145 -434q-70 -158 -180 -207q-49 -23 -115 -31v-8q186 -25 261 -145.5t198 -524.5q14 -41 20 -63h-328q-129 393 -163 471q-59 123 -142 143q-27 8 -59 9h-94q16 -76 16 -136z" />
    <glyph glyph-name="uni0417" unicode="&#x417;" horiz-adv-x="1157" 
d="M542 1430q270 0 376 -77t106 -292q0 -154 -57.5 -232.5t-184.5 -91.5v-8q154 -14 219.5 -107.5t65.5 -287.5t-106.5 -272t-397.5 -78t-504 61l23 215q246 -39 459 -39q121 0 162.5 38t41.5 157t-44 162t-169 47h-272v219h270q106 0 145.5 35t39.5 139t-42 139t-179 35
t-381 -27l-25 226q184 39 454 39z" />
    <glyph glyph-name="uni0418" unicode="&#x418;" horiz-adv-x="1456" 
d="M1309 0h-299v844q0 94 18 190h-14q-31 -94 -80 -186l-477 -848h-310v1413h297v-829q0 -88 -16 -197h12q27 78 82 184l477 842h310v-1413z" />
    <glyph glyph-name="uni0419" unicode="&#x419;" horiz-adv-x="1456" 
d="M1309 0h-299v844q0 94 18 190h-14q-31 -94 -80 -186l-477 -848h-310v1413h297v-829q0 -88 -16 -197h12q27 78 82 184l477 842h310v-1413zM739 1516q-166 0 -260 93t-78 224h201q-8 -168 135 -168t135 168h201q16 -131 -76 -224t-258 -93z" />
    <glyph glyph-name="uni041A" unicode="&#x41a;" horiz-adv-x="1306" 
d="M459 0h-312v1413h312v-399q0 -80 -17 -168h97q145 0 209.5 110.5t158.5 436.5q4 14 6 20h318q-115 -360 -146 -428q-72 -160 -180 -211q-51 -23 -123 -33v-8q96 -15 130 -34t56.5 -31.5t46 -44t39 -50t37 -67.5t33.5 -77q23 -52 71.5 -204.5t72.5 -224.5h-326
q-115 375 -156 459q-63 129 -159 153q-37 10 -84 11h-101q16 -76 17 -136v-487z" />
    <glyph glyph-name="uni041B" unicode="&#x41b;" horiz-adv-x="1388" 
d="M1243 1413v-1413h-313v1188h-180q-121 0 -129 -119q-27 -317 -50.5 -483t-70.5 -285q-125 -348 -469 -307l-23 242q80 14 128 46t82 122t56.5 244.5t47.5 457.5q23 307 331 307h590z" />
    <glyph glyph-name="uni041C" unicode="&#x41c;" horiz-adv-x="1871" 
d="M1282 1413h301q111 0 117 -117l53 -1296h-295l-45 1169h-37l-213 -874q-20 -100 -125 -100h-204q-104 0 -129 100l-216 874h-34l-41 -1169h-293l51 1296q4 117 117 117h301q98 0 123 -100l172 -705q8 -41 21.5 -114.5t15.5 -83.5h26q2 10 15.5 83.5t21.5 114.5l170 705
q23 100 127 100z" />
    <glyph glyph-name="uni041D" unicode="&#x41d;" horiz-adv-x="1417" 
d="M1270 1413v-1413h-314v631h-497v-631h-312v1413h312v-541h497v541h314z" />
    <glyph glyph-name="uni041E" unicode="&#x41e;" horiz-adv-x="1400" 
d="M700.5 1188q-159.5 0 -218 -100.5t-58.5 -381t58.5 -381t218 -100.5t218 100.5t58.5 381t-58.5 381t-218 100.5zM700 1440q340 0 473.5 -157t133.5 -576.5t-133.5 -576.5t-473.5 -157t-472 157t-132 576.5t132 576.5t472 157z" />
    <glyph glyph-name="uni041F" unicode="&#x41f;" horiz-adv-x="1413" 
d="M1266 1413v-1413h-312v1188h-495v-1188h-312v1413h1119z" />
    <glyph glyph-name="uni0420" unicode="&#x420;" horiz-adv-x="1261" 
d="M459 748h217q123 2 166 47t43 176t-43 176t-166 45l-217 -2v-442zM145 0v1413q190 19 512 19t431.5 -96.5t109.5 -365t-103.5 -365.5t-369.5 -97q-135 0 -266 16v-524h-314z" />
    <glyph glyph-name="uni0421" unicode="&#x421;" horiz-adv-x="1200" 
d="M96 706.5q0 403.5 133 567.5t461 164q238 0 424 -47l-27 -234q-166 10 -397 10q-154 0 -210 -97t-56 -363.5t56.5 -363.5t209.5 -97q285 0 426 18l27 -231q-184 -57 -453 -58q-328 0 -461 164t-133 567.5z" />
    <glyph glyph-name="uni0422" unicode="&#x422;" horiz-adv-x="1230" 
d="M1194 1159h-422v-1159h-313v1159h-422v254h1157v-254z" />
    <glyph glyph-name="uni0423" unicode="&#x423;" horiz-adv-x="1212" 
d="M487 401q-137 0 -182 142l-291 870h320l223 -747q6 -25 37 -25h51l244 772h319l-346 -1048q-61 -186 -139 -279.5t-217 -106t-340 30.5l35 221q199 -10 253 7.5t93 117.5l16 45h-76z" />
    <glyph glyph-name="uni0424" unicode="&#x424;" horiz-adv-x="1726" 
d="M1346 728q0 196 -69.5 273t-270.5 91v-723q201 14 270.5 88.5t69.5 270.5zM381 728q0 -198 69.5 -271.5t270.5 -87.5v723q-201 -12 -270.5 -89t-69.5 -275zM1020 1513v-184q354 -18 497.5 -152.5t143.5 -448.5t-142.5 -445t-498.5 -152v-184h-313v184
q-354 18 -497.5 150.5t-143.5 446.5t143 448.5t498 152.5v184h313z" />
    <glyph glyph-name="uni0425" unicode="&#x425;" horiz-adv-x="1312" 
d="M668 629h-25l-301 -629h-322l369 725l-340 688h320l272 -584h31l272 584h320l-340 -688l368 -725h-323z" />
    <glyph glyph-name="uni0426" unicode="&#x426;" horiz-adv-x="1458" 
d="M147 0v1413h312v-1188h471v1188h313v-1188h168v-534h-221l-25 309h-1018z" />
    <glyph glyph-name="uni0427" unicode="&#x427;" horiz-adv-x="1345" 
d="M1198 1413v-1413h-311v586q-219 -106 -417 -106t-285 82.5t-87 258.5v592h312v-524q-2 -80 32.5 -113t124.5 -33q158 0 320 64v606h311z" />
    <glyph glyph-name="uni0428" unicode="&#x428;" horiz-adv-x="1988" 
d="M1841 1413v-1413h-1694v1413h306v-1188h389v1188h305v-1188h389v1188h305z" />
    <glyph glyph-name="uni0429" unicode="&#x429;" horiz-adv-x="2045" 
d="M147 0v1413h306v-1188h385v1188h303v-1188h387v1188h303v-1188h166v-534h-219l-25 309h-1606z" />
    <glyph glyph-name="uni042A" unicode="&#x42a;" horiz-adv-x="1562" 
d="M782 225h201q123 0 161 42t38 175t-38 180.5t-161 47.5h-201v-445zM782 889h201q291 0 401.5 -98.5t110.5 -356.5t-104.5 -354t-354.5 -96q-367 0 -563 16h-4v1159h-434v254h747v-524z" />
    <glyph glyph-name="uni042B" unicode="&#x42b;" horiz-adv-x="1837" 
d="M459 225h205q125 0 161.5 42t36.5 175t-38 180.5t-160 47.5h-205v-445zM1690 1413v-1413h-312v1413h312zM459 889h205q291 0 402.5 -98.5t111.5 -356.5t-104.5 -354t-356.5 -96q-367 0 -561 16h-9v1413h312v-524z" />
    <glyph glyph-name="uni042C" unicode="&#x42c;" horiz-adv-x="1251" 
d="M459 225h209q125 0 162.5 42t37.5 175t-37.5 180.5t-162.5 47.5h-209v-445zM459 889h209q291 0 402.5 -98.5t111.5 -356.5t-104.5 -354t-356.5 -96q-371 0 -565 16h-9v1413h312v-524z" />
    <glyph glyph-name="uni042D" unicode="&#x42d;" 
d="M508 1438q334 0 469 -164t135 -567.5t-135 -567.5t-469 -164q-262 0 -440 58l26 233q152 -20 414 -20q154 0 214 82t69 301h-578v217h573q-12 180 -74.5 250.5t-224.5 70.5t-383 -10l-26 234q186 47 430 47z" />
    <glyph glyph-name="uni042E" unicode="&#x42e;" horiz-adv-x="1988" 
d="M1290 225q156 0 213.5 100.5t59.5 381.5q-2 281 -59.5 381t-213.5 100t-210 -100.5t-54 -381t54 -381t210 -100.5zM461 844h262q18 338 144.5 467t442.5 129t449 -157t133 -576.5t-133 -576.5t-453 -157t-446.5 139.5t-138.5 505.5h-260v-618h-314v1413h314v-569z" />
    <glyph glyph-name="uni042F" unicode="&#x42f;" horiz-adv-x="1300" 
d="M844 782v408l-213 2q-117 0 -159 -41t-43 -158t43 -164t159 -47h213zM1155 0h-311v543h-207q-119 0 -145 -121l-105 -422h-328l115 432q41 176 213 209l-2 12q-145 18 -207.5 107.5t-62.5 253.5q0 229 117.5 323.5t390.5 94.5q344 0 532 -19v-1413z" />
    <glyph glyph-name="uni0430" unicode="&#x430;" horiz-adv-x="1169" 
d="M377 346v-39q0 -104 119 -104t252 98v141h-273q-98 -2 -98 -96zM628 1038q228 0 325.5 -83t97.5 -287v-668h-240l-31 154q-152 -178 -374 -179q-145 0 -236.5 77t-91.5 214v103q0 121 82 188.5t227 67.5h361v45q-2 76 -36 103t-165 27t-393 -16l-27 205q273 49 501 49z
" />
    <glyph glyph-name="uni0431" unicode="&#x431;" horiz-adv-x="1214" 
d="M618 768q-118 0 -157 -58t-39 -222t41 -225.5t153.5 -61.5t153.5 60.5t41 229.5t-37.5 223t-155.5 54zM702 977q233 0 329.5 -111.5t96.5 -373.5t-111.5 -389.5t-402.5 -127.5t-363.5 95.5t-94 142.5t-34.5 144.5t-13 263.5t14 279.5t71.5 266.5t286.5 226
q76 25 257.5 47.5t283.5 75.5l55 -234q-82 -47 -164 -63.5t-174 -23.5t-155 -26q-168 -45 -219 -206q-18 -49 -35 -150h6q59 80 140 122t226 42z" />
    <glyph glyph-name="uni0432" unicode="&#x432;" horiz-adv-x="1167" 
d="M412 195h204q98 0 135 23.5t37 93.5t-38.5 95t-139.5 25h-198v-237zM412 608h198q92 0 126 23t34 83t-37 80.5t-137 20.5l-184 2v-209zM1090 236q0 -138 -96.5 -195t-325.5 -57q-346 0 -541 12v1014q173 12 453 12t376.5 -56.5t96.5 -211.5q0 -109 -52.5 -165.5
t-169.5 -64.5v-8q139 -10 199 -76t60 -204z" />
    <glyph glyph-name="uni0433" unicode="&#x433;" horiz-adv-x="983" 
d="M123 0v778q0 244 260 244q406 0 571 -27l-12 -211h-426q-49 0 -70.5 -21.5t-21.5 -70.5v-692h-301z" />
    <glyph glyph-name="uni0434" unicode="&#x434;" horiz-adv-x="1288" 
d="M795 217v588h-131q-92 0 -103 -96q-35 -301 -125 -492h359zM1239 217v-506h-199l-22 289h-756l-20 -289h-199v506h127q90 231 125 547q25 246 289 246h495v-793h160z" />
    <glyph glyph-name="uni0435" unicode="&#x435;" horiz-adv-x="1153" 
d="M686 586q57 0 75.5 26t18.5 88t-36.5 89.5t-144.5 27.5t-151 -46t-49 -185h287zM770 403h-364q14 -111 67 -148.5t193 -37.5t356 23l29 -189q-158 -76 -442 -76t-404.5 123t-120.5 412t119 408.5t383 119.5t376.5 -87t113.5 -247t-71.5 -230.5t-234.5 -70.5z" />
    <glyph glyph-name="uni0436" unicode="&#x436;" horiz-adv-x="1683" 
d="M1065 422h-100q12 -45 12 -88v-334h-266v334q0 37 10 88h-105q-84 0 -123.5 -66.5t-144.5 -355.5h-305q33 100 47 145t39 112t37 90.5t36.5 61t43 49t53.5 32.5t137 34v8q-152 18 -205 89t-137 325q-12 41 -20 64h297q84 -244 127 -313.5t131 -69.5h94q-12 57 -12 121
v262h266v-262q0 -63 -12 -121h88q90 0 131 67.5t127 315.5h299q-94 -283 -127 -344q-53 -92 -154 -119q-33 -9 -80 -15v-8q96 -13 133 -33t56.5 -33.5t50.5 -60.5t60.5 -125t90.5 -272h-305q-100 287 -141 354.5t-129 67.5z" />
    <glyph glyph-name="uni0437" unicode="&#x437;" horiz-adv-x="1058" 
d="M482 1034q242 0 349 -53t107 -221q0 -117 -49 -172.5t-166 -63.5v-8q135 -10 195.5 -74.5t60.5 -189.5q0 -168 -105.5 -222.5t-364.5 -54.5t-450 41l21 209q222 -20 370 -20t183 19.5t35 83.5t-36 84t-140 22l-291 4v190l288 4q90 0 122 20t32 78t-37 74t-186 16
t-309 -20l-21 209q150 45 392 45z" />
    <glyph glyph-name="uni0438" unicode="&#x438;" horiz-adv-x="1241" 
d="M1112 -2h-270v528q0 59 10 162h-8q-23 -74 -76 -149l-381 -539h-258v1010h268v-539q0 -57 -10 -149h6q27 68 76 137l385 551h258v-1012z" />
    <glyph glyph-name="uni0439" unicode="&#x439;" horiz-adv-x="1241" 
d="M1112 -2h-270v528q0 59 10 162h-8q-23 -74 -76 -149l-381 -539h-258v1010h268v-539q0 -57 -10 -149h6q27 68 76 137l385 551h258v-1012zM620 1141q-164 0 -260 94t-77 223h200q-8 -168 138 -168q141 0 133 168h200q16 -129 -77 -223t-257 -94z" />
    <glyph glyph-name="uni043A" unicode="&#x43a;" horiz-adv-x="1155" 
d="M512 418h-92q10 -51 10 -86v-332h-301v1010h301v-258q0 -61 -12 -123h76q117 0 161.5 66.5t116.5 314.5h307q-94 -285 -127 -344q-49 -90 -145 -117q-35 -11 -88 -19v-8q61 -8 100 -17t76 -38t57 -53q48 -61 160 -414h-315q-90 287 -133 352.5t-152 65.5z" />
    <glyph glyph-name="uni043B" unicode="&#x43b;" horiz-adv-x="1210" 
d="M1081 1010v-1010h-303v799h-131q-51 0 -74.5 -22.5t-31.5 -78.5q-43 -340 -74 -458q-61 -291 -412 -250l-30 225q84 14 119.5 33.5t52.5 75.5q39 115 65 430q25 256 281 256h538z" />
    <glyph glyph-name="uni043C" unicode="&#x43c;" horiz-adv-x="1603" 
d="M1079 1010h275q102 0 106 -105l33 -905h-276l-29 788h-29l-164 -565q-23 -94 -112 -94h-164q-94 0 -117 94l-162 565h-28l-25 -788h-274l30 905q0 104 107 105h270q94 0 113 -95l127 -446q10 -39 28 -150h23q2 10 11 65.5t18 84.5l125 446q18 95 114 95z" />
    <glyph glyph-name="uni043D" unicode="&#x43d;" horiz-adv-x="1236" 
d="M1108 1010v-1010h-297v428h-383v-428h-299v1010h299v-371h383v371h297z" />
    <glyph glyph-name="uni043E" unicode="&#x43e;" horiz-adv-x="1206" 
d="M603 811q-120 0 -161 -61.5t-41 -243.5t41 -243.5t161 -61.5t162 61.5t42 242.5t-42 243.5t-162 62.5zM604 1038q285 0 401.5 -120.5t116.5 -412.5t-116.5 -412t-401.5 -120t-402.5 120t-117.5 412t117.5 412.5t402.5 120.5z" />
    <glyph glyph-name="uni043F" unicode="&#x43f;" horiz-adv-x="1218" 
d="M1090 1012v-1012h-293v795h-373v-795h-295v1012h961z" />
    <glyph glyph-name="uni0440" unicode="&#x440;" horiz-adv-x="1234" 
d="M676 199q86 0 124 57.5t38 237.5t-35 242t-131 62t-242 -96v-462q160 -41 246 -41zM799 1036q350 0 350 -540q0 -291 -94 -407t-296 -116t-335 99q10 -104 6 -217v-244h-301v1399h246l22 -148q63 76 175 125t227 49z" />
    <glyph glyph-name="uni0441" unicode="&#x441;" horiz-adv-x="1042" 
d="M568 -25q-257 0 -370.5 120t-113.5 412t114.5 411.5t395.5 119.5q229 0 373 -63l-33 -189q-221 4 -289 5q-139 0 -191.5 -59.5t-52.5 -225.5t52.5 -225t212.5 -59t288 18l29 -197q-158 -68 -415 -68z" />
    <glyph glyph-name="uni0442" unicode="&#x442;" horiz-adv-x="1050" 
d="M1012 776h-336v-776h-299v776h-336v234h971v-234z" />
    <glyph glyph-name="uni0443" unicode="&#x443;" horiz-adv-x="1157" 
d="M446 0q-78 0 -100 74l-328 936h322l188 -654q25 -94 33 -151h25q33 117 41 151l186 654h324l-359 -1024q-80 -250 -276 -351q-152 -86 -414 -41l25 201q186 -6 265 41t126 164h-58z" />
    <glyph glyph-name="uni0444" unicode="&#x444;" horiz-adv-x="1531" 
d="M1159 505q0 161 -58 228.5t-212 81.5v-616q154 14 212 79.5t58 226.5zM371 505q0 -161 58 -226.5t212 -79.5v616q-154 -14 -212 -81.5t-58 -228.5zM901 1434v-400q295 -20 421 -143t126 -386t-126 -384t-421 -141v-369h-272v369q-295 20 -421 141t-126 384t126 386
t421 143v400h272z" />
    <glyph glyph-name="uni0445" unicode="&#x445;" horiz-adv-x="1159" 
d="M586 424h-13l-239 -424h-311l311 518l-287 492h309l215 -389h19l215 389h309l-287 -492l310 -518h-312z" />
    <glyph glyph-name="uni0446" unicode="&#x446;" horiz-adv-x="1280" 
d="M1231 217v-506h-201l-22 289h-879v1010h299v-793h350v793h299v-793h154z" />
    <glyph glyph-name="uni0447" unicode="&#x447;" horiz-adv-x="1161" 
d="M1028 1010v-1010h-299v377q-174 -59 -340 -60q-301 0 -301 232v461h299v-367q0 -53 23.5 -74.5t111.5 -21.5t207 43v420h299z" />
    <glyph glyph-name="uni0448" unicode="&#x448;" horiz-adv-x="1712" 
d="M1583 1010v-1010h-1454v1010h291v-793h303v793h266v-793h303v793h291z" />
    <glyph glyph-name="uni0449" unicode="&#x449;" horiz-adv-x="1785" 
d="M1735 217v-506h-199l-25 289h-1382v1010h291v-793h301v793h268v-793h301v793h293v-793h152z" />
    <glyph glyph-name="uni044A" unicode="&#x44a;" horiz-adv-x="1339" 
d="M668 201h149q92 0 124 26.5t32 106.5t-32 107.5t-124 27.5h-149v-268zM668 659h149q264 0 362.5 -70.5t98.5 -262.5t-95.5 -265t-316.5 -73q-311 0 -485 12h-4v786h-338v224h629v-351z" />
    <glyph glyph-name="uni044B" unicode="&#x44b;" horiz-adv-x="1595" 
d="M420 201h151q94 0 126 25.5t32 107.5t-31.5 108.5t-126.5 26.5h-151v-268zM1466 1010v-1010h-303v1010h303zM420 659h151q266 0 364.5 -70.5t98.5 -262.5t-94 -265t-315 -73q-313 0 -488 12h-8v1010h291v-351z" />
    <glyph glyph-name="uni044C" unicode="&#x44c;" horiz-adv-x="1099" 
d="M420 201h155q94 0 126 25.5t32 107.5t-31.5 108.5t-126.5 26.5h-155v-268zM420 659h155q266 0 364.5 -70.5t98.5 -262.5t-95 -265t-316 -73q-315 0 -490 12h-8v1010h291v-351z" />
    <glyph glyph-name="uni044D" unicode="&#x44d;" horiz-adv-x="1093" 
d="M463 1032q303 0 425 -117.5t122 -411.5t-123 -411t-424 -117q-240 0 -397 54l24 196q188 -10 346 -10t208 40t58 165h-507v186h505q-14 111 -65 150.5t-172 37.5l-363 -6l-24 193q154 51 387 51z" />
    <glyph glyph-name="uni044E" unicode="&#x44e;" horiz-adv-x="1701" 
d="M1102 217q119 0 160 58.5t41 233.5t-41 233.5t-160 58.5t-158 -58.5t-39 -233.5t39 -233.5t158 -58.5zM430 625h199q18 238 124.5 325.5t372.5 87.5t378 -110.5t112 -419.5t-113 -418.5t-381 -109.5t-374.5 92t-120.5 340h-197v-412h-301v1010h301v-385z" />
    <glyph glyph-name="uni044F" unicode="&#x44f;" horiz-adv-x="1155" 
d="M733 543v264h-186q-90 0 -117 -23.5t-27 -104.5t27 -108.5t117 -27.5h186zM109 713q0 178 90 247.5t342 69.5q340 0 487 -14v-1016h-295v344h-186q-102 0 -117 -74l-68 -270h-311l86 313q29 101 193 117v10q-221 41 -221 273z" />
    <glyph glyph-name="uni0451" unicode="&#x451;" horiz-adv-x="1153" 
d="M686 586q57 0 75.5 26t18.5 88t-36.5 89.5t-144.5 27.5t-151 -46t-49 -185h287zM770 403h-364q14 -111 67 -148.5t193 -37.5t356 23l29 -189q-158 -76 -442 -76t-404.5 123t-120.5 412t119 408.5t383 119.5t376.5 -87t113.5 -247t-71.5 -230.5t-234.5 -70.5zM838 1188
h-101q-68 0 -67 67v119q0 68 67 68h101q66 0 65 -68v-119q1 -67 -65 -67zM465 1188h-100q-66 0 -66 67v119q0 68 66 68h100q66 0 65 -68v-119q1 -67 -65 -67z" />
    <glyph glyph-name="uni0452" unicode="&#x452;" horiz-adv-x="1241" 
d="M479 983v-92q0 -96 -14 -193q199 147 405 148q287 0 287 -281v-565h-305v473q0 63 -25.5 87t-111.5 24t-238 -72v-512h-301v983h-137v147h137v304h301v-304h352v-147h-350z" />
    <glyph glyph-name="uni0453" unicode="&#x453;" horiz-adv-x="983" 
d="M123 0v778q0 244 260 244q406 0 571 -27l-12 -211h-426q-49 0 -70.5 -21.5t-21.5 -70.5v-692h-301zM920 1331l-463 -225l-88 131l411 303z" />
    <glyph glyph-name="uni0454" unicode="&#x454;" horiz-adv-x="1093" 
d="M84 503q0 294 122 411.5t425 117.5q242 0 389 -51l-27 -193q-239 4 -361 6t-173 -37.5t-64 -150.5h506v-186h-510q10 -125 61.5 -165t209.5 -40t342 10l24 -196q-158 -53 -397 -54q-301 0 -424 117t-123 411z" />
    <glyph glyph-name="uni0455" unicode="&#x455;" horiz-adv-x="1085" 
d="M80 766q0 142 96 207t349 63t452 -37l-21 -194q-262 4 -362 4t-128 -1t-55.5 -7t-33.5 -19.5t-6 -31.5t1 -26.5t5 -16t7 -11.5t11 -9t13.5 -7t18.5 -7t20.5 -7t27 -7.5t29.5 -7.5l258 -69q135 -39 192.5 -103.5t57.5 -191.5q0 -180 -104.5 -245t-354.5 -65t-457 35
l19 197q74 -4 291 -4t265 13t48 54t-9.5 49.5t-18.5 13.5t-18 10.5t-47 15t-51 14.5l-251 67q-137 41 -190.5 111.5t-53.5 212.5z" />
    <glyph glyph-name="uni0456" unicode="&#x456;" horiz-adv-x="575" 
d="M438 0h-301v1010h301v-1010zM221 1456h133q88 0 88 -88v-111q0 -88 -88 -88h-133q-88 0 -88 88v111q0 88 88 88z" />
    <glyph glyph-name="uni0457" unicode="&#x457;" horiz-adv-x="577" 
d="M440 0h-303v1010h303v-1010zM424 1442h100q66 0 66 -68v-119q0 -68 -66 -67h-100q-68 0 -68 67v119q0 68 68 68zM51 1442h101q66 0 65 -68v-119q0 -68 -65 -67h-101q-66 0 -65 67v119q-1 68 65 68z" />
    <glyph glyph-name="uni0458" unicode="&#x458;" horiz-adv-x="577" 
d="M440 1010v-963q0 -141 -69.5 -263t-190.5 -187l-166 133q123 139 123 317v963h303zM219 1464h135q88 0 88 -88v-110q0 -88 -88 -88h-135q-88 0 -88 88v110q0 88 88 88z" />
    <glyph glyph-name="uni0459" unicode="&#x459;" horiz-adv-x="1691" 
d="M1030 197h146q94 0 125.5 26.5t31.5 107.5t-31.5 108.5t-125.5 27.5h-146v-270zM1030 657h146q260 0 357 -71.5t97 -262.5t-93 -263t-331 -72t-452 12h-4v811h-101q-51 0 -72.5 -19.5t-27.5 -70.5q-41 -355 -88 -495t-151.5 -197.5t-246.5 -36.5l-20 207q41 8 64.5 15
t53 32.5t46.5 66.5q39 94 82 463q25 233 266 234h475v-353z" />
    <glyph glyph-name="uni045A" unicode="&#x45a;" horiz-adv-x="1689" 
d="M1028 197h156q88 0 118.5 26.5t30.5 103.5t-29.5 103.5t-119.5 26.5h-156v-260zM1028 643h156q256 0 350 -67.5t94 -255.5t-91 -260t-306 -72q-309 0 -481 12h-5v449h-339v-449h-277v1010h277v-365h339v365h283v-367z" />
    <glyph glyph-name="uni045B" unicode="&#x45b;" horiz-adv-x="1241" 
d="M479 983v-92q0 -96 -14 -193q199 147 405 148q283 0 287 -281v-518q0 -141 -67.5 -263t-184.5 -187l-170 133q117 135 117 317v426q0 61 -26.5 86t-111.5 25t-237 -72v-512h-301v983h-137v147h137v304h301v-304h352v-147h-350z" />
    <glyph glyph-name="uni045C" unicode="&#x45c;" horiz-adv-x="1155" 
d="M512 418h-92q10 -51 10 -86v-332h-301v1010h301v-258q0 -61 -12 -123h76q117 0 161.5 66.5t116.5 314.5h307q-94 -285 -127 -344q-49 -90 -145 -117q-35 -11 -88 -19v-8q61 -8 100 -17t76 -38t71 -71.5t146 -395.5h-315q-90 287 -133 352.5t-152 65.5zM518 1106l-90 131
l412 303l139 -209z" />
    <glyph glyph-name="uni045D" unicode="&#x45d;" horiz-adv-x="1241" 
d="M1112 -2h-270v528q0 59 10 162h-8q-23 -74 -76 -149l-381 -539h-258v1010h268v-539q0 -57 -10 -149h6q27 68 76 137l385 551h258v-1012zM766 1237l-90 -131l-461 225l139 209z" />
    <glyph glyph-name="uni045E" unicode="&#x45e;" horiz-adv-x="1157" 
d="M446 0q-78 0 -100 74l-328 936h322l188 -654q25 -94 33 -151h25q33 117 41 151l186 654h324l-359 -1024q-80 -250 -276 -351q-152 -86 -414 -41l25 201q186 -6 265 41t126 164h-58zM575.5 1143q-163.5 0 -259 93t-78.5 222h200q-8 -168 136 -168t135 168h200
q16 -129 -77 -222t-256.5 -93z" />
    <glyph glyph-name="uni045F" unicode="&#x45f;" horiz-adv-x="1230" 
d="M1102 1010v-1010h-367l-20 -334h-201l-22 334h-363v1010h301v-793h373v793h299z" />
    <glyph glyph-name="uni0490" unicode="&#x490;" horiz-adv-x="1101" 
d="M565 1167q-59 0 -84.5 -25.5t-25.5 -86.5v-1055h-314v1118q0 133 84 217t213 84q272 0 404 -8l28 313h205v-340l-14 -217h-496z" />
    <glyph glyph-name="uni0491" unicode="&#x491;" horiz-adv-x="985" 
d="M956 1307v-312l-14 -211h-424q-51 0 -72.5 -21.5t-21.5 -70.5v-692h-299v778q0 244 258 244q236 0 350 -6l27 291h196z" />
    <glyph glyph-name="uni04B0" unicode="&#x4b0;" horiz-adv-x="1261" 
d="M1075 426h-287v-426h-311v426h-289v166h228l-406 821h326l233 -518q20 -45 54 -178h20q33 133 53 178l234 518h323l-403 -821h225v-166z" />
    <glyph glyph-name="uni04B1" unicode="&#x4b1;" horiz-adv-x="1261" 
d="M1075 197v-185h-287v-401h-313v401h-287v185h226l-402 813h324l233 -508q21 -53 35 -108.5t19 -71.5h18q35 137 53 180l232 508h325l-403 -813h227z" />
    <glyph glyph-name="uni04B6" unicode="&#x4b6;" horiz-adv-x="1421" 
d="M1376 209v-518h-219l-27 309h-245v580q-221 -100 -417 -100t-283 82.5t-87 258.5v592h314v-524q-4 -82 31.5 -115t158.5 -33t283 64v608h313v-1204h178z" />
    <glyph glyph-name="uni04B7" unicode="&#x4b7;" horiz-adv-x="1228" 
d="M1180 217v-506h-201l-23 289h-231v377q-174 -59 -338 -60q-299 0 -299 232v461h299v-367q0 -53 23.5 -74.5t109.5 -21.5t205 43v420h299v-793h156z" />
    <glyph glyph-name="uni04BA" unicode="&#x4ba;" horiz-adv-x="1345" 
d="M459 1413v-579q219 100 417 100t285.5 -83t87.5 -259v-592h-313v524q2 82 -34 115t-128 33q-160 0 -315 -64v-608h-312v1413h312z" />
    <glyph glyph-name="uni04C0" unicode="&#x4c0;" horiz-adv-x="606" 
d="M459 0h-312v1413h312v-1413z" />
    <glyph glyph-name="Wgrave" unicode="&#x1e80;" horiz-adv-x="1992" 
d="M1604 0h-299q-43 0 -74 24.5t-37 63.5l-154 924q-16 90 -24 178h-39q0 -38 -25 -180l-151 -922q-6 -39 -38 -63.5t-75 -24.5h-299q-41 0 -72.5 23.5t-40.5 62.5l-223 1327h320l137 -981q12 -92 18 -205h41q6 57 31 205l152 885q6 43 35.5 69.5t74.5 26.5h271
q43 0 72.5 -26.5t35.5 -69.5l152 -887q25 -152 28 -203h43q8 117 19 201l139 985h317l-223 -1327q-8 -39 -38.5 -62.5t-73.5 -23.5zM1145 1610l-90 -131l-461 223l139 211z" />
    <glyph glyph-name="wgrave" unicode="&#x1e81;" horiz-adv-x="1734" 
d="M1350 0h-238q-41 0 -71.5 25.5t-36.5 66.5l-103 572q-14 126 -22 170h-25l-25 -170l-100 -572q-6 -41 -36.5 -66.5t-74.5 -25.5h-233q-84 0 -104 80l-248 930h305l137 -656q20 -111 25 -166h26q4 29 13.5 84.5t13.5 81.5l102 566q14 90 105 90h213q41 0 70.5 -24.5
t35.5 -67.5l101 -564q4 -29 14 -84t14 -82h25l24 166l140 656h305l-248 -930q-20 -80 -104 -80zM1016 1237l-88 -131l-461 225l137 209z" />
    <glyph glyph-name="Wacute" unicode="&#x1e82;" horiz-adv-x="1992" 
d="M1604 0h-299q-43 0 -74 24.5t-37 63.5l-154 924q-16 90 -24 178h-39q0 -38 -25 -180l-151 -922q-6 -39 -38 -63.5t-75 -24.5h-299q-41 0 -72.5 23.5t-40.5 62.5l-223 1327h320l137 -981q12 -92 18 -205h41q6 57 31 205l152 885q6 43 35.5 69.5t74.5 26.5h271
q43 0 72.5 -26.5t35.5 -69.5l152 -887q25 -152 28 -203h43q8 117 19 201l139 985h317l-223 -1327q-8 -39 -38.5 -62.5t-73.5 -23.5zM1376 1702l-461 -223l-88 131l412 303z" />
    <glyph glyph-name="wacute" unicode="&#x1e83;" horiz-adv-x="1734" 
d="M1350 0h-238q-41 0 -71.5 25.5t-36.5 66.5l-103 572q-14 126 -22 170h-25l-25 -170l-100 -572q-6 -41 -36.5 -66.5t-74.5 -25.5h-233q-84 0 -104 80l-248 930h305l137 -656q20 -111 25 -166h26q4 29 13.5 84.5t13.5 81.5l102 566q14 90 105 90h213q41 0 70.5 -24.5
t35.5 -67.5l101 -564q4 -29 14 -84t14 -82h25l24 166l140 656h305l-248 -930q-20 -80 -104 -80zM1249 1331l-461 -225l-90 131l412 303z" />
    <glyph glyph-name="Wdieresis" unicode="&#x1e84;" horiz-adv-x="1992" 
d="M1604 0h-299q-43 0 -74 24.5t-37 63.5l-154 924q-16 90 -24 178h-39q0 -38 -25 -180l-151 -922q-6 -39 -38 -63.5t-75 -24.5h-299q-41 0 -72.5 23.5t-40.5 62.5l-223 1327h320l137 -981q12 -92 18 -205h41q6 57 31 205l152 885q6 43 35.5 69.5t74.5 26.5h271
q43 0 72.5 -26.5t35.5 -69.5l152 -887q25 -152 28 -203h43q8 117 19 201l139 985h317l-223 -1327q-8 -39 -38.5 -62.5t-73.5 -23.5zM1133 1815h100q68 0 67 -68v-119q0 -68 -67 -67h-100q-68 0 -68 67v119q0 68 68 68zM760 1815h100q66 0 66 -68v-119q0 -68 -66 -67h-100
q-66 0 -66 67v119q0 68 66 68z" />
    <glyph glyph-name="wdieresis" unicode="&#x1e85;" horiz-adv-x="1734" 
d="M1350 0h-238q-41 0 -71.5 25.5t-36.5 66.5l-103 572q-14 126 -22 170h-25l-25 -170l-100 -572q-6 -41 -36.5 -66.5t-74.5 -25.5h-233q-84 0 -104 80l-248 930h305l137 -656q20 -111 25 -166h26q4 29 13.5 84.5t13.5 81.5l102 566q14 90 105 90h213q41 0 70.5 -24.5
t35.5 -67.5l101 -564q4 -29 14 -84t14 -82h25l24 166l140 656h305l-248 -930q-20 -80 -104 -80zM1006 1442h98q68 0 67 -68v-119q0 -68 -67 -67h-98q-68 0 -68 67v119q0 68 68 68zM631 1442h100q68 0 68 -68v-119q0 -68 -68 -67h-100q-66 0 -66 67v119q0 68 66 68z" />
    <glyph glyph-name="Ygrave" unicode="&#x1ef2;" horiz-adv-x="1245" 
d="M780 0h-313v467l-467 946h326l235 -518q20 -45 53 -178h21q25 111 51 178l236 518h321l-463 -946v-467zM680 1481l-461 223l137 211l414 -305z" />
    <glyph glyph-name="ygrave" unicode="&#x1ef3;" horiz-adv-x="1150" 
d="M442 0q-76 0 -98 74l-330 936h324l188 -654q18 -72 31 -151h27q22 90 41 151l186 654h324l-359 -1024q-61 -172 -191 -299t-366 -99l-24 179q123 33 192.5 85t108.5 140l4 8h-58zM639 1106l-461 225l139 209l412 -303z" />
    <glyph glyph-name="endash" unicode="&#x2013;" horiz-adv-x="1148" 
d="M1030 422h-911v199h911v-199z" />
    <glyph glyph-name="emdash" unicode="&#x2014;" horiz-adv-x="1755" 
d="M1636 422h-1517v199h1517v-199z" />
    <glyph glyph-name="quoteleft" unicode="&#x2018;" horiz-adv-x="456" 
d="M264 922h-67q-57 0 -79 21.5t-22 74.5v121q0 188 101 338l118 -33q-29 -113 -28 -240q82 0 82 -86l-2 -100q-4 -53 -26 -74.5t-77 -21.5z" />
    <glyph glyph-name="quoteright" unicode="&#x2019;" horiz-adv-x="450" 
d="M190 1462h68q57 0 78.5 -21.5t21.5 -76.5v-119q-2 -186 -100 -340l-119 35q25 98 29 240q-82 0 -82 84l2 100q2 55 24.5 76.5t77.5 21.5z" />
    <glyph glyph-name="quotesinglbase" unicode="&#x201a;" horiz-adv-x="479" 
d="M207 295h69q55 0 77 -21.5t22 -78.5v-125q0 -195 -99 -353l-120 35q29 115 28 250q-78 0 -82 88l2 105q4 57 26 78.5t77 21.5z" />
    <glyph glyph-name="quotedblleft" unicode="&#x201c;" horiz-adv-x="823" 
d="M631 922h-68q-55 0 -76.5 21.5t-23.5 74.5v121q2 188 100 338l121 -33q-29 -102 -29 -240q78 0 82 -86l-4 -100q-2 -53 -24.5 -74.5t-77.5 -21.5zM264 922h-67q-57 0 -79 21.5t-22 74.5v121q0 188 101 338l118 -33q-29 -113 -28 -240q82 0 82 -86l-2 -100
q-4 -53 -26 -74.5t-77 -21.5z" />
    <glyph glyph-name="quotedblright" unicode="&#x201d;" horiz-adv-x="817" 
d="M557 1462h70q55 0 76.5 -21.5t21.5 -76.5v-119q0 -186 -98 -340l-121 35q29 113 29 240q-78 0 -82 84l2 100q2 55 25.5 76.5t76.5 21.5zM190 1462h68q57 0 78.5 -21.5t21.5 -76.5v-119q-2 -186 -100 -340l-119 35q25 98 29 240q-82 0 -82 84l2 100q2 55 24.5 76.5
t77.5 21.5z" />
    <glyph glyph-name="quotedblbase" unicode="&#x201e;" horiz-adv-x="845" 
d="M573 270h70q55 0 76.5 -20.5t21.5 -75.5v-119q0 -186 -98 -340l-121 35q29 113 29 240q-78 0 -82 84l2 100q2 55 24.5 75.5t77.5 20.5zM207 270h67q57 0 79 -20.5t22 -75.5v-119q-2 -186 -101 -340l-118 35q25 98 28 240q-82 0 -82 84l2 100q2 55 25 75.5t78 20.5z" />
    <glyph glyph-name="dagger" unicode="&#x2020;" horiz-adv-x="964" 
d="M899 1010v-230l-264 33v197h264zM66 1010h264v-197l-264 -33v230zM608 -225h-252l15 1067v151l-15 422h252l-14 -422v-151z" />
    <glyph glyph-name="daggerdbl" unicode="&#x2021;" horiz-adv-x="1040" 
d="M938 180h-264v197l264 33v-230zM367 180h-265v230l265 -33v-197zM674 1010h264v-230l-264 33v197zM102 1010h265v-197l-265 -33v230zM631 1008v-818l16 -415h-254l15 415v818l-15 407h254z" />
    <glyph glyph-name="bullet" unicode="&#x2022;" horiz-adv-x="761" 
d="M373 778h28q119 0 165 -46t46 -163v-30q0 -125 -46 -173.5t-165 -48.5h-28q-127 0 -174 48.5t-47 173.5v30q0 117 48 163t173 46z" />
    <glyph glyph-name="ellipsis" unicode="&#x2026;" horiz-adv-x="1828" 
d="M1526 309h82q59 0 82.5 -22.5t23.5 -81.5v-99q0 -59 -23.5 -82.5t-82.5 -23.5h-82q-59 0 -83 23.5t-24 82.5v99q0 59 24 81.5t83 22.5zM862 309h82q59 0 83 -22.5t24 -81.5v-99q0 -59 -23.5 -82.5t-83.5 -23.5h-82q-59 0 -82.5 23.5t-23.5 82.5v99q0 59 23.5 81.5
t82.5 22.5zM199 309h82q59 0 82.5 -22.5t23.5 -81.5v-99q0 -59 -23.5 -82.5t-82.5 -23.5h-82q-59 0 -82 23.5t-23 82.5v99q0 59 23 81.5t82 22.5z" />
    <glyph glyph-name="perthousand" unicode="&#x2030;" horiz-adv-x="2652" 
d="M2228 647q-76 0 -101.5 -49t-25.5 -200.5t25.5 -202t101.5 -50.5t101.5 49.5t25.5 203t-25.5 201.5t-101.5 48zM1435.5 647q-75.5 0 -101 -48t-25.5 -202t25.5 -203t101 -49t101.5 49.5t26 201.5t-26 201.5t-101.5 49.5zM2228.5 817q194.5 0 272 -93t77.5 -328
t-77.5 -328t-272 -93t-272.5 93.5t-78 327.5t78 327.5t272.5 93.5zM1437 817q196 0 273.5 -93t77.5 -328t-78 -328t-274 -93t-272.5 93.5t-76.5 327.5t77 327.5t273 93.5zM420 1272q-76 0 -101.5 -49t-25.5 -203t24.5 -203t101.5 -49t102.5 48t25.5 203t-25.5 204t-101.5 49
zM600 0h-194l847 1413h193zM421 1440q196 0 273.5 -92.5t77.5 -326.5t-78 -327.5t-274 -93.5t-273 93t-77 328t77.5 327t273.5 92z" />
    <glyph glyph-name="guilsinglleft" unicode="&#x2039;" horiz-adv-x="636" 
d="M553 850l-215 -336l217 -346l-160 -100l-325 413v66l323 405z" />
    <glyph glyph-name="guilsinglright" unicode="&#x203a;" horiz-adv-x="638" 
d="M569 547v-66l-327 -413l-160 100l219 346l-217 336l158 102z" />
    <glyph glyph-name="fraction" unicode="&#x2044;" horiz-adv-x="327" 
d="M-164 0h-194l847 1413h195z" />
    <glyph glyph-name="Euro" unicode="&#x20ac;" horiz-adv-x="1308" 
d="M80 483v193h891l-19 -193h-385q23 -121 82.5 -179t169.5 -64q180 -19 385 18l25 -225q-168 -57 -387 -58q-283 0 -425.5 124t-178.5 384h-158zM82 754v194h156q39 252 181 371t423 119q190 0 356 -47l-27 -228q-223 29 -352 11q-102 -10 -161.5 -63.5t-86.5 -162.5h457
l-20 -194h-926z" />
    <glyph glyph-name="trademark" unicode="&#x2122;" horiz-adv-x="2007" 
d="M1450 762h-129q-66 0 -82 63l-115 443h-20l-25 -621h-192l28 703q4 76 74 75h197q63 0 80 -65l92 -352q4 -18 10 -56.5t10 -56.5h15q11 76 22 115l88 350q12 66 80 65h201q70 0 76 -75l26 -703h-192l-27 621h-20l-115 -443q-14 -63 -82 -63zM811 1425v-163h-244v-615
h-209v615h-243v163h696z" />
    <glyph glyph-name="partialdiff" unicode="&#x2202;" horiz-adv-x="1206" 
d="M567 219q125 0 173 103.5t65 328.5q-104 49 -205 49q-203 0 -217 -221q-17 -260 184 -260zM240 1229v211q252 6 412.5 -21.5t274 -110.5t156.5 -232.5t33 -383.5q-16 -379 -150.5 -548t-410.5 -169q-141 0 -240.5 45.5t-172 156.5t-60.5 305q12 193 121.5 321.5
t322.5 126.5q174 0 287 -105q2 160 -43 243t-167.5 122t-362.5 39z" />
    <glyph glyph-name="emptyset" unicode="&#x2205;" horiz-adv-x="1402" 
d="M735 350h-80q-14 0 -14 -16v-76q0 -14 14 -14h80q16 0 17 14v76q-1 16 -17 16zM639 494h111q0 72 29.5 132t66.5 95t66.5 89t29.5 116q0 190 -240 190q-104 0 -249 -22l6 -93q123 19 251 19t128 -94q0 -77 -69 -147t-99.5 -137.5t-30.5 -147.5zM702.5 1296
q247.5 0 422.5 -175t175 -422.5t-175 -424t-422.5 -176.5t-424 176.5t-176.5 424t176.5 422.5t424 175z" />
    <glyph glyph-name="product" unicode="&#x220f;" horiz-adv-x="1464" 
d="M1399 1184h-178v-1383h-301v1383h-375v-1383h-301v1383h-178v229h1333v-229z" />
    <glyph glyph-name="summation" unicode="&#x2211;" horiz-adv-x="1220" 
d="M1118 1188h-669l290 -504l-319 -737h719v-226h-1055v226l319 737l-294 504v225h1009v-225z" />
    <glyph glyph-name="minus" unicode="&#x2212;" horiz-adv-x="1185" 
d="M1063 494h-940v215h940v-215z" />
    <glyph glyph-name="radical" unicode="&#x221a;" horiz-adv-x="1183" 
d="M678 0h-356q-23 0 -27 16l-256 994h244l202 -815h27l406 1599h245l-458 -1778q-6 -16 -27 -16z" />
    <glyph glyph-name="infinity" unicode="&#x221e;" horiz-adv-x="1572" 
d="M1123 512q126 0 126 113q0 106 -125 106q-74 0 -118.5 -29.5t-96.5 -89.5q88 -100 214 -100zM459 512q104 0 207 109q-47 57 -92.5 83.5t-120.5 26.5q-129 0 -129 -106q0 -113 135 -113zM1182 928q127 0 214 -76t87 -222t-94.5 -229.5t-235.5 -83.5q-195 0 -365 166
q-184 -166 -376 -166q-135 0 -228.5 84.5t-93.5 230.5t89 221t229 75q201 0 380 -176q199 176 394 176z" />
    <glyph glyph-name="integral" unicode="&#x222b;" horiz-adv-x="737" 
d="M434 1462q170 0 248 -8l-18 -217h-127q-49 0 -68.5 -22.5t-17.5 -81.5l100 -1315q10 -141 -49.5 -207t-225.5 -66t-221 9l19 217h121q53 0 72.5 25.5t15.5 88.5l-97 1305q-8 131 59.5 201.5t188.5 70.5z" />
    <glyph glyph-name="approxequal" unicode="&#x2248;" horiz-adv-x="1189" 
d="M319 242h-188q-31 160 35.5 237.5t200.5 69.5q57 -4 215 -51.5t210 -51.5t63 14.5t11 76.5h191q31 -150 -29.5 -228t-206.5 -73q-63 2 -221 50t-207 51t-61.5 -16.5t-12.5 -78.5zM319 645h-188q-31 158 35.5 235.5t200.5 69.5q55 -4 214 -51t211 -50t63 15.5t11 75.5h191
q31 -152 -29.5 -229.5t-206.5 -73.5q-63 2 -221 50t-207 51t-61.5 -16.5t-12.5 -76.5z" />
    <glyph glyph-name="notequal" unicode="&#x2260;" horiz-adv-x="1259" 
d="M160 498h940v-215h-506l-98 -277l-189 64l78 213h-225v215zM1100 934v-215h-940v215h461l98 274l182 -65l-72 -209h271z" />
    <glyph glyph-name="lessequal" unicode="&#x2264;" horiz-adv-x="1140" 
d="M1010 104h-901v226h901v-226zM1004 915l-615 -143l615 -135v-236l-873 254v234l873 262v-236z" />
    <glyph glyph-name="greaterequal" unicode="&#x2265;" horiz-adv-x="1140" 
d="M1032 104h-901v226h901v-226zM1010 889v-234l-873 -254v236l615 135l-615 143v236z" />
    <glyph glyph-name="lozenge" unicode="&#x25ca;" horiz-adv-x="1167" 
d="M293 709l293 -414l288 414l-288 409zM604 1413l508 -684q10 -20 0 -41l-508 -688q-18 -27 -39 0l-510 688q-10 20 0 41l510 684q21 27 39 0z" />
    <glyph glyph-name="fi" unicode="&#xfb01;" horiz-adv-x="1366" 
d="M1014 1464h133q90 0 90 -88v-110q0 -88 -90 -88h-133q-88 0 -88 88v110q0 88 88 88zM1233 1010v-1010h-303v807h-412v-807h-303v807h-176v192l176 11v135q0 330 332 330q168 0 270 -21v-201h-164q-76 0 -105.5 -32.5t-29.5 -114.5v-96h715z" />
    <glyph glyph-name="fl" unicode="&#xfb02;" horiz-adv-x="1476" 
d="M1244 -25q-146 0 -222 70t-76 193v1019h-297q-76 0 -104.5 -33.5t-28.5 -117.5v-96h254v-203h-254v-807h-303v807h-176v192l176 11v135q0 160 78 246t252 84q508 0 704 -37v-1125q0 -104 109 -104h76l34 -193q-76 -41 -222 -41z" />
    <glyph glyph-name="brevecy" horiz-adv-x="804" 
d="M403.5 1118q-163.5 0 -259 94.5t-78.5 223.5h202q-8 -168 136.5 -168t132.5 168h202q16 -131 -78 -224.5t-257.5 -93.5z" />
    </font>
</defs>
</svg>
